<svg width="428" height="926" viewBox="0 0 428 926" fill="none" xmlns="http://www.w3.org/2000/svg">
<rect width="428" height="926" fill="#6B6B6B"/>
<path d="M26 58H403V871H26V58Z" fill="#1E1E1E"/>
<rect x="26" y="805" width="377" height="66" fill="#ACACAC"/>
<rect x="55" y="814" width="51" height="48" fill="#D9D9D9"/>
<rect x="122" y="814" width="51" height="48" fill="#D9D9D9"/>
<rect x="189" y="814" width="51" height="48" fill="#D9D9D9"/>
<rect x="256" y="814" width="51" height="48" fill="#D9D9D9"/>
<rect x="323" y="814" width="51" height="48" fill="#D9D9D9"/>
<rect x="49" y="108" width="170" height="42" fill="#ACACAC"/>
<rect x="73" y="197" width="58" height="10" fill="#ACACAC"/>
<rect x="73" y="215" width="282" height="26" fill="#ACACAC"/>
<rect x="73" y="249" width="282" height="26" fill="#ACACAC"/>
<rect x="86" y="256" width="59" height="11" fill="#D9D9D9"/>
<rect x="73" y="283" width="282" height="26" fill="#ACACAC"/>
<rect x="86" y="290" width="59" height="11" fill="#D9D9D9"/>
<rect x="69" y="368" width="58" height="10" fill="#ACACAC"/>
<rect x="69" y="478" width="58" height="10" fill="#ACACAC"/>
<rect x="69" y="384" width="43" height="74" fill="#D9D9D9"/>
<line x1="68.5677" y1="457.749" x2="111.568" y2="383.749" stroke="black"/>
<line x1="69.4323" y1="384.749" x2="112.432" y2="458.749" stroke="black"/>
<rect x="115" y="384.5" width="246" height="74" fill="#D9D9D9"/>
<rect x="69" y="496" width="43" height="74" fill="#D9D9D9"/>
<line x1="68.5677" y1="569.749" x2="111.568" y2="495.749" stroke="black"/>
<line x1="69.4323" y1="496.749" x2="112.432" y2="570.749" stroke="black"/>
<rect x="115" y="496.5" width="246" height="74" fill="#D9D9D9"/>
<rect x="69" y="587" width="43" height="74" fill="#D9D9D9"/>
<line x1="68.5677" y1="660.749" x2="111.568" y2="586.749" stroke="black"/>
<line x1="69.4323" y1="587.749" x2="112.432" y2="661.749" stroke="black"/>
<rect x="115" y="587.5" width="246" height="74" fill="#D9D9D9"/>
<rect x="69" y="678" width="43" height="74" fill="#D9D9D9"/>
<line x1="68.5677" y1="751.749" x2="111.568" y2="677.749" stroke="black"/>
<line x1="69.4323" y1="678.749" x2="112.432" y2="752.749" stroke="black"/>
<rect x="115" y="678.5" width="246" height="74" fill="#D9D9D9"/>
</svg>
