<svg width="428" height="926" viewBox="0 0 428 926" fill="none" xmlns="http://www.w3.org/2000/svg">
<rect width="428" height="926" fill="#6B6B6B"/>
<path d="M26 58H403V871H26V58Z" fill="#1E1E1E"/>
<rect x="64" y="361" width="56" height="19" fill="#ACACAC"/>
<rect x="64" y="386" width="298" height="24" fill="#ACACAC"/>
<rect x="64" y="429" width="56" height="19" fill="#ACACAC"/>
<rect x="64" y="454" width="298" height="24" fill="#ACACAC"/>
<rect x="64" y="557" width="56" height="19" fill="#ACACAC"/>
<rect x="64" y="582" width="298" height="24" fill="#ACACAC"/>
<rect x="64" y="625" width="56" height="19" fill="#ACACAC"/>
<rect x="64" y="650" width="298" height="24" fill="#ACACAC"/>
<rect x="66" y="745" width="56" height="19" fill="#ACACAC"/>
<rect x="66" y="770" width="298" height="24" fill="#ACACAC"/>
<path d="M67.4091 828V816.364H71.3409C72.2538 816.364 73 816.528 73.5795 816.858C74.1629 817.184 74.5947 817.625 74.875 818.182C75.1553 818.739 75.2955 819.36 75.2955 820.045C75.2955 820.731 75.1553 821.354 74.875 821.915C74.5985 822.475 74.1705 822.922 73.5909 823.256C73.0114 823.585 72.2689 823.75 71.3636 823.75H68.5455V822.5H71.3182C71.9432 822.5 72.4451 822.392 72.8239 822.176C73.2027 821.96 73.4773 821.669 73.6477 821.301C73.822 820.93 73.9091 820.511 73.9091 820.045C73.9091 819.58 73.822 819.163 73.6477 818.795C73.4773 818.428 73.2008 818.14 72.8182 817.932C72.4356 817.72 71.928 817.614 71.2955 817.614H68.8182V828H67.4091ZM79.9517 828.205C79.3987 828.205 78.8968 828.1 78.446 827.892C77.9953 827.68 77.6373 827.375 77.3722 826.977C77.107 826.576 76.9744 826.091 76.9744 825.523C76.9744 825.023 77.0729 824.617 77.2699 824.307C77.4669 823.992 77.7301 823.746 78.0597 823.568C78.3892 823.39 78.7528 823.258 79.1506 823.17C79.5521 823.08 79.9555 823.008 80.3608 822.955C80.8911 822.886 81.321 822.835 81.6506 822.801C81.9839 822.763 82.2263 822.701 82.3778 822.614C82.5331 822.527 82.6108 822.375 82.6108 822.159V822.114C82.6108 821.553 82.4574 821.117 82.1506 820.807C81.8475 820.496 81.3873 820.341 80.7699 820.341C80.1297 820.341 79.6278 820.481 79.2642 820.761C78.9006 821.042 78.6449 821.341 78.4972 821.659L77.2244 821.205C77.4517 820.674 77.7547 820.261 78.1335 819.966C78.5161 819.667 78.9328 819.458 79.3835 819.341C79.8381 819.22 80.285 819.159 80.7244 819.159C81.0047 819.159 81.3267 819.193 81.6903 819.261C82.0578 819.326 82.4119 819.46 82.7528 819.665C83.0975 819.869 83.3835 820.178 83.6108 820.591C83.8381 821.004 83.9517 821.557 83.9517 822.25V828H82.6108V826.818H82.5426C82.4517 827.008 82.3002 827.21 82.0881 827.426C81.8759 827.642 81.5938 827.826 81.2415 827.977C80.8892 828.129 80.4593 828.205 79.9517 828.205ZM80.1562 827C80.6866 827 81.1335 826.896 81.4972 826.688C81.8646 826.479 82.1411 826.21 82.3267 825.881C82.5161 825.551 82.6108 825.205 82.6108 824.841V823.614C82.554 823.682 82.429 823.744 82.2358 823.801C82.0464 823.854 81.8267 823.902 81.5767 823.943C81.3305 823.981 81.09 824.015 80.8551 824.045C80.6241 824.072 80.4366 824.095 80.2926 824.114C79.9441 824.159 79.6184 824.233 79.3153 824.335C79.0161 824.434 78.7737 824.583 78.5881 824.784C78.4063 824.981 78.3153 825.25 78.3153 825.591C78.3153 826.057 78.4877 826.409 78.8324 826.648C79.1809 826.883 79.6222 827 80.1562 827ZM92.581 821.227L91.3764 821.568C91.3007 821.367 91.1889 821.172 91.0412 820.983C90.8973 820.79 90.7003 820.631 90.4503 820.506C90.2003 820.381 89.8802 820.318 89.4901 820.318C88.956 820.318 88.5109 820.441 88.1548 820.688C87.8026 820.93 87.6264 821.239 87.6264 821.614C87.6264 821.947 87.7476 822.21 87.9901 822.403C88.2325 822.597 88.6113 822.758 89.1264 822.886L90.4219 823.205C91.2022 823.394 91.7836 823.684 92.1662 824.074C92.5488 824.46 92.7401 824.958 92.7401 825.568C92.7401 826.068 92.5961 826.515 92.3082 826.909C92.0241 827.303 91.6264 827.614 91.1151 827.841C90.6037 828.068 90.009 828.182 89.331 828.182C88.4408 828.182 87.7041 827.989 87.1207 827.602C86.5374 827.216 86.1681 826.652 86.0128 825.909L87.2855 825.591C87.4067 826.061 87.6359 826.413 87.973 826.648C88.3139 826.883 88.759 827 89.3082 827C89.9332 827 90.4295 826.867 90.7969 826.602C91.1681 826.333 91.3537 826.011 91.3537 825.636C91.3537 825.333 91.2476 825.08 91.0355 824.875C90.8234 824.667 90.4976 824.511 90.0582 824.409L88.6037 824.068C87.8045 823.879 87.2173 823.585 86.8423 823.188C86.4711 822.786 86.2855 822.284 86.2855 821.682C86.2855 821.189 86.4238 820.754 86.7003 820.375C86.9806 819.996 87.3613 819.699 87.8423 819.483C88.3272 819.267 88.8764 819.159 89.4901 819.159C90.3537 819.159 91.0317 819.348 91.5241 819.727C92.0204 820.106 92.3726 820.606 92.581 821.227ZM100.94 821.227L99.7358 821.568C99.66 821.367 99.5483 821.172 99.4006 820.983C99.2566 820.79 99.0597 820.631 98.8097 820.506C98.5597 820.381 98.2396 820.318 97.8494 820.318C97.3153 820.318 96.8703 820.441 96.5142 820.688C96.1619 820.93 95.9858 821.239 95.9858 821.614C95.9858 821.947 96.107 822.21 96.3494 822.403C96.5919 822.597 96.9706 822.758 97.4858 822.886L98.7812 823.205C99.5616 823.394 100.143 823.684 100.526 824.074C100.908 824.46 101.099 824.958 101.099 825.568C101.099 826.068 100.955 826.515 100.668 826.909C100.384 827.303 99.9858 827.614 99.4744 827.841C98.9631 828.068 98.3684 828.182 97.6903 828.182C96.8002 828.182 96.0634 827.989 95.4801 827.602C94.8968 827.216 94.5275 826.652 94.3722 825.909L95.6449 825.591C95.7661 826.061 95.9953 826.413 96.3324 826.648C96.6733 826.883 97.1184 827 97.6676 827C98.2926 827 98.7888 826.867 99.1562 826.602C99.5275 826.333 99.7131 826.011 99.7131 825.636C99.7131 825.333 99.607 825.08 99.3949 824.875C99.1828 824.667 98.857 824.511 98.4176 824.409L96.9631 824.068C96.1638 823.879 95.5767 823.585 95.2017 823.188C94.8305 822.786 94.6449 822.284 94.6449 821.682C94.6449 821.189 94.7831 820.754 95.0597 820.375C95.34 819.996 95.7206 819.699 96.2017 819.483C96.6866 819.267 97.2358 819.159 97.8494 819.159C98.7131 819.159 99.3911 819.348 99.8835 819.727C100.38 820.106 100.732 820.606 100.94 821.227ZM105.095 828L102.436 819.273H103.845L105.732 825.955H105.822L107.686 819.273H109.118L110.959 825.932H111.05L112.936 819.273H114.345L111.686 828H110.368L108.459 821.295H108.322L106.413 828H105.095ZM119.366 828.182C118.579 828.182 117.887 827.994 117.293 827.619C116.702 827.244 116.24 826.72 115.906 826.045C115.577 825.371 115.412 824.583 115.412 823.682C115.412 822.773 115.577 821.979 115.906 821.301C116.24 820.623 116.702 820.097 117.293 819.722C117.887 819.347 118.579 819.159 119.366 819.159C120.154 819.159 120.844 819.347 121.435 819.722C122.029 820.097 122.491 820.623 122.821 821.301C123.154 821.979 123.321 822.773 123.321 823.682C123.321 824.583 123.154 825.371 122.821 826.045C122.491 826.72 122.029 827.244 121.435 827.619C120.844 827.994 120.154 828.182 119.366 828.182ZM119.366 826.977C119.965 826.977 120.457 826.824 120.844 826.517C121.23 826.21 121.516 825.807 121.702 825.307C121.887 824.807 121.98 824.265 121.98 823.682C121.98 823.098 121.887 822.555 121.702 822.051C121.516 821.547 121.23 821.14 120.844 820.83C120.457 820.519 119.965 820.364 119.366 820.364C118.768 820.364 118.276 820.519 117.889 820.83C117.503 821.14 117.217 821.547 117.031 822.051C116.846 822.555 116.753 823.098 116.753 823.682C116.753 824.265 116.846 824.807 117.031 825.307C117.217 825.807 117.503 826.21 117.889 826.517C118.276 826.824 118.768 826.977 119.366 826.977ZM125.368 828V819.273H126.663V820.591H126.754C126.913 820.159 127.201 819.809 127.618 819.54C128.035 819.271 128.504 819.136 129.027 819.136C129.125 819.136 129.249 819.138 129.396 819.142C129.544 819.146 129.656 819.152 129.732 819.159V820.523C129.686 820.511 129.582 820.494 129.419 820.472C129.26 820.445 129.091 820.432 128.913 820.432C128.489 820.432 128.11 820.521 127.777 820.699C127.447 820.873 127.186 821.116 126.993 821.426C126.804 821.733 126.709 822.083 126.709 822.477V828H125.368ZM134.351 828.182C133.624 828.182 132.982 827.998 132.425 827.631C131.868 827.259 131.432 826.737 131.118 826.062C130.804 825.384 130.646 824.583 130.646 823.659C130.646 822.742 130.804 821.947 131.118 821.273C131.432 820.598 131.87 820.078 132.43 819.71C132.991 819.343 133.639 819.159 134.374 819.159C134.942 819.159 135.391 819.254 135.72 819.443C136.054 819.629 136.307 819.841 136.482 820.08C136.66 820.314 136.798 820.508 136.896 820.659H137.01V816.364H138.351V828H137.055V826.659H136.896C136.798 826.818 136.658 827.019 136.476 827.261C136.294 827.5 136.035 827.714 135.697 827.903C135.36 828.089 134.911 828.182 134.351 828.182ZM134.533 826.977C135.071 826.977 135.525 826.837 135.896 826.557C136.268 826.273 136.55 825.881 136.743 825.381C136.936 824.877 137.033 824.295 137.033 823.636C137.033 822.985 136.938 822.415 136.749 821.926C136.559 821.434 136.279 821.051 135.908 820.778C135.536 820.502 135.078 820.364 134.533 820.364C133.964 820.364 133.491 820.509 133.112 820.801C132.737 821.089 132.455 821.481 132.266 821.977C132.08 822.47 131.987 823.023 131.987 823.636C131.987 824.258 132.082 824.822 132.271 825.33C132.464 825.833 132.749 826.235 133.124 826.534C133.502 826.83 133.972 826.977 134.533 826.977Z" fill="#F2F2F2"/>
<rect x="66" y="838" width="298" height="24" fill="#ACACAC"/>
<rect x="52" y="116" width="170" height="42" fill="#ACACAC"/>
<rect x="129" y="218" width="170" height="8" fill="#ACACAC"/>
<rect x="129" y="238" width="170" height="8" fill="#ACACAC"/>
<rect x="64" y="530" width="170" height="17" fill="#ACACAC"/>
<rect x="66" y="718" width="170" height="17" fill="#ACACAC"/>
<rect x="26" y="805" width="377" height="66" fill="#ACACAC"/>
<rect x="55" y="814" width="51" height="48" fill="#D9D9D9"/>
<rect x="122" y="814" width="51" height="48" fill="#D9D9D9"/>
<rect x="189" y="814" width="51" height="48" fill="#D9D9D9"/>
<rect x="256" y="814" width="51" height="48" fill="#D9D9D9"/>
<rect x="323" y="814" width="51" height="48" fill="#D9D9D9"/>
<rect x="64" y="326" width="170" height="17" fill="#ACACAC"/>
</svg>
