<svg width="428" height="926" viewBox="0 0 428 926" fill="none" xmlns="http://www.w3.org/2000/svg">
<rect width="428" height="926" fill="#6B6B6B"/>
<path d="M26 58H403V871H26V58Z" fill="#1E1E1E"/>
<rect x="51" y="109" width="170" height="42" fill="#ACACAC"/>
<rect x="69" y="304" width="282" height="42" fill="#ACACAC"/>
<rect x="69" y="357" width="282" height="42" fill="#ACACAC"/>
<rect x="26" y="805" width="377" height="66" fill="#ACACAC"/>
<rect x="55" y="814" width="51" height="48" fill="#D9D9D9"/>
<rect x="122" y="814" width="51" height="48" fill="#D9D9D9"/>
<rect x="189" y="814" width="51" height="48" fill="#D9D9D9"/>
<rect x="256" y="814" width="51" height="48" fill="#D9D9D9"/>
<rect x="323" y="814" width="51" height="48" fill="#D9D9D9"/>
<rect x="64" y="486" width="292" height="62" fill="#D9D9D9"/>
<rect x="270" y="500" width="78" height="38" fill="#ACACAC"/>
<rect x="73" y="500" width="154" height="38" fill="#ACACAC"/>
<rect x="64" y="562" width="292" height="62" fill="#D9D9D9"/>
<rect x="270" y="576" width="78" height="38" fill="#ACACAC"/>
<rect x="73" y="576" width="154" height="38" fill="#ACACAC"/>
<rect x="64" y="684" width="292" height="62" fill="#D9D9D9"/>
<rect x="270" y="698" width="78" height="38" fill="#ACACAC"/>
<rect x="73" y="698" width="154" height="38" fill="#ACACAC"/>
<rect x="69" y="193" width="58" height="10" fill="#ACACAC"/>
<rect x="69" y="211" width="282" height="26" fill="#ACACAC"/>
<rect x="69" y="245" width="282" height="26" fill="#ACACAC"/>
<rect x="82" y="252" width="59" height="11" fill="#D9D9D9"/>
<rect x="69" y="211" width="58" height="10" fill="#ACACAC"/>
<rect x="64" y="465" width="58" height="10" fill="#ACACAC"/>
<rect x="64" y="667" width="58" height="10" fill="#ACACAC"/>
</svg>
