<svg width="428" height="926" viewBox="0 0 428 926" fill="none" xmlns="http://www.w3.org/2000/svg">
<rect width="428" height="926" fill="#6B6B6B"/>
<path d="M26 58H403V871H26V58Z" fill="#1E1E1E"/>
<rect x="111" y="410" width="207" height="277" fill="#ACACAC"/>
<path d="M115.363 279L111.258 264.455H114.092L116.712 275.143H116.847L119.646 264.455H122.224L125.029 275.151H125.157L127.778 264.455H130.612L126.506 279H123.907L120.995 268.794H120.881L117.962 279H115.363ZM136.041 279.213C134.947 279.213 134.003 278.986 133.207 278.531C132.417 278.072 131.808 277.423 131.382 276.585C130.956 275.742 130.743 274.75 130.743 273.609C130.743 272.487 130.956 271.502 131.382 270.655C131.813 269.803 132.414 269.14 133.186 268.666C133.958 268.188 134.865 267.949 135.906 267.949C136.579 267.949 137.213 268.058 137.81 268.276C138.411 268.489 138.941 268.82 139.401 269.27C139.865 269.72 140.229 270.293 140.494 270.989C140.759 271.68 140.892 272.504 140.892 273.46V274.249H131.95V272.516H138.428C138.423 272.023 138.316 271.585 138.108 271.202C137.9 270.813 137.608 270.508 137.234 270.286C136.865 270.063 136.434 269.952 135.942 269.952C135.416 269.952 134.955 270.08 134.557 270.335C134.159 270.586 133.849 270.918 133.626 271.33C133.409 271.737 133.297 272.184 133.293 272.672V274.185C133.293 274.819 133.409 275.364 133.641 275.818C133.873 276.268 134.197 276.614 134.614 276.855C135.03 277.092 135.518 277.21 136.077 277.21C136.451 277.21 136.789 277.158 137.092 277.054C137.395 276.945 137.658 276.786 137.881 276.578C138.103 276.37 138.271 276.112 138.385 275.804L140.786 276.074C140.634 276.708 140.345 277.262 139.919 277.736C139.498 278.205 138.958 278.569 138.3 278.83C137.642 279.085 136.889 279.213 136.041 279.213ZM145.638 264.455V279H143.067V264.455H145.638ZM153.04 279.213C151.951 279.213 151.016 278.974 150.235 278.496C149.459 278.018 148.86 277.357 148.438 276.514C148.022 275.667 147.813 274.691 147.813 273.588C147.813 272.48 148.026 271.502 148.452 270.655C148.879 269.803 149.48 269.14 150.256 268.666C151.038 268.188 151.961 267.949 153.026 267.949C153.912 267.949 154.695 268.112 155.377 268.439C156.064 268.761 156.611 269.218 157.018 269.81C157.425 270.397 157.657 271.083 157.714 271.869H155.256C155.157 271.344 154.92 270.906 154.546 270.555C154.177 270.2 153.682 270.023 153.062 270.023C152.536 270.023 152.075 270.165 151.677 270.449C151.279 270.728 150.969 271.131 150.746 271.656C150.529 272.182 150.42 272.812 150.42 273.545C150.42 274.289 150.529 274.928 150.746 275.463C150.964 275.993 151.27 276.403 151.663 276.692C152.06 276.976 152.527 277.118 153.062 277.118C153.441 277.118 153.779 277.047 154.077 276.905C154.38 276.758 154.634 276.547 154.837 276.273C155.041 275.998 155.181 275.664 155.256 275.271H157.714C157.652 276.043 157.425 276.727 157.032 277.324C156.639 277.916 156.104 278.38 155.427 278.716C154.75 279.047 153.954 279.213 153.04 279.213ZM164.583 279.213C163.518 279.213 162.595 278.979 161.814 278.51C161.032 278.041 160.426 277.385 159.995 276.543C159.569 275.7 159.356 274.715 159.356 273.588C159.356 272.461 159.569 271.474 159.995 270.626C160.426 269.779 161.032 269.121 161.814 268.652C162.595 268.183 163.518 267.949 164.583 267.949C165.649 267.949 166.572 268.183 167.353 268.652C168.135 269.121 168.738 269.779 169.164 270.626C169.595 271.474 169.811 272.461 169.811 273.588C169.811 274.715 169.595 275.7 169.164 276.543C168.738 277.385 168.135 278.041 167.353 278.51C166.572 278.979 165.649 279.213 164.583 279.213ZM164.598 277.153C165.175 277.153 165.658 276.995 166.047 276.678C166.435 276.356 166.724 275.925 166.913 275.385C167.107 274.845 167.204 274.244 167.204 273.581C167.204 272.913 167.107 272.31 166.913 271.77C166.724 271.225 166.435 270.792 166.047 270.47C165.658 270.148 165.175 269.987 164.598 269.987C164.006 269.987 163.513 270.148 163.12 270.47C162.732 270.792 162.441 271.225 162.247 271.77C162.057 272.31 161.963 272.913 161.963 273.581C161.963 274.244 162.057 274.845 162.247 275.385C162.441 275.925 162.732 276.356 163.12 276.678C163.513 276.995 164.006 277.153 164.598 277.153ZM171.993 279V268.091H174.45V269.945H174.578C174.805 269.32 175.182 268.832 175.707 268.482C176.233 268.126 176.86 267.949 177.589 267.949C178.328 267.949 178.951 268.129 179.457 268.489C179.969 268.844 180.329 269.329 180.537 269.945H180.651C180.892 269.339 181.299 268.856 181.872 268.496C182.45 268.131 183.134 267.949 183.925 267.949C184.929 267.949 185.748 268.266 186.382 268.901C187.017 269.535 187.334 270.461 187.334 271.678V279H184.756V272.075C184.756 271.398 184.576 270.903 184.216 270.591C183.856 270.274 183.416 270.115 182.895 270.115C182.275 270.115 181.789 270.309 181.439 270.697C181.093 271.081 180.92 271.58 180.92 272.196V279H178.399V271.969C178.399 271.405 178.229 270.955 177.888 270.619C177.552 270.283 177.111 270.115 176.567 270.115C176.197 270.115 175.861 270.21 175.558 270.399C175.255 270.584 175.014 270.847 174.834 271.188C174.654 271.524 174.564 271.917 174.564 272.366V279H171.993ZM194.772 279.213C193.678 279.213 192.733 278.986 191.938 278.531C191.147 278.072 190.539 277.423 190.113 276.585C189.686 275.742 189.473 274.75 189.473 273.609C189.473 272.487 189.686 271.502 190.113 270.655C190.543 269.803 191.145 269.14 191.917 268.666C192.688 268.188 193.595 267.949 194.637 267.949C195.309 267.949 195.944 268.058 196.54 268.276C197.141 268.489 197.672 268.82 198.131 269.27C198.595 269.72 198.96 270.293 199.225 270.989C199.49 271.68 199.623 272.504 199.623 273.46V274.249H190.681V272.516H197.158C197.153 272.023 197.047 271.585 196.838 271.202C196.63 270.813 196.339 270.508 195.965 270.286C195.596 270.063 195.165 269.952 194.672 269.952C194.147 269.952 193.685 270.08 193.287 270.335C192.89 270.586 192.579 270.918 192.357 271.33C192.139 271.737 192.028 272.184 192.023 272.672V274.185C192.023 274.819 192.139 275.364 192.371 275.818C192.603 276.268 192.927 276.614 193.344 276.855C193.761 277.092 194.248 277.21 194.807 277.21C195.181 277.21 195.52 277.158 195.823 277.054C196.126 276.945 196.389 276.786 196.611 276.578C196.834 276.37 197.002 276.112 197.115 275.804L199.516 276.074C199.364 276.708 199.076 277.262 198.65 277.736C198.228 278.205 197.688 278.569 197.03 278.83C196.372 279.085 195.619 279.213 194.772 279.213ZM206.872 279V264.455H209.507V270.612H216.247V264.455H218.889V279H216.247V272.821H209.507V279H206.872ZM226.4 279.213C225.335 279.213 224.411 278.979 223.63 278.51C222.849 278.041 222.243 277.385 221.812 276.543C221.386 275.7 221.173 274.715 221.173 273.588C221.173 272.461 221.386 271.474 221.812 270.626C222.243 269.779 222.849 269.121 223.63 268.652C224.411 268.183 225.335 267.949 226.4 267.949C227.465 267.949 228.388 268.183 229.17 268.652C229.951 269.121 230.555 269.779 230.981 270.626C231.412 271.474 231.627 272.461 231.627 273.588C231.627 274.715 231.412 275.7 230.981 276.543C230.555 277.385 229.951 278.041 229.17 278.51C228.388 278.979 227.465 279.213 226.4 279.213ZM226.414 277.153C226.992 277.153 227.475 276.995 227.863 276.678C228.251 276.356 228.54 275.925 228.729 275.385C228.924 274.845 229.021 274.244 229.021 273.581C229.021 272.913 228.924 272.31 228.729 271.77C228.54 271.225 228.251 270.792 227.863 270.47C227.475 270.148 226.992 269.987 226.414 269.987C225.822 269.987 225.33 270.148 224.937 270.47C224.549 270.792 224.257 271.225 224.063 271.77C223.874 272.31 223.779 272.913 223.779 273.581C223.779 274.244 223.874 274.845 224.063 275.385C224.257 275.925 224.549 276.356 224.937 276.678C225.33 276.995 225.822 277.153 226.414 277.153ZM233.809 279V268.091H236.267V269.945H236.395C236.622 269.32 236.998 268.832 237.524 268.482C238.049 268.126 238.677 267.949 239.406 267.949C240.145 267.949 240.767 268.129 241.274 268.489C241.785 268.844 242.145 269.329 242.353 269.945H242.467C242.708 269.339 243.116 268.856 243.689 268.496C244.266 268.131 244.95 267.949 245.741 267.949C246.745 267.949 247.564 268.266 248.199 268.901C248.833 269.535 249.15 270.461 249.15 271.678V279H246.572V272.075C246.572 271.398 246.392 270.903 246.032 270.591C245.672 270.274 245.232 270.115 244.711 270.115C244.091 270.115 243.606 270.309 243.255 270.697C242.91 271.081 242.737 271.58 242.737 272.196V279H240.216V271.969C240.216 271.405 240.045 270.955 239.704 270.619C239.368 270.283 238.928 270.115 238.383 270.115C238.014 270.115 237.678 270.21 237.375 270.399C237.072 270.584 236.83 270.847 236.65 271.188C236.47 271.524 236.38 271.917 236.38 272.366V279H233.809ZM256.588 279.213C255.494 279.213 254.55 278.986 253.754 278.531C252.964 278.072 252.355 277.423 251.929 276.585C251.503 275.742 251.29 274.75 251.29 273.609C251.29 272.487 251.503 271.502 251.929 270.655C252.36 269.803 252.961 269.14 253.733 268.666C254.505 268.188 255.411 267.949 256.453 267.949C257.125 267.949 257.76 268.058 258.357 268.276C258.958 268.489 259.488 268.82 259.947 269.27C260.411 269.72 260.776 270.293 261.041 270.989C261.306 271.68 261.439 272.504 261.439 273.46V274.249H252.497V272.516H258.974C258.97 272.023 258.863 271.585 258.655 271.202C258.446 270.813 258.155 270.508 257.781 270.286C257.412 270.063 256.981 269.952 256.489 269.952C255.963 269.952 255.501 270.08 255.104 270.335C254.706 270.586 254.396 270.918 254.173 271.33C253.955 271.737 253.844 272.184 253.839 272.672V274.185C253.839 274.819 253.955 275.364 254.188 275.818C254.42 276.268 254.744 276.614 255.161 276.855C255.577 277.092 256.065 277.21 256.624 277.21C256.998 277.21 257.336 277.158 257.639 277.054C257.942 276.945 258.205 276.786 258.428 276.578C258.65 276.37 258.818 276.112 258.932 275.804L261.332 276.074C261.181 276.708 260.892 277.262 260.466 277.736C260.045 278.205 259.505 278.569 258.847 278.83C258.188 279.085 257.436 279.213 256.588 279.213ZM266.632 277.011L266.54 277.793C266.474 278.389 266.355 278.995 266.185 279.611C266.019 280.231 265.844 280.802 265.659 281.322C265.475 281.843 265.326 282.253 265.212 282.551H263.479C263.545 282.262 263.635 281.869 263.749 281.372C263.867 280.875 263.981 280.316 264.09 279.696C264.199 279.076 264.272 278.446 264.31 277.807L264.36 277.011H266.632ZM283.307 264.455H285.942V273.957C285.942 274.999 285.696 275.915 285.203 276.706C284.715 277.497 284.029 278.115 283.143 278.56C282.258 279 281.223 279.22 280.04 279.22C278.851 279.22 277.814 279 276.929 278.56C276.044 278.115 275.357 277.497 274.869 276.706C274.382 275.915 274.138 274.999 274.138 273.957V264.455H276.773V273.737C276.773 274.343 276.905 274.883 277.17 275.357C277.44 275.83 277.819 276.202 278.307 276.472C278.795 276.737 279.372 276.869 280.04 276.869C280.707 276.869 281.285 276.737 281.773 276.472C282.265 276.202 282.644 275.83 282.909 275.357C283.174 274.883 283.307 274.343 283.307 273.737V264.455ZM297.314 270.974L294.971 271.23C294.904 270.993 294.788 270.771 294.623 270.562C294.462 270.354 294.244 270.186 293.969 270.058C293.694 269.93 293.358 269.866 292.961 269.866C292.426 269.866 291.976 269.982 291.611 270.214C291.251 270.446 291.074 270.747 291.078 271.116C291.074 271.434 291.19 271.692 291.426 271.891C291.668 272.089 292.066 272.253 292.62 272.381L294.48 272.778C295.513 273.001 296.28 273.354 296.782 273.837C297.288 274.32 297.544 274.952 297.549 275.733C297.544 276.42 297.343 277.026 296.945 277.551C296.552 278.072 296.005 278.479 295.304 278.773C294.604 279.066 293.799 279.213 292.89 279.213C291.554 279.213 290.48 278.934 289.665 278.375C288.851 277.812 288.365 277.028 288.209 276.024L290.716 275.783C290.83 276.275 291.071 276.647 291.441 276.898C291.81 277.149 292.291 277.274 292.882 277.274C293.493 277.274 293.983 277.149 294.353 276.898C294.727 276.647 294.914 276.337 294.914 275.967C294.914 275.655 294.793 275.397 294.551 275.193C294.315 274.99 293.945 274.833 293.444 274.724L291.583 274.334C290.536 274.116 289.762 273.749 289.26 273.233C288.758 272.712 288.51 272.054 288.515 271.259C288.51 270.586 288.692 270.004 289.061 269.511C289.435 269.014 289.954 268.631 290.617 268.361C291.284 268.086 292.054 267.949 292.925 267.949C294.203 267.949 295.21 268.221 295.944 268.766C296.682 269.31 297.139 270.046 297.314 270.974ZM304.498 279.213C303.404 279.213 302.46 278.986 301.664 278.531C300.874 278.072 300.265 277.423 299.839 276.585C299.413 275.742 299.2 274.75 299.2 273.609C299.2 272.487 299.413 271.502 299.839 270.655C300.27 269.803 300.871 269.14 301.643 268.666C302.415 268.188 303.322 267.949 304.363 267.949C305.036 267.949 305.67 268.058 306.267 268.276C306.868 268.489 307.398 268.82 307.858 269.27C308.322 269.72 308.686 270.293 308.951 270.989C309.217 271.68 309.349 272.504 309.349 273.46V274.249H300.407V272.516H306.885C306.88 272.023 306.773 271.585 306.565 271.202C306.357 270.813 306.065 270.508 305.691 270.286C305.322 270.063 304.891 269.952 304.399 269.952C303.873 269.952 303.412 270.08 303.014 270.335C302.616 270.586 302.306 270.918 302.083 271.33C301.866 271.737 301.754 272.184 301.75 272.672V274.185C301.75 274.819 301.866 275.364 302.098 275.818C302.33 276.268 302.654 276.614 303.071 276.855C303.487 277.092 303.975 277.21 304.534 277.21C304.908 277.21 305.246 277.158 305.549 277.054C305.852 276.945 306.115 276.786 306.338 276.578C306.56 276.37 306.728 276.112 306.842 275.804L309.243 276.074C309.091 276.708 308.802 277.262 308.376 277.736C307.955 278.205 307.415 278.569 306.757 278.83C306.099 279.085 305.346 279.213 304.498 279.213ZM311.524 279V268.091H314.017V269.909H314.131C314.33 269.279 314.67 268.794 315.153 268.453C315.641 268.107 316.197 267.935 316.822 267.935C316.964 267.935 317.123 267.942 317.298 267.956C317.478 267.965 317.627 267.982 317.746 268.006V270.371C317.637 270.333 317.464 270.3 317.227 270.271C316.995 270.238 316.77 270.222 316.553 270.222C316.084 270.222 315.662 270.323 315.288 270.527C314.919 270.726 314.628 271.003 314.415 271.358C314.202 271.713 314.095 272.123 314.095 272.587V279H311.524Z" fill="#F2F2F2"/>
<path d="M65.517 122.545H70.0682L74.875 134.273H75.0795L79.8864 122.545H84.4375V140H80.858V128.639H80.7131L76.196 139.915H73.7585L69.2415 128.597H69.0966V140H65.517V122.545ZM89.6513 144.909C89.1911 144.909 88.7592 144.872 88.3558 144.798C87.9581 144.73 87.6286 144.642 87.3672 144.534L88.1854 141.824C88.6115 141.955 88.995 142.026 89.3359 142.037C89.6825 142.048 89.9808 141.969 90.2308 141.798C90.4865 141.628 90.6939 141.338 90.853 140.929L91.0661 140.375L86.37 126.909H90.1882L92.8984 136.523H93.0348L95.7706 126.909H99.6143L94.5263 141.415C94.282 142.119 93.9496 142.733 93.5291 143.256C93.1143 143.784 92.5888 144.19 91.9524 144.474C91.3161 144.764 90.549 144.909 89.6513 144.909Z" fill="#F2F2F2"/>
<path d="M113.283 140H107.095V122.545H113.334C115.089 122.545 116.601 122.895 117.868 123.594C119.135 124.287 120.109 125.284 120.791 126.585C121.479 127.886 121.822 129.443 121.822 131.256C121.822 133.074 121.479 134.636 120.791 135.943C120.109 137.25 119.129 138.253 117.851 138.952C116.578 139.651 115.055 140 113.283 140ZM110.786 136.838H113.129C114.22 136.838 115.138 136.645 115.882 136.259C116.632 135.866 117.195 135.261 117.57 134.443C117.95 133.619 118.141 132.557 118.141 131.256C118.141 129.966 117.95 128.912 117.57 128.094C117.195 127.276 116.635 126.673 115.891 126.287C115.146 125.901 114.229 125.707 113.138 125.707H110.786V136.838ZM128.221 140.247C127.386 140.247 126.641 140.102 125.988 139.812C125.335 139.517 124.817 139.082 124.437 138.509C124.062 137.929 123.874 137.207 123.874 136.344C123.874 135.616 124.008 135.006 124.275 134.511C124.542 134.017 124.906 133.619 125.366 133.318C125.826 133.017 126.349 132.79 126.934 132.636C127.525 132.483 128.144 132.375 128.792 132.312C129.553 132.233 130.167 132.159 130.633 132.091C131.099 132.017 131.437 131.909 131.647 131.767C131.857 131.625 131.962 131.415 131.962 131.136V131.085C131.962 130.545 131.792 130.128 131.451 129.832C131.116 129.537 130.638 129.389 130.019 129.389C129.366 129.389 128.846 129.534 128.46 129.824C128.073 130.108 127.817 130.466 127.692 130.898L124.335 130.625C124.505 129.83 124.84 129.142 125.34 128.562C125.84 127.977 126.485 127.528 127.275 127.216C128.07 126.898 128.991 126.739 130.036 126.739C130.763 126.739 131.46 126.824 132.124 126.994C132.795 127.165 133.388 127.429 133.906 127.787C134.428 128.145 134.84 128.605 135.141 129.168C135.442 129.724 135.593 130.392 135.593 131.17V140H132.15V138.185H132.048C131.837 138.594 131.556 138.955 131.204 139.267C130.852 139.574 130.428 139.815 129.934 139.991C129.44 140.162 128.869 140.247 128.221 140.247ZM129.261 137.741C129.795 137.741 130.266 137.636 130.675 137.426C131.085 137.21 131.406 136.92 131.638 136.557C131.871 136.193 131.988 135.781 131.988 135.321V133.932C131.874 134.006 131.718 134.074 131.519 134.136C131.326 134.193 131.107 134.247 130.863 134.298C130.619 134.344 130.374 134.386 130.13 134.426C129.886 134.46 129.664 134.491 129.465 134.52C129.039 134.582 128.667 134.682 128.349 134.818C128.031 134.955 127.783 135.139 127.607 135.372C127.431 135.599 127.343 135.884 127.343 136.224C127.343 136.719 127.522 137.097 127.88 137.358C128.244 137.614 128.704 137.741 129.261 137.741ZM149.302 130.642L145.978 130.847C145.921 130.562 145.799 130.307 145.612 130.08C145.424 129.847 145.177 129.662 144.87 129.526C144.569 129.384 144.208 129.312 143.788 129.312C143.225 129.312 142.751 129.432 142.364 129.67C141.978 129.903 141.785 130.216 141.785 130.608C141.785 130.92 141.91 131.185 142.16 131.401C142.41 131.616 142.839 131.79 143.447 131.92L145.816 132.398C147.089 132.659 148.038 133.08 148.663 133.659C149.288 134.239 149.6 135 149.6 135.943C149.6 136.801 149.347 137.554 148.842 138.202C148.342 138.849 147.654 139.355 146.779 139.719C145.91 140.077 144.907 140.256 143.771 140.256C142.038 140.256 140.657 139.895 139.629 139.173C138.606 138.446 138.006 137.457 137.83 136.207L141.401 136.02C141.509 136.548 141.771 136.952 142.185 137.23C142.6 137.503 143.131 137.639 143.779 137.639C144.415 137.639 144.927 137.517 145.313 137.273C145.705 137.023 145.904 136.702 145.91 136.31C145.904 135.98 145.765 135.71 145.492 135.5C145.219 135.284 144.799 135.119 144.231 135.006L141.964 134.554C140.685 134.298 139.734 133.855 139.109 133.224C138.489 132.594 138.18 131.79 138.18 130.812C138.18 129.972 138.407 129.247 138.862 128.639C139.322 128.031 139.967 127.562 140.796 127.233C141.631 126.903 142.609 126.739 143.728 126.739C145.381 126.739 146.683 127.088 147.631 127.787C148.586 128.486 149.143 129.437 149.302 130.642ZM155.517 132.432V140H151.886V122.545H155.415V129.219H155.568C155.864 128.446 156.341 127.841 157 127.403C157.659 126.96 158.486 126.739 159.48 126.739C160.389 126.739 161.182 126.938 161.858 127.335C162.54 127.727 163.068 128.293 163.443 129.031C163.824 129.764 164.011 130.642 164.006 131.665V140H160.375V132.312C160.381 131.506 160.176 130.878 159.761 130.429C159.352 129.98 158.778 129.756 158.04 129.756C157.545 129.756 157.108 129.861 156.727 130.071C156.352 130.281 156.057 130.588 155.841 130.991C155.631 131.389 155.523 131.869 155.517 132.432ZM166.931 140V122.545H170.562V129.108H170.673C170.832 128.756 171.062 128.398 171.363 128.034C171.67 127.665 172.067 127.358 172.556 127.114C173.05 126.864 173.664 126.739 174.397 126.739C175.352 126.739 176.232 126.989 177.039 127.489C177.846 127.983 178.491 128.73 178.974 129.73C179.457 130.724 179.698 131.972 179.698 133.472C179.698 134.932 179.462 136.165 178.991 137.17C178.525 138.17 177.888 138.929 177.082 139.446C176.281 139.957 175.383 140.213 174.388 140.213C173.684 140.213 173.085 140.097 172.59 139.864C172.102 139.631 171.701 139.338 171.388 138.986C171.076 138.628 170.837 138.267 170.673 137.903H170.511V140H166.931ZM170.485 133.455C170.485 134.233 170.593 134.912 170.809 135.491C171.025 136.071 171.337 136.523 171.746 136.847C172.156 137.165 172.653 137.324 173.238 137.324C173.829 137.324 174.329 137.162 174.738 136.838C175.147 136.509 175.457 136.054 175.667 135.474C175.883 134.889 175.991 134.216 175.991 133.455C175.991 132.699 175.886 132.034 175.675 131.46C175.465 130.886 175.156 130.437 174.746 130.114C174.337 129.79 173.835 129.628 173.238 129.628C172.647 129.628 172.147 129.784 171.738 130.097C171.335 130.409 171.025 130.852 170.809 131.426C170.593 132 170.485 132.676 170.485 133.455ZM188.036 140.256C186.712 140.256 185.567 139.974 184.601 139.412C183.641 138.844 182.899 138.054 182.376 137.043C181.854 136.026 181.592 134.847 181.592 133.506C181.592 132.153 181.854 130.972 182.376 129.96C182.899 128.943 183.641 128.153 184.601 127.591C185.567 127.023 186.712 126.739 188.036 126.739C189.359 126.739 190.501 127.023 191.462 127.591C192.428 128.153 193.172 128.943 193.695 129.96C194.217 130.972 194.479 132.153 194.479 133.506C194.479 134.847 194.217 136.026 193.695 137.043C193.172 138.054 192.428 138.844 191.462 139.412C190.501 139.974 189.359 140.256 188.036 140.256ZM188.053 137.443C188.655 137.443 189.158 137.273 189.561 136.932C189.964 136.585 190.268 136.114 190.473 135.517C190.683 134.92 190.788 134.241 190.788 133.48C190.788 132.719 190.683 132.04 190.473 131.443C190.268 130.847 189.964 130.375 189.561 130.028C189.158 129.682 188.655 129.509 188.053 129.509C187.445 129.509 186.933 129.682 186.518 130.028C186.109 130.375 185.8 130.847 185.589 131.443C185.385 132.04 185.283 132.719 185.283 133.48C185.283 134.241 185.385 134.92 185.589 135.517C185.8 136.114 186.109 136.585 186.518 136.932C186.933 137.273 187.445 137.443 188.053 137.443ZM200.572 140.247C199.737 140.247 198.993 140.102 198.339 139.812C197.686 139.517 197.169 139.082 196.788 138.509C196.413 137.929 196.226 137.207 196.226 136.344C196.226 135.616 196.359 135.006 196.626 134.511C196.893 134.017 197.257 133.619 197.717 133.318C198.178 133.017 198.7 132.79 199.286 132.636C199.876 132.483 200.496 132.375 201.143 132.312C201.905 132.233 202.518 132.159 202.984 132.091C203.45 132.017 203.788 131.909 203.999 131.767C204.209 131.625 204.314 131.415 204.314 131.136V131.085C204.314 130.545 204.143 130.128 203.803 129.832C203.467 129.537 202.99 129.389 202.371 129.389C201.717 129.389 201.197 129.534 200.811 129.824C200.425 130.108 200.169 130.466 200.044 130.898L196.686 130.625C196.857 129.83 197.192 129.142 197.692 128.562C198.192 127.977 198.837 127.528 199.626 127.216C200.422 126.898 201.342 126.739 202.388 126.739C203.115 126.739 203.811 126.824 204.476 126.994C205.146 127.165 205.74 127.429 206.257 127.787C206.78 128.145 207.192 128.605 207.493 129.168C207.794 129.724 207.945 130.392 207.945 131.17V140H204.501V138.185H204.399C204.189 138.594 203.908 138.955 203.555 139.267C203.203 139.574 202.78 139.815 202.286 139.991C201.791 140.162 201.22 140.247 200.572 140.247ZM201.612 137.741C202.146 137.741 202.618 137.636 203.027 137.426C203.436 137.21 203.757 136.92 203.99 136.557C204.223 136.193 204.339 135.781 204.339 135.321V133.932C204.226 134.006 204.07 134.074 203.871 134.136C203.678 134.193 203.459 134.247 203.214 134.298C202.97 134.344 202.726 134.386 202.482 134.426C202.237 134.46 202.016 134.491 201.817 134.52C201.391 134.582 201.018 134.682 200.7 134.818C200.382 134.955 200.135 135.139 199.959 135.372C199.783 135.599 199.695 135.884 199.695 136.224C199.695 136.719 199.874 137.097 200.232 137.358C200.595 137.614 201.055 137.741 201.612 137.741ZM210.761 140V126.909H214.281V129.193H214.418C214.656 128.381 215.057 127.767 215.619 127.352C216.182 126.932 216.83 126.722 217.562 126.722C217.744 126.722 217.94 126.733 218.151 126.756C218.361 126.778 218.545 126.81 218.705 126.849V130.071C218.534 130.02 218.298 129.974 217.997 129.935C217.696 129.895 217.42 129.875 217.17 129.875C216.636 129.875 216.159 129.991 215.739 130.224C215.324 130.452 214.994 130.77 214.75 131.179C214.511 131.588 214.392 132.06 214.392 132.594V140H210.761ZM224.796 140.213C223.802 140.213 222.901 139.957 222.094 139.446C221.293 138.929 220.657 138.17 220.185 137.17C219.719 136.165 219.487 134.932 219.487 133.472C219.487 131.972 219.728 130.724 220.211 129.73C220.694 128.73 221.336 127.983 222.137 127.489C222.944 126.989 223.827 126.739 224.788 126.739C225.521 126.739 226.131 126.864 226.62 127.114C227.114 127.358 227.512 127.665 227.813 128.034C228.12 128.398 228.353 128.756 228.512 129.108H228.623V122.545H232.245V140H228.665V137.903H228.512C228.342 138.267 228.1 138.628 227.788 138.986C227.481 139.338 227.08 139.631 226.586 139.864C226.097 140.097 225.501 140.213 224.796 140.213ZM225.947 137.324C226.532 137.324 227.026 137.165 227.43 136.847C227.839 136.523 228.151 136.071 228.367 135.491C228.589 134.912 228.7 134.233 228.7 133.455C228.7 132.676 228.592 132 228.376 131.426C228.16 130.852 227.847 130.409 227.438 130.097C227.029 129.784 226.532 129.628 225.947 129.628C225.35 129.628 224.847 129.79 224.438 130.114C224.029 130.437 223.719 130.886 223.509 131.46C223.299 132.034 223.194 132.699 223.194 133.455C223.194 134.216 223.299 134.889 223.509 135.474C223.725 136.054 224.035 136.509 224.438 136.838C224.847 137.162 225.35 137.324 225.947 137.324Z" fill="#00D8FF"/>
<path d="M165.085 334.273C165.017 333.697 164.741 333.25 164.256 332.932C163.771 332.614 163.176 332.455 162.472 332.455C161.956 332.455 161.506 332.538 161.119 332.705C160.737 332.871 160.438 333.1 160.222 333.392C160.009 333.684 159.903 334.015 159.903 334.386C159.903 334.697 159.977 334.964 160.125 335.188C160.277 335.407 160.47 335.591 160.705 335.739C160.939 335.883 161.186 336.002 161.443 336.097C161.701 336.187 161.938 336.261 162.153 336.318L163.335 336.636C163.638 336.716 163.975 336.826 164.347 336.966C164.722 337.106 165.08 337.297 165.42 337.54C165.765 337.778 166.049 338.085 166.273 338.46C166.496 338.835 166.608 339.295 166.608 339.841C166.608 340.47 166.443 341.038 166.114 341.545C165.788 342.053 165.311 342.456 164.682 342.756C164.057 343.055 163.297 343.205 162.403 343.205C161.57 343.205 160.848 343.07 160.239 342.801C159.633 342.532 159.155 342.157 158.807 341.676C158.462 341.195 158.267 340.636 158.222 340H159.676C159.714 340.439 159.862 340.803 160.119 341.091C160.381 341.375 160.71 341.587 161.108 341.727C161.509 341.864 161.941 341.932 162.403 341.932C162.941 341.932 163.424 341.845 163.852 341.67C164.28 341.492 164.619 341.246 164.869 340.932C165.119 340.614 165.244 340.242 165.244 339.818C165.244 339.432 165.136 339.117 164.92 338.875C164.705 338.633 164.42 338.436 164.068 338.284C163.716 338.133 163.335 338 162.926 337.886L161.494 337.477C160.585 337.216 159.866 336.843 159.335 336.358C158.805 335.873 158.54 335.239 158.54 334.455C158.54 333.803 158.716 333.235 159.068 332.75C159.424 332.261 159.902 331.883 160.5 331.614C161.102 331.341 161.775 331.205 162.517 331.205C163.267 331.205 163.934 331.339 164.517 331.608C165.1 331.873 165.563 332.237 165.903 332.699C166.248 333.161 166.43 333.686 166.449 334.273H165.085ZM172.538 334.273V335.409H168.016V334.273H172.538ZM169.334 332.182H170.675V340.5C170.675 340.879 170.73 341.163 170.839 341.352C170.953 341.538 171.097 341.663 171.271 341.727C171.449 341.788 171.637 341.818 171.834 341.818C171.982 341.818 172.103 341.811 172.197 341.795C172.292 341.777 172.368 341.761 172.425 341.75L172.697 342.955C172.607 342.989 172.48 343.023 172.317 343.057C172.154 343.095 171.947 343.114 171.697 343.114C171.319 343.114 170.947 343.032 170.584 342.869C170.224 342.706 169.925 342.458 169.686 342.125C169.451 341.792 169.334 341.371 169.334 340.864V332.182ZM177.124 343.205C176.571 343.205 176.069 343.1 175.618 342.892C175.167 342.68 174.809 342.375 174.544 341.977C174.279 341.576 174.146 341.091 174.146 340.523C174.146 340.023 174.245 339.617 174.442 339.307C174.639 338.992 174.902 338.746 175.232 338.568C175.561 338.39 175.925 338.258 176.322 338.17C176.724 338.08 177.127 338.008 177.533 337.955C178.063 337.886 178.493 337.835 178.822 337.801C179.156 337.763 179.398 337.701 179.55 337.614C179.705 337.527 179.783 337.375 179.783 337.159V337.114C179.783 336.553 179.629 336.117 179.322 335.807C179.019 335.496 178.559 335.341 177.942 335.341C177.302 335.341 176.8 335.481 176.436 335.761C176.072 336.042 175.817 336.341 175.669 336.659L174.396 336.205C174.624 335.674 174.927 335.261 175.305 334.966C175.688 334.667 176.105 334.458 176.555 334.341C177.01 334.22 177.457 334.159 177.896 334.159C178.177 334.159 178.499 334.193 178.862 334.261C179.23 334.326 179.584 334.46 179.925 334.665C180.269 334.869 180.555 335.178 180.783 335.591C181.01 336.004 181.124 336.557 181.124 337.25V343H179.783V341.818H179.714C179.624 342.008 179.472 342.21 179.26 342.426C179.048 342.642 178.766 342.826 178.413 342.977C178.061 343.129 177.631 343.205 177.124 343.205ZM177.328 342C177.858 342 178.305 341.896 178.669 341.688C179.036 341.479 179.313 341.21 179.499 340.881C179.688 340.551 179.783 340.205 179.783 339.841V338.614C179.726 338.682 179.601 338.744 179.408 338.801C179.218 338.854 178.999 338.902 178.749 338.943C178.502 338.981 178.262 339.015 178.027 339.045C177.796 339.072 177.608 339.095 177.464 339.114C177.116 339.159 176.79 339.233 176.487 339.335C176.188 339.434 175.946 339.583 175.76 339.784C175.578 339.981 175.487 340.25 175.487 340.591C175.487 341.057 175.66 341.409 176.004 341.648C176.353 341.883 176.794 342 177.328 342ZM187.366 334.273V335.409H182.844V334.273H187.366ZM184.162 332.182H185.503V340.5C185.503 340.879 185.558 341.163 185.668 341.352C185.781 341.538 185.925 341.663 186.099 341.727C186.277 341.788 186.465 341.818 186.662 341.818C186.81 341.818 186.931 341.811 187.026 341.795C187.12 341.777 187.196 341.761 187.253 341.75L187.526 342.955C187.435 342.989 187.308 343.023 187.145 343.057C186.982 343.095 186.776 343.114 186.526 343.114C186.147 343.114 185.776 343.032 185.412 342.869C185.052 342.706 184.753 342.458 184.514 342.125C184.279 341.792 184.162 341.371 184.162 340.864V332.182ZM194.884 339.432V334.273H196.224V343H194.884V341.523H194.793C194.588 341.966 194.27 342.343 193.838 342.653C193.406 342.96 192.861 343.114 192.202 343.114C191.656 343.114 191.171 342.994 190.747 342.756C190.323 342.513 189.99 342.15 189.747 341.665C189.505 341.176 189.384 340.561 189.384 339.818V334.273H190.724V339.727C190.724 340.364 190.902 340.871 191.259 341.25C191.618 341.629 192.077 341.818 192.634 341.818C192.967 341.818 193.306 341.733 193.651 341.562C193.999 341.392 194.291 341.131 194.526 340.778C194.764 340.426 194.884 339.977 194.884 339.432ZM204.862 336.227L203.658 336.568C203.582 336.367 203.47 336.172 203.322 335.983C203.179 335.79 202.982 335.631 202.732 335.506C202.482 335.381 202.161 335.318 201.771 335.318C201.237 335.318 200.792 335.441 200.436 335.688C200.084 335.93 199.908 336.239 199.908 336.614C199.908 336.947 200.029 337.21 200.271 337.403C200.514 337.597 200.893 337.758 201.408 337.886L202.703 338.205C203.483 338.394 204.065 338.684 204.447 339.074C204.83 339.46 205.021 339.958 205.021 340.568C205.021 341.068 204.877 341.515 204.589 341.909C204.305 342.303 203.908 342.614 203.396 342.841C202.885 343.068 202.29 343.182 201.612 343.182C200.722 343.182 199.985 342.989 199.402 342.602C198.819 342.216 198.449 341.652 198.294 340.909L199.567 340.591C199.688 341.061 199.917 341.413 200.254 341.648C200.595 341.883 201.04 342 201.589 342C202.214 342 202.711 341.867 203.078 341.602C203.449 341.333 203.635 341.011 203.635 340.636C203.635 340.333 203.529 340.08 203.317 339.875C203.105 339.667 202.779 339.511 202.339 339.409L200.885 339.068C200.086 338.879 199.499 338.585 199.124 338.188C198.752 337.786 198.567 337.284 198.567 336.682C198.567 336.189 198.705 335.754 198.982 335.375C199.262 334.996 199.643 334.699 200.124 334.483C200.608 334.267 201.158 334.159 201.771 334.159C202.635 334.159 203.313 334.348 203.805 334.727C204.302 335.106 204.654 335.606 204.862 336.227ZM208.017 343.091C207.737 343.091 207.496 342.991 207.295 342.79C207.095 342.589 206.994 342.348 206.994 342.068C206.994 341.788 207.095 341.547 207.295 341.347C207.496 341.146 207.737 341.045 208.017 341.045C208.297 341.045 208.538 341.146 208.739 341.347C208.939 341.547 209.04 341.788 209.04 342.068C209.04 342.254 208.992 342.424 208.898 342.58C208.807 342.735 208.684 342.86 208.528 342.955C208.377 343.045 208.206 343.091 208.017 343.091ZM208.017 336.614C207.737 336.614 207.496 336.513 207.295 336.312C207.095 336.112 206.994 335.871 206.994 335.591C206.994 335.311 207.095 335.07 207.295 334.869C207.496 334.669 207.737 334.568 208.017 334.568C208.297 334.568 208.538 334.669 208.739 334.869C208.939 335.07 209.04 335.311 209.04 335.591C209.04 335.777 208.992 335.947 208.898 336.102C208.807 336.258 208.684 336.383 208.528 336.477C208.377 336.568 208.206 336.614 208.017 336.614Z" fill="#F2F2F2"/>
<path d="M215.73 343V331.364H218.19V340.972H223.179V343H215.73ZM228.706 343.17C227.823 343.17 227.06 342.983 226.416 342.608C225.776 342.229 225.282 341.703 224.933 341.028C224.585 340.35 224.411 339.564 224.411 338.67C224.411 337.769 224.585 336.981 224.933 336.307C225.282 335.629 225.776 335.102 226.416 334.727C227.06 334.348 227.823 334.159 228.706 334.159C229.589 334.159 230.35 334.348 230.99 334.727C231.634 335.102 232.13 335.629 232.479 336.307C232.827 336.981 233.001 337.769 233.001 338.67C233.001 339.564 232.827 340.35 232.479 341.028C232.13 341.703 231.634 342.229 230.99 342.608C230.35 342.983 229.589 343.17 228.706 343.17ZM228.717 341.295C229.119 341.295 229.454 341.182 229.723 340.955C229.992 340.723 230.195 340.409 230.331 340.011C230.471 339.614 230.541 339.161 230.541 338.653C230.541 338.146 230.471 337.693 230.331 337.295C230.195 336.898 229.992 336.583 229.723 336.352C229.454 336.121 229.119 336.006 228.717 336.006C228.312 336.006 227.971 336.121 227.695 336.352C227.422 336.583 227.215 336.898 227.075 337.295C226.939 337.693 226.871 338.146 226.871 338.653C226.871 339.161 226.939 339.614 227.075 340.011C227.215 340.409 227.422 340.723 227.695 340.955C227.971 341.182 228.312 341.295 228.717 341.295ZM238.518 343.17C237.625 343.17 236.856 342.981 236.212 342.602C235.571 342.22 235.079 341.689 234.734 341.011C234.393 340.333 234.223 339.553 234.223 338.67C234.223 337.777 234.395 336.992 234.74 336.318C235.089 335.64 235.583 335.112 236.223 334.733C236.863 334.35 237.625 334.159 238.507 334.159C239.268 334.159 239.935 334.297 240.507 334.574C241.079 334.85 241.532 335.239 241.865 335.739C242.198 336.239 242.382 336.826 242.416 337.5H240.132C240.068 337.064 239.897 336.714 239.621 336.449C239.348 336.18 238.99 336.045 238.547 336.045C238.172 336.045 237.844 336.148 237.564 336.352C237.287 336.553 237.071 336.847 236.916 337.233C236.761 337.619 236.683 338.087 236.683 338.636C236.683 339.193 236.759 339.667 236.911 340.057C237.066 340.447 237.284 340.744 237.564 340.949C237.844 341.153 238.172 341.256 238.547 341.256C238.823 341.256 239.071 341.199 239.291 341.085C239.515 340.972 239.698 340.807 239.842 340.591C239.99 340.371 240.087 340.108 240.132 339.801H242.416C242.378 340.468 242.196 341.055 241.871 341.562C241.549 342.066 241.104 342.46 240.536 342.744C239.967 343.028 239.295 343.17 238.518 343.17ZM246.159 340.489L246.165 337.585H246.517L249.312 334.273H252.091L248.335 338.659H247.761L246.159 340.489ZM243.966 343V331.364H246.386V343H243.966ZM249.42 343L246.852 339.199L248.466 337.489L252.256 343H249.42ZM256.896 343.17C255.999 343.17 255.226 342.989 254.578 342.625C253.934 342.258 253.438 341.739 253.089 341.068C252.741 340.394 252.567 339.597 252.567 338.676C252.567 337.778 252.741 336.991 253.089 336.312C253.438 335.634 253.929 335.106 254.561 334.727C255.197 334.348 255.944 334.159 256.8 334.159C257.375 334.159 257.911 334.252 258.408 334.438C258.908 334.619 259.343 334.894 259.714 335.261C260.089 335.629 260.381 336.091 260.589 336.648C260.798 337.201 260.902 337.848 260.902 338.591V339.256H253.533V337.756H258.624C258.624 337.407 258.548 337.098 258.396 336.83C258.245 336.561 258.035 336.35 257.766 336.199C257.5 336.044 257.192 335.966 256.839 335.966C256.472 335.966 256.146 336.051 255.862 336.222C255.582 336.388 255.362 336.614 255.203 336.898C255.044 337.178 254.963 337.491 254.959 337.835V339.261C254.959 339.693 255.038 340.066 255.197 340.381C255.36 340.695 255.589 340.938 255.885 341.108C256.18 341.278 256.531 341.364 256.936 341.364C257.205 341.364 257.451 341.326 257.675 341.25C257.898 341.174 258.089 341.061 258.249 340.909C258.408 340.758 258.529 340.572 258.612 340.352L260.851 340.5C260.737 341.038 260.504 341.508 260.152 341.909C259.804 342.307 259.353 342.617 258.8 342.841C258.25 343.061 257.616 343.17 256.896 343.17ZM265.697 343.142C265.035 343.142 264.434 342.972 263.896 342.631C263.362 342.286 262.938 341.78 262.624 341.114C262.313 340.443 262.158 339.621 262.158 338.648C262.158 337.648 262.319 336.816 262.641 336.153C262.963 335.487 263.391 334.989 263.925 334.659C264.463 334.326 265.052 334.159 265.692 334.159C266.18 334.159 266.588 334.242 266.913 334.409C267.243 334.572 267.508 334.777 267.709 335.023C267.913 335.265 268.069 335.504 268.175 335.739H268.249V331.364H270.663V343H268.277V341.602H268.175C268.061 341.845 267.9 342.085 267.692 342.324C267.487 342.559 267.22 342.754 266.891 342.909C266.565 343.064 266.167 343.142 265.697 343.142ZM266.464 341.216C266.855 341.216 267.184 341.11 267.453 340.898C267.726 340.682 267.934 340.381 268.078 339.994C268.226 339.608 268.3 339.155 268.3 338.636C268.3 338.117 268.228 337.667 268.084 337.284C267.94 336.902 267.732 336.606 267.459 336.398C267.186 336.189 266.855 336.085 266.464 336.085C266.067 336.085 265.732 336.193 265.459 336.409C265.186 336.625 264.98 336.924 264.839 337.307C264.699 337.689 264.629 338.133 264.629 338.636C264.629 339.144 264.699 339.593 264.839 339.983C264.983 340.369 265.19 340.672 265.459 340.892C265.732 341.108 266.067 341.216 266.464 341.216Z" fill="#FF1111"/>
<rect x="26" y="805" width="377" height="66" fill="#ACACAC"/>
<rect x="55" y="814" width="51" height="48" fill="#D9D9D9"/>
<rect x="122" y="814" width="51" height="48" fill="#D9D9D9"/>
<rect x="189" y="814" width="51" height="48" fill="#D9D9D9"/>
<rect x="256" y="814" width="51" height="48" fill="#D9D9D9"/>
<rect x="323" y="814" width="51" height="48" fill="#D9D9D9"/>
<line x1="111.794" y1="686.108" x2="316.794" y2="409.108" stroke="black" stroke-width="3"/>
<line x1="111.638" y1="411.427" x2="319.197" y2="686.096" stroke="black" stroke-width="3"/>
</svg>
