<svg width="428" height="926" viewBox="0 0 428 926" fill="none" xmlns="http://www.w3.org/2000/svg">
<rect width="428" height="926" fill="#6B6B6B"/>
<path d="M26 289H403V871H26V289Z" fill="#1E1E1E"/>
<rect x="132" y="335" width="165" height="41" fill="#ACACAC"/>
<rect x="135" y="737.5" width="159" height="34" rx="5.5" fill="#00D8FF"/>
<rect x="135" y="737.5" width="159" height="34" rx="5.5" stroke="#00D8FF"/>
<path d="M199.557 759V750.273H200.614V758.062H204.67V759H199.557ZM208.83 759.136C208.239 759.136 207.72 758.996 207.274 758.714C206.831 758.433 206.484 758.04 206.234 757.534C205.987 757.028 205.864 756.437 205.864 755.761C205.864 755.08 205.987 754.484 206.234 753.976C206.484 753.467 206.831 753.072 207.274 752.791C207.72 752.51 208.239 752.369 208.83 752.369C209.42 752.369 209.938 752.51 210.381 752.791C210.827 753.072 211.173 753.467 211.42 753.976C211.67 754.484 211.795 755.08 211.795 755.761C211.795 756.437 211.67 757.028 211.42 757.534C211.173 758.04 210.827 758.433 210.381 758.714C209.938 758.996 209.42 759.136 208.83 759.136ZM208.83 758.233C209.278 758.233 209.648 758.118 209.938 757.888C210.227 757.658 210.442 757.355 210.581 756.98C210.72 756.605 210.79 756.199 210.79 755.761C210.79 755.324 210.72 754.916 210.581 754.538C210.442 754.161 210.227 753.855 209.938 753.622C209.648 753.389 209.278 753.273 208.83 753.273C208.381 753.273 208.011 753.389 207.722 753.622C207.432 753.855 207.217 754.161 207.078 754.538C206.939 754.916 206.869 755.324 206.869 755.761C206.869 756.199 206.939 756.605 207.078 756.98C207.217 757.355 207.432 757.658 207.722 757.888C208.011 758.118 208.381 758.233 208.83 758.233ZM215.973 761.591C215.487 761.591 215.069 761.528 214.72 761.403C214.37 761.281 214.079 761.119 213.846 760.918C213.616 760.719 213.433 760.506 213.297 760.278L214.098 759.716C214.189 759.835 214.304 759.972 214.443 760.125C214.582 760.281 214.772 760.416 215.014 760.53C215.258 760.646 215.578 760.705 215.973 760.705C216.501 760.705 216.937 760.577 217.281 760.321C217.625 760.065 217.797 759.665 217.797 759.119V757.79H217.711C217.637 757.909 217.532 758.057 217.396 758.233C217.262 758.406 217.069 758.561 216.816 758.697C216.566 758.831 216.228 758.898 215.802 758.898C215.274 758.898 214.799 758.773 214.379 758.523C213.961 758.273 213.63 757.909 213.386 757.432C213.145 756.955 213.024 756.375 213.024 755.693C213.024 755.023 213.142 754.439 213.377 753.942C213.613 753.442 213.941 753.055 214.362 752.783C214.782 752.507 215.268 752.369 215.819 752.369C216.245 752.369 216.583 752.44 216.833 752.582C217.086 752.722 217.279 752.881 217.413 753.06C217.549 753.236 217.654 753.381 217.728 753.494H217.831V752.455H218.802V759.188C218.802 759.75 218.674 760.207 218.419 760.56C218.166 760.915 217.825 761.175 217.396 761.339C216.97 761.507 216.495 761.591 215.973 761.591ZM215.939 757.994C216.342 757.994 216.683 757.902 216.961 757.717C217.24 757.533 217.451 757.267 217.596 756.92C217.741 756.574 217.814 756.159 217.814 755.676C217.814 755.205 217.743 754.788 217.6 754.428C217.458 754.067 217.248 753.784 216.97 753.58C216.691 753.375 216.348 753.273 215.939 753.273C215.512 753.273 215.157 753.381 214.873 753.597C214.592 753.812 214.38 754.102 214.238 754.466C214.099 754.83 214.029 755.233 214.029 755.676C214.029 756.131 214.1 756.533 214.243 756.882C214.387 757.229 214.6 757.501 214.882 757.7C215.166 757.896 215.518 757.994 215.939 757.994ZM220.643 759V752.455H221.649V759H220.643ZM221.154 751.364C220.958 751.364 220.789 751.297 220.647 751.163C220.508 751.03 220.439 750.869 220.439 750.682C220.439 750.494 220.508 750.334 220.647 750.2C220.789 750.067 220.958 750 221.154 750C221.35 750 221.518 750.067 221.657 750.2C221.799 750.334 221.87 750.494 221.87 750.682C221.87 750.869 221.799 751.03 221.657 751.163C221.518 751.297 221.35 751.364 221.154 751.364ZM224.496 755.062V759H223.491V752.455H224.462V753.477H224.548C224.701 753.145 224.934 752.878 225.246 752.676C225.559 752.472 225.962 752.369 226.457 752.369C226.9 752.369 227.288 752.46 227.62 752.642C227.952 752.821 228.211 753.094 228.396 753.46C228.58 753.824 228.673 754.284 228.673 754.841V759H227.667V754.909C227.667 754.395 227.533 753.994 227.266 753.707C226.999 753.418 226.633 753.273 226.167 753.273C225.846 753.273 225.559 753.342 225.306 753.482C225.056 753.621 224.859 753.824 224.714 754.091C224.569 754.358 224.496 754.682 224.496 755.062Z" fill="black"/>
<rect x="106.5" y="784.5" width="216" height="34" rx="5.5" stroke="#00D8FF"/>
<path d="M178.08 800H177.023C176.96 799.696 176.851 799.429 176.695 799.199C176.541 798.969 176.354 798.776 176.132 798.619C175.913 798.46 175.67 798.341 175.403 798.261C175.136 798.182 174.858 798.142 174.568 798.142C174.04 798.142 173.561 798.276 173.132 798.543C172.706 798.81 172.366 799.203 172.114 799.723C171.864 800.243 171.739 800.881 171.739 801.636C171.739 802.392 171.864 803.03 172.114 803.55C172.366 804.07 172.706 804.463 173.132 804.73C173.561 804.997 174.04 805.131 174.568 805.131C174.858 805.131 175.136 805.091 175.403 805.011C175.67 804.932 175.913 804.814 176.132 804.658C176.354 804.499 176.541 804.304 176.695 804.074C176.851 803.841 176.96 803.574 177.023 803.273H178.08C178 803.719 177.855 804.118 177.645 804.47C177.435 804.822 177.173 805.122 176.861 805.369C176.548 805.614 176.197 805.8 175.808 805.928C175.422 806.055 175.009 806.119 174.568 806.119C173.824 806.119 173.162 805.938 172.582 805.574C172.003 805.21 171.547 804.693 171.214 804.023C170.882 803.352 170.716 802.557 170.716 801.636C170.716 800.716 170.882 799.92 171.214 799.25C171.547 798.58 172.003 798.062 172.582 797.699C173.162 797.335 173.824 797.153 174.568 797.153C175.009 797.153 175.422 797.217 175.808 797.345C176.197 797.473 176.548 797.661 176.861 797.908C177.173 798.152 177.435 798.45 177.645 798.803C177.855 799.152 178 799.551 178.08 800ZM179.651 806V799.455H180.623V800.443H180.691C180.81 800.119 181.026 799.857 181.338 799.655C181.651 799.453 182.003 799.352 182.395 799.352C182.469 799.352 182.561 799.354 182.672 799.357C182.783 799.359 182.867 799.364 182.924 799.369V800.392C182.89 800.384 182.811 800.371 182.689 800.354C182.57 800.334 182.444 800.324 182.31 800.324C181.992 800.324 181.708 800.391 181.458 800.524C181.211 800.655 181.015 800.837 180.87 801.07C180.728 801.3 180.657 801.562 180.657 801.858V806H179.651ZM186.661 806.136C186.03 806.136 185.486 805.997 185.029 805.719C184.574 805.438 184.223 805.045 183.976 804.543C183.732 804.037 183.61 803.449 183.61 802.778C183.61 802.108 183.732 801.517 183.976 801.006C184.223 800.491 184.567 800.091 185.007 799.804C185.451 799.514 185.968 799.369 186.559 799.369C186.9 799.369 187.236 799.426 187.569 799.54C187.901 799.653 188.203 799.838 188.476 800.094C188.749 800.347 188.966 800.682 189.128 801.099C189.29 801.517 189.371 802.031 189.371 802.642V803.068H184.326V802.199H188.348C188.348 801.83 188.275 801.5 188.127 801.21C187.982 800.92 187.775 800.692 187.505 800.524C187.238 800.357 186.922 800.273 186.559 800.273C186.158 800.273 185.811 800.372 185.519 800.571C185.229 800.767 185.006 801.023 184.85 801.338C184.694 801.653 184.615 801.991 184.615 802.352V802.932C184.615 803.426 184.701 803.845 184.871 804.189C185.044 804.53 185.284 804.79 185.591 804.969C185.898 805.145 186.255 805.233 186.661 805.233C186.925 805.233 187.164 805.196 187.377 805.122C187.593 805.045 187.779 804.932 187.935 804.781C188.091 804.628 188.212 804.437 188.297 804.21L189.269 804.483C189.167 804.812 188.995 805.102 188.753 805.352C188.512 805.599 188.213 805.793 187.858 805.932C187.503 806.068 187.104 806.136 186.661 806.136ZM192.827 806.153C192.412 806.153 192.036 806.075 191.698 805.919C191.36 805.76 191.091 805.531 190.892 805.233C190.694 804.932 190.594 804.568 190.594 804.142C190.594 803.767 190.668 803.463 190.816 803.23C190.963 802.994 191.161 802.81 191.408 802.676C191.655 802.543 191.928 802.443 192.226 802.378C192.527 802.31 192.83 802.256 193.134 802.216C193.532 802.165 193.854 802.126 194.101 802.101C194.351 802.072 194.533 802.026 194.647 801.96C194.763 801.895 194.821 801.781 194.821 801.619V801.585C194.821 801.165 194.706 800.838 194.476 800.605C194.249 800.372 193.904 800.256 193.441 800.256C192.961 800.256 192.584 800.361 192.311 800.571C192.039 800.781 191.847 801.006 191.736 801.244L190.782 800.903C190.952 800.506 191.179 800.196 191.463 799.974C191.75 799.75 192.063 799.594 192.401 799.506C192.742 799.415 193.077 799.369 193.407 799.369C193.617 799.369 193.858 799.395 194.131 799.446C194.407 799.494 194.672 799.595 194.928 799.749C195.186 799.902 195.401 800.134 195.571 800.443C195.742 800.753 195.827 801.168 195.827 801.688V806H194.821V805.114H194.77C194.702 805.256 194.588 805.408 194.429 805.57C194.27 805.732 194.059 805.869 193.794 805.983C193.53 806.097 193.208 806.153 192.827 806.153ZM192.98 805.25C193.378 805.25 193.713 805.172 193.986 805.016C194.262 804.859 194.469 804.658 194.608 804.411C194.75 804.163 194.821 803.903 194.821 803.631V802.71C194.779 802.761 194.685 802.808 194.54 802.851C194.398 802.891 194.233 802.926 194.046 802.957C193.861 802.986 193.681 803.011 193.505 803.034C193.331 803.054 193.191 803.071 193.083 803.085C192.821 803.119 192.577 803.175 192.35 803.251C192.125 803.325 191.944 803.437 191.804 803.588C191.668 803.736 191.6 803.937 191.6 804.193C191.6 804.543 191.729 804.807 191.988 804.986C192.249 805.162 192.58 805.25 192.98 805.25ZM200.509 799.455V800.307H197.117V799.455H200.509ZM198.106 797.886H199.112V804.125C199.112 804.409 199.153 804.622 199.235 804.764C199.32 804.903 199.428 804.997 199.559 805.045C199.692 805.091 199.833 805.114 199.981 805.114C200.092 805.114 200.183 805.108 200.254 805.097C200.325 805.082 200.381 805.071 200.424 805.062L200.629 805.966C200.56 805.991 200.465 806.017 200.343 806.043C200.221 806.071 200.066 806.085 199.879 806.085C199.594 806.085 199.316 806.024 199.043 805.902C198.773 805.78 198.549 805.594 198.37 805.344C198.194 805.094 198.106 804.778 198.106 804.398V797.886ZM204.696 806.136C204.065 806.136 203.521 805.997 203.064 805.719C202.609 805.438 202.259 805.045 202.011 804.543C201.767 804.037 201.645 803.449 201.645 802.778C201.645 802.108 201.767 801.517 202.011 801.006C202.259 800.491 202.602 800.091 203.043 799.804C203.486 799.514 204.003 799.369 204.594 799.369C204.935 799.369 205.271 799.426 205.604 799.54C205.936 799.653 206.239 799.838 206.511 800.094C206.784 800.347 207.001 800.682 207.163 801.099C207.325 801.517 207.406 802.031 207.406 802.642V803.068H202.361V802.199H206.384C206.384 801.83 206.31 801.5 206.162 801.21C206.017 800.92 205.81 800.692 205.54 800.524C205.273 800.357 204.957 800.273 204.594 800.273C204.193 800.273 203.847 800.372 203.554 800.571C203.264 800.767 203.041 801.023 202.885 801.338C202.729 801.653 202.651 801.991 202.651 802.352V802.932C202.651 803.426 202.736 803.845 202.906 804.189C203.08 804.53 203.32 804.79 203.626 804.969C203.933 805.145 204.29 805.233 204.696 805.233C204.96 805.233 205.199 805.196 205.412 805.122C205.628 805.045 205.814 804.932 205.97 804.781C206.126 804.628 206.247 804.437 206.332 804.21L207.304 804.483C207.202 804.812 207.03 805.102 206.788 805.352C206.547 805.599 206.249 805.793 205.893 805.932C205.538 806.068 205.139 806.136 204.696 806.136ZM212.805 806H211.697L214.902 797.273H215.993L219.197 806H218.089L215.482 798.653H215.413L212.805 806ZM213.214 802.591H217.68V803.528H213.214V802.591ZM223.08 806.136C222.466 806.136 221.938 805.991 221.494 805.702C221.051 805.412 220.71 805.013 220.472 804.504C220.233 803.996 220.114 803.415 220.114 802.761C220.114 802.097 220.236 801.51 220.48 801.001C220.727 800.49 221.071 800.091 221.511 799.804C221.955 799.514 222.472 799.369 223.062 799.369C223.523 799.369 223.938 799.455 224.307 799.625C224.676 799.795 224.979 800.034 225.214 800.341C225.45 800.648 225.597 801.006 225.653 801.415H224.648C224.571 801.116 224.401 800.852 224.136 800.622C223.875 800.389 223.523 800.273 223.08 800.273C222.688 800.273 222.344 800.375 222.048 800.58C221.756 800.781 221.527 801.067 221.362 801.436C221.2 801.803 221.119 802.233 221.119 802.727C221.119 803.233 221.199 803.673 221.358 804.048C221.52 804.423 221.747 804.714 222.04 804.922C222.335 805.129 222.682 805.233 223.08 805.233C223.341 805.233 223.578 805.188 223.791 805.097C224.004 805.006 224.185 804.875 224.332 804.705C224.48 804.534 224.585 804.33 224.648 804.091H225.653C225.597 804.477 225.456 804.825 225.232 805.135C225.01 805.442 224.716 805.686 224.349 805.868C223.986 806.047 223.563 806.136 223.08 806.136ZM229.783 806.136C229.169 806.136 228.641 805.991 228.197 805.702C227.754 805.412 227.413 805.013 227.175 804.504C226.936 803.996 226.817 803.415 226.817 802.761C226.817 802.097 226.939 801.51 227.183 801.001C227.43 800.49 227.774 800.091 228.214 799.804C228.658 799.514 229.175 799.369 229.766 799.369C230.226 799.369 230.641 799.455 231.01 799.625C231.379 799.795 231.682 800.034 231.918 800.341C232.153 800.648 232.3 801.006 232.357 801.415H231.351C231.274 801.116 231.104 800.852 230.839 800.622C230.578 800.389 230.226 800.273 229.783 800.273C229.391 800.273 229.047 800.375 228.751 800.58C228.459 800.781 228.23 801.067 228.065 801.436C227.903 801.803 227.822 802.233 227.822 802.727C227.822 803.233 227.902 803.673 228.061 804.048C228.223 804.423 228.45 804.714 228.743 804.922C229.038 805.129 229.385 805.233 229.783 805.233C230.044 805.233 230.281 805.188 230.494 805.097C230.707 805.006 230.888 804.875 231.036 804.705C231.183 804.534 231.288 804.33 231.351 804.091H232.357C232.3 804.477 232.159 804.825 231.935 805.135C231.713 805.442 231.419 805.686 231.053 805.868C230.689 806.047 230.266 806.136 229.783 806.136ZM236.486 806.136C235.895 806.136 235.376 805.996 234.93 805.714C234.487 805.433 234.141 805.04 233.891 804.534C233.643 804.028 233.52 803.437 233.52 802.761C233.52 802.08 233.643 801.484 233.891 800.976C234.141 800.467 234.487 800.072 234.93 799.791C235.376 799.51 235.895 799.369 236.486 799.369C237.077 799.369 237.594 799.51 238.037 799.791C238.483 800.072 238.83 800.467 239.077 800.976C239.327 801.484 239.452 802.08 239.452 802.761C239.452 803.437 239.327 804.028 239.077 804.534C238.83 805.04 238.483 805.433 238.037 805.714C237.594 805.996 237.077 806.136 236.486 806.136ZM236.486 805.233C236.935 805.233 237.304 805.118 237.594 804.888C237.884 804.658 238.098 804.355 238.237 803.98C238.376 803.605 238.446 803.199 238.446 802.761C238.446 802.324 238.376 801.916 238.237 801.538C238.098 801.161 237.884 800.855 237.594 800.622C237.304 800.389 236.935 800.273 236.486 800.273C236.037 800.273 235.668 800.389 235.378 800.622C235.088 800.855 234.874 801.161 234.734 801.538C234.595 801.916 234.526 802.324 234.526 802.761C234.526 803.199 234.595 803.605 234.734 803.98C234.874 804.355 235.088 804.658 235.378 804.888C235.668 805.118 236.037 805.233 236.486 805.233ZM245.112 803.324V799.455H246.118V806H245.112V804.892H245.044C244.89 805.224 244.652 805.507 244.328 805.74C244.004 805.97 243.595 806.085 243.1 806.085C242.691 806.085 242.328 805.996 242.01 805.817C241.691 805.635 241.441 805.362 241.26 804.999C241.078 804.632 240.987 804.17 240.987 803.614V799.455H241.993V803.545C241.993 804.023 242.126 804.403 242.393 804.688C242.663 804.972 243.007 805.114 243.424 805.114C243.674 805.114 243.929 805.05 244.187 804.922C244.449 804.794 244.667 804.598 244.843 804.334C245.022 804.07 245.112 803.733 245.112 803.324ZM248.965 802.062V806H247.96V799.455H248.931V800.477H249.016C249.17 800.145 249.403 799.878 249.715 799.676C250.028 799.472 250.431 799.369 250.925 799.369C251.369 799.369 251.756 799.46 252.089 799.642C252.421 799.821 252.68 800.094 252.864 800.46C253.049 800.824 253.141 801.284 253.141 801.841V806H252.136V801.909C252.136 801.395 252.002 800.994 251.735 800.707C251.468 800.418 251.102 800.273 250.636 800.273C250.315 800.273 250.028 800.342 249.775 800.482C249.525 800.621 249.327 800.824 249.183 801.091C249.038 801.358 248.965 801.682 248.965 802.062ZM257.826 799.455V800.307H254.434V799.455H257.826ZM255.422 797.886H256.428V804.125C256.428 804.409 256.469 804.622 256.551 804.764C256.637 804.903 256.745 804.997 256.875 805.045C257.009 805.091 257.15 805.114 257.297 805.114C257.408 805.114 257.499 805.108 257.57 805.097C257.641 805.082 257.698 805.071 257.74 805.062L257.945 805.966C257.877 805.991 257.782 806.017 257.659 806.043C257.537 806.071 257.382 806.085 257.195 806.085C256.911 806.085 256.632 806.024 256.36 805.902C256.09 805.78 255.865 805.594 255.686 805.344C255.51 805.094 255.422 804.778 255.422 804.398V797.886Z" fill="#00D8FF"/>
<path d="M123.214 459V447.364H130.237V448.614H124.623V452.545H129.873V453.795H124.623V457.75H130.327V459H123.214ZM133.935 453.75V459H132.594V450.273H133.89V451.636H134.004C134.208 451.193 134.519 450.837 134.935 450.568C135.352 450.295 135.89 450.159 136.549 450.159C137.14 450.159 137.657 450.28 138.1 450.523C138.543 450.761 138.888 451.125 139.134 451.614C139.38 452.098 139.504 452.712 139.504 453.455V459H138.163V453.545C138.163 452.86 137.985 452.326 137.629 451.943C137.272 451.557 136.784 451.364 136.163 451.364C135.735 451.364 135.352 451.456 135.015 451.642C134.682 451.828 134.418 452.098 134.225 452.455C134.032 452.811 133.935 453.242 133.935 453.75ZM145.749 450.273V451.409H141.227V450.273H145.749ZM142.545 448.182H143.886V456.5C143.886 456.879 143.941 457.163 144.05 457.352C144.164 457.538 144.308 457.663 144.482 457.727C144.66 457.788 144.848 457.818 145.045 457.818C145.192 457.818 145.314 457.811 145.408 457.795C145.503 457.777 145.579 457.761 145.636 457.75L145.908 458.955C145.817 458.989 145.691 459.023 145.528 459.057C145.365 459.095 145.158 459.114 144.908 459.114C144.53 459.114 144.158 459.032 143.795 458.869C143.435 458.706 143.136 458.458 142.897 458.125C142.662 457.792 142.545 457.371 142.545 456.864V448.182ZM151.332 459.182C150.491 459.182 149.765 458.996 149.156 458.625C148.549 458.25 148.082 457.727 147.752 457.057C147.426 456.383 147.263 455.598 147.263 454.705C147.263 453.811 147.426 453.023 147.752 452.341C148.082 451.655 148.54 451.121 149.127 450.739C149.718 450.352 150.407 450.159 151.195 450.159C151.65 450.159 152.099 450.235 152.542 450.386C152.985 450.538 153.388 450.784 153.752 451.125C154.116 451.462 154.406 451.909 154.621 452.466C154.837 453.023 154.945 453.708 154.945 454.523V455.091H148.218V453.932H153.582C153.582 453.439 153.483 453 153.286 452.614C153.093 452.227 152.817 451.922 152.457 451.699C152.101 451.475 151.68 451.364 151.195 451.364C150.661 451.364 150.199 451.496 149.809 451.761C149.423 452.023 149.125 452.364 148.917 452.784C148.709 453.205 148.604 453.655 148.604 454.136V454.909C148.604 455.568 148.718 456.127 148.945 456.585C149.176 457.04 149.496 457.386 149.906 457.625C150.315 457.86 150.79 457.977 151.332 457.977C151.684 457.977 152.002 457.928 152.286 457.83C152.574 457.727 152.822 457.576 153.031 457.375C153.239 457.17 153.4 456.917 153.513 456.614L154.809 456.977C154.673 457.417 154.443 457.803 154.121 458.136C153.799 458.466 153.402 458.723 152.928 458.909C152.455 459.091 151.923 459.182 151.332 459.182ZM156.985 459V450.273H158.281V451.591H158.371C158.531 451.159 158.818 450.809 159.235 450.54C159.652 450.271 160.121 450.136 160.644 450.136C160.743 450.136 160.866 450.138 161.013 450.142C161.161 450.146 161.273 450.152 161.349 450.159V451.523C161.303 451.511 161.199 451.494 161.036 451.472C160.877 451.445 160.709 451.432 160.531 451.432C160.106 451.432 159.728 451.521 159.394 451.699C159.065 451.873 158.803 452.116 158.61 452.426C158.421 452.733 158.326 453.083 158.326 453.477V459H156.985ZM168.302 462.273C168.075 462.273 167.872 462.254 167.694 462.216C167.516 462.182 167.393 462.148 167.325 462.114L167.665 460.932C167.991 461.015 168.279 461.045 168.529 461.023C168.779 461 169.001 460.888 169.194 460.688C169.391 460.491 169.571 460.17 169.734 459.727L169.984 459.045L166.756 450.273H168.211L170.62 457.227H170.711L173.12 450.273H174.575L170.87 460.273C170.703 460.723 170.497 461.097 170.251 461.392C170.004 461.691 169.719 461.913 169.393 462.057C169.071 462.201 168.707 462.273 168.302 462.273ZM179.577 459.182C178.79 459.182 178.098 458.994 177.504 458.619C176.913 458.244 176.451 457.72 176.117 457.045C175.788 456.371 175.623 455.583 175.623 454.682C175.623 453.773 175.788 452.979 176.117 452.301C176.451 451.623 176.913 451.097 177.504 450.722C178.098 450.347 178.79 450.159 179.577 450.159C180.365 450.159 181.055 450.347 181.646 450.722C182.24 451.097 182.702 451.623 183.032 452.301C183.365 452.979 183.532 453.773 183.532 454.682C183.532 455.583 183.365 456.371 183.032 457.045C182.702 457.72 182.24 458.244 181.646 458.619C181.055 458.994 180.365 459.182 179.577 459.182ZM179.577 457.977C180.176 457.977 180.668 457.824 181.055 457.517C181.441 457.21 181.727 456.807 181.913 456.307C182.098 455.807 182.191 455.265 182.191 454.682C182.191 454.098 182.098 453.555 181.913 453.051C181.727 452.547 181.441 452.14 181.055 451.83C180.668 451.519 180.176 451.364 179.577 451.364C178.979 451.364 178.487 451.519 178.1 451.83C177.714 452.14 177.428 452.547 177.242 453.051C177.057 453.555 176.964 454.098 176.964 454.682C176.964 455.265 177.057 455.807 177.242 456.307C177.428 456.807 177.714 457.21 178.1 457.517C178.487 457.824 178.979 457.977 179.577 457.977ZM191.079 455.432V450.273H192.42V459H191.079V457.523H190.988C190.783 457.966 190.465 458.343 190.033 458.653C189.602 458.96 189.056 459.114 188.397 459.114C187.852 459.114 187.367 458.994 186.942 458.756C186.518 458.513 186.185 458.15 185.942 457.665C185.7 457.176 185.579 456.561 185.579 455.818V450.273H186.92V455.727C186.92 456.364 187.098 456.871 187.454 457.25C187.814 457.629 188.272 457.818 188.829 457.818C189.162 457.818 189.501 457.733 189.846 457.562C190.194 457.392 190.486 457.131 190.721 456.778C190.96 456.426 191.079 455.977 191.079 455.432ZM194.876 459V450.273H196.171V451.591H196.262C196.421 451.159 196.709 450.809 197.126 450.54C197.542 450.271 198.012 450.136 198.535 450.136C198.633 450.136 198.756 450.138 198.904 450.142C199.052 450.146 199.164 450.152 199.239 450.159V451.523C199.194 451.511 199.09 451.494 198.927 451.472C198.768 451.445 198.599 451.432 198.421 451.432C197.997 451.432 197.618 451.521 197.285 451.699C196.955 451.873 196.694 452.116 196.501 452.426C196.311 452.733 196.217 453.083 196.217 453.477V459H194.876ZM208.874 459.182C208.056 459.182 207.352 458.989 206.761 458.602C206.17 458.216 205.715 457.684 205.397 457.006C205.079 456.328 204.92 455.553 204.92 454.682C204.92 453.795 205.083 453.013 205.408 452.335C205.738 451.653 206.196 451.121 206.783 450.739C207.374 450.352 208.064 450.159 208.852 450.159C209.465 450.159 210.018 450.273 210.511 450.5C211.003 450.727 211.406 451.045 211.721 451.455C212.035 451.864 212.23 452.341 212.306 452.886H210.965C210.863 452.489 210.636 452.136 210.283 451.83C209.935 451.519 209.465 451.364 208.874 451.364C208.352 451.364 207.893 451.5 207.499 451.773C207.109 452.042 206.804 452.422 206.585 452.915C206.369 453.403 206.261 453.977 206.261 454.636C206.261 455.311 206.367 455.898 206.579 456.398C206.795 456.898 207.098 457.286 207.488 457.562C207.882 457.839 208.344 457.977 208.874 457.977C209.223 457.977 209.539 457.917 209.823 457.795C210.107 457.674 210.348 457.5 210.545 457.273C210.742 457.045 210.882 456.773 210.965 456.455H212.306C212.23 456.97 212.043 457.434 211.744 457.847C211.448 458.256 211.056 458.581 210.567 458.824C210.083 459.062 209.518 459.182 208.874 459.182ZM214.266 459V450.273H215.562V451.591H215.653C215.812 451.159 216.1 450.809 216.516 450.54C216.933 450.271 217.403 450.136 217.925 450.136C218.024 450.136 218.147 450.138 218.295 450.142C218.442 450.146 218.554 450.152 218.63 450.159V451.523C218.585 451.511 218.48 451.494 218.317 451.472C218.158 451.445 217.99 451.432 217.812 451.432C217.388 451.432 217.009 451.521 216.675 451.699C216.346 451.873 216.085 452.116 215.891 452.426C215.702 452.733 215.607 453.083 215.607 453.477V459H214.266ZM223.613 459.182C222.772 459.182 222.047 458.996 221.437 458.625C220.831 458.25 220.363 457.727 220.033 457.057C219.708 456.383 219.545 455.598 219.545 454.705C219.545 453.811 219.708 453.023 220.033 452.341C220.363 451.655 220.821 451.121 221.408 450.739C221.999 450.352 222.689 450.159 223.477 450.159C223.931 450.159 224.38 450.235 224.823 450.386C225.266 450.538 225.67 450.784 226.033 451.125C226.397 451.462 226.687 451.909 226.903 452.466C227.119 453.023 227.227 453.708 227.227 454.523V455.091H220.499V453.932H225.863C225.863 453.439 225.764 453 225.567 452.614C225.374 452.227 225.098 451.922 224.738 451.699C224.382 451.475 223.961 451.364 223.477 451.364C222.942 451.364 222.48 451.496 222.09 451.761C221.704 452.023 221.406 452.364 221.198 452.784C220.99 453.205 220.886 453.655 220.886 454.136V454.909C220.886 455.568 220.999 456.127 221.227 456.585C221.458 457.04 221.778 457.386 222.187 457.625C222.596 457.86 223.071 457.977 223.613 457.977C223.965 457.977 224.283 457.928 224.567 457.83C224.855 457.727 225.103 457.576 225.312 457.375C225.52 457.17 225.681 456.917 225.795 456.614L227.09 456.977C226.954 457.417 226.725 457.803 226.403 458.136C226.081 458.466 225.683 458.723 225.21 458.909C224.736 459.091 224.204 459.182 223.613 459.182ZM232.562 459.182C231.835 459.182 231.192 458.998 230.636 458.631C230.079 458.259 229.643 457.737 229.329 457.062C229.014 456.384 228.857 455.583 228.857 454.659C228.857 453.742 229.014 452.947 229.329 452.273C229.643 451.598 230.081 451.078 230.641 450.71C231.202 450.343 231.85 450.159 232.585 450.159C233.153 450.159 233.602 450.254 233.931 450.443C234.264 450.629 234.518 450.841 234.692 451.08C234.871 451.314 235.009 451.508 235.107 451.659H235.221V447.364H236.562V459H235.266V457.659H235.107C235.009 457.818 234.869 458.019 234.687 458.261C234.505 458.5 234.246 458.714 233.908 458.903C233.571 459.089 233.122 459.182 232.562 459.182ZM232.744 457.977C233.281 457.977 233.736 457.837 234.107 457.557C234.478 457.273 234.761 456.881 234.954 456.381C235.147 455.877 235.244 455.295 235.244 454.636C235.244 453.985 235.149 453.415 234.96 452.926C234.77 452.434 234.49 452.051 234.119 451.778C233.747 451.502 233.289 451.364 232.744 451.364C232.175 451.364 231.702 451.509 231.323 451.801C230.948 452.089 230.666 452.481 230.477 452.977C230.291 453.47 230.198 454.023 230.198 454.636C230.198 455.258 230.293 455.822 230.482 456.33C230.675 456.833 230.96 457.235 231.335 457.534C231.713 457.83 232.183 457.977 232.744 457.977ZM242.863 459.182C242.022 459.182 241.297 458.996 240.687 458.625C240.081 458.25 239.613 457.727 239.283 457.057C238.958 456.383 238.795 455.598 238.795 454.705C238.795 453.811 238.958 453.023 239.283 452.341C239.613 451.655 240.071 451.121 240.658 450.739C241.249 450.352 241.939 450.159 242.727 450.159C243.181 450.159 243.63 450.235 244.073 450.386C244.516 450.538 244.92 450.784 245.283 451.125C245.647 451.462 245.937 451.909 246.153 452.466C246.369 453.023 246.477 453.708 246.477 454.523V455.091H239.749V453.932H245.113C245.113 453.439 245.014 453 244.817 452.614C244.624 452.227 244.348 451.922 243.988 451.699C243.632 451.475 243.211 451.364 242.727 451.364C242.192 451.364 241.73 451.496 241.34 451.761C240.954 452.023 240.656 452.364 240.448 452.784C240.24 453.205 240.136 453.655 240.136 454.136V454.909C240.136 455.568 240.249 456.127 240.477 456.585C240.708 457.04 241.028 457.386 241.437 457.625C241.846 457.86 242.321 457.977 242.863 457.977C243.215 457.977 243.533 457.928 243.817 457.83C244.105 457.727 244.353 457.576 244.562 457.375C244.77 457.17 244.931 456.917 245.045 456.614L246.34 456.977C246.204 457.417 245.975 457.803 245.653 458.136C245.331 458.466 244.933 458.723 244.46 458.909C243.986 459.091 243.454 459.182 242.863 459.182ZM249.857 453.75V459H248.516V450.273H249.812V451.636H249.925C250.13 451.193 250.441 450.837 250.857 450.568C251.274 450.295 251.812 450.159 252.471 450.159C253.062 450.159 253.579 450.28 254.022 450.523C254.465 450.761 254.81 451.125 255.056 451.614C255.302 452.098 255.425 452.712 255.425 453.455V459H254.085V453.545C254.085 452.86 253.906 452.326 253.55 451.943C253.194 451.557 252.706 451.364 252.085 451.364C251.656 451.364 251.274 451.456 250.937 451.642C250.603 451.828 250.34 452.098 250.147 452.455C249.954 452.811 249.857 453.242 249.857 453.75ZM261.671 450.273V451.409H257.148V450.273H261.671ZM258.467 448.182H259.808V456.5C259.808 456.879 259.862 457.163 259.972 457.352C260.086 457.538 260.23 457.663 260.404 457.727C260.582 457.788 260.77 457.818 260.967 457.818C261.114 457.818 261.236 457.811 261.33 457.795C261.425 457.777 261.501 457.761 261.558 457.75L261.83 458.955C261.739 458.989 261.612 459.023 261.45 459.057C261.287 459.095 261.08 459.114 260.83 459.114C260.451 459.114 260.08 459.032 259.717 458.869C259.357 458.706 259.058 458.458 258.819 458.125C258.584 457.792 258.467 457.371 258.467 456.864V448.182ZM263.688 459V450.273H265.029V459H263.688ZM264.37 448.818C264.109 448.818 263.883 448.729 263.694 448.551C263.508 448.373 263.415 448.159 263.415 447.909C263.415 447.659 263.508 447.445 263.694 447.267C263.883 447.089 264.109 447 264.37 447C264.631 447 264.855 447.089 265.04 447.267C265.23 447.445 265.325 447.659 265.325 447.909C265.325 448.159 265.23 448.373 265.04 448.551C264.855 448.729 264.631 448.818 264.37 448.818ZM270.053 459.205C269.5 459.205 268.998 459.1 268.548 458.892C268.097 458.68 267.739 458.375 267.474 457.977C267.209 457.576 267.076 457.091 267.076 456.523C267.076 456.023 267.174 455.617 267.371 455.307C267.568 454.992 267.832 454.746 268.161 454.568C268.491 454.39 268.854 454.258 269.252 454.17C269.654 454.08 270.057 454.008 270.462 453.955C270.993 453.886 271.423 453.835 271.752 453.801C272.085 453.763 272.328 453.701 272.479 453.614C272.635 453.527 272.712 453.375 272.712 453.159V453.114C272.712 452.553 272.559 452.117 272.252 451.807C271.949 451.496 271.489 451.341 270.871 451.341C270.231 451.341 269.729 451.481 269.366 451.761C269.002 452.042 268.746 452.341 268.599 452.659L267.326 452.205C267.553 451.674 267.856 451.261 268.235 450.966C268.618 450.667 269.034 450.458 269.485 450.341C269.94 450.22 270.387 450.159 270.826 450.159C271.106 450.159 271.428 450.193 271.792 450.261C272.159 450.326 272.513 450.46 272.854 450.665C273.199 450.869 273.485 451.178 273.712 451.591C273.94 452.004 274.053 452.557 274.053 453.25V459H272.712V457.818H272.644C272.553 458.008 272.402 458.21 272.19 458.426C271.978 458.642 271.695 458.826 271.343 458.977C270.991 459.129 270.561 459.205 270.053 459.205ZM270.258 458C270.788 458 271.235 457.896 271.599 457.688C271.966 457.479 272.243 457.21 272.428 456.881C272.618 456.551 272.712 456.205 272.712 455.841V454.614C272.656 454.682 272.531 454.744 272.337 454.801C272.148 454.854 271.928 454.902 271.678 454.943C271.432 454.981 271.192 455.015 270.957 455.045C270.726 455.072 270.538 455.095 270.394 455.114C270.046 455.159 269.72 455.233 269.417 455.335C269.118 455.434 268.875 455.583 268.69 455.784C268.508 455.981 268.417 456.25 268.417 456.591C268.417 457.057 268.589 457.409 268.934 457.648C269.282 457.883 269.724 458 270.258 458ZM277.842 447.364V459H276.501V447.364H277.842ZM286.479 452.227L285.275 452.568C285.199 452.367 285.087 452.172 284.94 451.983C284.796 451.79 284.599 451.631 284.349 451.506C284.099 451.381 283.779 451.318 283.388 451.318C282.854 451.318 282.409 451.441 282.053 451.688C281.701 451.93 281.525 452.239 281.525 452.614C281.525 452.947 281.646 453.21 281.888 453.403C282.131 453.597 282.51 453.758 283.025 453.886L284.32 454.205C285.101 454.394 285.682 454.684 286.065 455.074C286.447 455.46 286.638 455.958 286.638 456.568C286.638 457.068 286.495 457.515 286.207 457.909C285.923 458.303 285.525 458.614 285.013 458.841C284.502 459.068 283.907 459.182 283.229 459.182C282.339 459.182 281.603 458.989 281.019 458.602C280.436 458.216 280.067 457.652 279.911 456.909L281.184 456.591C281.305 457.061 281.534 457.413 281.871 457.648C282.212 457.883 282.657 458 283.207 458C283.832 458 284.328 457.867 284.695 457.602C285.067 457.333 285.252 457.011 285.252 456.636C285.252 456.333 285.146 456.08 284.934 455.875C284.722 455.667 284.396 455.511 283.957 455.409L282.502 455.068C281.703 454.879 281.116 454.585 280.741 454.188C280.37 453.786 280.184 453.284 280.184 452.682C280.184 452.189 280.322 451.754 280.599 451.375C280.879 450.996 281.26 450.699 281.741 450.483C282.226 450.267 282.775 450.159 283.388 450.159C284.252 450.159 284.93 450.348 285.423 450.727C285.919 451.106 286.271 451.606 286.479 452.227ZM296.952 450.273V451.409H292.43V450.273H296.952ZM293.748 448.182H295.089V456.5C295.089 456.879 295.144 457.163 295.254 457.352C295.367 457.538 295.511 457.663 295.685 457.727C295.863 457.788 296.051 457.818 296.248 457.818C296.396 457.818 296.517 457.811 296.612 457.795C296.706 457.777 296.782 457.761 296.839 457.75L297.112 458.955C297.021 458.989 296.894 459.023 296.731 459.057C296.568 459.095 296.362 459.114 296.112 459.114C295.733 459.114 295.362 459.032 294.998 458.869C294.638 458.706 294.339 458.458 294.1 458.125C293.865 457.792 293.748 457.371 293.748 456.864V448.182ZM302.421 459.182C301.633 459.182 300.942 458.994 300.347 458.619C299.756 458.244 299.294 457.72 298.961 457.045C298.631 456.371 298.467 455.583 298.467 454.682C298.467 453.773 298.631 452.979 298.961 452.301C299.294 451.623 299.756 451.097 300.347 450.722C300.942 450.347 301.633 450.159 302.421 450.159C303.209 450.159 303.898 450.347 304.489 450.722C305.084 451.097 305.546 451.623 305.876 452.301C306.209 452.979 306.376 453.773 306.376 454.682C306.376 455.583 306.209 456.371 305.876 457.045C305.546 457.72 305.084 458.244 304.489 458.619C303.898 458.994 303.209 459.182 302.421 459.182ZM302.421 457.977C303.02 457.977 303.512 457.824 303.898 457.517C304.285 457.21 304.571 456.807 304.756 456.307C304.942 455.807 305.035 455.265 305.035 454.682C305.035 454.098 304.942 453.555 304.756 453.051C304.571 452.547 304.285 452.14 303.898 451.83C303.512 451.519 303.02 451.364 302.421 451.364C301.823 451.364 301.33 451.519 300.944 451.83C300.558 452.14 300.272 452.547 300.086 453.051C299.9 453.555 299.808 454.098 299.808 454.682C299.808 455.265 299.9 455.807 300.086 456.307C300.272 456.807 300.558 457.21 300.944 457.517C301.33 457.824 301.823 457.977 302.421 457.977ZM133.17 478.205C132.617 478.205 132.116 478.1 131.665 477.892C131.214 477.68 130.856 477.375 130.591 476.977C130.326 476.576 130.193 476.091 130.193 475.523C130.193 475.023 130.292 474.617 130.489 474.307C130.686 473.992 130.949 473.746 131.278 473.568C131.608 473.39 131.972 473.258 132.369 473.17C132.771 473.08 133.174 473.008 133.58 472.955C134.11 472.886 134.54 472.835 134.869 472.801C135.203 472.763 135.445 472.701 135.597 472.614C135.752 472.527 135.83 472.375 135.83 472.159V472.114C135.83 471.553 135.676 471.117 135.369 470.807C135.066 470.496 134.606 470.341 133.989 470.341C133.348 470.341 132.847 470.481 132.483 470.761C132.119 471.042 131.864 471.341 131.716 471.659L130.443 471.205C130.67 470.674 130.973 470.261 131.352 469.966C131.735 469.667 132.152 469.458 132.602 469.341C133.057 469.22 133.504 469.159 133.943 469.159C134.223 469.159 134.545 469.193 134.909 469.261C135.277 469.326 135.631 469.46 135.972 469.665C136.316 469.869 136.602 470.178 136.83 470.591C137.057 471.004 137.17 471.557 137.17 472.25V478H135.83V476.818H135.761C135.67 477.008 135.519 477.21 135.307 477.426C135.095 477.642 134.813 477.826 134.46 477.977C134.108 478.129 133.678 478.205 133.17 478.205ZM133.375 477C133.905 477 134.352 476.896 134.716 476.688C135.083 476.479 135.36 476.21 135.545 475.881C135.735 475.551 135.83 475.205 135.83 474.841V473.614C135.773 473.682 135.648 473.744 135.455 473.801C135.265 473.854 135.045 473.902 134.795 473.943C134.549 473.981 134.309 474.015 134.074 474.045C133.843 474.072 133.655 474.095 133.511 474.114C133.163 474.159 132.837 474.233 132.534 474.335C132.235 474.434 131.992 474.583 131.807 474.784C131.625 474.981 131.534 475.25 131.534 475.591C131.534 476.057 131.706 476.409 132.051 476.648C132.4 476.883 132.841 477 133.375 477ZM143.163 478.182C142.345 478.182 141.641 477.989 141.05 477.602C140.459 477.216 140.004 476.684 139.686 476.006C139.368 475.328 139.209 474.553 139.209 473.682C139.209 472.795 139.372 472.013 139.697 471.335C140.027 470.653 140.485 470.121 141.072 469.739C141.663 469.352 142.353 469.159 143.141 469.159C143.754 469.159 144.307 469.273 144.8 469.5C145.292 469.727 145.696 470.045 146.01 470.455C146.324 470.864 146.519 471.341 146.595 471.886H145.254C145.152 471.489 144.925 471.136 144.572 470.83C144.224 470.519 143.754 470.364 143.163 470.364C142.641 470.364 142.182 470.5 141.788 470.773C141.398 471.042 141.093 471.422 140.874 471.915C140.658 472.403 140.55 472.977 140.55 473.636C140.55 474.311 140.656 474.898 140.868 475.398C141.084 475.898 141.387 476.286 141.777 476.562C142.171 476.839 142.633 476.977 143.163 476.977C143.512 476.977 143.828 476.917 144.112 476.795C144.396 476.674 144.637 476.5 144.834 476.273C145.031 476.045 145.171 475.773 145.254 475.455H146.595C146.519 475.97 146.332 476.434 146.033 476.847C145.737 477.256 145.345 477.581 144.857 477.824C144.372 478.062 143.807 478.182 143.163 478.182ZM152.101 478.182C151.283 478.182 150.578 477.989 149.987 477.602C149.396 477.216 148.942 476.684 148.624 476.006C148.305 475.328 148.146 474.553 148.146 473.682C148.146 472.795 148.309 472.013 148.635 471.335C148.964 470.653 149.423 470.121 150.01 469.739C150.601 469.352 151.29 469.159 152.078 469.159C152.692 469.159 153.245 469.273 153.737 469.5C154.23 469.727 154.633 470.045 154.947 470.455C155.262 470.864 155.457 471.341 155.533 471.886H154.192C154.089 471.489 153.862 471.136 153.51 470.83C153.161 470.519 152.692 470.364 152.101 470.364C151.578 470.364 151.12 470.5 150.726 470.773C150.336 471.042 150.031 471.422 149.811 471.915C149.595 472.403 149.487 472.977 149.487 473.636C149.487 474.311 149.593 474.898 149.805 475.398C150.021 475.898 150.324 476.286 150.714 476.562C151.108 476.839 151.571 476.977 152.101 476.977C152.449 476.977 152.766 476.917 153.05 476.795C153.334 476.674 153.574 476.5 153.771 476.273C153.968 476.045 154.108 475.773 154.192 475.455H155.533C155.457 475.97 155.269 476.434 154.97 476.847C154.675 477.256 154.283 477.581 153.794 477.824C153.309 478.062 152.745 478.182 152.101 478.182ZM161.152 478.182C160.311 478.182 159.586 477.996 158.976 477.625C158.37 477.25 157.902 476.727 157.572 476.057C157.247 475.383 157.084 474.598 157.084 473.705C157.084 472.811 157.247 472.023 157.572 471.341C157.902 470.655 158.36 470.121 158.947 469.739C159.538 469.352 160.228 469.159 161.016 469.159C161.47 469.159 161.919 469.235 162.362 469.386C162.805 469.538 163.209 469.784 163.572 470.125C163.936 470.462 164.226 470.909 164.442 471.466C164.658 472.023 164.766 472.708 164.766 473.523V474.091H158.038V472.932H163.402C163.402 472.439 163.304 472 163.107 471.614C162.913 471.227 162.637 470.922 162.277 470.699C161.921 470.475 161.5 470.364 161.016 470.364C160.482 470.364 160.019 470.496 159.629 470.761C159.243 471.023 158.946 471.364 158.737 471.784C158.529 472.205 158.425 472.655 158.425 473.136V473.909C158.425 474.568 158.538 475.127 158.766 475.585C158.997 476.04 159.317 476.386 159.726 476.625C160.135 476.86 160.61 476.977 161.152 476.977C161.504 476.977 161.822 476.928 162.107 476.83C162.394 476.727 162.643 476.576 162.851 476.375C163.059 476.17 163.22 475.917 163.334 475.614L164.629 475.977C164.493 476.417 164.264 476.803 163.942 477.136C163.62 477.466 163.222 477.723 162.749 477.909C162.275 478.091 161.743 478.182 161.152 478.182ZM172.987 471.227L171.783 471.568C171.707 471.367 171.595 471.172 171.447 470.983C171.304 470.79 171.107 470.631 170.857 470.506C170.607 470.381 170.286 470.318 169.896 470.318C169.362 470.318 168.917 470.441 168.561 470.688C168.209 470.93 168.033 471.239 168.033 471.614C168.033 471.947 168.154 472.21 168.396 472.403C168.639 472.597 169.018 472.758 169.533 472.886L170.828 473.205C171.608 473.394 172.19 473.684 172.572 474.074C172.955 474.46 173.146 474.958 173.146 475.568C173.146 476.068 173.002 476.515 172.714 476.909C172.43 477.303 172.033 477.614 171.521 477.841C171.01 478.068 170.415 478.182 169.737 478.182C168.847 478.182 168.11 477.989 167.527 477.602C166.944 477.216 166.574 476.652 166.419 475.909L167.692 475.591C167.813 476.061 168.042 476.413 168.379 476.648C168.72 476.883 169.165 477 169.714 477C170.339 477 170.836 476.867 171.203 476.602C171.574 476.333 171.76 476.011 171.76 475.636C171.76 475.333 171.654 475.08 171.442 474.875C171.23 474.667 170.904 474.511 170.464 474.409L169.01 474.068C168.211 473.879 167.624 473.585 167.249 473.188C166.877 472.786 166.692 472.284 166.692 471.682C166.692 471.189 166.83 470.754 167.107 470.375C167.387 469.996 167.768 469.699 168.249 469.483C168.733 469.267 169.283 469.159 169.896 469.159C170.76 469.159 171.438 469.348 171.93 469.727C172.427 470.106 172.779 470.606 172.987 471.227ZM181.347 471.227L180.142 471.568C180.066 471.367 179.955 471.172 179.807 470.983C179.663 470.79 179.466 470.631 179.216 470.506C178.966 470.381 178.646 470.318 178.256 470.318C177.722 470.318 177.277 470.441 176.92 470.688C176.568 470.93 176.392 471.239 176.392 471.614C176.392 471.947 176.513 472.21 176.756 472.403C176.998 472.597 177.377 472.758 177.892 472.886L179.188 473.205C179.968 473.394 180.549 473.684 180.932 474.074C181.314 474.46 181.506 474.958 181.506 475.568C181.506 476.068 181.362 476.515 181.074 476.909C180.79 477.303 180.392 477.614 179.881 477.841C179.369 478.068 178.775 478.182 178.097 478.182C177.206 478.182 176.47 477.989 175.886 477.602C175.303 477.216 174.934 476.652 174.778 475.909L176.051 475.591C176.172 476.061 176.402 476.413 176.739 476.648C177.08 476.883 177.525 477 178.074 477C178.699 477 179.195 476.867 179.562 476.602C179.934 476.333 180.119 476.011 180.119 475.636C180.119 475.333 180.013 475.08 179.801 474.875C179.589 474.667 179.263 474.511 178.824 474.409L177.369 474.068C176.57 473.879 175.983 473.585 175.608 473.188C175.237 472.786 175.051 472.284 175.051 471.682C175.051 471.189 175.189 470.754 175.466 470.375C175.746 469.996 176.127 469.699 176.608 469.483C177.093 469.267 177.642 469.159 178.256 469.159C179.119 469.159 179.797 469.348 180.29 469.727C180.786 470.106 181.138 470.606 181.347 471.227ZM188.888 481.273C188.661 481.273 188.458 481.254 188.28 481.216C188.102 481.182 187.979 481.148 187.911 481.114L188.251 479.932C188.577 480.015 188.865 480.045 189.115 480.023C189.365 480 189.587 479.888 189.78 479.688C189.977 479.491 190.157 479.17 190.32 478.727L190.57 478.045L187.342 469.273H188.797L191.206 476.227H191.297L193.706 469.273H195.161L191.456 479.273C191.289 479.723 191.083 480.097 190.837 480.392C190.59 480.691 190.304 480.913 189.979 481.057C189.657 481.201 189.293 481.273 188.888 481.273ZM200.163 478.182C199.375 478.182 198.684 477.994 198.089 477.619C197.499 477.244 197.036 476.72 196.703 476.045C196.374 475.371 196.209 474.583 196.209 473.682C196.209 472.773 196.374 471.979 196.703 471.301C197.036 470.623 197.499 470.097 198.089 469.722C198.684 469.347 199.375 469.159 200.163 469.159C200.951 469.159 201.641 469.347 202.232 469.722C202.826 470.097 203.288 470.623 203.618 471.301C203.951 471.979 204.118 472.773 204.118 473.682C204.118 474.583 203.951 475.371 203.618 476.045C203.288 476.72 202.826 477.244 202.232 477.619C201.641 477.994 200.951 478.182 200.163 478.182ZM200.163 476.977C200.762 476.977 201.254 476.824 201.641 476.517C202.027 476.21 202.313 475.807 202.499 475.307C202.684 474.807 202.777 474.265 202.777 473.682C202.777 473.098 202.684 472.555 202.499 472.051C202.313 471.547 202.027 471.14 201.641 470.83C201.254 470.519 200.762 470.364 200.163 470.364C199.565 470.364 199.072 470.519 198.686 470.83C198.3 471.14 198.014 471.547 197.828 472.051C197.643 472.555 197.55 473.098 197.55 473.682C197.55 474.265 197.643 474.807 197.828 475.307C198.014 475.807 198.3 476.21 198.686 476.517C199.072 476.824 199.565 476.977 200.163 476.977ZM211.665 474.432V469.273H213.006V478H211.665V476.523H211.574C211.369 476.966 211.051 477.343 210.619 477.653C210.188 477.96 209.642 478.114 208.983 478.114C208.438 478.114 207.953 477.994 207.528 477.756C207.104 477.513 206.771 477.15 206.528 476.665C206.286 476.176 206.165 475.561 206.165 474.818V469.273H207.506V474.727C207.506 475.364 207.684 475.871 208.04 476.25C208.4 476.629 208.858 476.818 209.415 476.818C209.748 476.818 210.087 476.733 210.432 476.562C210.78 476.392 211.072 476.131 211.307 475.778C211.545 475.426 211.665 474.977 211.665 474.432ZM223.257 478.182C222.53 478.182 221.888 477.998 221.331 477.631C220.774 477.259 220.339 476.737 220.024 476.062C219.71 475.384 219.553 474.583 219.553 473.659C219.553 472.742 219.71 471.947 220.024 471.273C220.339 470.598 220.776 470.078 221.337 469.71C221.897 469.343 222.545 469.159 223.28 469.159C223.848 469.159 224.297 469.254 224.626 469.443C224.96 469.629 225.214 469.841 225.388 470.08C225.566 470.314 225.704 470.508 225.803 470.659H225.916V466.364H227.257V478H225.962V476.659H225.803C225.704 476.818 225.564 477.019 225.382 477.261C225.2 477.5 224.941 477.714 224.604 477.903C224.267 478.089 223.818 478.182 223.257 478.182ZM223.439 476.977C223.977 476.977 224.431 476.837 224.803 476.557C225.174 476.273 225.456 475.881 225.649 475.381C225.842 474.877 225.939 474.295 225.939 473.636C225.939 472.985 225.844 472.415 225.655 471.926C225.465 471.434 225.185 471.051 224.814 470.778C224.443 470.502 223.984 470.364 223.439 470.364C222.871 470.364 222.397 470.509 222.018 470.801C221.643 471.089 221.361 471.481 221.172 471.977C220.986 472.47 220.893 473.023 220.893 473.636C220.893 474.258 220.988 474.822 221.178 475.33C221.371 475.833 221.655 476.235 222.03 476.534C222.409 476.83 222.878 476.977 223.439 476.977ZM232.467 478.205C231.914 478.205 231.412 478.1 230.962 477.892C230.511 477.68 230.153 477.375 229.888 476.977C229.623 476.576 229.49 476.091 229.49 475.523C229.49 475.023 229.589 474.617 229.786 474.307C229.982 473.992 230.246 473.746 230.575 473.568C230.905 473.39 231.268 473.258 231.666 473.17C232.068 473.08 232.471 473.008 232.876 472.955C233.407 472.886 233.837 472.835 234.166 472.801C234.5 472.763 234.742 472.701 234.893 472.614C235.049 472.527 235.126 472.375 235.126 472.159V472.114C235.126 471.553 234.973 471.117 234.666 470.807C234.363 470.496 233.903 470.341 233.286 470.341C232.645 470.341 232.143 470.481 231.78 470.761C231.416 471.042 231.161 471.341 231.013 471.659L229.74 471.205C229.967 470.674 230.27 470.261 230.649 469.966C231.032 469.667 231.448 469.458 231.899 469.341C232.354 469.22 232.801 469.159 233.24 469.159C233.52 469.159 233.842 469.193 234.206 469.261C234.573 469.326 234.928 469.46 235.268 469.665C235.613 469.869 235.899 470.178 236.126 470.591C236.354 471.004 236.467 471.557 236.467 472.25V478H235.126V476.818H235.058C234.967 477.008 234.816 477.21 234.604 477.426C234.392 477.642 234.109 477.826 233.757 477.977C233.405 478.129 232.975 478.205 232.467 478.205ZM232.672 477C233.202 477 233.649 476.896 234.013 476.688C234.38 476.479 234.657 476.21 234.842 475.881C235.032 475.551 235.126 475.205 235.126 474.841V473.614C235.07 473.682 234.945 473.744 234.751 473.801C234.562 473.854 234.342 473.902 234.092 473.943C233.846 473.981 233.606 474.015 233.371 474.045C233.14 474.072 232.952 474.095 232.808 474.114C232.46 474.159 232.134 474.233 231.831 474.335C231.532 474.434 231.289 474.583 231.104 474.784C230.922 474.981 230.831 475.25 230.831 475.591C230.831 476.057 231.003 476.409 231.348 476.648C231.696 476.883 232.138 477 232.672 477ZM245.097 471.227L243.892 471.568C243.816 471.367 243.705 471.172 243.557 470.983C243.413 470.79 243.216 470.631 242.966 470.506C242.716 470.381 242.396 470.318 242.006 470.318C241.472 470.318 241.027 470.441 240.67 470.688C240.318 470.93 240.142 471.239 240.142 471.614C240.142 471.947 240.263 472.21 240.506 472.403C240.748 472.597 241.127 472.758 241.642 472.886L242.938 473.205C243.718 473.394 244.299 473.684 244.682 474.074C245.064 474.46 245.256 474.958 245.256 475.568C245.256 476.068 245.112 476.515 244.824 476.909C244.54 477.303 244.142 477.614 243.631 477.841C243.119 478.068 242.525 478.182 241.847 478.182C240.956 478.182 240.22 477.989 239.636 477.602C239.053 477.216 238.684 476.652 238.528 475.909L239.801 475.591C239.922 476.061 240.152 476.413 240.489 476.648C240.83 476.883 241.275 477 241.824 477C242.449 477 242.945 476.867 243.312 476.602C243.684 476.333 243.869 476.011 243.869 475.636C243.869 475.333 243.763 475.08 243.551 474.875C243.339 474.667 243.013 474.511 242.574 474.409L241.119 474.068C240.32 473.879 239.733 473.585 239.358 473.188C238.987 472.786 238.801 472.284 238.801 471.682C238.801 471.189 238.939 470.754 239.216 470.375C239.496 469.996 239.877 469.699 240.358 469.483C240.843 469.267 241.392 469.159 242.006 469.159C242.869 469.159 243.547 469.348 244.04 469.727C244.536 470.106 244.888 470.606 245.097 471.227ZM248.615 472.75V478H247.274V466.364H248.615V470.636H248.729C248.933 470.186 249.24 469.828 249.649 469.562C250.062 469.294 250.611 469.159 251.297 469.159C251.892 469.159 252.412 469.278 252.859 469.517C253.306 469.752 253.653 470.114 253.899 470.602C254.149 471.087 254.274 471.705 254.274 472.455V478H252.933V472.545C252.933 471.852 252.753 471.316 252.393 470.938C252.037 470.555 251.543 470.364 250.911 470.364C250.471 470.364 250.077 470.456 249.729 470.642C249.384 470.828 249.111 471.098 248.911 471.455C248.714 471.811 248.615 472.242 248.615 472.75ZM256.909 478V466.364H258.25V470.659H258.364C258.462 470.508 258.598 470.314 258.773 470.08C258.951 469.841 259.205 469.629 259.534 469.443C259.867 469.254 260.318 469.159 260.886 469.159C261.621 469.159 262.269 469.343 262.83 469.71C263.39 470.078 263.828 470.598 264.142 471.273C264.456 471.947 264.614 472.742 264.614 473.659C264.614 474.583 264.456 475.384 264.142 476.062C263.828 476.737 263.392 477.259 262.835 477.631C262.278 477.998 261.636 478.182 260.909 478.182C260.348 478.182 259.9 478.089 259.562 477.903C259.225 477.714 258.966 477.5 258.784 477.261C258.602 477.019 258.462 476.818 258.364 476.659H258.205V478H256.909ZM258.227 473.636C258.227 474.295 258.324 474.877 258.517 475.381C258.71 475.881 258.992 476.273 259.364 476.557C259.735 476.837 260.189 476.977 260.727 476.977C261.288 476.977 261.756 476.83 262.131 476.534C262.509 476.235 262.794 475.833 262.983 475.33C263.176 474.822 263.273 474.258 263.273 473.636C263.273 473.023 263.178 472.47 262.989 471.977C262.803 471.481 262.521 471.089 262.142 470.801C261.767 470.509 261.295 470.364 260.727 470.364C260.182 470.364 259.723 470.502 259.352 470.778C258.981 471.051 258.701 471.434 258.511 471.926C258.322 472.415 258.227 472.985 258.227 473.636ZM270.21 478.182C269.422 478.182 268.731 477.994 268.136 477.619C267.545 477.244 267.083 476.72 266.75 476.045C266.42 475.371 266.256 474.583 266.256 473.682C266.256 472.773 266.42 471.979 266.75 471.301C267.083 470.623 267.545 470.097 268.136 469.722C268.731 469.347 269.422 469.159 270.21 469.159C270.998 469.159 271.688 469.347 272.278 469.722C272.873 470.097 273.335 470.623 273.665 471.301C273.998 471.979 274.165 472.773 274.165 473.682C274.165 474.583 273.998 475.371 273.665 476.045C273.335 476.72 272.873 477.244 272.278 477.619C271.688 477.994 270.998 478.182 270.21 478.182ZM270.21 476.977C270.809 476.977 271.301 476.824 271.688 476.517C272.074 476.21 272.36 475.807 272.545 475.307C272.731 474.807 272.824 474.265 272.824 473.682C272.824 473.098 272.731 472.555 272.545 472.051C272.36 471.547 272.074 471.14 271.688 470.83C271.301 470.519 270.809 470.364 270.21 470.364C269.612 470.364 269.119 470.519 268.733 470.83C268.347 471.14 268.061 471.547 267.875 472.051C267.689 472.555 267.597 473.098 267.597 473.682C267.597 474.265 267.689 474.807 267.875 475.307C268.061 475.807 268.347 476.21 268.733 476.517C269.119 476.824 269.612 476.977 270.21 476.977ZM278.78 478.205C278.227 478.205 277.725 478.1 277.274 477.892C276.823 477.68 276.465 477.375 276.2 476.977C275.935 476.576 275.803 476.091 275.803 475.523C275.803 475.023 275.901 474.617 276.098 474.307C276.295 473.992 276.558 473.746 276.888 473.568C277.217 473.39 277.581 473.258 277.979 473.17C278.38 473.08 278.784 473.008 279.189 472.955C279.719 472.886 280.149 472.835 280.479 472.801C280.812 472.763 281.054 472.701 281.206 472.614C281.361 472.527 281.439 472.375 281.439 472.159V472.114C281.439 471.553 281.286 471.117 280.979 470.807C280.676 470.496 280.215 470.341 279.598 470.341C278.958 470.341 278.456 470.481 278.092 470.761C277.729 471.042 277.473 471.341 277.325 471.659L276.053 471.205C276.28 470.674 276.583 470.261 276.962 469.966C277.344 469.667 277.761 469.458 278.212 469.341C278.666 469.22 279.113 469.159 279.553 469.159C279.833 469.159 280.155 469.193 280.518 469.261C280.886 469.326 281.24 469.46 281.581 469.665C281.926 469.869 282.212 470.178 282.439 470.591C282.666 471.004 282.78 471.557 282.78 472.25V478H281.439V476.818H281.371C281.28 477.008 281.128 477.21 280.916 477.426C280.704 477.642 280.422 477.826 280.07 477.977C279.717 478.129 279.287 478.205 278.78 478.205ZM278.984 477C279.515 477 279.962 476.896 280.325 476.688C280.693 476.479 280.969 476.21 281.155 475.881C281.344 475.551 281.439 475.205 281.439 474.841V473.614C281.382 473.682 281.257 473.744 281.064 473.801C280.875 473.854 280.655 473.902 280.405 473.943C280.159 473.981 279.918 474.015 279.683 474.045C279.452 474.072 279.265 474.095 279.121 474.114C278.772 474.159 278.446 474.233 278.143 474.335C277.844 474.434 277.602 474.583 277.416 474.784C277.234 474.981 277.143 475.25 277.143 475.591C277.143 476.057 277.316 476.409 277.661 476.648C278.009 476.883 278.45 477 278.984 477ZM285.227 478V469.273H286.523V470.591H286.614C286.773 470.159 287.061 469.809 287.477 469.54C287.894 469.271 288.364 469.136 288.886 469.136C288.985 469.136 289.108 469.138 289.256 469.142C289.403 469.146 289.515 469.152 289.591 469.159V470.523C289.545 470.511 289.441 470.494 289.278 470.472C289.119 470.445 288.951 470.432 288.773 470.432C288.348 470.432 287.97 470.521 287.636 470.699C287.307 470.873 287.045 471.116 286.852 471.426C286.663 471.733 286.568 472.083 286.568 472.477V478H285.227ZM294.21 478.182C293.483 478.182 292.841 477.998 292.284 477.631C291.727 477.259 291.292 476.737 290.977 476.062C290.663 475.384 290.506 474.583 290.506 473.659C290.506 472.742 290.663 471.947 290.977 471.273C291.292 470.598 291.729 470.078 292.29 469.71C292.85 469.343 293.498 469.159 294.233 469.159C294.801 469.159 295.25 469.254 295.58 469.443C295.913 469.629 296.167 469.841 296.341 470.08C296.519 470.314 296.657 470.508 296.756 470.659H296.869V466.364H298.21V478H296.915V476.659H296.756C296.657 476.818 296.517 477.019 296.335 477.261C296.153 477.5 295.894 477.714 295.557 477.903C295.22 478.089 294.771 478.182 294.21 478.182ZM294.392 476.977C294.93 476.977 295.384 476.837 295.756 476.557C296.127 476.273 296.409 475.881 296.602 475.381C296.795 474.877 296.892 474.295 296.892 473.636C296.892 472.985 296.797 472.415 296.608 471.926C296.419 471.434 296.138 471.051 295.767 470.778C295.396 470.502 294.938 470.364 294.392 470.364C293.824 470.364 293.35 470.509 292.972 470.801C292.597 471.089 292.314 471.481 292.125 471.977C291.939 472.47 291.847 473.023 291.847 473.636C291.847 474.258 291.941 474.822 292.131 475.33C292.324 475.833 292.608 476.235 292.983 476.534C293.362 476.83 293.831 476.977 294.392 476.977Z" fill="#F2F2F2"/>
<path d="M86.4091 595V583.364H93.4318V584.614H87.8182V588.545H93.0682V589.795H87.8182V593.75H93.5227V595H86.4091ZM95.7898 595V586.273H97.0852V587.636H97.1989C97.3807 587.17 97.6742 586.809 98.0795 586.551C98.4848 586.29 98.9716 586.159 99.5398 586.159C100.116 586.159 100.595 586.29 100.977 586.551C101.364 586.809 101.665 587.17 101.881 587.636H101.972C102.195 587.186 102.53 586.828 102.977 586.562C103.424 586.294 103.96 586.159 104.585 586.159C105.366 586.159 106.004 586.403 106.5 586.892C106.996 587.377 107.244 588.133 107.244 589.159V595H105.903V589.159C105.903 588.515 105.727 588.055 105.375 587.778C105.023 587.502 104.608 587.364 104.131 587.364C103.517 587.364 103.042 587.549 102.705 587.92C102.367 588.288 102.199 588.754 102.199 589.318V595H100.835V589.023C100.835 588.527 100.674 588.127 100.352 587.824C100.03 587.517 99.6155 587.364 99.108 587.364C98.7595 587.364 98.4337 587.456 98.1307 587.642C97.8314 587.828 97.589 588.085 97.4034 588.415C97.2216 588.741 97.1307 589.117 97.1307 589.545V595H95.7898ZM112.264 595.205C111.711 595.205 111.209 595.1 110.759 594.892C110.308 594.68 109.95 594.375 109.685 593.977C109.42 593.576 109.287 593.091 109.287 592.523C109.287 592.023 109.385 591.617 109.582 591.307C109.779 590.992 110.043 590.746 110.372 590.568C110.702 590.39 111.065 590.258 111.463 590.17C111.865 590.08 112.268 590.008 112.673 589.955C113.204 589.886 113.634 589.835 113.963 589.801C114.296 589.763 114.539 589.701 114.69 589.614C114.846 589.527 114.923 589.375 114.923 589.159V589.114C114.923 588.553 114.77 588.117 114.463 587.807C114.16 587.496 113.7 587.341 113.082 587.341C112.442 587.341 111.94 587.481 111.577 587.761C111.213 588.042 110.957 588.341 110.81 588.659L109.537 588.205C109.764 587.674 110.067 587.261 110.446 586.966C110.829 586.667 111.245 586.458 111.696 586.341C112.151 586.22 112.598 586.159 113.037 586.159C113.317 586.159 113.639 586.193 114.003 586.261C114.37 586.326 114.724 586.46 115.065 586.665C115.41 586.869 115.696 587.178 115.923 587.591C116.151 588.004 116.264 588.557 116.264 589.25V595H114.923V593.818H114.855C114.764 594.008 114.613 594.21 114.401 594.426C114.188 594.642 113.906 594.826 113.554 594.977C113.202 595.129 112.772 595.205 112.264 595.205ZM112.469 594C112.999 594 113.446 593.896 113.81 593.688C114.177 593.479 114.454 593.21 114.639 592.881C114.829 592.551 114.923 592.205 114.923 591.841V590.614C114.866 590.682 114.741 590.744 114.548 590.801C114.359 590.854 114.139 590.902 113.889 590.943C113.643 590.981 113.402 591.015 113.168 591.045C112.937 591.072 112.749 591.095 112.605 591.114C112.257 591.159 111.931 591.233 111.628 591.335C111.329 591.434 111.086 591.583 110.901 591.784C110.719 591.981 110.628 592.25 110.628 592.591C110.628 593.057 110.8 593.409 111.145 593.648C111.493 593.883 111.935 594 112.469 594ZM118.712 595V586.273H120.053V595H118.712ZM119.393 584.818C119.132 584.818 118.907 584.729 118.717 584.551C118.532 584.373 118.439 584.159 118.439 583.909C118.439 583.659 118.532 583.445 118.717 583.267C118.907 583.089 119.132 583 119.393 583C119.655 583 119.878 583.089 120.064 583.267C120.253 583.445 120.348 583.659 120.348 583.909C120.348 584.159 120.253 584.373 120.064 584.551C119.878 584.729 119.655 584.818 119.393 584.818ZM123.849 583.364V595H122.509V583.364H123.849Z" fill="#F2F2F2"/>
<rect x="85" y="605" width="260" height="24" fill="#ACACAC"/>
<path d="M86.4091 663V651.364H90.3409C91.2538 651.364 92 651.528 92.5795 651.858C93.1629 652.184 93.5947 652.625 93.875 653.182C94.1553 653.739 94.2955 654.36 94.2955 655.045C94.2955 655.731 94.1553 656.354 93.875 656.915C93.5985 657.475 93.1705 657.922 92.5909 658.256C92.0114 658.585 91.2689 658.75 90.3636 658.75H87.5455V657.5H90.3182C90.9432 657.5 91.4451 657.392 91.8239 657.176C92.2027 656.96 92.4773 656.669 92.6477 656.301C92.822 655.93 92.9091 655.511 92.9091 655.045C92.9091 654.58 92.822 654.163 92.6477 653.795C92.4773 653.428 92.2008 653.14 91.8182 652.932C91.4356 652.72 90.928 652.614 90.2955 652.614H87.8182V663H86.4091ZM98.9517 663.205C98.3987 663.205 97.8968 663.1 97.446 662.892C96.9953 662.68 96.6373 662.375 96.3722 661.977C96.107 661.576 95.9744 661.091 95.9744 660.523C95.9744 660.023 96.0729 659.617 96.2699 659.307C96.4669 658.992 96.7301 658.746 97.0597 658.568C97.3892 658.39 97.7528 658.258 98.1506 658.17C98.5521 658.08 98.9555 658.008 99.3608 657.955C99.8911 657.886 100.321 657.835 100.651 657.801C100.984 657.763 101.226 657.701 101.378 657.614C101.533 657.527 101.611 657.375 101.611 657.159V657.114C101.611 656.553 101.457 656.117 101.151 655.807C100.848 655.496 100.387 655.341 99.7699 655.341C99.1297 655.341 98.6278 655.481 98.2642 655.761C97.9006 656.042 97.6449 656.341 97.4972 656.659L96.2244 656.205C96.4517 655.674 96.7547 655.261 97.1335 654.966C97.5161 654.667 97.9328 654.458 98.3835 654.341C98.8381 654.22 99.285 654.159 99.7244 654.159C100.005 654.159 100.327 654.193 100.69 654.261C101.058 654.326 101.412 654.46 101.753 654.665C102.098 654.869 102.384 655.178 102.611 655.591C102.838 656.004 102.952 656.557 102.952 657.25V663H101.611V661.818H101.543C101.452 662.008 101.3 662.21 101.088 662.426C100.876 662.642 100.594 662.826 100.241 662.977C99.8892 663.129 99.4593 663.205 98.9517 663.205ZM99.1562 662C99.6866 662 100.134 661.896 100.497 661.688C100.865 661.479 101.141 661.21 101.327 660.881C101.516 660.551 101.611 660.205 101.611 659.841V658.614C101.554 658.682 101.429 658.744 101.236 658.801C101.046 658.854 100.827 658.902 100.577 658.943C100.33 658.981 100.09 659.015 99.8551 659.045C99.6241 659.072 99.4366 659.095 99.2926 659.114C98.9441 659.159 98.6184 659.233 98.3153 659.335C98.0161 659.434 97.7737 659.583 97.5881 659.784C97.4063 659.981 97.3153 660.25 97.3153 660.591C97.3153 661.057 97.4877 661.409 97.8324 661.648C98.1809 661.883 98.6222 662 99.1562 662ZM111.581 656.227L110.376 656.568C110.301 656.367 110.189 656.172 110.041 655.983C109.897 655.79 109.7 655.631 109.45 655.506C109.2 655.381 108.88 655.318 108.49 655.318C107.956 655.318 107.511 655.441 107.155 655.688C106.803 655.93 106.626 656.239 106.626 656.614C106.626 656.947 106.748 657.21 106.99 657.403C107.232 657.597 107.611 657.758 108.126 657.886L109.422 658.205C110.202 658.394 110.784 658.684 111.166 659.074C111.549 659.46 111.74 659.958 111.74 660.568C111.74 661.068 111.596 661.515 111.308 661.909C111.024 662.303 110.626 662.614 110.115 662.841C109.604 663.068 109.009 663.182 108.331 663.182C107.441 663.182 106.704 662.989 106.121 662.602C105.537 662.216 105.168 661.652 105.013 660.909L106.286 660.591C106.407 661.061 106.636 661.413 106.973 661.648C107.314 661.883 107.759 662 108.308 662C108.933 662 109.429 661.867 109.797 661.602C110.168 661.333 110.354 661.011 110.354 660.636C110.354 660.333 110.248 660.08 110.036 659.875C109.823 659.667 109.498 659.511 109.058 659.409L107.604 659.068C106.804 658.879 106.217 658.585 105.842 658.188C105.471 657.786 105.286 657.284 105.286 656.682C105.286 656.189 105.424 655.754 105.7 655.375C105.981 654.996 106.361 654.699 106.842 654.483C107.327 654.267 107.876 654.159 108.49 654.159C109.354 654.159 110.032 654.348 110.524 654.727C111.02 655.106 111.373 655.606 111.581 656.227ZM119.94 656.227L118.736 656.568C118.66 656.367 118.548 656.172 118.401 655.983C118.257 655.79 118.06 655.631 117.81 655.506C117.56 655.381 117.24 655.318 116.849 655.318C116.315 655.318 115.87 655.441 115.514 655.688C115.162 655.93 114.986 656.239 114.986 656.614C114.986 656.947 115.107 657.21 115.349 657.403C115.592 657.597 115.971 657.758 116.486 657.886L117.781 658.205C118.562 658.394 119.143 658.684 119.526 659.074C119.908 659.46 120.099 659.958 120.099 660.568C120.099 661.068 119.955 661.515 119.668 661.909C119.384 662.303 118.986 662.614 118.474 662.841C117.963 663.068 117.368 663.182 116.69 663.182C115.8 663.182 115.063 662.989 114.48 662.602C113.897 662.216 113.527 661.652 113.372 660.909L114.645 660.591C114.766 661.061 114.995 661.413 115.332 661.648C115.673 661.883 116.118 662 116.668 662C117.293 662 117.789 661.867 118.156 661.602C118.527 661.333 118.713 661.011 118.713 660.636C118.713 660.333 118.607 660.08 118.395 659.875C118.183 659.667 117.857 659.511 117.418 659.409L115.963 659.068C115.164 658.879 114.577 658.585 114.202 658.188C113.83 657.786 113.645 657.284 113.645 656.682C113.645 656.189 113.783 655.754 114.06 655.375C114.34 654.996 114.721 654.699 115.202 654.483C115.687 654.267 116.236 654.159 116.849 654.159C117.713 654.159 118.391 654.348 118.884 654.727C119.38 655.106 119.732 655.606 119.94 656.227ZM124.095 663L121.436 654.273H122.845L124.732 660.955H124.822L126.686 654.273H128.118L129.959 660.932H130.05L131.936 654.273H133.345L130.686 663H129.368L127.459 656.295H127.322L125.413 663H124.095ZM138.366 663.182C137.579 663.182 136.887 662.994 136.293 662.619C135.702 662.244 135.24 661.72 134.906 661.045C134.577 660.371 134.412 659.583 134.412 658.682C134.412 657.773 134.577 656.979 134.906 656.301C135.24 655.623 135.702 655.097 136.293 654.722C136.887 654.347 137.579 654.159 138.366 654.159C139.154 654.159 139.844 654.347 140.435 654.722C141.029 655.097 141.491 655.623 141.821 656.301C142.154 656.979 142.321 657.773 142.321 658.682C142.321 659.583 142.154 660.371 141.821 661.045C141.491 661.72 141.029 662.244 140.435 662.619C139.844 662.994 139.154 663.182 138.366 663.182ZM138.366 661.977C138.965 661.977 139.457 661.824 139.844 661.517C140.23 661.21 140.516 660.807 140.702 660.307C140.887 659.807 140.98 659.265 140.98 658.682C140.98 658.098 140.887 657.555 140.702 657.051C140.516 656.547 140.23 656.14 139.844 655.83C139.457 655.519 138.965 655.364 138.366 655.364C137.768 655.364 137.276 655.519 136.889 655.83C136.503 656.14 136.217 656.547 136.031 657.051C135.846 657.555 135.753 658.098 135.753 658.682C135.753 659.265 135.846 659.807 136.031 660.307C136.217 660.807 136.503 661.21 136.889 661.517C137.276 661.824 137.768 661.977 138.366 661.977ZM144.368 663V654.273H145.663V655.591H145.754C145.913 655.159 146.201 654.809 146.618 654.54C147.035 654.271 147.504 654.136 148.027 654.136C148.125 654.136 148.249 654.138 148.396 654.142C148.544 654.146 148.656 654.152 148.732 654.159V655.523C148.686 655.511 148.582 655.494 148.419 655.472C148.26 655.445 148.091 655.432 147.913 655.432C147.489 655.432 147.11 655.521 146.777 655.699C146.447 655.873 146.186 656.116 145.993 656.426C145.804 656.733 145.709 657.083 145.709 657.477V663H144.368ZM153.351 663.182C152.624 663.182 151.982 662.998 151.425 662.631C150.868 662.259 150.432 661.737 150.118 661.062C149.804 660.384 149.646 659.583 149.646 658.659C149.646 657.742 149.804 656.947 150.118 656.273C150.432 655.598 150.87 655.078 151.43 654.71C151.991 654.343 152.639 654.159 153.374 654.159C153.942 654.159 154.391 654.254 154.72 654.443C155.054 654.629 155.307 654.841 155.482 655.08C155.66 655.314 155.798 655.508 155.896 655.659H156.01V651.364H157.351V663H156.055V661.659H155.896C155.798 661.818 155.658 662.019 155.476 662.261C155.294 662.5 155.035 662.714 154.697 662.903C154.36 663.089 153.911 663.182 153.351 663.182ZM153.533 661.977C154.071 661.977 154.525 661.837 154.896 661.557C155.268 661.273 155.55 660.881 155.743 660.381C155.936 659.877 156.033 659.295 156.033 658.636C156.033 657.985 155.938 657.415 155.749 656.926C155.559 656.434 155.279 656.051 154.908 655.778C154.536 655.502 154.078 655.364 153.533 655.364C152.964 655.364 152.491 655.509 152.112 655.801C151.737 656.089 151.455 656.481 151.266 656.977C151.08 657.47 150.987 658.023 150.987 658.636C150.987 659.258 151.082 659.822 151.271 660.33C151.464 660.833 151.749 661.235 152.124 661.534C152.502 661.83 152.972 661.977 153.533 661.977Z" fill="#F2F2F2"/>
<rect x="85" y="673" width="260" height="24" fill="#ACACAC"/>
</svg>
