<svg width="428" height="926" viewBox="0 0 428 926" fill="none" xmlns="http://www.w3.org/2000/svg">
<rect width="428" height="926" fill="#6B6B6B"/>
<path d="M26 58H403V871H26V58Z" fill="#1E1E1E"/>
<path d="M68.5256 140H64.571L70.5966 122.545H75.3523L81.3693 140H77.4148L73.0426 126.534H72.9062L68.5256 140ZM68.2784 133.139H77.6193V136.02H68.2784V133.139ZM88.7074 140.256C87.3665 140.256 86.2131 139.972 85.2472 139.403C84.2869 138.83 83.5483 138.034 83.0312 137.017C82.5199 136 82.2642 134.83 82.2642 133.506C82.2642 132.165 82.5227 130.989 83.0398 129.977C83.5625 128.96 84.304 128.168 85.2642 127.599C86.2244 127.026 87.3665 126.739 88.6903 126.739C89.8324 126.739 90.8324 126.946 91.6903 127.361C92.5483 127.776 93.2273 128.358 93.7273 129.108C94.2273 129.858 94.5028 130.739 94.554 131.75H91.1278C91.0313 131.097 90.7756 130.571 90.3608 130.173C89.9517 129.77 89.4148 129.568 88.75 129.568C88.1875 129.568 87.696 129.722 87.2756 130.028C86.8608 130.33 86.5369 130.77 86.304 131.349C86.071 131.929 85.9545 132.631 85.9545 133.455C85.9545 134.29 86.0682 135 86.2955 135.585C86.5284 136.17 86.8551 136.616 87.2756 136.923C87.696 137.23 88.1875 137.384 88.75 137.384C89.1648 137.384 89.5369 137.298 89.8665 137.128C90.2017 136.957 90.4773 136.71 90.6932 136.386C90.9148 136.057 91.0597 135.662 91.1278 135.202H94.554C94.4972 136.202 94.2244 137.082 93.7358 137.844C93.2528 138.599 92.5852 139.19 91.733 139.616C90.8807 140.043 89.8722 140.256 88.7074 140.256ZM103.842 126.909V129.636H95.9581V126.909H103.842ZM97.7479 123.773H101.379V135.977C101.379 136.312 101.43 136.574 101.532 136.761C101.634 136.943 101.776 137.071 101.958 137.145C102.146 137.219 102.362 137.256 102.606 137.256C102.776 137.256 102.947 137.241 103.117 137.213C103.288 137.179 103.418 137.153 103.509 137.136L104.08 139.838C103.898 139.895 103.643 139.96 103.313 140.034C102.984 140.114 102.583 140.162 102.112 140.179C101.237 140.213 100.469 140.097 99.8104 139.83C99.157 139.562 98.6484 139.148 98.2848 138.585C97.9212 138.023 97.7422 137.312 97.7479 136.455V123.773ZM106.207 140V126.909H109.837V140H106.207ZM108.031 125.222C107.491 125.222 107.028 125.043 106.641 124.685C106.261 124.321 106.07 123.886 106.07 123.381C106.07 122.881 106.261 122.452 106.641 122.094C107.028 121.73 107.491 121.548 108.031 121.548C108.57 121.548 109.031 121.73 109.411 122.094C109.798 122.452 109.991 122.881 109.991 123.381C109.991 123.886 109.798 124.321 109.411 124.685C109.031 125.043 108.57 125.222 108.031 125.222ZM124.95 126.909L120.374 140H116.283L111.706 126.909H115.541L118.26 136.276H118.396L121.107 126.909H124.95ZM126.808 140V126.909H130.439V140H126.808ZM128.632 125.222C128.092 125.222 127.629 125.043 127.243 124.685C126.862 124.321 126.672 123.886 126.672 123.381C126.672 122.881 126.862 122.452 127.243 122.094C127.629 121.73 128.092 121.548 128.632 121.548C129.172 121.548 129.632 121.73 130.013 122.094C130.399 122.452 130.592 122.881 130.592 123.381C130.592 123.886 130.399 124.321 130.013 124.685C129.632 125.043 129.172 125.222 128.632 125.222ZM140.31 126.909V129.636H132.427V126.909H140.31ZM134.217 123.773H137.847V135.977C137.847 136.312 137.898 136.574 138.001 136.761C138.103 136.943 138.245 137.071 138.427 137.145C138.614 137.219 138.83 137.256 139.075 137.256C139.245 137.256 139.415 137.241 139.586 137.213C139.756 137.179 139.887 137.153 139.978 137.136L140.549 139.838C140.367 139.895 140.112 139.96 139.782 140.034C139.452 140.114 139.052 140.162 138.58 140.179C137.705 140.213 136.938 140.097 136.279 139.83C135.626 139.562 135.117 139.148 134.754 138.585C134.39 138.023 134.211 137.312 134.217 136.455V123.773ZM144.917 144.909C144.457 144.909 144.025 144.872 143.621 144.798C143.224 144.73 142.894 144.642 142.633 144.534L143.451 141.824C143.877 141.955 144.261 142.026 144.602 142.037C144.948 142.048 145.246 141.969 145.496 141.798C145.752 141.628 145.96 141.338 146.119 140.929L146.332 140.375L141.636 126.909H145.454L148.164 136.523H148.3L151.036 126.909H154.88L149.792 141.415C149.548 142.119 149.215 142.733 148.795 143.256C148.38 143.784 147.854 144.19 147.218 144.474C146.582 144.764 145.815 144.909 144.917 144.909Z" fill="#F2F2F2"/>
<path d="M162.361 140V122.545H166.051V136.957H173.534V140H162.361ZM181.825 140.256C180.501 140.256 179.356 139.974 178.39 139.412C177.43 138.844 176.688 138.054 176.165 137.043C175.643 136.026 175.381 134.847 175.381 133.506C175.381 132.153 175.643 130.972 176.165 129.96C176.688 128.943 177.43 128.153 178.39 127.591C179.356 127.023 180.501 126.739 181.825 126.739C183.148 126.739 184.29 127.023 185.251 127.591C186.217 128.153 186.961 128.943 187.484 129.96C188.006 130.972 188.268 132.153 188.268 133.506C188.268 134.847 188.006 136.026 187.484 137.043C186.961 138.054 186.217 138.844 185.251 139.412C184.29 139.974 183.148 140.256 181.825 140.256ZM181.842 137.443C182.444 137.443 182.947 137.273 183.35 136.932C183.754 136.585 184.058 136.114 184.262 135.517C184.472 134.92 184.577 134.241 184.577 133.48C184.577 132.719 184.472 132.04 184.262 131.443C184.058 130.847 183.754 130.375 183.35 130.028C182.947 129.682 182.444 129.509 181.842 129.509C181.234 129.509 180.722 129.682 180.308 130.028C179.898 130.375 179.589 130.847 179.379 131.443C179.174 132.04 179.072 132.719 179.072 133.48C179.072 134.241 179.174 134.92 179.379 135.517C179.589 136.114 179.898 136.585 180.308 136.932C180.722 137.273 181.234 137.443 181.842 137.443ZM196.526 145.182C195.35 145.182 194.342 145.02 193.501 144.696C192.665 144.378 192.001 143.943 191.506 143.392C191.012 142.841 190.691 142.222 190.543 141.534L193.901 141.082C194.004 141.344 194.165 141.588 194.387 141.815C194.609 142.043 194.901 142.224 195.265 142.361C195.634 142.503 196.083 142.574 196.612 142.574C197.401 142.574 198.052 142.381 198.563 141.994C199.08 141.614 199.339 140.974 199.339 140.077V137.682H199.185C199.026 138.045 198.788 138.389 198.469 138.713C198.151 139.037 197.742 139.301 197.242 139.506C196.742 139.71 196.146 139.812 195.452 139.812C194.469 139.812 193.575 139.585 192.768 139.131C191.967 138.67 191.327 137.969 190.85 137.026C190.379 136.077 190.143 134.878 190.143 133.429C190.143 131.946 190.384 130.707 190.867 129.713C191.35 128.719 191.992 127.974 192.793 127.48C193.6 126.986 194.484 126.739 195.444 126.739C196.177 126.739 196.79 126.864 197.285 127.114C197.779 127.358 198.177 127.665 198.478 128.034C198.785 128.398 199.021 128.756 199.185 129.108H199.322V126.909H202.927V140.128C202.927 141.241 202.654 142.173 202.109 142.923C201.563 143.673 200.808 144.236 199.842 144.611C198.881 144.991 197.776 145.182 196.526 145.182ZM196.603 137.085C197.188 137.085 197.683 136.94 198.086 136.651C198.495 136.355 198.808 135.935 199.023 135.389C199.245 134.838 199.356 134.179 199.356 133.412C199.356 132.645 199.248 131.98 199.032 131.418C198.816 130.849 198.504 130.409 198.094 130.097C197.685 129.784 197.188 129.628 196.603 129.628C196.006 129.628 195.504 129.79 195.094 130.114C194.685 130.432 194.376 130.875 194.165 131.443C193.955 132.011 193.85 132.668 193.85 133.412C193.85 134.168 193.955 134.821 194.165 135.372C194.381 135.918 194.691 136.341 195.094 136.642C195.504 136.937 196.006 137.085 196.603 137.085ZM216.708 130.642L213.384 130.847C213.327 130.562 213.205 130.307 213.018 130.08C212.83 129.847 212.583 129.662 212.276 129.526C211.975 129.384 211.614 129.312 211.194 129.312C210.631 129.312 210.157 129.432 209.771 129.67C209.384 129.903 209.191 130.216 209.191 130.608C209.191 130.92 209.316 131.185 209.566 131.401C209.816 131.616 210.245 131.79 210.853 131.92L213.222 132.398C214.495 132.659 215.444 133.08 216.069 133.659C216.694 134.239 217.006 135 217.006 135.943C217.006 136.801 216.754 137.554 216.248 138.202C215.748 138.849 215.06 139.355 214.185 139.719C213.316 140.077 212.313 140.256 211.177 140.256C209.444 140.256 208.063 139.895 207.035 139.173C206.012 138.446 205.413 137.457 205.237 136.207L208.808 136.02C208.915 136.548 209.177 136.952 209.592 137.23C210.006 137.503 210.538 137.639 211.185 137.639C211.822 137.639 212.333 137.517 212.719 137.273C213.112 137.023 213.31 136.702 213.316 136.31C213.31 135.98 213.171 135.71 212.898 135.5C212.626 135.284 212.205 135.119 211.637 135.006L209.37 134.554C208.092 134.298 207.14 133.855 206.515 133.224C205.896 132.594 205.586 131.79 205.586 130.812C205.586 129.972 205.813 129.247 206.268 128.639C206.728 128.031 207.373 127.562 208.202 127.233C209.038 126.903 210.015 126.739 211.134 126.739C212.788 126.739 214.089 127.088 215.038 127.787C215.992 128.486 216.549 129.437 216.708 130.642Z" fill="#00D8FF"/>
<path d="M69.4062 382.159C68.5502 382.159 67.821 381.926 67.2188 381.46C66.6165 380.991 66.1563 380.311 65.8381 379.42C65.5199 378.527 65.3608 377.447 65.3608 376.182C65.3608 374.924 65.5199 373.85 65.8381 372.96C66.16 372.066 66.6222 371.384 67.2244 370.915C67.8305 370.441 68.5578 370.205 69.4062 370.205C70.2547 370.205 70.9801 370.441 71.5824 370.915C72.1884 371.384 72.6506 372.066 72.9688 372.96C73.2907 373.85 73.4517 374.924 73.4517 376.182C73.4517 377.447 73.2926 378.527 72.9744 379.42C72.6562 380.311 72.196 380.991 71.5938 381.46C70.9915 381.926 70.2623 382.159 69.4062 382.159ZM69.4062 380.909C70.2547 380.909 70.9138 380.5 71.3835 379.682C71.8532 378.864 72.0881 377.697 72.0881 376.182C72.0881 375.174 71.9801 374.316 71.7642 373.608C71.5521 372.9 71.2453 372.36 70.8438 371.989C70.446 371.617 69.9669 371.432 69.4062 371.432C68.5653 371.432 67.9081 371.847 67.4347 372.676C66.9612 373.502 66.7244 374.67 66.7244 376.182C66.7244 377.189 66.8305 378.045 67.0426 378.75C67.2547 379.455 67.5597 379.991 67.9574 380.358C68.3589 380.725 68.8419 380.909 69.4062 380.909ZM79.3153 370.205C79.7926 370.208 80.2699 370.299 80.7472 370.477C81.2244 370.655 81.66 370.951 82.054 371.364C82.4479 371.773 82.7642 372.331 83.0028 373.04C83.2415 373.748 83.3608 374.636 83.3608 375.705C83.3608 376.739 83.2623 377.657 83.0653 378.46C82.8722 379.259 82.5919 379.934 82.2244 380.483C81.8608 381.032 81.4176 381.449 80.8949 381.733C80.3759 382.017 79.7888 382.159 79.1335 382.159C78.482 382.159 77.9006 382.03 77.3892 381.773C76.8816 381.511 76.465 381.15 76.1392 380.688C75.8172 380.222 75.6108 379.682 75.5199 379.068H76.9062C77.0312 379.602 77.2794 380.044 77.6506 380.392C78.0256 380.737 78.5199 380.909 79.1335 380.909C80.0313 380.909 80.7396 380.517 81.2585 379.733C81.7813 378.949 82.0426 377.841 82.0426 376.409H81.9517C81.7396 376.727 81.4877 377.002 81.196 377.233C80.9044 377.464 80.5805 377.642 80.2244 377.767C79.8684 377.892 79.4896 377.955 79.0881 377.955C78.4214 377.955 77.8097 377.79 77.2528 377.46C76.6998 377.127 76.2566 376.67 75.9233 376.091C75.5938 375.508 75.429 374.841 75.429 374.091C75.429 373.379 75.5881 372.727 75.9062 372.136C76.2282 371.542 76.679 371.068 77.2585 370.716C77.8419 370.364 78.5275 370.193 79.3153 370.205ZM79.3153 371.455C78.8381 371.455 78.4081 371.574 78.0256 371.812C77.6468 372.047 77.3456 372.366 77.1222 372.767C76.9025 373.165 76.7926 373.606 76.7926 374.091C76.7926 374.576 76.8987 375.017 77.1108 375.415C77.3267 375.809 77.6203 376.123 77.9915 376.358C78.3665 376.589 78.7926 376.705 79.2699 376.705C79.6297 376.705 79.965 376.634 80.2756 376.494C80.5862 376.35 80.857 376.155 81.0881 375.909C81.3229 375.659 81.5066 375.377 81.6392 375.062C81.7718 374.744 81.8381 374.413 81.8381 374.068C81.8381 373.614 81.7282 373.187 81.5085 372.79C81.2926 372.392 80.9934 372.07 80.6108 371.824C80.232 371.578 79.8002 371.455 79.3153 371.455ZM89.7315 369.818L85.9815 383.75H84.7543L88.5043 369.818H89.7315ZM95.0938 382.159C94.2377 382.159 93.5085 381.926 92.9062 381.46C92.304 380.991 91.8438 380.311 91.5256 379.42C91.2074 378.527 91.0483 377.447 91.0483 376.182C91.0483 374.924 91.2074 373.85 91.5256 372.96C91.8475 372.066 92.3097 371.384 92.9119 370.915C93.518 370.441 94.2453 370.205 95.0938 370.205C95.9422 370.205 96.6676 370.441 97.2699 370.915C97.8759 371.384 98.3381 372.066 98.6562 372.96C98.9782 373.85 99.1392 374.924 99.1392 376.182C99.1392 377.447 98.9801 378.527 98.6619 379.42C98.3438 380.311 97.8835 380.991 97.2812 381.46C96.679 381.926 95.9498 382.159 95.0938 382.159ZM95.0938 380.909C95.9422 380.909 96.6013 380.5 97.071 379.682C97.5407 378.864 97.7756 377.697 97.7756 376.182C97.7756 375.174 97.6676 374.316 97.4517 373.608C97.2396 372.9 96.9328 372.36 96.5312 371.989C96.1335 371.617 95.6544 371.432 95.0938 371.432C94.2528 371.432 93.5956 371.847 93.1222 372.676C92.6487 373.502 92.4119 374.67 92.4119 376.182C92.4119 377.189 92.518 378.045 92.7301 378.75C92.9422 379.455 93.2472 379.991 93.6449 380.358C94.0464 380.725 94.5294 380.909 95.0938 380.909ZM101.298 382V380.977L105.139 376.773C105.59 376.28 105.961 375.852 106.253 375.489C106.545 375.121 106.76 374.777 106.901 374.455C107.045 374.129 107.116 373.788 107.116 373.432C107.116 373.023 107.018 372.669 106.821 372.369C106.628 372.07 106.363 371.839 106.026 371.676C105.688 371.513 105.31 371.432 104.889 371.432C104.442 371.432 104.052 371.525 103.719 371.71C103.389 371.892 103.134 372.148 102.952 372.477C102.774 372.807 102.685 373.193 102.685 373.636H101.344C101.344 372.955 101.501 372.356 101.815 371.841C102.13 371.326 102.558 370.924 103.099 370.636C103.645 370.348 104.257 370.205 104.935 370.205C105.616 370.205 106.221 370.348 106.747 370.636C107.274 370.924 107.687 371.312 107.986 371.801C108.285 372.29 108.435 372.833 108.435 373.432C108.435 373.86 108.357 374.278 108.202 374.688C108.05 375.093 107.785 375.545 107.406 376.045C107.031 376.542 106.51 377.148 105.844 377.864L103.23 380.659V380.75H108.639V382H101.298ZM115.122 369.818L111.372 383.75H110.145L113.895 369.818H115.122ZM116.689 382V380.977L120.53 376.773C120.981 376.28 121.352 375.852 121.643 375.489C121.935 375.121 122.151 374.777 122.291 374.455C122.435 374.129 122.507 373.788 122.507 373.432C122.507 373.023 122.409 372.669 122.212 372.369C122.018 372.07 121.753 371.839 121.416 371.676C121.079 371.513 120.7 371.432 120.28 371.432C119.833 371.432 119.443 371.525 119.109 371.71C118.78 371.892 118.524 372.148 118.342 372.477C118.164 372.807 118.075 373.193 118.075 373.636H116.734C116.734 372.955 116.892 372.356 117.206 371.841C117.52 371.326 117.948 370.924 118.49 370.636C119.036 370.348 119.647 370.205 120.325 370.205C121.007 370.205 121.611 370.348 122.138 370.636C122.664 370.924 123.077 371.312 123.376 371.801C123.676 372.29 123.825 372.833 123.825 373.432C123.825 373.86 123.748 374.278 123.592 374.688C123.441 375.093 123.176 375.545 122.797 376.045C122.422 376.542 121.901 377.148 121.234 377.864L118.621 380.659V380.75H124.03V382H116.689ZM130.172 382.159C129.316 382.159 128.587 381.926 127.984 381.46C127.382 380.991 126.922 380.311 126.604 379.42C126.286 378.527 126.126 377.447 126.126 376.182C126.126 374.924 126.286 373.85 126.604 372.96C126.926 372.066 127.388 371.384 127.99 370.915C128.596 370.441 129.323 370.205 130.172 370.205C131.02 370.205 131.746 370.441 132.348 370.915C132.954 371.384 133.416 372.066 133.734 372.96C134.056 373.85 134.217 374.924 134.217 376.182C134.217 377.447 134.058 378.527 133.74 379.42C133.422 380.311 132.962 380.991 132.359 381.46C131.757 381.926 131.028 382.159 130.172 382.159ZM130.172 380.909C131.02 380.909 131.679 380.5 132.149 379.682C132.619 378.864 132.854 377.697 132.854 376.182C132.854 375.174 132.746 374.316 132.53 373.608C132.318 372.9 132.011 372.36 131.609 371.989C131.212 371.617 130.732 371.432 130.172 371.432C129.331 371.432 128.674 371.847 128.2 372.676C127.727 373.502 127.49 374.67 127.49 376.182C127.49 377.189 127.596 378.045 127.808 378.75C128.02 379.455 128.325 379.991 128.723 380.358C129.125 380.725 129.607 380.909 130.172 380.909ZM136.376 382V380.977L140.217 376.773C140.668 376.28 141.039 375.852 141.331 375.489C141.623 375.121 141.839 374.777 141.979 374.455C142.123 374.129 142.195 373.788 142.195 373.432C142.195 373.023 142.096 372.669 141.899 372.369C141.706 372.07 141.441 371.839 141.104 371.676C140.767 371.513 140.388 371.432 139.967 371.432C139.52 371.432 139.13 371.525 138.797 371.71C138.467 371.892 138.212 372.148 138.03 372.477C137.852 372.807 137.763 373.193 137.763 373.636H136.422C136.422 372.955 136.579 372.356 136.893 371.841C137.208 371.326 137.636 370.924 138.178 370.636C138.723 370.348 139.335 370.205 140.013 370.205C140.695 370.205 141.299 370.348 141.825 370.636C142.352 370.924 142.765 371.312 143.064 371.801C143.363 372.29 143.513 372.833 143.513 373.432C143.513 373.86 143.435 374.278 143.28 374.688C143.128 375.093 142.863 375.545 142.484 376.045C142.109 376.542 141.589 377.148 140.922 377.864L138.308 380.659V380.75H143.717V382H136.376ZM149.7 382.159C149.034 382.159 148.433 382.027 147.899 381.761C147.365 381.496 146.937 381.133 146.615 380.67C146.293 380.208 146.117 379.682 146.087 379.091H147.45C147.503 379.617 147.742 380.053 148.166 380.398C148.594 380.739 149.106 380.909 149.7 380.909C150.178 380.909 150.602 380.797 150.973 380.574C151.348 380.35 151.642 380.044 151.854 379.653C152.07 379.259 152.178 378.814 152.178 378.318C152.178 377.811 152.066 377.358 151.842 376.96C151.623 376.559 151.32 376.242 150.933 376.011C150.547 375.78 150.106 375.663 149.609 375.659C149.253 375.655 148.888 375.71 148.513 375.824C148.138 375.934 147.829 376.076 147.587 376.25L146.268 376.091L146.973 370.364H153.018V371.614H148.155L147.746 375.045H147.814C148.053 374.856 148.352 374.699 148.712 374.574C149.071 374.449 149.446 374.386 149.837 374.386C150.549 374.386 151.183 374.557 151.74 374.898C152.301 375.235 152.74 375.697 153.058 376.284C153.38 376.871 153.541 377.542 153.541 378.295C153.541 379.038 153.375 379.701 153.041 380.284C152.712 380.864 152.257 381.322 151.678 381.659C151.098 381.992 150.439 382.159 149.7 382.159Z" fill="#00D8FF"/>
<path d="M70.0312 494.159C69.1752 494.159 68.446 493.926 67.8438 493.46C67.2415 492.991 66.7813 492.311 66.4631 491.42C66.1449 490.527 65.9858 489.447 65.9858 488.182C65.9858 486.924 66.1449 485.85 66.4631 484.96C66.785 484.066 67.2472 483.384 67.8494 482.915C68.4555 482.441 69.1828 482.205 70.0312 482.205C70.8797 482.205 71.6051 482.441 72.2074 482.915C72.8134 483.384 73.2756 484.066 73.5938 484.96C73.9157 485.85 74.0767 486.924 74.0767 488.182C74.0767 489.447 73.9176 490.527 73.5994 491.42C73.2812 492.311 72.821 492.991 72.2188 493.46C71.6165 493.926 70.8873 494.159 70.0312 494.159ZM70.0312 492.909C70.8797 492.909 71.5388 492.5 72.0085 491.682C72.4782 490.864 72.7131 489.697 72.7131 488.182C72.7131 487.174 72.6051 486.316 72.3892 485.608C72.1771 484.9 71.8703 484.36 71.4688 483.989C71.071 483.617 70.5919 483.432 70.0312 483.432C69.1903 483.432 68.5331 483.847 68.0597 484.676C67.5862 485.502 67.3494 486.67 67.3494 488.182C67.3494 489.189 67.4555 490.045 67.6676 490.75C67.8797 491.455 68.1847 491.991 68.5824 492.358C68.9839 492.725 69.4669 492.909 70.0312 492.909ZM79.9403 482.205C80.4176 482.208 80.8949 482.299 81.3722 482.477C81.8494 482.655 82.285 482.951 82.679 483.364C83.0729 483.773 83.3892 484.331 83.6278 485.04C83.8665 485.748 83.9858 486.636 83.9858 487.705C83.9858 488.739 83.8873 489.657 83.6903 490.46C83.4972 491.259 83.2169 491.934 82.8494 492.483C82.4858 493.032 82.0426 493.449 81.5199 493.733C81.0009 494.017 80.4138 494.159 79.7585 494.159C79.107 494.159 78.5256 494.03 78.0142 493.773C77.5066 493.511 77.09 493.15 76.7642 492.688C76.4422 492.222 76.2358 491.682 76.1449 491.068H77.5312C77.6562 491.602 77.9044 492.044 78.2756 492.392C78.6506 492.737 79.1449 492.909 79.7585 492.909C80.6563 492.909 81.3646 492.517 81.8835 491.733C82.4063 490.949 82.6676 489.841 82.6676 488.409H82.5767C82.3646 488.727 82.1127 489.002 81.821 489.233C81.5294 489.464 81.2055 489.642 80.8494 489.767C80.4934 489.892 80.1146 489.955 79.7131 489.955C79.0464 489.955 78.4347 489.79 77.8778 489.46C77.3248 489.127 76.8816 488.67 76.5483 488.091C76.2188 487.508 76.054 486.841 76.054 486.091C76.054 485.379 76.2131 484.727 76.5312 484.136C76.8532 483.542 77.304 483.068 77.8835 482.716C78.4669 482.364 79.1525 482.193 79.9403 482.205ZM79.9403 483.455C79.4631 483.455 79.0331 483.574 78.6506 483.812C78.2718 484.047 77.9706 484.366 77.7472 484.767C77.5275 485.165 77.4176 485.606 77.4176 486.091C77.4176 486.576 77.5237 487.017 77.7358 487.415C77.9517 487.809 78.2453 488.123 78.6165 488.358C78.9915 488.589 79.4176 488.705 79.8949 488.705C80.2547 488.705 80.59 488.634 80.9006 488.494C81.2112 488.35 81.482 488.155 81.7131 487.909C81.9479 487.659 82.1316 487.377 82.2642 487.062C82.3968 486.744 82.4631 486.413 82.4631 486.068C82.4631 485.614 82.3532 485.187 82.1335 484.79C81.9176 484.392 81.6184 484.07 81.2358 483.824C80.857 483.578 80.4252 483.455 79.9403 483.455ZM90.3565 481.818L86.6065 495.75H85.3793L89.1293 481.818H90.3565ZM95.7188 494.159C94.8627 494.159 94.1335 493.926 93.5312 493.46C92.929 492.991 92.4688 492.311 92.1506 491.42C91.8324 490.527 91.6733 489.447 91.6733 488.182C91.6733 486.924 91.8324 485.85 92.1506 484.96C92.4725 484.066 92.9347 483.384 93.5369 482.915C94.143 482.441 94.8703 482.205 95.7188 482.205C96.5672 482.205 97.2926 482.441 97.8949 482.915C98.5009 483.384 98.9631 484.066 99.2812 484.96C99.6032 485.85 99.7642 486.924 99.7642 488.182C99.7642 489.447 99.6051 490.527 99.2869 491.42C98.9688 492.311 98.5085 492.991 97.9062 493.46C97.304 493.926 96.5748 494.159 95.7188 494.159ZM95.7188 492.909C96.5672 492.909 97.2263 492.5 97.696 491.682C98.1657 490.864 98.4006 489.697 98.4006 488.182C98.4006 487.174 98.2926 486.316 98.0767 485.608C97.8646 484.9 97.5578 484.36 97.1562 483.989C96.7585 483.617 96.2794 483.432 95.7188 483.432C94.8778 483.432 94.2206 483.847 93.7472 484.676C93.2737 485.502 93.0369 486.67 93.0369 488.182C93.0369 489.189 93.143 490.045 93.3551 490.75C93.5672 491.455 93.8722 491.991 94.2699 492.358C94.6714 492.725 95.1544 492.909 95.7188 492.909ZM106.014 482.364V494H104.605V483.841H104.537L101.696 485.727V484.295L104.605 482.364H106.014ZM113.497 481.818L109.747 495.75H108.52L112.27 481.818H113.497ZM115.064 494V492.977L118.905 488.773C119.356 488.28 119.727 487.852 120.018 487.489C120.31 487.121 120.526 486.777 120.666 486.455C120.81 486.129 120.882 485.788 120.882 485.432C120.882 485.023 120.784 484.669 120.587 484.369C120.393 484.07 120.128 483.839 119.791 483.676C119.454 483.513 119.075 483.432 118.655 483.432C118.208 483.432 117.818 483.525 117.484 483.71C117.155 483.892 116.899 484.148 116.717 484.477C116.539 484.807 116.45 485.193 116.45 485.636H115.109C115.109 484.955 115.267 484.356 115.581 483.841C115.895 483.326 116.323 482.924 116.865 482.636C117.411 482.348 118.022 482.205 118.7 482.205C119.382 482.205 119.986 482.348 120.513 482.636C121.039 482.924 121.452 483.312 121.751 483.801C122.051 484.29 122.2 484.833 122.2 485.432C122.2 485.86 122.123 486.278 121.967 486.688C121.816 487.093 121.551 487.545 121.172 488.045C120.797 488.542 120.276 489.148 119.609 489.864L116.996 492.659V492.75H122.405V494H115.064ZM128.547 494.159C127.691 494.159 126.962 493.926 126.359 493.46C125.757 492.991 125.297 492.311 124.979 491.42C124.661 490.527 124.501 489.447 124.501 488.182C124.501 486.924 124.661 485.85 124.979 484.96C125.301 484.066 125.763 483.384 126.365 482.915C126.971 482.441 127.698 482.205 128.547 482.205C129.395 482.205 130.121 482.441 130.723 482.915C131.329 483.384 131.791 484.066 132.109 484.96C132.431 485.85 132.592 486.924 132.592 488.182C132.592 489.447 132.433 490.527 132.115 491.42C131.797 492.311 131.337 492.991 130.734 493.46C130.132 493.926 129.403 494.159 128.547 494.159ZM128.547 492.909C129.395 492.909 130.054 492.5 130.524 491.682C130.994 490.864 131.229 489.697 131.229 488.182C131.229 487.174 131.121 486.316 130.905 485.608C130.693 484.9 130.386 484.36 129.984 483.989C129.587 483.617 129.107 483.432 128.547 483.432C127.706 483.432 127.049 483.847 126.575 484.676C126.102 485.502 125.865 486.67 125.865 488.182C125.865 489.189 125.971 490.045 126.183 490.75C126.395 491.455 126.7 491.991 127.098 492.358C127.5 492.725 127.982 492.909 128.547 492.909ZM134.751 494V492.977L138.592 488.773C139.043 488.28 139.414 487.852 139.706 487.489C139.998 487.121 140.214 486.777 140.354 486.455C140.498 486.129 140.57 485.788 140.57 485.432C140.57 485.023 140.471 484.669 140.274 484.369C140.081 484.07 139.816 483.839 139.479 483.676C139.142 483.513 138.763 483.432 138.342 483.432C137.895 483.432 137.505 483.525 137.172 483.71C136.842 483.892 136.587 484.148 136.405 484.477C136.227 484.807 136.138 485.193 136.138 485.636H134.797C134.797 484.955 134.954 484.356 135.268 483.841C135.583 483.326 136.011 482.924 136.553 482.636C137.098 482.348 137.71 482.205 138.388 482.205C139.07 482.205 139.674 482.348 140.2 482.636C140.727 482.924 141.14 483.312 141.439 483.801C141.738 484.29 141.888 484.833 141.888 485.432C141.888 485.86 141.81 486.278 141.655 486.688C141.503 487.093 141.238 487.545 140.859 488.045C140.484 488.542 139.964 489.148 139.297 489.864L136.683 492.659V492.75H142.092V494H134.751ZM148.075 494.159C147.409 494.159 146.808 494.027 146.274 493.761C145.74 493.496 145.312 493.133 144.99 492.67C144.668 492.208 144.492 491.682 144.462 491.091H145.825C145.878 491.617 146.117 492.053 146.541 492.398C146.969 492.739 147.481 492.909 148.075 492.909C148.553 492.909 148.977 492.797 149.348 492.574C149.723 492.35 150.017 492.044 150.229 491.653C150.445 491.259 150.553 490.814 150.553 490.318C150.553 489.811 150.441 489.358 150.217 488.96C149.998 488.559 149.695 488.242 149.308 488.011C148.922 487.78 148.481 487.663 147.984 487.659C147.628 487.655 147.263 487.71 146.888 487.824C146.513 487.934 146.204 488.076 145.962 488.25L144.643 488.091L145.348 482.364H151.393V483.614H146.53L146.121 487.045H146.189C146.428 486.856 146.727 486.699 147.087 486.574C147.446 486.449 147.821 486.386 148.212 486.386C148.924 486.386 149.558 486.557 150.115 486.898C150.676 487.235 151.115 487.697 151.433 488.284C151.755 488.871 151.916 489.542 151.916 490.295C151.916 491.038 151.75 491.701 151.416 492.284C151.087 492.864 150.632 493.322 150.053 493.659C149.473 493.992 148.814 494.159 148.075 494.159Z" fill="#00D8FF"/>
<path d="M69.0234 195H65.4325V183.364H69.1825C70.3113 183.364 71.2772 183.597 72.0803 184.062C72.8833 184.525 73.4988 185.189 73.9268 186.057C74.3549 186.92 74.5689 187.955 74.5689 189.159C74.5689 190.371 74.353 191.415 73.9212 192.29C73.4893 193.161 72.8606 193.831 72.0348 194.301C71.209 194.767 70.2053 195 69.0234 195ZM66.8416 193.75H68.9325C69.8946 193.75 70.692 193.564 71.3246 193.193C71.9571 192.822 72.4287 192.294 72.7393 191.608C73.05 190.922 73.2053 190.106 73.2053 189.159C73.2053 188.22 73.0518 187.411 72.745 186.733C72.4382 186.051 71.9799 185.528 71.37 185.165C70.7602 184.797 70.0007 184.614 69.0916 184.614H66.8416V193.75ZM79.3189 195.205C78.7659 195.205 78.264 195.1 77.8132 194.892C77.3625 194.68 77.0045 194.375 76.7393 193.977C76.4742 193.576 76.3416 193.091 76.3416 192.523C76.3416 192.023 76.4401 191.617 76.6371 191.307C76.834 190.992 77.0973 190.746 77.4268 190.568C77.7564 190.39 78.12 190.258 78.5178 190.17C78.9193 190.08 79.3227 190.008 79.728 189.955C80.2583 189.886 80.6882 189.835 81.0178 189.801C81.3511 189.763 81.5935 189.701 81.745 189.614C81.9003 189.527 81.978 189.375 81.978 189.159V189.114C81.978 188.553 81.8246 188.117 81.5178 187.807C81.2147 187.496 80.7545 187.341 80.1371 187.341C79.4969 187.341 78.995 187.481 78.6314 187.761C78.2678 188.042 78.0121 188.341 77.8643 188.659L76.5916 188.205C76.8189 187.674 77.1219 187.261 77.5007 186.966C77.8833 186.667 78.3 186.458 78.7507 186.341C79.2053 186.22 79.6522 186.159 80.0916 186.159C80.3719 186.159 80.6939 186.193 81.0575 186.261C81.425 186.326 81.7791 186.46 82.12 186.665C82.4647 186.869 82.7507 187.178 82.978 187.591C83.2053 188.004 83.3189 188.557 83.3189 189.25V195H81.978V193.818H81.9098C81.8189 194.008 81.6674 194.21 81.4553 194.426C81.2431 194.642 80.9609 194.826 80.6087 194.977C80.2564 195.129 79.8265 195.205 79.3189 195.205ZM79.5234 194C80.0537 194 80.5007 193.896 80.8643 193.688C81.2318 193.479 81.5083 193.21 81.6939 192.881C81.8833 192.551 81.978 192.205 81.978 191.841V190.614C81.9212 190.682 81.7962 190.744 81.603 190.801C81.4136 190.854 81.1939 190.902 80.9439 190.943C80.6977 190.981 80.4571 191.015 80.2223 191.045C79.9912 191.072 79.8037 191.095 79.6598 191.114C79.3113 191.159 78.9856 191.233 78.6825 191.335C78.3833 191.434 78.1409 191.583 77.9553 191.784C77.7734 191.981 77.6825 192.25 77.6825 192.591C77.6825 193.057 77.8549 193.409 78.1996 193.648C78.5481 193.883 78.9893 194 79.5234 194ZM89.5618 186.273V187.409H85.0391V186.273H89.5618ZM86.3572 184.182H87.6982V192.5C87.6982 192.879 87.7531 193.163 87.8629 193.352C87.9766 193.538 88.1205 193.663 88.2947 193.727C88.4728 193.788 88.6603 193.818 88.8572 193.818C89.005 193.818 89.1262 193.811 89.2209 193.795C89.3156 193.777 89.3913 193.761 89.4482 193.75L89.7209 194.955C89.63 194.989 89.5031 195.023 89.3402 195.057C89.1773 195.095 88.9709 195.114 88.7209 195.114C88.3421 195.114 87.9709 195.032 87.6072 194.869C87.2474 194.706 86.9482 194.458 86.7095 194.125C86.4747 193.792 86.3572 193.371 86.3572 192.864V184.182ZM95.1442 195.182C94.3033 195.182 93.5779 194.996 92.968 194.625C92.362 194.25 91.8942 193.727 91.5646 193.057C91.2389 192.383 91.076 191.598 91.076 190.705C91.076 189.811 91.2389 189.023 91.5646 188.341C91.8942 187.655 92.3525 187.121 92.9396 186.739C93.5305 186.352 94.2199 186.159 95.0078 186.159C95.4624 186.159 95.9112 186.235 96.3544 186.386C96.7976 186.538 97.201 186.784 97.5646 187.125C97.9283 187.462 98.218 187.909 98.4339 188.466C98.6499 189.023 98.7578 189.708 98.7578 190.523V191.091H92.0305V189.932H97.3942C97.3942 189.439 97.2957 189 97.0987 188.614C96.9055 188.227 96.629 187.922 96.2692 187.699C95.9131 187.475 95.4927 187.364 95.0078 187.364C94.4737 187.364 94.0116 187.496 93.6214 187.761C93.2351 188.023 92.9377 188.364 92.7294 188.784C92.5211 189.205 92.4169 189.655 92.4169 190.136V190.909C92.4169 191.568 92.5305 192.127 92.7578 192.585C92.9889 193.04 93.3089 193.386 93.718 193.625C94.1271 193.86 94.6025 193.977 95.1442 193.977C95.4964 193.977 95.8146 193.928 96.0987 193.83C96.3866 193.727 96.6347 193.576 96.843 193.375C97.0514 193.17 97.2124 192.917 97.326 192.614L98.6214 192.977C98.4851 193.417 98.2559 193.803 97.9339 194.136C97.612 194.466 97.2143 194.723 96.7408 194.909C96.2673 195.091 95.7351 195.182 95.1442 195.182ZM101.775 195.091C101.495 195.091 101.254 194.991 101.053 194.79C100.853 194.589 100.752 194.348 100.752 194.068C100.752 193.788 100.853 193.547 101.053 193.347C101.254 193.146 101.495 193.045 101.775 193.045C102.055 193.045 102.296 193.146 102.496 193.347C102.697 193.547 102.798 193.788 102.798 194.068C102.798 194.254 102.75 194.424 102.656 194.58C102.565 194.735 102.442 194.86 102.286 194.955C102.135 195.045 101.964 195.091 101.775 195.091ZM101.775 188.614C101.495 188.614 101.254 188.513 101.053 188.312C100.853 188.112 100.752 187.871 100.752 187.591C100.752 187.311 100.853 187.07 101.053 186.869C101.254 186.669 101.495 186.568 101.775 186.568C102.055 186.568 102.296 186.669 102.496 186.869C102.697 187.07 102.798 187.311 102.798 187.591C102.798 187.777 102.75 187.947 102.656 188.102C102.565 188.258 102.442 188.383 102.286 188.477C102.135 188.568 101.964 188.614 101.775 188.614Z" fill="#F2F2F2"/>
<rect x="26" y="805" width="377" height="66" fill="#ACACAC"/>
<rect x="55" y="814" width="51" height="48" fill="#D9D9D9"/>
<rect x="122" y="814" width="51" height="48" fill="#D9D9D9"/>
<rect x="189" y="814" width="51" height="48" fill="#D9D9D9"/>
<rect x="256" y="814" width="51" height="48" fill="#D9D9D9"/>
<rect x="323" y="814" width="51" height="48" fill="#D9D9D9"/>
<rect x="64" y="208" width="292" height="27" fill="#ACACAC"/>
<rect x="64" y="246" width="292" height="27" fill="#ACACAC"/>
<path d="M70.7841 253.364H72.4659L76.4205 263.023H76.5568L80.5114 253.364H82.1932V265H80.875V256.159H80.7614L77.125 265H75.8523L72.2159 256.159H72.1023V265H70.7841V253.364ZM88.4957 265.182C87.6548 265.182 86.9295 264.996 86.3196 264.625C85.7135 264.25 85.2457 263.727 84.9162 263.057C84.5904 262.383 84.4276 261.598 84.4276 260.705C84.4276 259.811 84.5904 259.023 84.9162 258.341C85.2457 257.655 85.7041 257.121 86.2912 256.739C86.8821 256.352 87.5715 256.159 88.3594 256.159C88.8139 256.159 89.2628 256.235 89.706 256.386C90.1491 256.538 90.5526 256.784 90.9162 257.125C91.2798 257.462 91.5696 257.909 91.7855 258.466C92.0014 259.023 92.1094 259.708 92.1094 260.523V261.091H85.3821V259.932H90.7457C90.7457 259.439 90.6473 259 90.4503 258.614C90.2571 258.227 89.9806 257.922 89.6207 257.699C89.2647 257.475 88.8442 257.364 88.3594 257.364C87.8253 257.364 87.3632 257.496 86.973 257.761C86.5866 258.023 86.2893 258.364 86.081 258.784C85.8726 259.205 85.7685 259.655 85.7685 260.136V260.909C85.7685 261.568 85.8821 262.127 86.1094 262.585C86.3404 263.04 86.6605 263.386 87.0696 263.625C87.4787 263.86 87.9541 263.977 88.4957 263.977C88.848 263.977 89.1662 263.928 89.4503 263.83C89.7382 263.727 89.9863 263.576 90.1946 263.375C90.4029 263.17 90.5639 262.917 90.6776 262.614L91.973 262.977C91.8366 263.417 91.6075 263.803 91.2855 264.136C90.9635 264.466 90.5658 264.723 90.0923 264.909C89.6188 265.091 89.0866 265.182 88.4957 265.182ZM97.9446 256.273V257.409H93.4219V256.273H97.9446ZM94.7401 254.182H96.081V262.5C96.081 262.879 96.1359 263.163 96.2457 263.352C96.3594 263.538 96.5033 263.663 96.6776 263.727C96.8556 263.788 97.0431 263.818 97.2401 263.818C97.3878 263.818 97.509 263.811 97.6037 263.795C97.6984 263.777 97.7741 263.761 97.831 263.75L98.1037 264.955C98.0128 264.989 97.8859 265.023 97.723 265.057C97.5601 265.095 97.3537 265.114 97.1037 265.114C96.7249 265.114 96.3537 265.032 95.9901 264.869C95.6302 264.706 95.331 264.458 95.0923 264.125C94.8575 263.792 94.7401 263.371 94.7401 262.864V254.182ZM101.49 259.75V265H100.149V253.364H101.49V257.636H101.604C101.808 257.186 102.115 256.828 102.524 256.562C102.937 256.294 103.486 256.159 104.172 256.159C104.767 256.159 105.287 256.278 105.734 256.517C106.181 256.752 106.528 257.114 106.774 257.602C107.024 258.087 107.149 258.705 107.149 259.455V265H105.808V259.545C105.808 258.852 105.628 258.316 105.268 257.938C104.912 257.555 104.418 257.364 103.786 257.364C103.346 257.364 102.952 257.456 102.604 257.642C102.259 257.828 101.986 258.098 101.786 258.455C101.589 258.811 101.49 259.242 101.49 259.75ZM113.148 265.182C112.36 265.182 111.669 264.994 111.074 264.619C110.483 264.244 110.021 263.72 109.688 263.045C109.358 262.371 109.193 261.583 109.193 260.682C109.193 259.773 109.358 258.979 109.688 258.301C110.021 257.623 110.483 257.097 111.074 256.722C111.669 256.347 112.36 256.159 113.148 256.159C113.936 256.159 114.625 256.347 115.216 256.722C115.811 257.097 116.273 257.623 116.602 258.301C116.936 258.979 117.102 259.773 117.102 260.682C117.102 261.583 116.936 262.371 116.602 263.045C116.273 263.72 115.811 264.244 115.216 264.619C114.625 264.994 113.936 265.182 113.148 265.182ZM113.148 263.977C113.746 263.977 114.239 263.824 114.625 263.517C115.011 263.21 115.297 262.807 115.483 262.307C115.669 261.807 115.761 261.265 115.761 260.682C115.761 260.098 115.669 259.555 115.483 259.051C115.297 258.547 115.011 258.14 114.625 257.83C114.239 257.519 113.746 257.364 113.148 257.364C112.549 257.364 112.057 257.519 111.67 257.83C111.284 258.14 110.998 258.547 110.812 259.051C110.627 259.555 110.534 260.098 110.534 260.682C110.534 261.265 110.627 261.807 110.812 262.307C110.998 262.807 111.284 263.21 111.67 263.517C112.057 263.824 112.549 263.977 113.148 263.977ZM122.445 265.182C121.717 265.182 121.075 264.998 120.518 264.631C119.962 264.259 119.526 263.737 119.212 263.062C118.897 262.384 118.74 261.583 118.74 260.659C118.74 259.742 118.897 258.947 119.212 258.273C119.526 257.598 119.964 257.078 120.524 256.71C121.085 256.343 121.732 256.159 122.467 256.159C123.036 256.159 123.484 256.254 123.814 256.443C124.147 256.629 124.401 256.841 124.575 257.08C124.753 257.314 124.892 257.508 124.99 257.659H125.104V253.364H126.445V265H125.149V263.659H124.99C124.892 263.818 124.751 264.019 124.57 264.261C124.388 264.5 124.128 264.714 123.791 264.903C123.454 265.089 123.005 265.182 122.445 265.182ZM122.626 263.977C123.164 263.977 123.619 263.837 123.99 263.557C124.361 263.273 124.643 262.881 124.837 262.381C125.03 261.877 125.126 261.295 125.126 260.636C125.126 259.985 125.032 259.415 124.842 258.926C124.653 258.434 124.373 258.051 124.001 257.778C123.63 257.502 123.172 257.364 122.626 257.364C122.058 257.364 121.585 257.509 121.206 257.801C120.831 258.089 120.549 258.481 120.359 258.977C120.174 259.47 120.081 260.023 120.081 260.636C120.081 261.258 120.176 261.822 120.365 262.33C120.558 262.833 120.842 263.235 121.217 263.534C121.596 263.83 122.066 263.977 122.626 263.977ZM135.268 258.227L134.064 258.568C133.988 258.367 133.876 258.172 133.729 257.983C133.585 257.79 133.388 257.631 133.138 257.506C132.888 257.381 132.568 257.318 132.178 257.318C131.643 257.318 131.198 257.441 130.842 257.688C130.49 257.93 130.314 258.239 130.314 258.614C130.314 258.947 130.435 259.21 130.678 259.403C130.92 259.597 131.299 259.758 131.814 259.886L133.109 260.205C133.89 260.394 134.471 260.684 134.854 261.074C135.236 261.46 135.428 261.958 135.428 262.568C135.428 263.068 135.284 263.515 134.996 263.909C134.712 264.303 134.314 264.614 133.803 264.841C133.291 265.068 132.696 265.182 132.018 265.182C131.128 265.182 130.392 264.989 129.808 264.602C129.225 264.216 128.856 263.652 128.7 262.909L129.973 262.591C130.094 263.061 130.323 263.413 130.661 263.648C131.001 263.883 131.446 264 131.996 264C132.621 264 133.117 263.867 133.484 263.602C133.856 263.333 134.041 263.011 134.041 262.636C134.041 262.333 133.935 262.08 133.723 261.875C133.511 261.667 133.185 261.511 132.746 261.409L131.291 261.068C130.492 260.879 129.905 260.585 129.53 260.188C129.159 259.786 128.973 259.284 128.973 258.682C128.973 258.189 129.111 257.754 129.388 257.375C129.668 256.996 130.049 256.699 130.53 256.483C131.015 256.267 131.564 256.159 132.178 256.159C133.041 256.159 133.719 256.348 134.212 256.727C134.708 257.106 135.06 257.606 135.268 258.227ZM138.423 265.091C138.143 265.091 137.902 264.991 137.702 264.79C137.501 264.589 137.401 264.348 137.401 264.068C137.401 263.788 137.501 263.547 137.702 263.347C137.902 263.146 138.143 263.045 138.423 263.045C138.704 263.045 138.944 263.146 139.145 263.347C139.346 263.547 139.446 263.788 139.446 264.068C139.446 264.254 139.399 264.424 139.304 264.58C139.213 264.735 139.09 264.86 138.935 264.955C138.783 265.045 138.613 265.091 138.423 265.091ZM138.423 258.614C138.143 258.614 137.902 258.513 137.702 258.312C137.501 258.112 137.401 257.871 137.401 257.591C137.401 257.311 137.501 257.07 137.702 256.869C137.902 256.669 138.143 256.568 138.423 256.568C138.704 256.568 138.944 256.669 139.145 256.869C139.346 257.07 139.446 257.311 139.446 257.591C139.446 257.777 139.399 257.947 139.304 258.102C139.213 258.258 139.09 258.383 138.935 258.477C138.783 258.568 138.613 258.614 138.423 258.614Z" fill="#F2F2F2"/>
<rect x="64" y="284" width="292" height="27" fill="#ACACAC"/>
<path d="M77.1243 295.273C77.0561 294.697 76.7796 294.25 76.2947 293.932C75.8099 293.614 75.2152 293.455 74.5107 293.455C73.9955 293.455 73.5447 293.538 73.1584 293.705C72.7758 293.871 72.4766 294.1 72.2607 294.392C72.0485 294.684 71.9425 295.015 71.9425 295.386C71.9425 295.697 72.0163 295.964 72.1641 296.188C72.3156 296.407 72.5088 296.591 72.7436 296.739C72.9785 296.883 73.2247 297.002 73.4822 297.097C73.7398 297.187 73.9766 297.261 74.1925 297.318L75.3743 297.636C75.6773 297.716 76.0144 297.826 76.3857 297.966C76.7607 298.106 77.1186 298.297 77.4595 298.54C77.8042 298.778 78.0883 299.085 78.3118 299.46C78.5353 299.835 78.647 300.295 78.647 300.841C78.647 301.47 78.4822 302.038 78.1527 302.545C77.8269 303.053 77.3497 303.456 76.7209 303.756C76.0959 304.055 75.3364 304.205 74.4425 304.205C73.6091 304.205 72.8875 304.07 72.2777 303.801C71.6716 303.532 71.1944 303.157 70.8459 302.676C70.5012 302.195 70.3061 301.636 70.2607 301H71.7152C71.7531 301.439 71.9008 301.803 72.1584 302.091C72.4197 302.375 72.7493 302.587 73.147 302.727C73.5485 302.864 73.9804 302.932 74.4425 302.932C74.9804 302.932 75.4633 302.845 75.8913 302.67C76.3194 302.492 76.6584 302.246 76.9084 301.932C77.1584 301.614 77.2834 301.242 77.2834 300.818C77.2834 300.432 77.1754 300.117 76.9595 299.875C76.7436 299.633 76.4595 299.436 76.1072 299.284C75.755 299.133 75.3743 299 74.9652 298.886L73.5334 298.477C72.6243 298.216 71.9046 297.843 71.3743 297.358C70.844 296.873 70.5788 296.239 70.5788 295.455C70.5788 294.803 70.755 294.235 71.1072 293.75C71.4633 293.261 71.9406 292.883 72.5391 292.614C73.1413 292.341 73.8137 292.205 74.5561 292.205C75.3061 292.205 75.9728 292.339 76.5561 292.608C77.1394 292.873 77.6016 293.237 77.9425 293.699C78.2872 294.161 78.469 294.686 78.4879 295.273H77.1243ZM84.4411 304.182C83.6001 304.182 82.8748 303.996 82.2649 303.625C81.6589 303.25 81.1911 302.727 80.8615 302.057C80.5357 301.383 80.3729 300.598 80.3729 299.705C80.3729 298.811 80.5357 298.023 80.8615 297.341C81.1911 296.655 81.6494 296.121 82.2365 295.739C82.8274 295.352 83.5168 295.159 84.3047 295.159C84.7592 295.159 85.2081 295.235 85.6513 295.386C86.0945 295.538 86.4979 295.784 86.8615 296.125C87.2251 296.462 87.5149 296.909 87.7308 297.466C87.9467 298.023 88.0547 298.708 88.0547 299.523V300.091H81.3274V298.932H86.6911C86.6911 298.439 86.5926 298 86.3956 297.614C86.2024 297.227 85.9259 296.922 85.5661 296.699C85.21 296.475 84.7895 296.364 84.3047 296.364C83.7706 296.364 83.3085 296.496 82.9183 296.761C82.532 297.023 82.2346 297.364 82.0263 297.784C81.8179 298.205 81.7138 298.655 81.7138 299.136V299.909C81.7138 300.568 81.8274 301.127 82.0547 301.585C82.2857 302.04 82.6058 302.386 83.0149 302.625C83.424 302.86 83.8994 302.977 84.4411 302.977C84.7933 302.977 85.1115 302.928 85.3956 302.83C85.6835 302.727 85.9316 302.576 86.1399 302.375C86.3482 302.17 86.5092 301.917 86.6229 301.614L87.9183 301.977C87.782 302.417 87.5528 302.803 87.2308 303.136C86.9089 303.466 86.5111 303.723 86.0376 303.909C85.5642 304.091 85.032 304.182 84.4411 304.182ZM92.6626 304.205C92.1096 304.205 91.6077 304.1 91.157 303.892C90.7062 303.68 90.3482 303.375 90.0831 302.977C89.8179 302.576 89.6854 302.091 89.6854 301.523C89.6854 301.023 89.7839 300.617 89.9808 300.307C90.1778 299.992 90.4411 299.746 90.7706 299.568C91.1001 299.39 91.4638 299.258 91.8615 299.17C92.263 299.08 92.6664 299.008 93.0717 298.955C93.602 298.886 94.032 298.835 94.3615 298.801C94.6948 298.763 94.9373 298.701 95.0888 298.614C95.2441 298.527 95.3217 298.375 95.3217 298.159V298.114C95.3217 297.553 95.1683 297.117 94.8615 296.807C94.5585 296.496 94.0982 296.341 93.4808 296.341C92.8407 296.341 92.3388 296.481 91.9751 296.761C91.6115 297.042 91.3558 297.341 91.2081 297.659L89.9354 297.205C90.1626 296.674 90.4657 296.261 90.8445 295.966C91.227 295.667 91.6437 295.458 92.0945 295.341C92.549 295.22 92.996 295.159 93.4354 295.159C93.7157 295.159 94.0376 295.193 94.4013 295.261C94.7687 295.326 95.1229 295.46 95.4638 295.665C95.8085 295.869 96.0945 296.178 96.3217 296.591C96.549 297.004 96.6626 297.557 96.6626 298.25V304H95.3217V302.818H95.2536C95.1626 303.008 95.0111 303.21 94.799 303.426C94.5869 303.642 94.3047 303.826 93.9524 303.977C93.6001 304.129 93.1702 304.205 92.6626 304.205ZM92.8672 303C93.3975 303 93.8445 302.896 94.2081 302.688C94.5755 302.479 94.852 302.21 95.0376 301.881C95.227 301.551 95.3217 301.205 95.3217 300.841V299.614C95.2649 299.682 95.1399 299.744 94.9467 299.801C94.7573 299.854 94.5376 299.902 94.2876 299.943C94.0414 299.981 93.8009 300.015 93.5661 300.045C93.335 300.072 93.1475 300.095 93.0036 300.114C92.6551 300.159 92.3293 300.233 92.0263 300.335C91.727 300.434 91.4846 300.583 91.299 300.784C91.1172 300.981 91.0263 301.25 91.0263 301.591C91.0263 302.057 91.1986 302.409 91.5433 302.648C91.8918 302.883 92.3331 303 92.8672 303ZM102.656 304.182C101.837 304.182 101.133 303.989 100.542 303.602C99.951 303.216 99.4964 302.684 99.1783 302.006C98.8601 301.328 98.701 300.553 98.701 299.682C98.701 298.795 98.8639 298.013 99.1896 297.335C99.5192 296.653 99.9775 296.121 100.565 295.739C101.156 295.352 101.845 295.159 102.633 295.159C103.246 295.159 103.799 295.273 104.292 295.5C104.784 295.727 105.188 296.045 105.502 296.455C105.817 296.864 106.012 297.341 106.087 297.886H104.746C104.644 297.489 104.417 297.136 104.065 296.83C103.716 296.519 103.246 296.364 102.656 296.364C102.133 296.364 101.674 296.5 101.281 296.773C100.89 297.042 100.585 297.422 100.366 297.915C100.15 298.403 100.042 298.977 100.042 299.636C100.042 300.311 100.148 300.898 100.36 301.398C100.576 301.898 100.879 302.286 101.269 302.562C101.663 302.839 102.125 302.977 102.656 302.977C103.004 302.977 103.32 302.917 103.604 302.795C103.888 302.674 104.129 302.5 104.326 302.273C104.523 302.045 104.663 301.773 104.746 301.455H106.087C106.012 301.97 105.824 302.434 105.525 302.847C105.229 303.256 104.837 303.581 104.349 303.824C103.864 304.062 103.299 304.182 102.656 304.182ZM109.388 298.75V304H108.048V292.364H109.388V296.636H109.502C109.707 296.186 110.013 295.828 110.423 295.562C110.835 295.294 111.385 295.159 112.07 295.159C112.665 295.159 113.186 295.278 113.633 295.517C114.08 295.752 114.426 296.114 114.673 296.602C114.923 297.087 115.048 297.705 115.048 298.455V304H113.707V298.545C113.707 297.852 113.527 297.316 113.167 296.938C112.811 296.555 112.317 296.364 111.684 296.364C111.245 296.364 110.851 296.456 110.502 296.642C110.157 296.828 109.885 297.098 109.684 297.455C109.487 297.811 109.388 298.242 109.388 298.75ZM122.183 304V292.364H123.592V302.75H129.001V304H122.183ZM134.546 304.182C133.758 304.182 133.067 303.994 132.472 303.619C131.881 303.244 131.419 302.72 131.086 302.045C130.756 301.371 130.592 300.583 130.592 299.682C130.592 298.773 130.756 297.979 131.086 297.301C131.419 296.623 131.881 296.097 132.472 295.722C133.067 295.347 133.758 295.159 134.546 295.159C135.334 295.159 136.023 295.347 136.614 295.722C137.209 296.097 137.671 296.623 138.001 297.301C138.334 297.979 138.501 298.773 138.501 299.682C138.501 300.583 138.334 301.371 138.001 302.045C137.671 302.72 137.209 303.244 136.614 303.619C136.023 303.994 135.334 304.182 134.546 304.182ZM134.546 302.977C135.145 302.977 135.637 302.824 136.023 302.517C136.41 302.21 136.696 301.807 136.881 301.307C137.067 300.807 137.16 300.265 137.16 299.682C137.16 299.098 137.067 298.555 136.881 298.051C136.696 297.547 136.41 297.14 136.023 296.83C135.637 296.519 135.145 296.364 134.546 296.364C133.948 296.364 133.455 296.519 133.069 296.83C132.683 297.14 132.397 297.547 132.211 298.051C132.025 298.555 131.933 299.098 131.933 299.682C131.933 300.265 132.025 300.807 132.211 301.307C132.397 301.807 132.683 302.21 133.069 302.517C133.455 302.824 133.948 302.977 134.546 302.977ZM144.07 307.455C143.423 307.455 142.866 307.371 142.4 307.205C141.934 307.042 141.546 306.826 141.235 306.557C140.928 306.292 140.684 306.008 140.502 305.705L141.57 304.955C141.692 305.114 141.845 305.295 142.031 305.5C142.216 305.708 142.47 305.888 142.792 306.04C143.118 306.195 143.544 306.273 144.07 306.273C144.775 306.273 145.356 306.102 145.815 305.761C146.273 305.42 146.502 304.886 146.502 304.159V302.386H146.388C146.29 302.545 146.15 302.742 145.968 302.977C145.79 303.208 145.532 303.415 145.195 303.597C144.862 303.775 144.411 303.864 143.843 303.864C143.138 303.864 142.506 303.697 141.945 303.364C141.388 303.03 140.947 302.545 140.621 301.909C140.299 301.273 140.138 300.5 140.138 299.591C140.138 298.697 140.296 297.919 140.61 297.256C140.924 296.589 141.362 296.074 141.923 295.71C142.483 295.343 143.131 295.159 143.866 295.159C144.434 295.159 144.885 295.254 145.218 295.443C145.555 295.629 145.813 295.841 145.991 296.08C146.173 296.314 146.313 296.508 146.411 296.659H146.548V295.273H147.843V304.25C147.843 305 147.673 305.61 147.332 306.08C146.995 306.553 146.54 306.9 145.968 307.119C145.4 307.343 144.767 307.455 144.07 307.455ZM144.025 302.659C144.563 302.659 145.017 302.536 145.388 302.29C145.76 302.044 146.042 301.689 146.235 301.227C146.428 300.765 146.525 300.212 146.525 299.568C146.525 298.939 146.43 298.384 146.241 297.903C146.051 297.422 145.771 297.045 145.4 296.773C145.029 296.5 144.57 296.364 144.025 296.364C143.457 296.364 142.983 296.508 142.604 296.795C142.229 297.083 141.947 297.47 141.758 297.955C141.572 298.439 141.479 298.977 141.479 299.568C141.479 300.174 141.574 300.71 141.763 301.176C141.957 301.638 142.241 302.002 142.616 302.267C142.995 302.528 143.464 302.659 144.025 302.659ZM156.479 297.227L155.275 297.568C155.199 297.367 155.087 297.172 154.94 296.983C154.796 296.79 154.599 296.631 154.349 296.506C154.099 296.381 153.779 296.318 153.388 296.318C152.854 296.318 152.409 296.441 152.053 296.688C151.701 296.93 151.525 297.239 151.525 297.614C151.525 297.947 151.646 298.21 151.888 298.403C152.131 298.597 152.51 298.758 153.025 298.886L154.32 299.205C155.101 299.394 155.682 299.684 156.065 300.074C156.447 300.46 156.638 300.958 156.638 301.568C156.638 302.068 156.495 302.515 156.207 302.909C155.923 303.303 155.525 303.614 155.013 303.841C154.502 304.068 153.907 304.182 153.229 304.182C152.339 304.182 151.603 303.989 151.019 303.602C150.436 303.216 150.067 302.652 149.911 301.909L151.184 301.591C151.305 302.061 151.534 302.413 151.871 302.648C152.212 302.883 152.657 303 153.207 303C153.832 303 154.328 302.867 154.695 302.602C155.067 302.333 155.252 302.011 155.252 301.636C155.252 301.333 155.146 301.08 154.934 300.875C154.722 300.667 154.396 300.511 153.957 300.409L152.502 300.068C151.703 299.879 151.116 299.585 150.741 299.188C150.37 298.786 150.184 298.284 150.184 297.682C150.184 297.189 150.322 296.754 150.599 296.375C150.879 295.996 151.26 295.699 151.741 295.483C152.226 295.267 152.775 295.159 153.388 295.159C154.252 295.159 154.93 295.348 155.423 295.727C155.919 296.106 156.271 296.606 156.479 297.227ZM159.634 304.091C159.354 304.091 159.113 303.991 158.913 303.79C158.712 303.589 158.612 303.348 158.612 303.068C158.612 302.788 158.712 302.547 158.913 302.347C159.113 302.146 159.354 302.045 159.634 302.045C159.915 302.045 160.155 302.146 160.356 302.347C160.557 302.547 160.657 302.788 160.657 303.068C160.657 303.254 160.61 303.424 160.515 303.58C160.424 303.735 160.301 303.86 160.146 303.955C159.994 304.045 159.824 304.091 159.634 304.091ZM164.04 304.091C163.76 304.091 163.52 303.991 163.319 303.79C163.118 303.589 163.018 303.348 163.018 303.068C163.018 302.788 163.118 302.547 163.319 302.347C163.52 302.146 163.76 302.045 164.04 302.045C164.321 302.045 164.561 302.146 164.762 302.347C164.963 302.547 165.063 302.788 165.063 303.068C165.063 303.254 165.016 303.424 164.921 303.58C164.83 303.735 164.707 303.86 164.552 303.955C164.4 304.045 164.23 304.091 164.04 304.091ZM168.447 304.091C168.166 304.091 167.926 303.991 167.725 303.79C167.524 303.589 167.424 303.348 167.424 303.068C167.424 302.788 167.524 302.547 167.725 302.347C167.926 302.146 168.166 302.045 168.447 302.045C168.727 302.045 168.968 302.146 169.168 302.347C169.369 302.547 169.469 302.788 169.469 303.068C169.469 303.254 169.422 303.424 169.327 303.58C169.237 303.735 169.113 303.86 168.958 303.955C168.807 304.045 168.636 304.091 168.447 304.091Z" fill="#F2F2F2"/>
<rect x="64" y="395" width="43" height="74" fill="#D9D9D9"/>
<line x1="63.5677" y1="468.749" x2="106.568" y2="394.749" stroke="black"/>
<line x1="64.4323" y1="395.749" x2="107.432" y2="469.749" stroke="black"/>
<rect x="110" y="395.5" width="246" height="74" fill="#D9D9D9"/>
<rect x="64" y="507" width="43" height="74" fill="#D9D9D9"/>
<line x1="63.5677" y1="580.749" x2="106.568" y2="506.749" stroke="black"/>
<line x1="64.4323" y1="507.749" x2="107.432" y2="581.749" stroke="black"/>
<rect x="110" y="507.5" width="246" height="74" fill="#D9D9D9"/>
<rect x="64" y="598" width="43" height="74" fill="#D9D9D9"/>
<line x1="63.5677" y1="671.749" x2="106.568" y2="597.749" stroke="black"/>
<line x1="64.4323" y1="598.749" x2="107.432" y2="672.749" stroke="black"/>
<rect x="110" y="598.5" width="246" height="74" fill="#D9D9D9"/>
<rect x="64" y="689" width="43" height="74" fill="#D9D9D9"/>
<line x1="63.5677" y1="762.749" x2="106.568" y2="688.749" stroke="black"/>
<line x1="64.4323" y1="689.749" x2="107.432" y2="763.749" stroke="black"/>
<rect x="110" y="689.5" width="246" height="74" fill="#D9D9D9"/>
</svg>
