<svg width="428" height="926" viewBox="0 0 428 926" fill="none" xmlns="http://www.w3.org/2000/svg">
<rect width="428" height="926" fill="#6B6B6B"/>
<path d="M26 54H403V871H26V54Z" fill="#1E1E1E"/>
<rect x="69" y="102" width="289" height="344" fill="#ACACAC"/>
<rect x="132" y="518" width="165" height="41" fill="#ACACAC"/>
<rect x="132" y="631" width="165" height="9" fill="#ACACAC"/>
<rect x="137" y="737.5" width="155" height="34" rx="5.5" stroke="#00D8FF"/>
<path d="M201.557 759V750.273H204.608C205.216 750.273 205.717 750.378 206.112 750.588C206.507 750.795 206.801 751.075 206.994 751.428C207.188 751.777 207.284 752.165 207.284 752.591C207.284 752.966 207.217 753.276 207.084 753.52C206.953 753.764 206.78 753.957 206.564 754.099C206.351 754.241 206.119 754.347 205.869 754.415V754.5C206.136 754.517 206.405 754.611 206.675 754.781C206.945 754.952 207.17 755.196 207.352 755.514C207.534 755.832 207.625 756.222 207.625 756.682C207.625 757.119 207.526 757.513 207.327 757.862C207.128 758.212 206.814 758.489 206.385 758.693C205.956 758.898 205.398 759 204.71 759H201.557ZM202.614 758.062H204.71C205.401 758.062 205.891 757.929 206.18 757.662C206.473 757.392 206.619 757.065 206.619 756.682C206.619 756.386 206.544 756.114 206.393 755.864C206.243 755.611 206.028 755.409 205.75 755.259C205.472 755.105 205.142 755.028 204.761 755.028H202.614V758.062ZM202.614 754.108H204.574C204.892 754.108 205.179 754.045 205.435 753.92C205.693 753.795 205.898 753.619 206.048 753.392C206.202 753.165 206.278 752.898 206.278 752.591C206.278 752.207 206.145 751.882 205.878 751.615C205.611 751.345 205.188 751.21 204.608 751.21H202.614V754.108ZM211.151 759.153C210.737 759.153 210.36 759.075 210.022 758.919C209.684 758.76 209.415 758.531 209.217 758.233C209.018 757.932 208.918 757.568 208.918 757.142C208.918 756.767 208.992 756.463 209.14 756.23C209.288 755.994 209.485 755.81 209.732 755.676C209.979 755.543 210.252 755.443 210.55 755.378C210.852 755.31 211.154 755.256 211.458 755.216C211.856 755.165 212.178 755.126 212.425 755.101C212.675 755.072 212.857 755.026 212.971 754.96C213.087 754.895 213.146 754.781 213.146 754.619V754.585C213.146 754.165 213.031 753.838 212.8 753.605C212.573 753.372 212.228 753.256 211.765 753.256C211.285 753.256 210.908 753.361 210.636 753.571C210.363 753.781 210.171 754.006 210.06 754.244L209.106 753.903C209.276 753.506 209.504 753.196 209.788 752.974C210.075 752.75 210.387 752.594 210.725 752.506C211.066 752.415 211.401 752.369 211.731 752.369C211.941 752.369 212.183 752.395 212.455 752.446C212.731 752.494 212.996 752.595 213.252 752.749C213.511 752.902 213.725 753.134 213.896 753.443C214.066 753.753 214.151 754.168 214.151 754.688V759H213.146V758.114H213.094C213.026 758.256 212.913 758.408 212.754 758.57C212.594 758.732 212.383 758.869 212.119 758.983C211.854 759.097 211.532 759.153 211.151 759.153ZM211.305 758.25C211.702 758.25 212.038 758.172 212.31 758.016C212.586 757.859 212.793 757.658 212.933 757.411C213.075 757.163 213.146 756.903 213.146 756.631V755.71C213.103 755.761 213.009 755.808 212.864 755.851C212.722 755.891 212.558 755.926 212.37 755.957C212.185 755.986 212.005 756.011 211.829 756.034C211.656 756.054 211.515 756.071 211.407 756.085C211.146 756.119 210.901 756.175 210.674 756.251C210.45 756.325 210.268 756.437 210.129 756.588C209.992 756.736 209.924 756.937 209.924 757.193C209.924 757.543 210.053 757.807 210.312 757.986C210.573 758.162 210.904 758.25 211.305 758.25ZM218.646 759.136C218.032 759.136 217.504 758.991 217.061 758.702C216.618 758.412 216.277 758.013 216.038 757.504C215.799 756.996 215.68 756.415 215.68 755.761C215.68 755.097 215.802 754.51 216.047 754.001C216.294 753.49 216.637 753.091 217.078 752.804C217.521 752.514 218.038 752.369 218.629 752.369C219.089 752.369 219.504 752.455 219.873 752.625C220.243 752.795 220.545 753.034 220.781 753.341C221.017 753.648 221.163 754.006 221.22 754.415H220.214C220.137 754.116 219.967 753.852 219.703 753.622C219.441 753.389 219.089 753.273 218.646 753.273C218.254 753.273 217.91 753.375 217.615 753.58C217.322 753.781 217.093 754.067 216.929 754.436C216.767 754.803 216.686 755.233 216.686 755.727C216.686 756.233 216.765 756.673 216.924 757.048C217.086 757.423 217.314 757.714 217.606 757.922C217.902 758.129 218.248 758.233 218.646 758.233C218.907 758.233 219.145 758.188 219.358 758.097C219.571 758.006 219.751 757.875 219.899 757.705C220.047 757.534 220.152 757.33 220.214 757.091H221.22C221.163 757.477 221.022 757.825 220.798 758.135C220.576 758.442 220.282 758.686 219.916 758.868C219.552 759.047 219.129 759.136 218.646 759.136ZM223.627 756.614L223.61 755.369H223.815L226.679 752.455H227.923L224.872 755.54H224.787L223.627 756.614ZM222.69 759V750.273H223.696V759H222.69ZM226.849 759L224.292 755.761L225.008 755.062L228.127 759H226.849Z" fill="#00D8FF"/>
<rect x="117.5" y="784.5" width="194" height="34" rx="5.5" fill="#00D8FF"/>
<rect x="117.5" y="784.5" width="194" height="34" rx="5.5" stroke="#00D8FF"/>
<path d="M188.023 800C187.929 799.713 187.805 799.456 187.652 799.229C187.501 798.999 187.321 798.803 187.111 798.641C186.903 798.479 186.668 798.355 186.403 798.27C186.139 798.185 185.849 798.142 185.534 798.142C185.017 798.142 184.547 798.276 184.124 798.543C183.7 798.81 183.364 799.203 183.114 799.723C182.864 800.243 182.739 800.881 182.739 801.636C182.739 802.392 182.865 803.03 183.118 803.55C183.371 804.07 183.713 804.463 184.145 804.73C184.577 804.997 185.063 805.131 185.602 805.131C186.102 805.131 186.543 805.024 186.923 804.811C187.307 804.595 187.605 804.291 187.818 803.899C188.034 803.504 188.142 803.04 188.142 802.506L188.466 802.574H185.841V801.636H189.165V802.574C189.165 803.293 189.011 803.918 188.705 804.449C188.401 804.98 187.98 805.392 187.443 805.685C186.909 805.974 186.295 806.119 185.602 806.119C184.83 806.119 184.151 805.938 183.565 805.574C182.983 805.21 182.528 804.693 182.202 804.023C181.878 803.352 181.716 802.557 181.716 801.636C181.716 800.946 181.808 800.325 181.993 799.774C182.18 799.22 182.445 798.749 182.786 798.359C183.126 797.97 183.53 797.672 183.996 797.464C184.462 797.257 184.974 797.153 185.534 797.153C185.994 797.153 186.423 797.223 186.821 797.362C187.222 797.499 187.578 797.693 187.891 797.946C188.206 798.196 188.469 798.496 188.679 798.845C188.889 799.192 189.034 799.577 189.114 800H188.023ZM193.583 806.136C192.952 806.136 192.408 805.997 191.951 805.719C191.496 805.438 191.145 805.045 190.898 804.543C190.654 804.037 190.532 803.449 190.532 802.778C190.532 802.108 190.654 801.517 190.898 801.006C191.145 800.491 191.489 800.091 191.929 799.804C192.373 799.514 192.89 799.369 193.48 799.369C193.821 799.369 194.158 799.426 194.49 799.54C194.823 799.653 195.125 799.838 195.398 800.094C195.671 800.347 195.888 800.682 196.05 801.099C196.212 801.517 196.293 802.031 196.293 802.642V803.068H191.248V802.199H195.27C195.27 801.83 195.196 801.5 195.049 801.21C194.904 800.92 194.696 800.692 194.426 800.524C194.159 800.357 193.844 800.273 193.48 800.273C193.08 800.273 192.733 800.372 192.441 800.571C192.151 800.767 191.928 801.023 191.772 801.338C191.615 801.653 191.537 801.991 191.537 802.352V802.932C191.537 803.426 191.623 803.845 191.793 804.189C191.966 804.53 192.206 804.79 192.513 804.969C192.82 805.145 193.176 805.233 193.583 805.233C193.847 805.233 194.086 805.196 194.299 805.122C194.515 805.045 194.701 804.932 194.857 804.781C195.013 804.628 195.134 804.437 195.219 804.21L196.191 804.483C196.088 804.812 195.917 805.102 195.675 805.352C195.434 805.599 195.135 805.793 194.78 805.932C194.425 806.068 194.026 806.136 193.583 806.136ZM200.669 799.455V800.307H197.277V799.455H200.669ZM198.266 797.886H199.272V804.125C199.272 804.409 199.313 804.622 199.395 804.764C199.48 804.903 199.588 804.997 199.719 805.045C199.853 805.091 199.993 805.114 200.141 805.114C200.252 805.114 200.343 805.108 200.414 805.097C200.485 805.082 200.542 805.071 200.584 805.062L200.789 805.966C200.721 805.991 200.625 806.017 200.503 806.043C200.381 806.071 200.226 806.085 200.039 806.085C199.755 806.085 199.476 806.024 199.203 805.902C198.934 805.78 198.709 805.594 198.53 805.344C198.354 805.094 198.266 804.778 198.266 804.398V797.886ZM210.466 799.455C210.415 799.023 210.208 798.688 209.844 798.449C209.48 798.21 209.034 798.091 208.506 798.091C208.12 798.091 207.782 798.153 207.492 798.278C207.205 798.403 206.98 798.575 206.819 798.794C206.659 799.013 206.58 799.261 206.58 799.54C206.58 799.773 206.635 799.973 206.746 800.141C206.86 800.305 207.005 800.443 207.181 800.554C207.357 800.662 207.542 800.751 207.735 800.822C207.928 800.891 208.105 800.946 208.267 800.989L209.154 801.227C209.381 801.287 209.634 801.369 209.912 801.474C210.194 801.58 210.462 801.723 210.718 801.905C210.976 802.084 211.189 802.314 211.357 802.595C211.525 802.876 211.608 803.222 211.608 803.631C211.608 804.102 211.485 804.528 211.238 804.909C210.993 805.29 210.635 805.592 210.164 805.817C209.695 806.041 209.125 806.153 208.455 806.153C207.83 806.153 207.289 806.053 206.831 805.851C206.377 805.649 206.019 805.368 205.757 805.007C205.499 804.646 205.353 804.227 205.319 803.75H206.409C206.438 804.08 206.549 804.352 206.742 804.568C206.938 804.781 207.185 804.94 207.483 805.045C207.784 805.148 208.108 805.199 208.455 805.199C208.858 805.199 209.221 805.134 209.542 805.003C209.863 804.869 210.117 804.685 210.304 804.449C210.492 804.21 210.586 803.932 210.586 803.614C210.586 803.324 210.505 803.088 210.343 802.906C210.181 802.724 209.968 802.577 209.703 802.463C209.439 802.349 209.154 802.25 208.847 802.165L207.773 801.858C207.091 801.662 206.551 801.382 206.154 801.018C205.756 800.655 205.557 800.179 205.557 799.591C205.557 799.102 205.689 798.676 205.953 798.312C206.221 797.946 206.578 797.662 207.027 797.46C207.479 797.256 207.983 797.153 208.54 797.153C209.103 797.153 209.603 797.254 210.04 797.456C210.478 797.655 210.824 797.928 211.08 798.274C211.338 798.621 211.475 799.014 211.489 799.455H210.466ZM216.056 799.455V800.307H212.664V799.455H216.056ZM213.653 797.886H214.658V804.125C214.658 804.409 214.7 804.622 214.782 804.764C214.867 804.903 214.975 804.997 215.106 805.045C215.239 805.091 215.38 805.114 215.528 805.114C215.638 805.114 215.729 805.108 215.8 805.097C215.871 805.082 215.928 805.071 215.971 805.062L216.175 805.966C216.107 805.991 216.012 806.017 215.89 806.043C215.768 806.071 215.613 806.085 215.425 806.085C215.141 806.085 214.863 806.024 214.59 805.902C214.32 805.78 214.096 805.594 213.917 805.344C213.741 805.094 213.653 804.778 213.653 804.398V797.886ZM219.495 806.153C219.08 806.153 218.704 806.075 218.366 805.919C218.028 805.76 217.759 805.531 217.56 805.233C217.362 804.932 217.262 804.568 217.262 804.142C217.262 803.767 217.336 803.463 217.484 803.23C217.631 802.994 217.829 802.81 218.076 802.676C218.323 802.543 218.596 802.443 218.894 802.378C219.195 802.31 219.498 802.256 219.802 802.216C220.2 802.165 220.522 802.126 220.769 802.101C221.019 802.072 221.201 802.026 221.315 801.96C221.431 801.895 221.489 801.781 221.489 801.619V801.585C221.489 801.165 221.374 800.838 221.144 800.605C220.917 800.372 220.572 800.256 220.109 800.256C219.629 800.256 219.252 800.361 218.979 800.571C218.707 800.781 218.515 801.006 218.404 801.244L217.45 800.903C217.62 800.506 217.847 800.196 218.131 799.974C218.418 799.75 218.731 799.594 219.069 799.506C219.41 799.415 219.745 799.369 220.075 799.369C220.285 799.369 220.526 799.395 220.799 799.446C221.075 799.494 221.34 799.595 221.596 799.749C221.854 799.902 222.069 800.134 222.239 800.443C222.41 800.753 222.495 801.168 222.495 801.688V806H221.489V805.114H221.438C221.37 805.256 221.256 805.408 221.097 805.57C220.938 805.732 220.727 805.869 220.462 805.983C220.198 806.097 219.876 806.153 219.495 806.153ZM219.648 805.25C220.046 805.25 220.381 805.172 220.654 805.016C220.93 804.859 221.137 804.658 221.276 804.411C221.418 804.163 221.489 803.903 221.489 803.631V802.71C221.447 802.761 221.353 802.808 221.208 802.851C221.066 802.891 220.901 802.926 220.714 802.957C220.529 802.986 220.349 803.011 220.173 803.034C219.999 803.054 219.859 803.071 219.751 803.085C219.489 803.119 219.245 803.175 219.018 803.251C218.793 803.325 218.612 803.437 218.472 803.588C218.336 803.736 218.268 803.937 218.268 804.193C218.268 804.543 218.397 804.807 218.656 804.986C218.917 805.162 219.248 805.25 219.648 805.25ZM224.331 806V799.455H225.302V800.443H225.37C225.49 800.119 225.706 799.857 226.018 799.655C226.331 799.453 226.683 799.352 227.075 799.352C227.149 799.352 227.241 799.354 227.352 799.357C227.463 799.359 227.547 799.364 227.603 799.369V800.392C227.569 800.384 227.491 800.371 227.369 800.354C227.25 800.334 227.123 800.324 226.99 800.324C226.672 800.324 226.387 800.391 226.137 800.524C225.89 800.655 225.694 800.837 225.549 801.07C225.407 801.3 225.336 801.562 225.336 801.858V806H224.331ZM232.052 799.455V800.307H228.66V799.455H232.052ZM229.649 797.886H230.654V804.125C230.654 804.409 230.696 804.622 230.778 804.764C230.863 804.903 230.971 804.997 231.102 805.045C231.235 805.091 231.376 805.114 231.524 805.114C231.635 805.114 231.725 805.108 231.797 805.097C231.868 805.082 231.924 805.071 231.967 805.062L232.172 805.966C232.103 805.991 232.008 806.017 231.886 806.043C231.764 806.071 231.609 806.085 231.422 806.085C231.137 806.085 230.859 806.024 230.586 805.902C230.316 805.78 230.092 805.594 229.913 805.344C229.737 805.094 229.649 804.778 229.649 804.398V797.886ZM236.239 806.136C235.608 806.136 235.064 805.997 234.607 805.719C234.152 805.438 233.801 805.045 233.554 804.543C233.31 804.037 233.188 803.449 233.188 802.778C233.188 802.108 233.31 801.517 233.554 801.006C233.801 800.491 234.145 800.091 234.586 799.804C235.029 799.514 235.546 799.369 236.137 799.369C236.478 799.369 236.814 799.426 237.147 799.54C237.479 799.653 237.782 799.838 238.054 800.094C238.327 800.347 238.544 800.682 238.706 801.099C238.868 801.517 238.949 802.031 238.949 802.642V803.068H233.904V802.199H237.926C237.926 801.83 237.853 801.5 237.705 801.21C237.56 800.92 237.353 800.692 237.083 800.524C236.816 800.357 236.5 800.273 236.137 800.273C235.736 800.273 235.39 800.372 235.097 800.571C234.807 800.767 234.584 801.023 234.428 801.338C234.272 801.653 234.194 801.991 234.194 802.352V802.932C234.194 803.426 234.279 803.845 234.449 804.189C234.623 804.53 234.863 804.79 235.169 804.969C235.476 805.145 235.833 805.233 236.239 805.233C236.503 805.233 236.742 805.196 236.955 805.122C237.171 805.045 237.357 804.932 237.513 804.781C237.669 804.628 237.79 804.437 237.875 804.21L238.847 804.483C238.745 804.812 238.573 805.102 238.331 805.352C238.09 805.599 237.792 805.793 237.436 805.932C237.081 806.068 236.682 806.136 236.239 806.136ZM242.951 806.136C242.405 806.136 241.924 805.999 241.506 805.723C241.088 805.445 240.762 805.053 240.526 804.547C240.29 804.038 240.172 803.438 240.172 802.744C240.172 802.057 240.29 801.46 240.526 800.955C240.762 800.449 241.09 800.058 241.51 799.783C241.931 799.507 242.417 799.369 242.968 799.369C243.394 799.369 243.73 799.44 243.978 799.582C244.228 799.722 244.418 799.881 244.549 800.06C244.682 800.236 244.786 800.381 244.86 800.494H244.945V797.273H245.951V806H244.979V804.994H244.86C244.786 805.114 244.681 805.264 244.544 805.446C244.408 805.625 244.213 805.786 243.961 805.928C243.708 806.067 243.371 806.136 242.951 806.136ZM243.087 805.233C243.49 805.233 243.831 805.128 244.11 804.918C244.388 804.705 244.6 804.411 244.745 804.036C244.89 803.658 244.962 803.222 244.962 802.727C244.962 802.239 244.891 801.811 244.749 801.445C244.607 801.075 244.397 800.788 244.118 800.584C243.84 800.376 243.496 800.273 243.087 800.273C242.661 800.273 242.306 800.382 242.022 800.601C241.74 800.817 241.529 801.111 241.387 801.483C241.248 801.852 241.178 802.267 241.178 802.727C241.178 803.193 241.249 803.616 241.391 803.997C241.536 804.375 241.749 804.676 242.03 804.901C242.314 805.122 242.667 805.233 243.087 805.233Z" fill="black"/>
<circle cx="190" cy="845" r="9" fill="#626262"/>
<circle cx="214" cy="845" r="9" fill="#626262"/>
<circle cx="238" cy="845" r="9" fill="#00D8FF"/>
<line x1="69.851" y1="443.036" x2="356.851" y2="101.036" stroke="black" stroke-width="3"/>
<line x1="70.1457" y1="101.032" x2="359.146" y2="443.032" stroke="black" stroke-width="3"/>
</svg>
