<svg width="428" height="926" viewBox="0 0 428 926" fill="none" xmlns="http://www.w3.org/2000/svg">
<rect width="428" height="926" fill="#6B6B6B"/>
<path d="M26 58H403V871H26V58Z" fill="#1E1E1E"/>
<rect x="64.5" y="285.5" width="291" height="34" rx="5.5" stroke="#00D8FF"/>
<path d="M203.08 301H202.023C201.96 300.696 201.851 300.429 201.695 300.199C201.541 299.969 201.354 299.776 201.132 299.619C200.913 299.46 200.67 299.341 200.403 299.261C200.136 299.182 199.858 299.142 199.568 299.142C199.04 299.142 198.561 299.276 198.132 299.543C197.706 299.81 197.366 300.203 197.114 300.723C196.864 301.243 196.739 301.881 196.739 302.636C196.739 303.392 196.864 304.03 197.114 304.55C197.366 305.07 197.706 305.463 198.132 305.73C198.561 305.997 199.04 306.131 199.568 306.131C199.858 306.131 200.136 306.091 200.403 306.011C200.67 305.932 200.913 305.814 201.132 305.658C201.354 305.499 201.541 305.304 201.695 305.074C201.851 304.841 201.96 304.574 202.023 304.273H203.08C203 304.719 202.855 305.118 202.645 305.47C202.435 305.822 202.173 306.122 201.861 306.369C201.548 306.614 201.197 306.8 200.808 306.928C200.422 307.055 200.009 307.119 199.568 307.119C198.824 307.119 198.162 306.938 197.582 306.574C197.003 306.21 196.547 305.693 196.214 305.023C195.882 304.352 195.716 303.557 195.716 302.636C195.716 301.716 195.882 300.92 196.214 300.25C196.547 299.58 197.003 299.062 197.582 298.699C198.162 298.335 198.824 298.153 199.568 298.153C200.009 298.153 200.422 298.217 200.808 298.345C201.197 298.473 201.548 298.661 201.861 298.908C202.173 299.152 202.435 299.45 202.645 299.803C202.855 300.152 203 300.551 203.08 301ZM205.657 298.273V307H204.651V298.273H205.657ZM210.243 307.136C209.612 307.136 209.068 306.997 208.611 306.719C208.156 306.438 207.805 306.045 207.558 305.543C207.314 305.037 207.192 304.449 207.192 303.778C207.192 303.108 207.314 302.517 207.558 302.006C207.805 301.491 208.149 301.091 208.589 300.804C209.033 300.514 209.55 300.369 210.141 300.369C210.482 300.369 210.818 300.426 211.151 300.54C211.483 300.653 211.786 300.838 212.058 301.094C212.331 301.347 212.548 301.682 212.71 302.099C212.872 302.517 212.953 303.031 212.953 303.642V304.068H207.908V303.199H211.93C211.93 302.83 211.857 302.5 211.709 302.21C211.564 301.92 211.357 301.692 211.087 301.524C210.82 301.357 210.504 301.273 210.141 301.273C209.74 301.273 209.393 301.372 209.101 301.571C208.811 301.767 208.588 302.023 208.432 302.338C208.276 302.653 208.197 302.991 208.197 303.352V303.932C208.197 304.426 208.283 304.845 208.453 305.189C208.626 305.53 208.866 305.79 209.173 305.969C209.48 306.145 209.837 306.233 210.243 306.233C210.507 306.233 210.746 306.196 210.959 306.122C211.175 306.045 211.361 305.932 211.517 305.781C211.673 305.628 211.794 305.437 211.879 305.21L212.851 305.483C212.749 305.812 212.577 306.102 212.335 306.352C212.094 306.599 211.795 306.793 211.44 306.932C211.085 307.068 210.686 307.136 210.243 307.136ZM216.409 307.153C215.994 307.153 215.618 307.075 215.28 306.919C214.942 306.76 214.673 306.531 214.474 306.233C214.276 305.932 214.176 305.568 214.176 305.142C214.176 304.767 214.25 304.463 214.398 304.23C214.545 303.994 214.743 303.81 214.99 303.676C215.237 303.543 215.51 303.443 215.808 303.378C216.109 303.31 216.412 303.256 216.716 303.216C217.114 303.165 217.436 303.126 217.683 303.101C217.933 303.072 218.115 303.026 218.229 302.96C218.345 302.895 218.403 302.781 218.403 302.619V302.585C218.403 302.165 218.288 301.838 218.058 301.605C217.831 301.372 217.486 301.256 217.023 301.256C216.543 301.256 216.166 301.361 215.893 301.571C215.621 301.781 215.429 302.006 215.318 302.244L214.364 301.903C214.534 301.506 214.761 301.196 215.045 300.974C215.332 300.75 215.645 300.594 215.983 300.506C216.324 300.415 216.659 300.369 216.989 300.369C217.199 300.369 217.44 300.395 217.713 300.446C217.989 300.494 218.254 300.595 218.51 300.749C218.768 300.902 218.983 301.134 219.153 301.443C219.324 301.753 219.409 302.168 219.409 302.688V307H218.403V306.114H218.352C218.284 306.256 218.17 306.408 218.011 306.57C217.852 306.732 217.641 306.869 217.376 306.983C217.112 307.097 216.79 307.153 216.409 307.153ZM216.562 306.25C216.96 306.25 217.295 306.172 217.568 306.016C217.844 305.859 218.051 305.658 218.19 305.411C218.332 305.163 218.403 304.903 218.403 304.631V303.71C218.361 303.761 218.267 303.808 218.122 303.851C217.98 303.891 217.815 303.926 217.628 303.957C217.443 303.986 217.263 304.011 217.087 304.034C216.913 304.054 216.773 304.071 216.665 304.085C216.403 304.119 216.159 304.175 215.932 304.251C215.707 304.325 215.526 304.437 215.386 304.588C215.25 304.736 215.182 304.937 215.182 305.193C215.182 305.543 215.311 305.807 215.57 305.986C215.831 306.162 216.162 306.25 216.562 306.25ZM221.245 307V300.455H222.216V301.443H222.284C222.404 301.119 222.62 300.857 222.932 300.655C223.245 300.453 223.597 300.352 223.989 300.352C224.063 300.352 224.155 300.354 224.266 300.357C224.377 300.359 224.461 300.364 224.517 300.369V301.392C224.483 301.384 224.405 301.371 224.283 301.354C224.164 301.334 224.037 301.324 223.904 301.324C223.586 301.324 223.301 301.391 223.051 301.524C222.804 301.655 222.608 301.837 222.463 302.07C222.321 302.3 222.25 302.562 222.25 302.858V307H221.245Z" fill="#00D8FF"/>
<rect x="64.5" y="332.5" width="291" height="34" rx="5.5" fill="#00D8FF"/>
<rect x="64.5" y="332.5" width="291" height="34" rx="5.5" stroke="#00D8FF"/>
<path d="M184.415 354H183.307L186.511 345.273H187.602L190.807 354H189.699L187.091 346.653H187.023L184.415 354ZM184.824 350.591H189.29V351.528H184.824V350.591ZM194.501 354.136C193.956 354.136 193.474 353.999 193.057 353.723C192.639 353.445 192.313 353.053 192.077 352.547C191.841 352.038 191.723 351.438 191.723 350.744C191.723 350.057 191.841 349.46 192.077 348.955C192.313 348.449 192.641 348.058 193.061 347.783C193.482 347.507 193.967 347.369 194.518 347.369C194.945 347.369 195.281 347.44 195.528 347.582C195.778 347.722 195.969 347.881 196.099 348.06C196.233 348.236 196.337 348.381 196.411 348.494H196.496V345.273H197.501V354H196.53V352.994H196.411C196.337 353.114 196.232 353.264 196.095 353.446C195.959 353.625 195.764 353.786 195.511 353.928C195.259 354.067 194.922 354.136 194.501 354.136ZM194.638 353.233C195.041 353.233 195.382 353.128 195.661 352.918C195.939 352.705 196.151 352.411 196.295 352.036C196.44 351.658 196.513 351.222 196.513 350.727C196.513 350.239 196.442 349.811 196.3 349.445C196.158 349.075 195.947 348.788 195.669 348.584C195.391 348.376 195.047 348.273 194.638 348.273C194.212 348.273 193.857 348.382 193.572 348.601C193.291 348.817 193.08 349.111 192.938 349.483C192.798 349.852 192.729 350.267 192.729 350.727C192.729 351.193 192.8 351.616 192.942 351.997C193.087 352.375 193.3 352.676 193.581 352.901C193.865 353.122 194.217 353.233 194.638 353.233ZM201.955 354.136C201.409 354.136 200.928 353.999 200.51 353.723C200.092 353.445 199.766 353.053 199.53 352.547C199.294 352.038 199.176 351.438 199.176 350.744C199.176 350.057 199.294 349.46 199.53 348.955C199.766 348.449 200.094 348.058 200.514 347.783C200.935 347.507 201.42 347.369 201.972 347.369C202.398 347.369 202.734 347.44 202.982 347.582C203.232 347.722 203.422 347.881 203.553 348.06C203.686 348.236 203.79 348.381 203.864 348.494H203.949V345.273H204.955V354H203.983V352.994H203.864C203.79 353.114 203.685 353.264 203.548 353.446C203.412 353.625 203.217 353.786 202.964 353.928C202.712 354.067 202.375 354.136 201.955 354.136ZM202.091 353.233C202.494 353.233 202.835 353.128 203.114 352.918C203.392 352.705 203.604 352.411 203.749 352.036C203.893 351.658 203.966 351.222 203.966 350.727C203.966 350.239 203.895 349.811 203.753 349.445C203.611 349.075 203.401 348.788 203.122 348.584C202.844 348.376 202.5 348.273 202.091 348.273C201.665 348.273 201.31 348.382 201.026 348.601C200.744 348.817 200.533 349.111 200.391 349.483C200.251 349.852 200.182 350.267 200.182 350.727C200.182 351.193 200.253 351.616 200.395 351.997C200.54 352.375 200.753 352.676 201.034 352.901C201.318 353.122 201.67 353.233 202.091 353.233ZM216.175 345.273H217.232V351.051C217.232 351.648 217.091 352.18 216.81 352.649C216.531 353.115 216.138 353.483 215.629 353.753C215.121 354.02 214.524 354.153 213.839 354.153C213.155 354.153 212.558 354.02 212.05 353.753C211.541 353.483 211.146 353.115 210.865 352.649C210.587 352.18 210.447 351.648 210.447 351.051V345.273H211.504V350.966C211.504 351.392 211.598 351.771 211.786 352.104C211.973 352.433 212.24 352.693 212.587 352.884C212.936 353.071 213.354 353.165 213.839 353.165C214.325 353.165 214.743 353.071 215.092 352.884C215.442 352.693 215.709 352.433 215.893 352.104C216.081 351.771 216.175 351.392 216.175 350.966V345.273ZM223.842 348.92L222.939 349.176C222.882 349.026 222.798 348.879 222.687 348.737C222.579 348.592 222.431 348.473 222.244 348.379C222.056 348.286 221.816 348.239 221.524 348.239C221.123 348.239 220.789 348.331 220.522 348.516C220.258 348.697 220.126 348.929 220.126 349.21C220.126 349.46 220.217 349.658 220.399 349.803C220.581 349.947 220.865 350.068 221.251 350.165L222.223 350.403C222.808 350.545 223.244 350.763 223.531 351.055C223.818 351.345 223.961 351.719 223.961 352.176C223.961 352.551 223.853 352.886 223.637 353.182C223.424 353.477 223.126 353.71 222.743 353.881C222.359 354.051 221.913 354.136 221.404 354.136C220.737 354.136 220.184 353.991 219.747 353.702C219.309 353.412 219.032 352.989 218.916 352.432L219.87 352.193C219.961 352.545 220.133 352.81 220.386 352.986C220.642 353.162 220.975 353.25 221.387 353.25C221.856 353.25 222.228 353.151 222.504 352.952C222.782 352.75 222.922 352.509 222.922 352.227C222.922 352 222.842 351.81 222.683 351.656C222.524 351.5 222.279 351.384 221.95 351.307L220.859 351.051C220.26 350.909 219.819 350.689 219.538 350.391C219.26 350.089 219.12 349.713 219.12 349.261C219.12 348.892 219.224 348.565 219.431 348.281C219.642 347.997 219.927 347.774 220.288 347.612C220.652 347.45 221.064 347.369 221.524 347.369C222.172 347.369 222.68 347.511 223.049 347.795C223.422 348.08 223.686 348.455 223.842 348.92ZM228.219 354.136C227.589 354.136 227.045 353.997 226.587 353.719C226.133 353.438 225.782 353.045 225.535 352.543C225.29 352.037 225.168 351.449 225.168 350.778C225.168 350.108 225.29 349.517 225.535 349.006C225.782 348.491 226.126 348.091 226.566 347.804C227.009 347.514 227.526 347.369 228.117 347.369C228.458 347.369 228.795 347.426 229.127 347.54C229.46 347.653 229.762 347.838 230.035 348.094C230.308 348.347 230.525 348.682 230.687 349.099C230.849 349.517 230.93 350.031 230.93 350.642V351.068H225.884V350.199H229.907C229.907 349.83 229.833 349.5 229.685 349.21C229.54 348.92 229.333 348.692 229.063 348.524C228.796 348.357 228.481 348.273 228.117 348.273C227.717 348.273 227.37 348.372 227.077 348.571C226.788 348.767 226.565 349.023 226.408 349.338C226.252 349.653 226.174 349.991 226.174 350.352V350.932C226.174 351.426 226.259 351.845 226.43 352.189C226.603 352.53 226.843 352.79 227.15 352.969C227.457 353.145 227.813 353.233 228.219 353.233C228.484 353.233 228.722 353.196 228.935 353.122C229.151 353.045 229.337 352.932 229.494 352.781C229.65 352.628 229.771 352.437 229.856 352.21L230.827 352.483C230.725 352.812 230.553 353.102 230.312 353.352C230.07 353.599 229.772 353.793 229.417 353.932C229.062 354.068 228.663 354.136 228.219 354.136ZM232.46 354V347.455H233.431V348.443H233.499C233.619 348.119 233.835 347.857 234.147 347.655C234.46 347.453 234.812 347.352 235.204 347.352C235.278 347.352 235.37 347.354 235.481 347.357C235.592 347.359 235.675 347.364 235.732 347.369V348.392C235.698 348.384 235.62 348.371 235.498 348.354C235.379 348.334 235.252 348.324 235.119 348.324C234.8 348.324 234.516 348.391 234.266 348.524C234.019 348.655 233.823 348.837 233.678 349.07C233.536 349.3 233.465 349.562 233.465 349.858V354H232.46Z" fill="black"/>
<path d="M68.5256 140H64.571L70.5966 122.545H75.3523L81.3693 140H77.4148L73.0426 126.534H72.9062L68.5256 140ZM68.2784 133.139H77.6193V136.02H68.2784V133.139ZM87.0327 122.545V140H83.402V122.545H87.0327ZM93.5717 122.545V140H89.9411V122.545H93.5717Z" fill="#F2F2F2"/>
<path d="M112.884 122.545H116.575V133.881C116.575 135.153 116.271 136.267 115.663 137.222C115.06 138.176 114.217 138.92 113.131 139.455C112.046 139.983 110.782 140.247 109.339 140.247C107.89 140.247 106.623 139.983 105.538 139.455C104.452 138.92 103.609 138.176 103.006 137.222C102.404 136.267 102.103 135.153 102.103 133.881V122.545H105.793V133.565C105.793 134.23 105.938 134.821 106.228 135.338C106.523 135.855 106.938 136.261 107.472 136.557C108.006 136.852 108.629 137 109.339 137C110.055 137 110.677 136.852 111.205 136.557C111.739 136.261 112.151 135.855 112.441 135.338C112.737 134.821 112.884 134.23 112.884 133.565V122.545ZM130.435 130.642L127.111 130.847C127.054 130.562 126.932 130.307 126.744 130.08C126.557 129.847 126.31 129.662 126.003 129.526C125.702 129.384 125.341 129.312 124.92 129.312C124.358 129.312 123.884 129.432 123.497 129.67C123.111 129.903 122.918 130.216 122.918 130.608C122.918 130.92 123.043 131.185 123.293 131.401C123.543 131.616 123.972 131.79 124.58 131.92L126.949 132.398C128.222 132.659 129.17 133.08 129.795 133.659C130.42 134.239 130.733 135 130.733 135.943C130.733 136.801 130.48 137.554 129.974 138.202C129.474 138.849 128.787 139.355 127.912 139.719C127.043 140.077 126.04 140.256 124.903 140.256C123.17 140.256 121.79 139.895 120.761 139.173C119.739 138.446 119.139 137.457 118.963 136.207L122.534 136.02C122.642 136.548 122.903 136.952 123.318 137.23C123.733 137.503 124.264 137.639 124.912 137.639C125.548 137.639 126.06 137.517 126.446 137.273C126.838 137.023 127.037 136.702 127.043 136.31C127.037 135.98 126.898 135.71 126.625 135.5C126.352 135.284 125.932 135.119 125.364 135.006L123.097 134.554C121.818 134.298 120.866 133.855 120.241 133.224C119.622 132.594 119.312 131.79 119.312 130.812C119.312 129.972 119.54 129.247 119.994 128.639C120.455 128.031 121.099 127.562 121.929 127.233C122.764 126.903 123.741 126.739 124.861 126.739C126.514 126.739 127.815 127.088 128.764 127.787C129.719 128.486 130.276 129.437 130.435 130.642ZM138.985 140.256C137.638 140.256 136.479 139.983 135.508 139.438C134.542 138.886 133.798 138.108 133.275 137.102C132.752 136.091 132.491 134.895 132.491 133.514C132.491 132.168 132.752 130.986 133.275 129.969C133.798 128.952 134.533 128.159 135.482 127.591C136.437 127.023 137.556 126.739 138.84 126.739C139.704 126.739 140.508 126.878 141.252 127.156C142.002 127.429 142.656 127.841 143.212 128.392C143.775 128.943 144.212 129.636 144.525 130.472C144.837 131.301 144.994 132.273 144.994 133.386V134.384H133.94V132.134H141.576C141.576 131.611 141.462 131.148 141.235 130.744C141.008 130.341 140.692 130.026 140.289 129.798C139.891 129.565 139.428 129.449 138.9 129.449C138.349 129.449 137.86 129.577 137.434 129.832C137.013 130.082 136.684 130.42 136.445 130.847C136.207 131.267 136.085 131.736 136.079 132.253V134.392C136.079 135.04 136.198 135.599 136.437 136.071C136.681 136.543 137.025 136.906 137.468 137.162C137.911 137.418 138.437 137.545 139.045 137.545C139.448 137.545 139.817 137.489 140.153 137.375C140.488 137.261 140.775 137.091 141.013 136.864C141.252 136.636 141.434 136.358 141.559 136.028L144.917 136.25C144.746 137.057 144.397 137.761 143.869 138.364C143.346 138.96 142.67 139.426 141.84 139.761C141.016 140.091 140.065 140.256 138.985 140.256ZM147.363 140V126.909H150.883V129.193H151.019C151.258 128.381 151.658 127.767 152.221 127.352C152.783 126.932 153.431 126.722 154.164 126.722C154.346 126.722 154.542 126.733 154.752 126.756C154.962 126.778 155.147 126.81 155.306 126.849V130.071C155.136 130.02 154.9 129.974 154.599 129.935C154.298 129.895 154.022 129.875 153.772 129.875C153.238 129.875 152.761 129.991 152.34 130.224C151.925 130.452 151.596 130.77 151.352 131.179C151.113 131.588 150.994 132.06 150.994 132.594V140H147.363ZM168.075 130.642L164.751 130.847C164.695 130.562 164.572 130.307 164.385 130.08C164.197 129.847 163.95 129.662 163.643 129.526C163.342 129.384 162.982 129.312 162.561 129.312C161.999 129.312 161.524 129.432 161.138 129.67C160.751 129.903 160.558 130.216 160.558 130.608C160.558 130.92 160.683 131.185 160.933 131.401C161.183 131.616 161.612 131.79 162.22 131.92L164.589 132.398C165.862 132.659 166.811 133.08 167.436 133.659C168.061 134.239 168.374 135 168.374 135.943C168.374 136.801 168.121 137.554 167.615 138.202C167.115 138.849 166.428 139.355 165.553 139.719C164.683 140.077 163.68 140.256 162.544 140.256C160.811 140.256 159.43 139.895 158.402 139.173C157.379 138.446 156.78 137.457 156.604 136.207L160.175 136.02C160.283 136.548 160.544 136.952 160.959 137.23C161.374 137.503 161.905 137.639 162.553 137.639C163.189 137.639 163.7 137.517 164.087 137.273C164.479 137.023 164.678 136.702 164.683 136.31C164.678 135.98 164.538 135.71 164.266 135.5C163.993 135.284 163.572 135.119 163.004 135.006L160.737 134.554C159.459 134.298 158.507 133.855 157.882 133.224C157.263 132.594 156.953 131.79 156.953 130.812C156.953 129.972 157.18 129.247 157.635 128.639C158.095 128.031 158.74 127.562 159.57 127.233C160.405 126.903 161.382 126.739 162.501 126.739C164.155 126.739 165.456 127.088 166.405 127.787C167.359 128.486 167.916 129.437 168.075 130.642Z" fill="#00D8FF"/>
<path d="M68.0249 470H65.3885L69.4055 458.364H72.576L76.5874 470H73.951L71.0362 461.023H70.9453L68.0249 470ZM67.8601 465.426H74.0874V467.347H67.8601V465.426ZM82.1129 470H77.9879V458.364H82.147C83.3175 458.364 84.325 458.597 85.1697 459.062C86.0144 459.525 86.6641 460.189 87.1186 461.057C87.5769 461.924 87.8061 462.962 87.8061 464.17C87.8061 465.383 87.5769 466.424 87.1186 467.295C86.6641 468.167 86.0107 468.835 85.1584 469.301C84.3099 469.767 83.2947 470 82.1129 470ZM80.4482 467.892H82.0107C82.7379 467.892 83.3497 467.763 83.8459 467.506C84.3459 467.244 84.7209 466.841 84.9709 466.295C85.2247 465.746 85.3516 465.038 85.3516 464.17C85.3516 463.311 85.2247 462.608 84.9709 462.062C84.7209 461.517 84.3478 461.116 83.8516 460.858C83.3554 460.6 82.7436 460.472 82.0163 460.472H80.4482V467.892ZM89.6286 458.364H92.6626L95.8672 466.182H96.0036L99.2081 458.364H102.242V470H99.8558V462.426H99.7592L96.7479 469.943H95.1229L92.1115 462.398H92.0149V470H89.6286V458.364ZM106.729 458.364V470H104.269V458.364H106.729ZM118.487 458.364V470H116.362L111.299 462.676H111.214V470H108.754V458.364H110.913L115.935 465.682H116.038V458.364H118.487ZM126.832 461.71C126.786 461.252 126.591 460.896 126.246 460.642C125.902 460.388 125.434 460.261 124.843 460.261C124.442 460.261 124.103 460.318 123.826 460.432C123.549 460.542 123.337 460.695 123.19 460.892C123.046 461.089 122.974 461.312 122.974 461.562C122.966 461.771 123.01 461.953 123.104 462.108C123.203 462.263 123.337 462.398 123.508 462.511C123.678 462.621 123.875 462.718 124.099 462.801C124.322 462.881 124.561 462.949 124.815 463.006L125.86 463.256C126.368 463.369 126.834 463.521 127.258 463.71C127.682 463.9 128.049 464.133 128.36 464.409C128.671 464.686 128.911 465.011 129.082 465.386C129.256 465.761 129.345 466.191 129.349 466.676C129.345 467.388 129.163 468.006 128.803 468.528C128.447 469.047 127.932 469.451 127.258 469.739C126.587 470.023 125.779 470.165 124.832 470.165C123.892 470.165 123.074 470.021 122.377 469.733C121.684 469.445 121.142 469.019 120.752 468.455C120.366 467.886 120.163 467.184 120.144 466.347H122.525C122.551 466.737 122.663 467.062 122.86 467.324C123.061 467.581 123.328 467.777 123.661 467.909C123.998 468.038 124.379 468.102 124.803 468.102C125.22 468.102 125.582 468.042 125.888 467.92C126.199 467.799 126.44 467.631 126.61 467.415C126.781 467.199 126.866 466.951 126.866 466.67C126.866 466.409 126.788 466.189 126.633 466.011C126.481 465.833 126.258 465.682 125.962 465.557C125.671 465.432 125.313 465.318 124.888 465.216L123.621 464.898C122.64 464.659 121.866 464.286 121.298 463.778C120.729 463.271 120.447 462.587 120.451 461.727C120.447 461.023 120.635 460.407 121.013 459.881C121.396 459.354 121.921 458.943 122.587 458.648C123.254 458.352 124.012 458.205 124.86 458.205C125.724 458.205 126.478 458.352 127.121 458.648C127.769 458.943 128.273 459.354 128.633 459.881C128.993 460.407 129.178 461.017 129.19 461.71H126.832Z" fill="#00D8FF"/>
<path d="M65.3473 676V664.364H73.0518V666.392H67.8075V669.165H72.5405V671.193H67.8075V676H65.3473ZM75.2592 676H72.6229L76.6399 664.364H79.8104L83.8217 676H81.1854L78.2706 667.023H78.1797L75.2592 676ZM75.0945 671.426H81.3217V673.347H75.0945V671.426ZM85.2223 664.364H88.2564L91.4609 672.182H91.5973L94.8018 664.364H97.8359V676H95.4496V668.426H95.353L92.3416 675.943H90.7166L87.7053 668.398H87.6087V676H85.2223V664.364ZM102.323 664.364V676H99.8629V664.364H102.323ZM104.347 676V664.364H106.808V673.972H111.796V676H104.347ZM111.259 664.364H114.015L116.668 669.375H116.782L119.435 664.364H122.191L117.947 671.886V676H115.504V671.886L111.259 664.364ZM127.238 664.364H130.272L133.477 672.182H133.613L136.817 664.364H139.852V676H137.465V668.426H137.369L134.357 675.943H132.732L129.721 668.398H129.624V676H127.238V664.364ZM141.879 676V664.364H149.719V666.392H144.339V669.165H149.316V671.193H144.339V673.972H149.742V676H141.879ZM151.675 664.364H154.71L157.914 672.182H158.05L161.255 664.364H164.289V676H161.903V668.426H161.806L158.795 675.943H157.17L154.158 668.398H154.062V676H151.675V664.364ZM166.316 676V664.364H170.975C171.831 664.364 172.545 664.491 173.117 664.744C173.689 664.998 174.119 665.35 174.407 665.801C174.695 666.248 174.839 666.763 174.839 667.347C174.839 667.801 174.748 668.201 174.566 668.545C174.384 668.886 174.134 669.167 173.816 669.386C173.502 669.602 173.142 669.756 172.737 669.847V669.96C173.18 669.979 173.594 670.104 173.981 670.335C174.371 670.566 174.687 670.89 174.93 671.307C175.172 671.72 175.293 672.212 175.293 672.784C175.293 673.402 175.14 673.953 174.833 674.438C174.53 674.919 174.081 675.299 173.487 675.58C172.892 675.86 172.159 676 171.288 676H166.316ZM168.776 673.989H170.782C171.468 673.989 171.968 673.858 172.282 673.597C172.596 673.331 172.754 672.979 172.754 672.54C172.754 672.218 172.676 671.934 172.521 671.688C172.365 671.441 172.144 671.248 171.856 671.108C171.572 670.968 171.233 670.898 170.839 670.898H168.776V673.989ZM168.776 669.233H170.6C170.937 669.233 171.237 669.174 171.498 669.057C171.763 668.936 171.971 668.765 172.123 668.545C172.278 668.326 172.356 668.062 172.356 667.756C172.356 667.335 172.206 666.996 171.907 666.739C171.612 666.481 171.191 666.352 170.646 666.352H168.776V669.233ZM176.894 676V664.364H184.735V666.392H179.354V669.165H184.332V671.193H179.354V673.972H184.758V676H176.894ZM186.691 676V664.364H191.282C192.161 664.364 192.911 664.521 193.532 664.835C194.157 665.146 194.632 665.587 194.958 666.159C195.288 666.727 195.452 667.396 195.452 668.165C195.452 668.937 195.286 669.602 194.952 670.159C194.619 670.712 194.136 671.136 193.504 671.432C192.875 671.727 192.113 671.875 191.219 671.875H188.146V669.898H190.822C191.291 669.898 191.682 669.833 191.992 669.705C192.303 669.576 192.534 669.383 192.685 669.125C192.841 668.867 192.918 668.547 192.918 668.165C192.918 667.778 192.841 667.453 192.685 667.188C192.534 666.922 192.301 666.722 191.987 666.585C191.676 666.445 191.284 666.375 190.81 666.375H189.151V676H186.691ZM192.975 670.705L195.867 676H193.151L190.322 670.705H192.975ZM203.504 667.71C203.458 667.252 203.263 666.896 202.918 666.642C202.574 666.388 202.106 666.261 201.515 666.261C201.113 666.261 200.774 666.318 200.498 666.432C200.221 666.542 200.009 666.695 199.862 666.892C199.718 667.089 199.646 667.312 199.646 667.562C199.638 667.771 199.682 667.953 199.776 668.108C199.875 668.263 200.009 668.398 200.18 668.511C200.35 668.621 200.547 668.718 200.771 668.801C200.994 668.881 201.233 668.949 201.487 669.006L202.532 669.256C203.04 669.369 203.505 669.521 203.93 669.71C204.354 669.9 204.721 670.133 205.032 670.409C205.343 670.686 205.583 671.011 205.754 671.386C205.928 671.761 206.017 672.191 206.021 672.676C206.017 673.388 205.835 674.006 205.475 674.528C205.119 675.047 204.604 675.451 203.93 675.739C203.259 676.023 202.451 676.165 201.504 676.165C200.564 676.165 199.746 676.021 199.049 675.733C198.356 675.445 197.814 675.019 197.424 674.455C197.038 673.886 196.835 673.184 196.816 672.347H199.197C199.223 672.737 199.335 673.062 199.532 673.324C199.733 673.581 200 673.777 200.333 673.909C200.67 674.038 201.051 674.102 201.475 674.102C201.892 674.102 202.254 674.042 202.56 673.92C202.871 673.799 203.112 673.631 203.282 673.415C203.452 673.199 203.538 672.951 203.538 672.67C203.538 672.409 203.46 672.189 203.305 672.011C203.153 671.833 202.93 671.682 202.634 671.557C202.343 671.432 201.985 671.318 201.56 671.216L200.293 670.898C199.312 670.659 198.538 670.286 197.969 669.778C197.401 669.271 197.119 668.587 197.123 667.727C197.119 667.023 197.307 666.407 197.685 665.881C198.068 665.354 198.593 664.943 199.259 664.648C199.926 664.352 200.683 664.205 201.532 664.205C202.396 664.205 203.149 664.352 203.793 664.648C204.441 664.943 204.945 665.354 205.305 665.881C205.665 666.407 205.85 667.017 205.862 667.71H203.504Z" fill="#00D8FF"/>
<path d="M69.0234 195H65.4325V183.364H69.1825C70.3113 183.364 71.2772 183.597 72.0803 184.062C72.8833 184.525 73.4988 185.189 73.9268 186.057C74.3549 186.92 74.5689 187.955 74.5689 189.159C74.5689 190.371 74.353 191.415 73.9212 192.29C73.4893 193.161 72.8606 193.831 72.0348 194.301C71.209 194.767 70.2053 195 69.0234 195ZM66.8416 193.75H68.9325C69.8946 193.75 70.692 193.564 71.3246 193.193C71.9571 192.822 72.4287 192.294 72.7393 191.608C73.05 190.922 73.2053 190.106 73.2053 189.159C73.2053 188.22 73.0518 187.411 72.745 186.733C72.4382 186.051 71.9799 185.528 71.37 185.165C70.7602 184.797 70.0007 184.614 69.0916 184.614H66.8416V193.75ZM79.3189 195.205C78.7659 195.205 78.264 195.1 77.8132 194.892C77.3625 194.68 77.0045 194.375 76.7393 193.977C76.4742 193.576 76.3416 193.091 76.3416 192.523C76.3416 192.023 76.4401 191.617 76.6371 191.307C76.834 190.992 77.0973 190.746 77.4268 190.568C77.7564 190.39 78.12 190.258 78.5178 190.17C78.9193 190.08 79.3227 190.008 79.728 189.955C80.2583 189.886 80.6882 189.835 81.0178 189.801C81.3511 189.763 81.5935 189.701 81.745 189.614C81.9003 189.527 81.978 189.375 81.978 189.159V189.114C81.978 188.553 81.8246 188.117 81.5178 187.807C81.2147 187.496 80.7545 187.341 80.1371 187.341C79.4969 187.341 78.995 187.481 78.6314 187.761C78.2678 188.042 78.0121 188.341 77.8643 188.659L76.5916 188.205C76.8189 187.674 77.1219 187.261 77.5007 186.966C77.8833 186.667 78.3 186.458 78.7507 186.341C79.2053 186.22 79.6522 186.159 80.0916 186.159C80.3719 186.159 80.6939 186.193 81.0575 186.261C81.425 186.326 81.7791 186.46 82.12 186.665C82.4647 186.869 82.7507 187.178 82.978 187.591C83.2053 188.004 83.3189 188.557 83.3189 189.25V195H81.978V193.818H81.9098C81.8189 194.008 81.6674 194.21 81.4553 194.426C81.2431 194.642 80.9609 194.826 80.6087 194.977C80.2564 195.129 79.8265 195.205 79.3189 195.205ZM79.5234 194C80.0537 194 80.5007 193.896 80.8643 193.688C81.2318 193.479 81.5083 193.21 81.6939 192.881C81.8833 192.551 81.978 192.205 81.978 191.841V190.614C81.9212 190.682 81.7962 190.744 81.603 190.801C81.4136 190.854 81.1939 190.902 80.9439 190.943C80.6977 190.981 80.4571 191.015 80.2223 191.045C79.9912 191.072 79.8037 191.095 79.6598 191.114C79.3113 191.159 78.9856 191.233 78.6825 191.335C78.3833 191.434 78.1409 191.583 77.9553 191.784C77.7734 191.981 77.6825 192.25 77.6825 192.591C77.6825 193.057 77.8549 193.409 78.1996 193.648C78.5481 193.883 78.9893 194 79.5234 194ZM89.5618 186.273V187.409H85.0391V186.273H89.5618ZM86.3572 184.182H87.6982V192.5C87.6982 192.879 87.7531 193.163 87.8629 193.352C87.9766 193.538 88.1205 193.663 88.2947 193.727C88.4728 193.788 88.6603 193.818 88.8572 193.818C89.005 193.818 89.1262 193.811 89.2209 193.795C89.3156 193.777 89.3913 193.761 89.4482 193.75L89.7209 194.955C89.63 194.989 89.5031 195.023 89.3402 195.057C89.1773 195.095 88.9709 195.114 88.7209 195.114C88.3421 195.114 87.9709 195.032 87.6072 194.869C87.2474 194.706 86.9482 194.458 86.7095 194.125C86.4747 193.792 86.3572 193.371 86.3572 192.864V184.182ZM95.1442 195.182C94.3033 195.182 93.5779 194.996 92.968 194.625C92.362 194.25 91.8942 193.727 91.5646 193.057C91.2389 192.383 91.076 191.598 91.076 190.705C91.076 189.811 91.2389 189.023 91.5646 188.341C91.8942 187.655 92.3525 187.121 92.9396 186.739C93.5305 186.352 94.2199 186.159 95.0078 186.159C95.4624 186.159 95.9112 186.235 96.3544 186.386C96.7976 186.538 97.201 186.784 97.5646 187.125C97.9283 187.462 98.218 187.909 98.4339 188.466C98.6499 189.023 98.7578 189.708 98.7578 190.523V191.091H92.0305V189.932H97.3942C97.3942 189.439 97.2957 189 97.0987 188.614C96.9055 188.227 96.629 187.922 96.2692 187.699C95.9131 187.475 95.4927 187.364 95.0078 187.364C94.4737 187.364 94.0116 187.496 93.6214 187.761C93.2351 188.023 92.9377 188.364 92.7294 188.784C92.5211 189.205 92.4169 189.655 92.4169 190.136V190.909C92.4169 191.568 92.5305 192.127 92.7578 192.585C92.9889 193.04 93.3089 193.386 93.718 193.625C94.1271 193.86 94.6025 193.977 95.1442 193.977C95.4964 193.977 95.8146 193.928 96.0987 193.83C96.3866 193.727 96.6347 193.576 96.843 193.375C97.0514 193.17 97.2124 192.917 97.326 192.614L98.6214 192.977C98.4851 193.417 98.2559 193.803 97.9339 194.136C97.612 194.466 97.2143 194.723 96.7408 194.909C96.2673 195.091 95.7351 195.182 95.1442 195.182ZM101.775 195.091C101.495 195.091 101.254 194.991 101.053 194.79C100.853 194.589 100.752 194.348 100.752 194.068C100.752 193.788 100.853 193.547 101.053 193.347C101.254 193.146 101.495 193.045 101.775 193.045C102.055 193.045 102.296 193.146 102.496 193.347C102.697 193.547 102.798 193.788 102.798 194.068C102.798 194.254 102.75 194.424 102.656 194.58C102.565 194.735 102.442 194.86 102.286 194.955C102.135 195.045 101.964 195.091 101.775 195.091ZM101.775 188.614C101.495 188.614 101.254 188.513 101.053 188.312C100.853 188.112 100.752 187.871 100.752 187.591C100.752 187.311 100.853 187.07 101.053 186.869C101.254 186.669 101.495 186.568 101.775 186.568C102.055 186.568 102.296 186.669 102.496 186.869C102.697 187.07 102.798 187.311 102.798 187.591C102.798 187.777 102.75 187.947 102.656 188.102C102.565 188.258 102.442 188.383 102.286 188.477C102.135 188.568 101.964 188.614 101.775 188.614Z" fill="#F2F2F2"/>
<rect x="26" y="805" width="377" height="66" fill="#ACACAC"/>
<rect x="55" y="814" width="51" height="48" fill="#D9D9D9"/>
<rect x="122" y="814" width="51" height="48" fill="#D9D9D9"/>
<rect x="189" y="814" width="51" height="48" fill="#D9D9D9"/>
<rect x="256" y="814" width="51" height="48" fill="#D9D9D9"/>
<rect x="323" y="814" width="51" height="48" fill="#D9D9D9"/>
<rect x="64" y="208" width="292" height="27" fill="#ACACAC"/>
<path d="M343.276 227.096L338.739 216.684L347.398 216.512L343.276 227.096Z" fill="#D9D9D9"/>
<path d="M73.831 227V215.364H77.7628C78.6719 215.364 79.4181 215.519 80.0014 215.83C80.5848 216.136 81.0166 216.559 81.2969 217.097C81.5772 217.634 81.7173 218.246 81.7173 218.932C81.7173 219.617 81.5772 220.225 81.2969 220.756C81.0166 221.286 80.5866 221.703 80.0071 222.006C79.4276 222.305 78.687 222.455 77.7855 222.455H74.6037V221.182H77.7401C78.3613 221.182 78.8613 221.091 79.2401 220.909C79.6226 220.727 79.8991 220.47 80.0696 220.136C80.2438 219.799 80.331 219.398 80.331 218.932C80.331 218.466 80.2438 218.059 80.0696 217.71C79.8954 217.362 79.617 217.093 79.2344 216.903C78.8518 216.71 78.3461 216.614 77.7173 216.614H75.2401V227H73.831ZM79.3082 221.773L82.1719 227H80.5355L77.7173 221.773H79.3082ZM87.3352 227.182C86.5473 227.182 85.8561 226.994 85.2614 226.619C84.6705 226.244 84.2083 225.72 83.875 225.045C83.5455 224.371 83.3807 223.583 83.3807 222.682C83.3807 221.773 83.5455 220.979 83.875 220.301C84.2083 219.623 84.6705 219.097 85.2614 218.722C85.8561 218.347 86.5473 218.159 87.3352 218.159C88.1231 218.159 88.8125 218.347 89.4034 218.722C89.9981 219.097 90.4602 219.623 90.7898 220.301C91.1231 220.979 91.2898 221.773 91.2898 222.682C91.2898 223.583 91.1231 224.371 90.7898 225.045C90.4602 225.72 89.9981 226.244 89.4034 226.619C88.8125 226.994 88.1231 227.182 87.3352 227.182ZM87.3352 225.977C87.9337 225.977 88.4261 225.824 88.8125 225.517C89.1989 225.21 89.4848 224.807 89.6705 224.307C89.8561 223.807 89.9489 223.265 89.9489 222.682C89.9489 222.098 89.8561 221.555 89.6705 221.051C89.4848 220.547 89.1989 220.14 88.8125 219.83C88.4261 219.519 87.9337 219.364 87.3352 219.364C86.7367 219.364 86.2443 219.519 85.858 219.83C85.4716 220.14 85.1856 220.547 85 221.051C84.8144 221.555 84.7216 222.098 84.7216 222.682C84.7216 223.265 84.8144 223.807 85 224.307C85.1856 224.807 85.4716 225.21 85.858 225.517C86.2443 225.824 86.7367 225.977 87.3352 225.977ZM94.6776 215.364V227H93.3366V215.364H94.6776ZM100.793 227.182C99.9517 227.182 99.2263 226.996 98.6165 226.625C98.0104 226.25 97.5426 225.727 97.2131 225.057C96.8873 224.383 96.7244 223.598 96.7244 222.705C96.7244 221.811 96.8873 221.023 97.2131 220.341C97.5426 219.655 98.0009 219.121 98.5881 218.739C99.179 218.352 99.8684 218.159 100.656 218.159C101.111 218.159 101.56 218.235 102.003 218.386C102.446 218.538 102.849 218.784 103.213 219.125C103.577 219.462 103.866 219.909 104.082 220.466C104.298 221.023 104.406 221.708 104.406 222.523V223.091H97.679V221.932H103.043C103.043 221.439 102.944 221 102.747 220.614C102.554 220.227 102.277 219.922 101.918 219.699C101.562 219.475 101.141 219.364 100.656 219.364C100.122 219.364 99.66 219.496 99.2699 219.761C98.8835 220.023 98.5862 220.364 98.3778 220.784C98.1695 221.205 98.0653 221.655 98.0653 222.136V222.909C98.0653 223.568 98.179 224.127 98.4062 224.585C98.6373 225.04 98.9574 225.386 99.3665 225.625C99.7756 225.86 100.251 225.977 100.793 225.977C101.145 225.977 101.463 225.928 101.747 225.83C102.035 225.727 102.283 225.576 102.491 225.375C102.7 225.17 102.861 224.917 102.974 224.614L104.27 224.977C104.134 225.417 103.904 225.803 103.582 226.136C103.26 226.466 102.863 226.723 102.389 226.909C101.916 227.091 101.384 227.182 100.793 227.182ZM112.628 220.227L111.423 220.568C111.348 220.367 111.236 220.172 111.088 219.983C110.944 219.79 110.747 219.631 110.497 219.506C110.247 219.381 109.927 219.318 109.537 219.318C109.003 219.318 108.558 219.441 108.202 219.688C107.849 219.93 107.673 220.239 107.673 220.614C107.673 220.947 107.795 221.21 108.037 221.403C108.279 221.597 108.658 221.758 109.173 221.886L110.469 222.205C111.249 222.394 111.83 222.684 112.213 223.074C112.596 223.46 112.787 223.958 112.787 224.568C112.787 225.068 112.643 225.515 112.355 225.909C112.071 226.303 111.673 226.614 111.162 226.841C110.651 227.068 110.056 227.182 109.378 227.182C108.488 227.182 107.751 226.989 107.168 226.602C106.584 226.216 106.215 225.652 106.06 224.909L107.332 224.591C107.454 225.061 107.683 225.413 108.02 225.648C108.361 225.883 108.806 226 109.355 226C109.98 226 110.476 225.867 110.844 225.602C111.215 225.333 111.401 225.011 111.401 224.636C111.401 224.333 111.295 224.08 111.082 223.875C110.87 223.667 110.545 223.511 110.105 223.409L108.651 223.068C107.851 222.879 107.264 222.585 106.889 222.188C106.518 221.786 106.332 221.284 106.332 220.682C106.332 220.189 106.471 219.754 106.747 219.375C107.027 218.996 107.408 218.699 107.889 218.483C108.374 218.267 108.923 218.159 109.537 218.159C110.401 218.159 111.079 218.348 111.571 218.727C112.067 219.106 112.42 219.606 112.628 220.227Z" fill="#F2F2F2"/>
<rect x="64" y="246" width="292" height="27" fill="#ACACAC"/>
<path d="M343.276 267.096L338.739 256.684L347.398 256.512L343.276 267.096Z" fill="#D9D9D9"/>
<path d="M80.0227 256.273C79.9545 255.697 79.678 255.25 79.1932 254.932C78.7083 254.614 78.1136 254.455 77.4091 254.455C76.8939 254.455 76.4432 254.538 76.0568 254.705C75.6742 254.871 75.375 255.1 75.1591 255.392C74.947 255.684 74.8409 256.015 74.8409 256.386C74.8409 256.697 74.9148 256.964 75.0625 257.188C75.214 257.407 75.4072 257.591 75.642 257.739C75.8769 257.883 76.1231 258.002 76.3807 258.097C76.6383 258.187 76.875 258.261 77.0909 258.318L78.2727 258.636C78.5758 258.716 78.9129 258.826 79.2841 258.966C79.6591 259.106 80.017 259.297 80.358 259.54C80.7027 259.778 80.9867 260.085 81.2102 260.46C81.4337 260.835 81.5455 261.295 81.5455 261.841C81.5455 262.47 81.3807 263.038 81.0511 263.545C80.7254 264.053 80.2481 264.456 79.6193 264.756C78.9943 265.055 78.2348 265.205 77.3409 265.205C76.5076 265.205 75.786 265.07 75.1761 264.801C74.5701 264.532 74.0928 264.157 73.7443 263.676C73.3996 263.195 73.2045 262.636 73.1591 262H74.6136C74.6515 262.439 74.7992 262.803 75.0568 263.091C75.3182 263.375 75.6477 263.587 76.0455 263.727C76.447 263.864 76.8788 263.932 77.3409 263.932C77.8788 263.932 78.3617 263.845 78.7898 263.67C79.2178 263.492 79.5568 263.246 79.8068 262.932C80.0568 262.614 80.1818 262.242 80.1818 261.818C80.1818 261.432 80.0739 261.117 79.858 260.875C79.642 260.633 79.358 260.436 79.0057 260.284C78.6534 260.133 78.2727 260 77.8636 259.886L76.4318 259.477C75.5227 259.216 74.803 258.843 74.2727 258.358C73.7424 257.873 73.4773 257.239 73.4773 256.455C73.4773 255.803 73.6534 255.235 74.0057 254.75C74.3617 254.261 74.839 253.883 75.4375 253.614C76.0398 253.341 76.7121 253.205 77.4545 253.205C78.2045 253.205 78.8712 253.339 79.4545 253.608C80.0379 253.873 80.5 254.237 80.8409 254.699C81.1856 255.161 81.3674 255.686 81.3864 256.273H80.0227ZM87.4759 256.273V257.409H82.9531V256.273H87.4759ZM84.2713 254.182H85.6122V262.5C85.6122 262.879 85.6671 263.163 85.777 263.352C85.8906 263.538 86.0346 263.663 86.2088 263.727C86.3868 263.788 86.5743 263.818 86.7713 263.818C86.919 263.818 87.0402 263.811 87.1349 263.795C87.2296 263.777 87.3054 263.761 87.3622 263.75L87.6349 264.955C87.544 264.989 87.4171 265.023 87.2543 265.057C87.0914 265.095 86.8849 265.114 86.6349 265.114C86.2562 265.114 85.8849 265.032 85.5213 264.869C85.1615 264.706 84.8622 264.458 84.6236 264.125C84.3887 263.792 84.2713 263.371 84.2713 262.864V254.182ZM92.0611 265.205C91.508 265.205 91.0062 265.1 90.5554 264.892C90.1046 264.68 89.7467 264.375 89.4815 263.977C89.2164 263.576 89.0838 263.091 89.0838 262.523C89.0838 262.023 89.1823 261.617 89.3793 261.307C89.5762 260.992 89.8395 260.746 90.169 260.568C90.4986 260.39 90.8622 260.258 91.2599 260.17C91.6615 260.08 92.0649 260.008 92.4702 259.955C93.0005 259.886 93.4304 259.835 93.7599 259.801C94.0933 259.763 94.3357 259.701 94.4872 259.614C94.6425 259.527 94.7202 259.375 94.7202 259.159V259.114C94.7202 258.553 94.5668 258.117 94.2599 257.807C93.9569 257.496 93.4967 257.341 92.8793 257.341C92.2391 257.341 91.7372 257.481 91.3736 257.761C91.0099 258.042 90.7543 258.341 90.6065 258.659L89.3338 258.205C89.5611 257.674 89.8641 257.261 90.2429 256.966C90.6255 256.667 91.0421 256.458 91.4929 256.341C91.9474 256.22 92.3944 256.159 92.8338 256.159C93.1141 256.159 93.4361 256.193 93.7997 256.261C94.1671 256.326 94.5213 256.46 94.8622 256.665C95.2069 256.869 95.4929 257.178 95.7202 257.591C95.9474 258.004 96.0611 258.557 96.0611 259.25V265H94.7202V263.818H94.652C94.5611 264.008 94.4096 264.21 94.1974 264.426C93.9853 264.642 93.7031 264.826 93.3509 264.977C92.9986 265.129 92.5687 265.205 92.0611 265.205ZM92.2656 264C92.7959 264 93.2429 263.896 93.6065 263.688C93.974 263.479 94.2505 263.21 94.4361 262.881C94.6255 262.551 94.7202 262.205 94.7202 261.841V260.614C94.6634 260.682 94.5384 260.744 94.3452 260.801C94.1558 260.854 93.9361 260.902 93.6861 260.943C93.4399 260.981 93.1993 261.015 92.9645 261.045C92.7334 261.072 92.5459 261.095 92.402 261.114C92.0535 261.159 91.7277 261.233 91.4247 261.335C91.1255 261.434 90.883 261.583 90.6974 261.784C90.5156 261.981 90.4247 262.25 90.4247 262.591C90.4247 263.057 90.5971 263.409 90.9418 263.648C91.2902 263.883 91.7315 264 92.2656 264ZM102.304 256.273V257.409H97.7812V256.273H102.304ZM99.0994 254.182H100.44V262.5C100.44 262.879 100.495 263.163 100.605 263.352C100.719 263.538 100.863 263.663 101.037 263.727C101.215 263.788 101.402 263.818 101.599 263.818C101.747 263.818 101.868 263.811 101.963 263.795C102.058 263.777 102.134 263.761 102.19 263.75L102.463 264.955C102.372 264.989 102.245 265.023 102.082 265.057C101.92 265.095 101.713 265.114 101.463 265.114C101.084 265.114 100.713 265.032 100.349 264.869C99.9896 264.706 99.6903 264.458 99.4517 264.125C99.2169 263.792 99.0994 263.371 99.0994 262.864V254.182ZM109.821 261.432V256.273H111.162V265H109.821V263.523H109.73C109.526 263.966 109.207 264.343 108.776 264.653C108.344 264.96 107.798 265.114 107.139 265.114C106.594 265.114 106.109 264.994 105.685 264.756C105.26 264.513 104.927 264.15 104.685 263.665C104.442 263.176 104.321 262.561 104.321 261.818V256.273H105.662V261.727C105.662 262.364 105.84 262.871 106.196 263.25C106.556 263.629 107.014 263.818 107.571 263.818C107.904 263.818 108.243 263.733 108.588 263.562C108.937 263.392 109.228 263.131 109.463 262.778C109.702 262.426 109.821 261.977 109.821 261.432ZM119.8 258.227L118.595 258.568C118.519 258.367 118.408 258.172 118.26 257.983C118.116 257.79 117.919 257.631 117.669 257.506C117.419 257.381 117.099 257.318 116.709 257.318C116.175 257.318 115.73 257.441 115.374 257.688C115.021 257.93 114.845 258.239 114.845 258.614C114.845 258.947 114.966 259.21 115.209 259.403C115.451 259.597 115.83 259.758 116.345 259.886L117.641 260.205C118.421 260.394 119.002 260.684 119.385 261.074C119.768 261.46 119.959 261.958 119.959 262.568C119.959 263.068 119.815 263.515 119.527 263.909C119.243 264.303 118.845 264.614 118.334 264.841C117.822 265.068 117.228 265.182 116.55 265.182C115.66 265.182 114.923 264.989 114.339 264.602C113.756 264.216 113.387 263.652 113.232 262.909L114.504 262.591C114.625 263.061 114.855 263.413 115.192 263.648C115.533 263.883 115.978 264 116.527 264C117.152 264 117.648 263.867 118.016 263.602C118.387 263.333 118.572 263.011 118.572 262.636C118.572 262.333 118.466 262.08 118.254 261.875C118.042 261.667 117.716 261.511 117.277 261.409L115.822 261.068C115.023 260.879 114.436 260.585 114.061 260.188C113.69 259.786 113.504 259.284 113.504 258.682C113.504 258.189 113.643 257.754 113.919 257.375C114.199 256.996 114.58 256.699 115.061 256.483C115.546 256.267 116.095 256.159 116.709 256.159C117.572 256.159 118.25 256.348 118.743 256.727C119.239 257.106 119.591 257.606 119.8 258.227Z" fill="#F2F2F2"/>
<rect x="64" y="486" width="292" height="62" fill="#D9D9D9"/>
<rect x="270" y="500" width="78" height="38" fill="#ACACAC"/>
<rect x="73" y="500" width="154" height="38" fill="#ACACAC"/>
<rect x="64" y="562" width="292" height="62" fill="#D9D9D9"/>
<rect x="270" y="576" width="78" height="38" fill="#ACACAC"/>
<rect x="73" y="576" width="154" height="38" fill="#ACACAC"/>
<rect x="64" y="684" width="292" height="62" fill="#D9D9D9"/>
<rect x="270" y="698" width="78" height="38" fill="#ACACAC"/>
<rect x="73" y="698" width="154" height="38" fill="#ACACAC"/>
</svg>
