<svg width="3905" height="2910" viewBox="0 0 3905 2910" fill="none" xmlns="http://www.w3.org/2000/svg">
<path d="M3904.15 2556.59H0.171875V2558.54H3904.15V2556.59Z" fill="#EBEBEB"/>
<path d="M3512.97 2682.22H3254.37V2684.17H3512.97V2682.22Z" fill="#EBEBEB"/>
<path d="M2586.32 2703.46H2518.47V2705.41H2586.32V2703.46Z" fill="#EBEBEB"/>
<path d="M3246.57 2609.76H3096.73V2611.71H3246.57V2609.76Z" fill="#EBEBEB"/>
<path d="M747.003 2622.88H409.777V2624.83H747.003V2622.88Z" fill="#EBEBEB"/>
<path d="M865.999 2622.88H816.574V2624.83H865.999V2622.88Z" fill="#EBEBEB"/>
<path d="M1758.14 2655.83H1026.69V2657.78H1758.14V2655.83Z" fill="#EBEBEB"/>
<path d="M1850.66 2208.35H343.021C331.21 2208.33 319.89 2203.63 311.546 2195.27C303.202 2186.91 298.516 2175.58 298.516 2163.77V44.4586C298.618 32.7157 303.35 21.4875 311.683 13.2129C320.016 4.93836 331.278 0.285741 343.021 0.265625H1850.66C1862.48 0.265625 1873.82 4.96279 1882.19 13.3238C1890.55 21.6848 1895.24 33.0248 1895.24 44.849V2163.77C1895.24 2175.6 1890.55 2186.94 1882.19 2195.3C1873.82 2203.66 1862.48 2208.35 1850.66 2208.35ZM343.021 1.82722C331.728 1.8479 320.905 6.34853 312.926 14.3412C304.948 22.3339 300.468 33.1656 300.468 44.4586V2163.77C300.468 2175.06 304.948 2185.9 312.926 2193.89C320.905 2201.88 331.728 2206.38 343.021 2206.4H1850.66C1861.96 2206.38 1872.79 2201.88 1880.78 2193.89C1888.77 2185.9 1893.27 2175.07 1893.29 2163.77V44.4586C1893.27 33.1584 1888.77 22.3269 1880.78 14.3365C1872.79 6.34599 1861.96 1.84786 1850.66 1.82722H343.021Z" fill="#EBEBEB"/>
<path d="M3539.6 2208.35H2031.88C2020.07 2208.33 2008.74 2203.63 2000.38 2195.27C1992.03 2186.92 1987.32 2175.59 1987.3 2163.77V44.4586C1987.42 32.7086 1992.17 21.4804 2000.52 13.208C2008.86 4.93563 2020.13 0.285522 2031.88 0.265625H3539.6C3551.33 0.306261 3562.57 4.96796 3570.89 13.2403C3579.2 21.5127 3583.93 32.7292 3584.03 44.4586V2163.77C3584.03 2175.57 3579.35 2186.88 3571.03 2195.24C3562.7 2203.6 3551.4 2208.31 3539.6 2208.35ZM2031.88 1.82722C2020.58 1.84786 2009.75 6.34599 2001.76 14.3365C1993.77 22.3269 1989.27 33.1584 1989.25 44.4586V2163.77C1989.27 2175.07 1993.77 2185.9 2001.76 2193.89C2009.75 2201.88 2020.58 2206.38 2031.88 2206.4H3539.6C3550.9 2206.38 3561.73 2201.88 3569.72 2193.89C3577.71 2185.9 3582.21 2175.07 3582.23 2163.77V44.4586C3582.21 33.1584 3577.71 22.3269 3569.72 14.3365C3561.73 6.34599 3550.9 1.84786 3539.6 1.82722H2031.88Z" fill="#EBEBEB"/>
<path d="M1166.91 1120.63H1114.37V2558.54H1166.91V1120.63Z" fill="#F5F5F5"/>
<path d="M1374.69 1303.18H1322.14V2558.54H1374.69V1303.18Z" fill="#F5F5F5"/>
<path d="M1580.5 1485.73H1527.95V2558.54H1580.5V1485.73Z" fill="#F5F5F5"/>
<path d="M1786.4 1364H1733.85V2558.54H1786.4V1364Z" fill="#F5F5F5"/>
<path d="M1992.29 1303.18H1939.75V2558.54H1992.29V1303.18Z" fill="#F5F5F5"/>
<path d="M2198.11 1181.45H2145.57V2558.54H2198.11V1181.45Z" fill="#F5F5F5"/>
<path d="M2404.01 1242.35H2351.46V2558.54H2404.01V1242.35Z" fill="#F5F5F5"/>
<path d="M2609.91 1181.45H2557.36V2558.54H2609.91V1181.45Z" fill="#F5F5F5"/>
<path d="M2815.72 1059.73H2763.18V2558.47H2815.72V1059.73Z" fill="#F5F5F5"/>
<path d="M3021.62 938.078H2969.07V2558.54H3021.62V938.078Z" fill="#F5F5F5"/>
<path d="M3227.43 816.352H3174.89V2558.54H3227.43V816.352Z" fill="#F5F5F5"/>
<path d="M1553.95 1400.23C1551.03 1400.12 1548.25 1398.92 1546.15 1396.88L1106.25 967.985C1104.02 965.81 1102.75 962.841 1102.71 959.729C1102.68 956.618 1103.88 953.619 1106.05 951.393C1108.22 949.167 1111.19 947.895 1114.31 947.859C1117.42 947.822 1120.42 949.023 1122.64 951.198L1555.44 1373.22L2165.01 928.164C2167.36 926.481 2170.26 925.726 2173.14 926.043C2176.02 926.36 2178.68 927.726 2180.62 929.882L2380.19 1155.84L3206.27 682.526C3207.61 681.762 3209.09 681.269 3210.62 681.076C3212.15 680.882 3213.7 680.991 3215.18 681.397C3216.67 681.803 3218.06 682.498 3219.28 683.442C3220.5 684.386 3221.52 685.56 3222.28 686.898C3223.04 688.236 3223.54 689.712 3223.73 691.24C3223.92 692.769 3223.82 694.321 3223.41 695.807C3223 697.293 3222.31 698.685 3221.36 699.903C3220.42 701.121 3219.25 702.141 3217.91 702.905L2383.55 1181.06C2381.21 1182.39 2378.48 1182.87 2375.82 1182.43C2373.17 1181.99 2370.74 1180.65 2368.95 1178.64L2170.16 953.774L1561.14 1397.97C1559.06 1399.49 1556.53 1400.29 1553.95 1400.23Z" fill="#F0F0F0"/>
<path d="M1504.37 2549.56L1120.46 1035.52L1139.66 959.863H1119.68V527.459H1068.14V959.863H1048.16L1067.36 1035.52L683.367 2549.56H736.539L1068.14 1241.89V2557.53H1119.68V1241.89L1451.28 2549.56H1504.37Z" fill="#E0E0E0"/>
<path d="M1383.18 1020.48C1420.89 860.703 1321.94 700.608 1162.16 662.898C1002.39 625.187 842.292 724.141 804.582 883.917C766.871 1043.69 865.825 1203.79 1025.6 1241.5C1185.38 1279.21 1345.47 1180.25 1383.18 1020.48Z" fill="#E6E6E6"/>
<path d="M1093.91 1206.05C1234.06 1206.05 1347.67 1092.44 1347.67 952.29C1347.67 812.143 1234.06 698.531 1093.91 698.531C953.764 698.531 840.152 812.143 840.152 952.29C840.152 1092.44 953.764 1206.05 1093.91 1206.05Z" fill="#F5F5F5"/>
<path d="M1093.91 1150.92C1203.61 1150.92 1292.54 1061.99 1292.54 952.289C1292.54 842.586 1203.61 753.654 1093.91 753.654C984.205 753.654 895.273 842.586 895.273 952.289C895.273 1061.99 984.205 1150.92 1093.91 1150.92Z" fill="#E6E6E6"/>
<path d="M1156.25 1102.66C1239.31 1068.25 1278.76 973.021 1244.35 889.956C1209.95 806.89 1114.72 767.444 1031.65 801.851C948.584 836.258 909.138 931.488 943.545 1014.55C977.952 1097.62 1073.18 1137.07 1156.25 1102.66Z" fill="#F5F5F5"/>
<path d="M1203.84 978.151C1218.17 917.422 1180.56 856.572 1119.83 842.238C1059.11 827.905 998.255 865.516 983.922 926.245C969.588 986.974 1007.2 1047.82 1067.93 1062.16C1128.66 1076.49 1189.51 1038.88 1203.84 978.151Z" fill="#E6E6E6"/>
<path d="M1125 1027.21C1166.39 1010.06 1186.05 962.604 1168.9 921.211C1151.76 879.817 1104.3 860.161 1062.91 877.307C1021.51 894.452 1001.86 941.908 1019 983.301C1036.15 1024.69 1083.6 1044.35 1125 1027.21Z" fill="#F5F5F5"/>
<path d="M1130.68 952.289C1130.68 959.581 1128.52 966.71 1124.47 972.772C1120.41 978.834 1114.65 983.558 1107.92 986.345C1101.18 989.132 1093.76 989.857 1086.61 988.429C1079.46 987 1072.89 983.483 1067.74 978.321C1062.59 973.159 1059.09 966.585 1057.68 959.431C1056.26 952.277 1057 944.864 1059.8 938.132C1062.61 931.399 1067.34 925.649 1073.41 921.609C1079.48 917.568 1086.62 915.42 1093.91 915.436C1098.74 915.436 1103.53 916.389 1108 918.242C1112.47 920.095 1116.52 922.811 1119.94 926.234C1123.36 929.658 1126.06 933.721 1127.91 938.192C1129.75 942.663 1130.69 947.453 1130.68 952.289Z" fill="#E6E6E6"/>
<path d="M712.414 707.121L720.456 760.84L664.551 779.657L720.456 809.015L776.205 789.417L766.445 736.479L712.414 707.121Z" fill="#E6E6E6"/>
<path d="M1093.91 960.098C1092.67 960.084 1091.44 959.79 1090.32 959.24L690.319 754.203C688.539 753.225 687.21 751.593 686.614 749.651C686.017 747.71 686.201 745.613 687.125 743.805C688.05 741.996 689.642 740.619 691.565 739.966C693.488 739.313 695.59 739.434 697.425 740.305L1097.43 945.029C1099.27 945.965 1100.66 947.591 1101.3 949.552C1101.95 951.512 1101.79 953.648 1100.86 955.492C1100.26 956.838 1099.28 957.985 1098.05 958.8C1096.82 959.616 1095.39 960.066 1093.91 960.098Z" fill="#E0E0E0"/>
<path d="M1644.37 618.345C1644.33 607.602 1646.82 597 1651.63 587.392C1656.43 577.784 1663.43 569.439 1672.05 563.028C1680.67 556.618 1690.68 552.32 1701.26 550.482C1711.85 548.644 1722.71 549.317 1732.99 552.446C1729.94 531.728 1731.39 510.597 1737.24 490.49C1743.09 470.384 1753.21 451.775 1766.91 435.932C1780.6 420.089 1797.55 407.385 1816.59 398.684C1835.64 389.983 1856.34 385.49 1877.28 385.512C1886.27 385.508 1895.23 386.345 1904.06 388.01C1918.43 364.395 1940.09 346.094 1965.78 335.866C1991.46 325.639 2019.77 324.04 2046.44 331.311C2073.11 338.583 2096.69 354.329 2113.63 376.176C2130.56 398.023 2139.94 424.785 2140.33 452.426H2142.52C2173.66 452.426 2203.53 464.798 2225.56 486.821C2247.58 508.843 2259.95 538.713 2259.95 569.857C2259.95 601.002 2247.58 630.871 2225.56 652.894C2203.53 674.917 2173.66 687.289 2142.52 687.289H1711.21C1693.28 686.78 1676.25 679.287 1663.77 666.408C1651.28 653.529 1644.32 636.282 1644.37 618.345Z" fill="#F0F0F0"/>
<path d="M2869.36 580.553C2869.36 571.752 2872.86 563.312 2879.08 557.089C2885.31 550.866 2893.75 547.369 2902.55 547.369C2905.77 547.398 2908.98 547.871 2912.07 548.775C2911.58 545.414 2911.32 542.022 2911.29 538.624C2911.29 528.295 2913.56 518.092 2917.95 508.741C2922.34 499.39 2928.73 491.121 2936.68 484.523C2944.63 477.925 2953.93 473.16 2963.93 470.568C2973.93 467.975 2984.37 467.619 2994.53 469.524C3001.48 458.17 3011.94 449.382 3024.32 444.484C3036.7 439.586 3050.34 438.843 3063.18 442.365C3076.02 445.888 3087.37 453.487 3095.52 464.018C3103.67 474.549 3108.18 487.442 3108.37 500.756H3109.38C3124.39 500.756 3138.79 506.72 3149.41 517.336C3160.03 527.952 3165.99 542.35 3165.99 557.364C3165.99 572.377 3160.03 586.775 3149.41 597.391C3138.79 608.007 3124.39 613.971 3109.38 613.971H2901.61C2892.93 613.746 2884.68 610.116 2878.65 603.865C2872.61 597.613 2869.28 589.241 2869.36 580.553Z" fill="#F0F0F0"/>
<path d="M739.737 621.859C739.737 618.93 740.315 616.03 741.439 613.325C742.562 610.62 744.208 608.163 746.283 606.096C748.357 604.029 750.82 602.391 753.528 601.277C756.237 600.164 759.139 599.596 762.068 599.606C764.237 599.6 766.395 599.916 768.471 600.543C768.131 598.268 767.948 595.972 767.924 593.672C768.026 581.279 772.995 569.422 781.758 560.658C790.522 551.895 802.379 546.926 814.772 546.824C817.707 546.836 820.635 547.124 823.517 547.683C828.151 540.006 835.162 534.049 843.487 530.716C851.812 527.382 860.996 526.854 869.648 529.212C878.3 531.569 885.948 536.683 891.431 543.778C896.915 550.874 899.935 559.564 900.035 568.53H900.737C910.534 568.974 919.783 573.178 926.559 580.268C933.335 587.358 937.116 596.787 937.116 606.594C937.116 616.401 933.335 625.83 926.559 632.92C919.783 640.01 910.534 644.214 900.737 644.658H761.443C758.521 644.587 755.641 643.941 752.968 642.757C750.296 641.572 747.882 639.873 745.867 637.756C743.851 635.638 742.272 633.145 741.22 630.417C740.169 627.689 739.665 624.781 739.737 621.859Z" fill="#F0F0F0"/>
<path d="M1952.16 2909.2C2788.26 2909.2 3466.05 2869.62 3466.05 2820.81C3466.05 2772 2788.26 2732.42 1952.16 2732.42C1116.07 2732.42 438.277 2772 438.277 2820.81C438.277 2869.62 1116.07 2909.2 1952.16 2909.2Z" fill="#F5F5F5"/>
<path d="M1080.64 1331.99L1134.2 1301.38C1134.2 1301.38 1154.81 1269.61 1160.98 1268.12C1167.15 1266.64 1235.08 1268.12 1235.08 1268.12C1235.08 1268.12 1224.85 1312.16 1223.76 1320.83C1222.66 1329.49 1157.86 1320.83 1157.86 1320.83L1105.39 1352.06L1080.64 1331.99Z" fill="#EBB376"/>
<path d="M581.788 2756.47L525.727 2745.31C524.726 2745.3 523.753 2745.64 522.972 2746.27C522.19 2746.89 521.647 2747.77 521.432 2748.74L506.363 2804.81C506.045 2806.72 506.453 2808.69 507.507 2810.32C508.561 2811.95 510.185 2813.13 512.063 2813.63H513.702C533.535 2813.63 547.979 2812.07 572.809 2812.07C588.424 2812.07 634.335 2813.71 655.495 2813.71C676.654 2813.71 679.465 2792.78 671.111 2790.91C632.071 2782.4 603.025 2770.68 590.611 2759.68C588.206 2757.49 585.036 2756.34 581.788 2756.47Z" fill="#263238"/>
<path d="M1267.87 2754.6H1206.66C1205.66 2754.58 1204.68 2754.91 1203.89 2755.54C1203.11 2756.17 1202.57 2757.05 1202.37 2758.03L1192.37 2803.32C1192.08 2805.24 1192.51 2807.19 1193.57 2808.81C1194.64 2810.42 1196.27 2811.58 1198.15 2812.07H1199.79C1219.62 2811.68 1233.99 2810.5 1258.9 2810.5C1274.51 2810.5 1320.42 2812.07 1341.58 2812.07C1362.74 2812.07 1365.47 2791.22 1356.81 2789.27C1317.77 2780.83 1288.72 2769.04 1276.31 2758.03C1275.2 2756.92 1273.89 2756.05 1272.44 2755.46C1270.99 2754.87 1269.44 2754.58 1267.87 2754.6Z" fill="#263238"/>
<path d="M689.852 1723.25L949.077 1657.5C1007.87 1785.87 1223.6 2312.9 1275.92 2751.4L1188.16 2773.65C1188.16 2773.65 1032.78 2127 902.463 1938.2C902.463 1938.2 895.514 2225.22 881.382 2266.99C869.748 2301.35 602.95 2761 602.95 2761L516.281 2751.24C516.281 2751.24 734.123 2282.14 746.928 2223.66C755.986 2183.84 716.321 1891.35 716.321 1891.35C709.372 1865.27 698.909 1757.29 698.909 1757.29C698.909 1757.29 691.102 1728.63 689.852 1723.25Z" fill="#00D8FF"/>
<path opacity="0.2" d="M902.541 1938.36C924.539 1971.64 943.735 2006.68 959.93 2043.14C941.972 1942.11 886.301 1844.27 886.301 1844.27L902.541 1938.36Z" fill="black"/>
<path opacity="0.3" d="M689.852 1723.25L949.077 1657.5C1007.87 1785.87 1223.6 2312.9 1275.92 2751.4L1188.16 2773.65C1188.16 2773.65 1032.78 2127 902.463 1938.2C902.463 1938.2 895.514 2225.22 881.382 2266.99C869.748 2301.35 602.95 2761 602.95 2761L516.281 2751.24C516.281 2751.24 734.123 2282.14 746.928 2223.66C755.986 2183.84 716.321 1891.35 716.321 1891.35C709.372 1865.27 698.909 1757.29 698.909 1757.29C698.909 1757.29 691.102 1728.63 689.852 1723.25Z" fill="black"/>
<path d="M1140.53 1336.44C1140.53 1336.44 1022.32 1416.24 991.162 1420.45C978.748 1422.17 953.138 1417.96 926.669 1412.65C886.536 1404.06 844.685 1392.03 844.685 1392.03L839.454 1352.45L833.91 1310.13C843.28 1307.01 965.552 1356.98 983.823 1364.78C1002.09 1372.59 1120.23 1302.32 1120.23 1302.32L1140.53 1336.44Z" fill="#263238"/>
<path d="M774.959 1704.97L782.611 1734.96L698.91 1757.29L691.102 1726.21L774.959 1704.97Z" fill="black"/>
<path d="M906.987 1671.48L914.249 1699.9L791.898 1732.54L784.246 1702.63L906.987 1671.48Z" fill="black"/>
<path d="M962.426 1687.1L923.465 1697.48L916.281 1669.14L952.042 1660.08L962.426 1687.1Z" fill="black"/>
<path d="M840.429 1719.61L888.715 1707.37L879.886 1672.55L831.6 1684.8L840.429 1719.61Z" fill="white"/>
<path d="M951.964 1660L691.022 1726.21C678.295 1691.78 665.333 1657.11 652.684 1623.31C643.393 1598.55 634.258 1574.27 625.357 1550.77C623.118 1544.73 620.854 1538.8 618.564 1532.97L610.756 1512.2C604.978 1497 599.408 1482.35 594.047 1468.24L579.68 1430.68L572.887 1412.88L560.004 1379.31L833.985 1309.82C924.323 1467.46 951.964 1660 951.964 1660Z" fill="#263238"/>
<path d="M659.477 1372.59C687.664 1386.1 739.665 1362.29 739.665 1362.29C739.665 1362.29 756.92 1343.24 746.614 1334.8C725.688 1337.54 727.016 1330.66 719.442 1319.97C715.111 1313.22 712.141 1305.68 710.697 1297.79C709.76 1293.44 709.057 1289.03 708.589 1284.6L626.371 1255.08C645.032 1285.22 674 1342.3 659.477 1372.59Z" fill="#EBB376"/>
<path opacity="0.2" d="M651.355 1282.02C666.191 1321.45 702.576 1322.62 719.441 1319.97C715.11 1313.22 712.139 1305.68 710.696 1297.79L651.355 1282.02Z" fill="black"/>
<path d="M758.484 1132.42C758.484 1132.42 779.956 1197.23 748.958 1228.85C717.96 1260.47 696.957 1136.56 696.957 1136.56L758.484 1132.42Z" fill="#263238"/>
<path d="M655.418 1299.43C664.694 1309.11 676.886 1315.48 690.129 1317.57C703.371 1319.66 716.932 1317.34 728.735 1310.99C744.209 1302.99 756.05 1289.39 761.841 1272.96C762.622 1270.78 763.324 1268.43 763.949 1266.09C774.412 1222.44 767.853 1150.38 720.302 1131.01C709.822 1126.69 698.411 1125.13 687.153 1126.46C675.896 1127.8 665.168 1131.99 655.988 1138.64C646.809 1145.29 639.484 1154.18 634.71 1164.46C629.936 1174.74 627.873 1186.08 628.715 1197.38C631.526 1246.02 630.901 1274.6 655.418 1299.43Z" fill="#EBB376"/>
<path d="M702.344 1211.2C702.344 1215.1 704.374 1218.31 707.029 1218.31C709.683 1218.31 711.635 1215.1 711.713 1211.2C711.791 1207.3 709.605 1204.02 707.029 1204.02C704.452 1204.02 702.344 1207.22 702.344 1211.2Z" fill="#263238"/>
<path d="M747.008 1211.2C747.008 1215.18 749.116 1218.38 751.693 1218.38C754.269 1218.38 756.299 1215.1 756.377 1211.2C756.455 1207.3 754.191 1204.1 751.693 1204.1C749.194 1204.1 747.008 1207.45 747.008 1211.2Z" fill="#263238"/>
<path d="M732.797 1213.15C737.465 1225.24 743.798 1236.62 751.614 1246.96C748.903 1248.9 745.798 1250.23 742.519 1250.83C739.24 1251.44 735.867 1251.32 732.641 1250.48L732.797 1213.15Z" fill="#D58745"/>
<path d="M763.322 1192.93C762.947 1193.12 762.533 1193.22 762.112 1193.22C761.691 1193.22 761.276 1193.12 760.902 1192.93C758.592 1191.16 755.898 1189.95 753.037 1189.41C750.175 1188.86 747.226 1189 744.427 1189.81C743.857 1190.03 743.225 1190.01 742.668 1189.76C742.112 1189.51 741.677 1189.05 741.46 1188.48C741.242 1187.91 741.26 1187.28 741.509 1186.72C741.758 1186.17 742.218 1185.73 742.787 1185.51C746.289 1184.41 750.006 1184.16 753.622 1184.8C757.238 1185.44 760.646 1186.94 763.556 1189.18C763.812 1189.35 764.032 1189.56 764.202 1189.82C764.373 1190.07 764.491 1190.35 764.549 1190.65C764.608 1190.95 764.605 1191.26 764.542 1191.56C764.478 1191.85 764.356 1192.14 764.181 1192.38C763.919 1192.6 763.63 1192.79 763.322 1192.93Z" fill="#263238"/>
<path d="M693.52 1193.48C693.074 1193.42 692.647 1193.26 692.271 1193.01C691.842 1192.57 691.602 1191.98 691.602 1191.37C691.602 1190.76 691.842 1190.17 692.271 1189.73C695 1187.23 698.293 1185.43 701.868 1184.48C705.444 1183.53 709.196 1183.45 712.806 1184.26C713.376 1184.44 713.855 1184.84 714.145 1185.36C714.436 1185.88 714.515 1186.5 714.368 1187.07C714.186 1187.66 713.786 1188.16 713.249 1188.47C712.712 1188.77 712.079 1188.86 711.479 1188.71C708.631 1188.14 705.687 1188.25 702.891 1189.04C700.095 1189.83 697.525 1191.27 695.394 1193.24C695.115 1193.41 694.805 1193.52 694.482 1193.56C694.159 1193.6 693.832 1193.57 693.52 1193.48Z" fill="#263238"/>
<path d="M664.322 1137.11L669.007 1146.08C653.391 1152.1 657.295 1170.52 661.199 1178.72C669.007 1196.37 660.028 1224.71 646.832 1236.5C646.832 1236.5 645.973 1228.69 639.493 1230.88C633.012 1233.07 636.76 1273.51 650.502 1292.25C650.502 1292.25 630.279 1275.62 617.318 1233.61C605.372 1194.57 602.561 1162.01 609.979 1146.4L664.322 1137.11Z" fill="#263238"/>
<path d="M607.477 1237.36C610.134 1242.81 613.839 1247.68 618.38 1251.7C622.922 1255.72 628.212 1258.81 633.946 1260.78C649.562 1265.93 657.37 1252.43 654.247 1237.36C650.968 1224.16 639.178 1205.03 623.015 1206.51C619.607 1206.9 616.348 1208.12 613.533 1210.08C610.717 1212.03 608.435 1214.66 606.892 1217.73C605.349 1220.79 604.594 1224.19 604.697 1227.62C604.799 1231.04 605.755 1234.39 607.477 1237.36Z" fill="#EBB376"/>
<path d="M663.848 1318.95C686.803 1335.04 731.543 1340.27 753.483 1311.14C775.424 1282.02 768.396 1235.25 768.396 1235.25C765.877 1245.7 761.077 1255.45 754.342 1263.83C741.927 1248.84 720.846 1257.35 720.846 1257.35C716.403 1251.56 710.029 1247.57 702.888 1246.1C692.659 1245.09 663.848 1246.81 663.848 1246.81C654.634 1240.95 654.244 1214.87 654.244 1214.87L648.622 1219.56C648.622 1219.56 640.814 1302.79 663.848 1318.95Z" fill="#263238"/>
<path d="M725.222 1153.66C725.222 1153.66 779.877 1127.11 773.397 1100.56C766.916 1074.02 750.988 1104.31 750.988 1104.31C750.988 1104.31 758.327 1084.17 743.961 1080.89C729.594 1077.61 734.123 1090.49 726.315 1098.22C718.507 1105.95 642.77 1094.71 618.331 1109.85C593.892 1125 612.553 1177.39 612.553 1177.39C626.986 1162.9 645.334 1152.94 665.347 1148.72C685.361 1144.51 706.169 1146.22 725.222 1153.66Z" fill="#263238"/>
<path opacity="0.2" d="M663.848 1318.95C686.803 1335.04 731.543 1340.27 753.483 1311.14C775.424 1282.02 768.396 1235.25 768.396 1235.25C765.877 1245.7 761.077 1255.45 754.342 1263.83C741.927 1248.84 720.846 1257.35 720.846 1257.35C716.403 1251.56 710.029 1247.57 702.888 1246.1C692.659 1245.09 663.848 1246.81 663.848 1246.81C654.634 1240.95 654.244 1214.87 654.244 1214.87L648.622 1219.56C648.622 1219.56 640.814 1302.79 663.848 1318.95Z" fill="white"/>
<path d="M723.191 1272.18C718.989 1277.81 715.205 1283.73 711.87 1289.91L708.356 1288.58C692.74 1282.88 687.118 1275.07 685.869 1268.04C685.364 1264.64 685.658 1261.16 686.728 1257.89C687.297 1256 688.111 1254.19 689.149 1252.51C697.361 1260.35 707.159 1266.34 717.882 1270.07C721.083 1271.48 723.191 1272.18 723.191 1272.18Z" fill="#263238"/>
<path d="M717.88 1270.15L714.367 1275.31C699.532 1269.92 689.772 1264.14 686.727 1257.97C687.296 1256.08 688.109 1254.27 689.147 1252.58C697.36 1260.43 707.158 1266.42 717.88 1270.15Z" fill="white"/>
<path d="M708.354 1288.58C692.738 1282.88 687.116 1275.07 685.867 1268.04C691.83 1270.36 697.35 1273.69 702.186 1277.88C705.315 1280.71 707.473 1284.45 708.354 1288.58Z" fill="#DE5753"/>
<path d="M749.977 1362.36L745.37 1402.81L829.696 1582.47L821.341 1606.28L793.779 1593.56L733.658 1410.3L689.465 1380.4L721.634 1362.75L749.977 1362.36Z" fill="#00D8FF"/>
<path d="M661.353 1334.72L717.18 1357.76L719.445 1319.97L760.593 1330.12L764.106 1387.66L724.52 1371.5L707.967 1408.35L637.617 1361.35L661.353 1334.72Z" fill="#263238"/>
<path opacity="0.2" d="M661.353 1334.72L717.18 1357.76L719.445 1319.97L760.593 1330.12L764.106 1387.66L724.52 1371.5L707.967 1408.35L637.617 1361.35L661.353 1334.72Z" fill="white"/>
<path opacity="0.2" d="M610.681 1512.2C604.903 1497 599.334 1482.35 593.972 1468.24L579.605 1430.68L572.812 1412.88C580.62 1409.06 600.531 1411.32 606.074 1420.69C626.375 1456.14 610.681 1512.2 610.681 1512.2Z" fill="black"/>
<path opacity="0.2" d="M708.514 1551.86C705.178 1567.2 698.427 1581.59 688.761 1593.96C679.096 1606.33 666.765 1616.36 652.687 1623.31C643.395 1598.56 634.26 1574.27 625.359 1550.77C623.12 1544.73 620.856 1538.8 618.566 1532.97L610.758 1512.2L701.174 1523.68L708.514 1551.86Z" fill="black"/>
<path opacity="0.2" d="M926.668 1412.34C886.535 1403.75 844.685 1391.72 844.685 1391.72L839.453 1352.14C839.453 1352.14 913.238 1360.02 926.668 1412.34Z" fill="black"/>
<path d="M559.927 2334.84C557.479 2334.93 555.067 2334.24 553.031 2332.88C550.994 2331.52 549.435 2329.55 548.573 2327.26C547.711 2324.97 547.59 2322.46 548.226 2320.1C548.862 2317.73 550.223 2315.63 552.119 2314.08C682.434 2207.11 679.935 2039.47 677.515 1877.3C675.641 1755.03 673.923 1639.47 731.468 1560.92C812.202 1450.52 1136.93 1275.38 1190.73 1270.39C1229.22 1266.56 2403.31 940.266 3018.81 768.257C3021.8 767.418 3025 767.803 3027.71 769.326C3030.42 770.848 3032.42 773.385 3033.25 776.377C3034.09 779.37 3033.71 782.573 3032.19 785.281C3030.66 787.99 3028.13 789.983 3025.13 790.822C2952.29 811.201 1241.17 1289.28 1192.92 1293.73C1146.62 1298.03 825.163 1472.46 750.363 1574.82C697.503 1647.04 699.143 1758.77 700.938 1876.99C703.281 2036.89 706.014 2218.19 566.954 2332.27C564.962 2333.88 562.49 2334.79 559.927 2334.84Z" fill="#263238"/>
<path opacity="0.4" d="M3025.52 790.744L2864.99 835.718C2423.45 958.927 1233.13 1290.14 1193.31 1293.81C1147.01 1298.1 825.553 1472.53 750.753 1574.9C697.893 1647.12 699.533 1758.85 701.329 1877.06C703.671 2036.97 706.404 2218.27 567.344 2332.35C565.156 2334.16 562.377 2335.11 559.536 2335C557.088 2335.08 554.677 2334.39 552.64 2333.03C550.603 2331.67 549.045 2329.71 548.183 2327.42C547.321 2325.12 547.199 2322.62 547.835 2320.25C548.471 2317.89 549.833 2315.78 551.728 2314.23C682.043 2207.26 679.544 2039.63 677.124 1877.46C675.25 1755.18 673.532 1639.62 731.077 1561.08C811.811 1450.67 1136.54 1275.54 1190.34 1270.54C1226.57 1266.95 2266.75 978.213 2902.47 800.816L3018.42 768.413C3021.41 767.575 3024.61 767.959 3027.32 769.482C3030.03 771.005 3032.03 773.541 3032.86 776.534C3033.7 779.526 3033.32 782.729 3031.8 785.438C3030.27 788.147 3027.74 790.14 3024.74 790.978L3025.52 790.744Z" fill="white"/>
<path opacity="0.2" d="M3025.53 790.742L2865 835.716C2876.25 822.515 2889.1 810.765 2903.26 800.736L3019.2 768.333C3022.2 767.495 3025.4 767.879 3028.11 769.402C3030.82 770.925 3032.81 773.461 3033.65 776.454C3034.49 779.446 3034.1 782.649 3032.58 785.358C3031.06 788.067 3028.52 790.06 3025.53 790.898V790.742Z" fill="black"/>
<path d="M639.727 1529.06L701.097 1523.68C701.097 1523.68 733.188 1503.38 739.356 1504.7C745.524 1506.03 806.661 1535.93 806.661 1535.93C806.661 1535.93 778.942 1571.62 774.336 1579.03C769.729 1586.45 714.527 1551.47 714.527 1551.47L653.703 1557.95L639.727 1529.06Z" fill="#EBB376"/>
<path d="M559.929 1379.31C532.054 1399.22 459.44 1561.54 467.17 1586.61C474.9 1611.67 700.862 1562.25 700.862 1562.25L690.868 1520.01H569.298L598.188 1474.41C598.188 1474.41 615.99 1457.07 605.059 1416.78C597.173 1387.74 559.929 1379.31 559.929 1379.31Z" fill="#263238"/>
<path d="M2914.18 1395.63L2867.88 1373.68C2867.88 1373.68 2844.46 1328.87 2837.59 1321.68C2830.72 1314.5 2797.53 1342.37 2797.53 1347.22C2797.53 1352.06 2821.58 1397.34 2827.83 1400.08C2837.12 1401.44 2846.56 1401.44 2855.86 1400.08L2899.89 1421.39L2914.18 1395.63Z" fill="#9F5B53"/>
<path d="M3022.24 1117.9L3031.54 1084.71C3031.54 1084.71 3046.22 1041.46 3044.65 1031.46C3041.78 1019.63 3038.08 1008.02 3033.57 996.717C3033.57 996.717 2992.96 1046.14 2992.96 1052.31C2992.96 1058.48 3009.05 1080.89 3009.05 1080.89L3001.24 1117.9H3022.24Z" fill="#9F5B53"/>
<path d="M3057.93 1365.09C3057.93 1365.09 3022.95 1321.6 3012.64 1281.16C3002.34 1240.71 3033.49 1109.38 3033.49 1109.38L3000.62 1100.64C3000.62 1100.64 2961.58 1235.01 2960.25 1284.05C2958.92 1333.08 3031.85 1476.98 3031.85 1476.98L3057.93 1365.09Z" fill="#00D8FF"/>
<path opacity="0.2" d="M3036.77 1455.36L3031.77 1476.67C3031.77 1476.67 3006.63 1427.09 2986.09 1376.18C3007.46 1391.53 3023.58 1413.1 3032.24 1437.94C3034.22 1443.62 3035.74 1449.44 3036.77 1455.36Z" fill="black"/>
<path d="M3243.13 1460.35C3242.69 1469.43 3241.59 1478.45 3239.85 1487.37C3236.26 1506.89 3230.17 1529.92 3223.22 1555.3C3219.47 1568.65 3215.41 1582.94 3211.82 1598.01C3194.41 1665.7 3184.96 1692.64 3172.07 1779.07L2924.95 1720.44C2938.31 1646.45 2958.68 1573.9 2985.78 1503.76C2992.96 1485.1 3001.39 1466.44 3009.9 1448.02C3023.55 1419.12 3039.61 1391.44 3057.92 1365.25C3057.92 1365.25 3097.9 1401.79 3223.45 1423.73C3238.68 1426.08 3243.91 1439.35 3243.13 1460.35Z" fill="#00D8FF"/>
<path opacity="0.2" d="M3212.06 1432.17C3212.06 1439.98 3241.65 1477.14 3239.85 1486.82C3236.5 1489.09 3232.51 1491.59 3227.98 1494.63C3144.36 1543.28 3034.66 1518.6 2985.94 1503.53C2993.12 1484.87 3009.36 1450.59 3017.79 1432.17L3076.43 1445.21C3076.43 1445.21 3172.31 1423.35 3212.06 1432.17Z" fill="black"/>
<path d="M3111.57 1380.01C3120.54 1376.57 3194.25 1394.92 3188.79 1396.48C3183.32 1398.05 3155.84 1482.37 3117.34 1476.05C3078.85 1469.72 3079.55 1392.19 3111.57 1380.01Z" fill="#00D8FF"/>
<path d="M2777.86 2761.63L2731.48 2771.7L2704.38 2665.04L2750.84 2654.97L2777.86 2761.63Z" fill="#9F5B53"/>
<path d="M2719.92 2752.33H2777.62C2778.56 2752.34 2779.47 2752.66 2780.2 2753.26C2780.92 2753.86 2781.42 2754.69 2781.6 2755.61L2790.97 2797.86C2791.18 2798.76 2791.2 2799.69 2791.04 2800.61C2790.88 2801.52 2790.54 2802.39 2790.03 2803.17C2789.53 2803.95 2788.88 2804.62 2788.12 2805.14C2787.35 2805.66 2786.49 2806.02 2785.58 2806.21H2784.02C2765.36 2806.21 2751.77 2804.73 2728.35 2804.73C2713.91 2804.73 2670.34 2806.21 2650.27 2806.21C2630.2 2806.21 2627.78 2786.53 2635.9 2784.74C2672.52 2776.93 2700.09 2765.69 2711.8 2755.22C2712.89 2754.23 2714.17 2753.46 2715.57 2752.96C2716.96 2752.47 2718.44 2752.25 2719.92 2752.33Z" fill="#263238"/>
<path d="M2704.22 2760.69C2700.99 2760.93 2697.78 2760.08 2695.09 2758.27C2694.21 2757.55 2693.54 2756.62 2693.13 2755.57C2692.72 2754.52 2692.59 2753.37 2692.75 2752.26C2692.71 2751.6 2692.87 2750.94 2693.2 2750.37C2693.53 2749.8 2694.03 2749.34 2694.62 2749.05C2699.93 2746.32 2715.23 2755.77 2716.95 2756.86C2717.15 2756.96 2717.31 2757.12 2717.41 2757.32C2717.51 2757.51 2717.54 2757.74 2717.5 2757.96C2717.47 2758.18 2717.37 2758.39 2717.22 2758.56C2717.06 2758.73 2716.86 2758.85 2716.64 2758.89C2712.58 2759.95 2708.42 2760.56 2704.22 2760.69ZM2697.12 2750.85C2696.66 2750.7 2696.17 2750.7 2695.71 2750.85C2695.71 2750.85 2695.01 2751.24 2694.93 2752.18C2694.85 2752.92 2694.95 2753.67 2695.22 2754.36C2695.5 2755.05 2695.93 2755.67 2696.49 2756.16C2701.8 2758.59 2707.83 2758.89 2713.36 2757.02C2708.4 2753.93 2702.88 2751.84 2697.12 2750.85Z" fill="#00D8FF"/>
<path d="M2716.33 2758.97H2715.78C2710.94 2756.32 2701.42 2745.85 2702.35 2740.86C2702.53 2740.02 2702.99 2739.26 2703.66 2738.72C2704.33 2738.18 2705.16 2737.89 2706.02 2737.89C2706.88 2737.78 2707.75 2737.85 2708.57 2738.11C2709.39 2738.36 2710.15 2738.79 2710.79 2739.37C2716.25 2743.82 2717.42 2757.49 2717.5 2758.11C2717.51 2758.32 2717.47 2758.52 2717.37 2758.7C2717.28 2758.88 2717.13 2759.03 2716.95 2759.13C2716.85 2759.16 2716.73 2759.16 2716.62 2759.14C2716.51 2759.11 2716.41 2759.05 2716.33 2758.97ZM2706.8 2739.69H2706.26C2704.77 2739.69 2704.7 2740.54 2704.62 2740.86C2703.99 2743.98 2710.08 2751.87 2714.92 2755.54C2714.66 2750.21 2712.78 2745.09 2709.54 2740.86C2709.19 2740.49 2708.76 2740.19 2708.29 2739.99C2707.82 2739.79 2707.32 2739.68 2706.8 2739.69Z" fill="#00D8FF"/>
<path d="M3174.11 1785.55C3174.11 1785.55 3134.06 1976.54 3040.36 2027.6C3029.61 2033.65 3017.83 2037.64 3005.61 2039.39C3005.61 2039.39 2910.59 2078.43 2828.45 2115.36C2778.48 2137.93 2733.27 2159.94 2717.11 2172.28C2674.32 2204.84 2779.11 2713.14 2779.11 2713.14L2707.9 2713.92C2707.9 2713.92 2558.06 2263.87 2582.97 2145.73C2607.88 2027.6 2876.78 1846.77 2876.78 1846.77L2918.17 1732.93L3174.11 1785.55Z" fill="#263238"/>
<path opacity="0.2" d="M3040.36 2027.83C3029.61 2033.88 3017.82 2037.88 3005.61 2039.62C3005.61 2039.62 2910.59 2078.66 2828.45 2115.6C2881.31 2018.39 2975.55 1955.22 2975.55 1955.22L3040.36 2027.83Z" fill="black"/>
<path d="M3374.85 2761.63L3328.47 2771.7L3301.38 2665.04L3347.84 2654.97L3374.85 2761.63Z" fill="#9F5B53"/>
<path d="M3316.91 2752.33H3374.61C3375.56 2752.34 3376.47 2752.66 3377.19 2753.26C3377.92 2753.86 3378.42 2754.69 3378.6 2755.61L3387.97 2797.86C3388.17 2798.76 3388.2 2799.69 3388.03 2800.61C3387.87 2801.52 3387.53 2802.39 3387.03 2803.17C3386.53 2803.95 3385.88 2804.62 3385.11 2805.14C3384.35 2805.66 3383.49 2806.02 3382.58 2806.21H3381.02C3362.36 2806.21 3348.77 2804.73 3325.35 2804.73C3310.9 2804.73 3267.33 2806.21 3247.27 2806.21C3227.2 2806.21 3224.78 2786.53 3232.9 2784.74C3269.52 2776.93 3297.08 2765.69 3308.79 2755.22C3309.89 2754.23 3311.17 2753.46 3312.56 2752.96C3313.96 2752.47 3315.44 2752.25 3316.91 2752.33Z" fill="#263238"/>
<path d="M3301.22 2760.69C3297.99 2760.93 3294.77 2760.08 3292.08 2758.27C3291.21 2757.55 3290.53 2756.62 3290.12 2755.57C3289.71 2754.52 3289.58 2753.37 3289.74 2752.26C3289.71 2751.6 3289.86 2750.94 3290.2 2750.37C3290.53 2749.8 3291.02 2749.34 3291.62 2749.05C3296.93 2746.32 3312.23 2755.77 3313.95 2756.86C3314.14 2756.96 3314.3 2757.12 3314.4 2757.32C3314.5 2757.51 3314.53 2757.74 3314.49 2757.96C3314.47 2758.18 3314.37 2758.39 3314.21 2758.56C3314.06 2758.73 3313.86 2758.85 3313.63 2758.89C3309.58 2759.95 3305.41 2760.56 3301.22 2760.69ZM3294.11 2750.85C3293.66 2750.7 3293.17 2750.7 3292.71 2750.85C3292.71 2750.85 3292.01 2751.24 3291.93 2752.18C3291.85 2752.92 3291.95 2753.67 3292.22 2754.36C3292.49 2755.05 3292.93 2755.67 3293.49 2756.16C3298.8 2758.59 3304.83 2758.89 3310.36 2757.02C3305.39 2753.93 3299.88 2751.84 3294.11 2750.85Z" fill="#00D8FF"/>
<path d="M3313.33 2758.97H3312.78C3307.94 2756.32 3298.41 2745.85 3299.35 2740.86C3299.53 2740.02 3299.99 2739.26 3300.66 2738.72C3301.33 2738.18 3302.16 2737.89 3303.02 2737.89C3303.87 2737.78 3304.74 2737.85 3305.56 2738.11C3306.39 2738.36 3307.14 2738.79 3307.78 2739.37C3313.25 2743.82 3314.42 2757.49 3314.5 2758.11C3314.51 2758.32 3314.46 2758.52 3314.37 2758.7C3314.27 2758.88 3314.13 2759.03 3313.95 2759.13C3313.84 2759.16 3313.73 2759.16 3313.62 2759.14C3313.51 2759.11 3313.41 2759.05 3313.33 2758.97ZM3303.8 2739.69H3302.94C3301.46 2739.69 3301.38 2740.54 3301.3 2740.86C3300.68 2743.98 3306.77 2751.87 3311.61 2755.54C3311.3 2750.13 3309.34 2744.95 3305.99 2740.7C3305.39 2740.13 3304.62 2739.77 3303.8 2739.69Z" fill="#00D8FF"/>
<path d="M3190.12 1420.46C3178.48 1428.26 3124.84 1425.3 3124.84 1425.3L3099.94 1452.55L3097.52 1407.49C3097.52 1407.49 3080.73 1400.54 3085.34 1395.7C3091.17 1396.14 3097.04 1395.4 3102.59 1393.54C3108.14 1391.68 3113.27 1388.72 3117.66 1384.85C3128.51 1374.23 3130.62 1357.13 3130.47 1340.19C3130.47 1340.19 3130.47 1339.72 3130.47 1339.56L3176.3 1316.14L3208 1299.82C3193.09 1331.99 3171.77 1392.35 3190.12 1420.46Z" fill="#9F5B53"/>
<path opacity="0.2" d="M3191.44 1326.84C3176.29 1365.17 3136.79 1382.27 3117.34 1384.77C3128.2 1374.15 3130.3 1357.05 3130.15 1340.11C3130.19 1339.88 3130.19 1339.64 3130.15 1339.41L3175.98 1315.98C3176.06 1322.23 3193.63 1320.98 3191.44 1326.84Z" fill="black"/>
<path d="M3220.57 1325.28C3220.57 1325.28 3250.31 1340.89 3260.23 1322.23C3270.15 1303.57 3256.01 1302.48 3270.62 1295.76C3285.22 1289.05 3305.99 1284.36 3301.22 1270.23C3296.46 1256.1 3281.7 1254.61 3298.1 1239C3314.5 1223.38 3318.09 1201.36 3293.57 1197.07C3269.05 1192.77 3278.42 1173.65 3277.17 1165.84C3275.92 1158.03 3262.18 1152.56 3247.27 1155.69C3232.36 1158.81 3226.11 1136.71 3216.9 1129.84C3207.68 1122.97 3194.96 1131.4 3191.6 1140.7C3188.24 1149.99 3179.42 1137.65 3166.3 1136.09C3153.18 1134.53 3156.23 1148.35 3152.17 1161.23C3148.11 1174.11 3140.07 1165.76 3130.7 1176.38C3121.33 1187 3120.47 1259.45 3220.57 1325.28Z" fill="#263238"/>
<path d="M3233.53 1280.77C3211.12 1315.91 3198.39 1339.09 3173.25 1350.49C3169.87 1352.06 3166.37 1353.36 3162.79 1354.4C3113.91 1368.77 3073.62 1321.68 3086.51 1275.07C3088.96 1266.66 3092.09 1258.46 3095.87 1250.55C3113.36 1213.93 3147.02 1176.46 3187.23 1181.37C3195.62 1182.33 3203.75 1184.94 3211.14 1189.04C3218.52 1193.15 3225.03 1198.67 3230.28 1205.29C3235.53 1211.91 3239.42 1219.51 3241.74 1227.63C3244.05 1235.76 3244.74 1244.27 3243.76 1252.66C3242.58 1262.7 3239.07 1272.32 3233.53 1280.77Z" fill="#9F5B53"/>
<path d="M3164.74 1257.35C3163.1 1260.86 3159.58 1262.42 3157.4 1261.25C3155.21 1260.08 3154.98 1256.25 3156.77 1252.97C3158.57 1249.69 3162 1247.9 3164.11 1249.07C3166.22 1250.24 3166.61 1254.15 3164.74 1257.35Z" fill="#263238"/>
<path d="M3126.87 1236.5C3126.39 1237.97 3125.35 1239.19 3123.98 1239.9C3122.61 1240.62 3121.01 1240.77 3119.53 1240.32C3117.42 1239.08 3117.11 1235.41 3118.98 1232.05C3120.86 1228.69 3124.14 1226.97 3126.32 1228.22C3128.51 1229.47 3128.67 1233.3 3126.87 1236.5Z" fill="#263238"/>
<path d="M3138.03 1244.85C3128.33 1252.83 3117.59 1259.45 3106.1 1264.53C3107.47 1267.45 3109.47 1270.04 3111.95 1272.1C3114.43 1274.16 3117.34 1275.66 3120.46 1276.47L3138.03 1244.85Z" fill="#892B29"/>
<path d="M3187.38 1248.6C3186.98 1248.66 3186.56 1248.62 3186.18 1248.47C3185.79 1248.32 3185.45 1248.07 3185.2 1247.74C3183.62 1245.41 3181.5 1243.48 3179.03 1242.13C3176.56 1240.77 3173.81 1240.02 3170.99 1239.93C3170.66 1240 3170.32 1239.99 3170 1239.9C3169.68 1239.82 3169.38 1239.66 3169.12 1239.45C3168.87 1239.24 3168.66 1238.97 3168.52 1238.67C3168.38 1238.37 3168.3 1238.04 3168.3 1237.71C3168.3 1237.38 3168.38 1237.05 3168.52 1236.75C3168.66 1236.45 3168.87 1236.18 3169.12 1235.97C3169.38 1235.75 3169.68 1235.6 3170 1235.52C3170.32 1235.43 3170.66 1235.42 3170.99 1235.48C3174.55 1235.51 3178.05 1236.39 3181.19 1238.07C3184.33 1239.74 3187.02 1242.15 3189.02 1245.09C3189.21 1245.32 3189.35 1245.58 3189.43 1245.86C3189.51 1246.15 3189.53 1246.44 3189.49 1246.73C3189.46 1247.02 3189.36 1247.31 3189.21 1247.56C3189.07 1247.81 3188.87 1248.04 3188.63 1248.21C3188.25 1248.44 3187.83 1248.57 3187.38 1248.6Z" fill="#263238"/>
<path d="M3129.6 1297.4C3134.85 1299.1 3140.42 1299.52 3145.86 1298.61C3151.3 1297.7 3156.43 1295.49 3160.84 1292.17C3161.03 1291.94 3161.14 1291.65 3161.14 1291.35C3161.14 1291.05 3161.03 1290.76 3160.84 1290.53C3160.62 1290.31 3160.32 1290.19 3160.02 1290.19C3159.71 1290.19 3159.41 1290.31 3159.2 1290.53C3155.03 1293.52 3150.22 1295.51 3145.15 1296.32C3140.08 1297.14 3134.89 1296.76 3129.99 1295.21C3129.86 1295.15 3129.71 1295.12 3129.56 1295.12C3129.41 1295.13 3129.26 1295.16 3129.12 1295.23C3128.99 1295.3 3128.87 1295.39 3128.78 1295.51C3128.69 1295.63 3128.62 1295.77 3128.59 1295.92C3128.53 1296.05 3128.5 1296.2 3128.5 1296.35C3128.5 1296.5 3128.54 1296.65 3128.61 1296.78C3128.67 1296.92 3128.77 1297.04 3128.89 1297.13C3129.01 1297.22 3129.14 1297.29 3129.29 1297.32L3129.6 1297.4Z" fill="#263238"/>
<path d="M3123.36 1204.1C3123.24 1203.66 3123.24 1203.2 3123.36 1202.77C3123.61 1202.24 3124.07 1201.82 3124.62 1201.62C3125.17 1201.41 3125.79 1201.43 3126.33 1201.68C3129.6 1203.14 3132.48 1205.38 3134.71 1208.19C3136.94 1211 3138.45 1214.31 3139.13 1217.84C3139.2 1218.43 3139.03 1219.02 3138.67 1219.49C3138.3 1219.95 3137.77 1220.26 3137.18 1220.34C3136.59 1220.4 3136 1220.24 3135.53 1219.87C3135.06 1219.51 3134.76 1218.97 3134.68 1218.38C3134.07 1215.63 3132.81 1213.06 3131.02 1210.87C3129.23 1208.69 3126.96 1206.96 3124.37 1205.81C3124.1 1205.61 3123.86 1205.36 3123.69 1205.06C3123.51 1204.76 3123.4 1204.44 3123.36 1204.1Z" fill="#263238"/>
<path d="M3155.52 1184.65C3166.92 1186.06 3172.54 1200.27 3172.54 1200.27C3186.33 1205.31 3199.65 1211.52 3212.37 1218.85C3216.24 1222.01 3219.16 1226.2 3220.79 1230.93C3222.42 1235.66 3222.69 1240.75 3221.58 1245.63C3221.19 1249.38 3211.98 1252.82 3211.98 1252.82C3211.98 1252.82 3195.11 1292.64 3190.5 1303.65L3192.85 1340.42C3223.84 1320.82 3248.66 1292.86 3264.44 1259.77C3291.07 1204.33 3179.96 1155.53 3179.96 1155.53L3155.52 1184.65Z" fill="#263238"/>
<path d="M3226.81 1336.36C3216.43 1342.05 3204.22 1343.39 3192.85 1340.11C3177.78 1335.58 3178.64 1320.12 3189.81 1310.2C3199.8 1301.62 3219.87 1293.11 3231.5 1303.1C3234.05 1305.27 3236 1308.06 3237.19 1311.19C3238.37 1314.32 3238.75 1317.7 3238.28 1321.02C3237.82 1324.33 3236.52 1327.48 3234.52 1330.16C3232.51 1332.84 3229.86 1334.97 3226.81 1336.36Z" fill="#9F5B53"/>
<path d="M3188.79 1396.48L3126.71 1414.36L3099.93 1450.67L3107.19 1406.24C3107.19 1406.24 3100.56 1396.02 3111.57 1380.01L3073.78 1387.82L3050.98 1425.92L3095.33 1415.54L3098.37 1459.81L3124.22 1429.36L3145.37 1462.77L3208.31 1422.88L3188.79 1396.48Z" fill="#00D8FF"/>
<path opacity="0.2" d="M3188.79 1396.48L3126.71 1414.36L3099.93 1450.67L3107.19 1406.24C3107.19 1406.24 3100.56 1396.02 3111.57 1380.01L3073.78 1387.82L3050.98 1425.92L3095.33 1415.54L3098.37 1459.81L3124.22 1429.36L3145.37 1462.77L3208.31 1422.88L3188.79 1396.48Z" fill="black"/>
<path d="M2928.24 1694.59L2918.55 1733.16L3174.03 1785.55L3177.86 1742.69L2928.24 1694.59Z" fill="black"/>
<path d="M3042.31 1714.81C3040.28 1711.92 2983.44 1699.67 2978.05 1703.73C2978.05 1703.73 2967.04 1741.75 2968.92 1745.73C2970.79 1749.72 3026.07 1757.45 3031.38 1758.54C3036.69 1759.63 3044.34 1718.01 3042.31 1714.81ZM3026.7 1753.85C3022.48 1752.99 2977.04 1746.67 2975.48 1743.39C2973.91 1740.11 2983.28 1708.88 2983.28 1708.88C2987.73 1705.52 3034.43 1715.59 3036.07 1717.94C3037.71 1720.28 3030.91 1754.32 3026.7 1753.46V1753.85Z" fill="white"/>
<path d="M3028.88 1727.77L3017.56 1725.43C3016.52 1725.24 3015.46 1725.43 3014.56 1725.98C3013.67 1726.53 3013.01 1727.39 3012.71 1728.4C3012.55 1728.96 3012.51 1729.56 3012.59 1730.14C3012.67 1730.72 3012.87 1731.28 3013.18 1731.78C3013.49 1732.28 3013.9 1732.71 3014.38 1733.04C3014.87 1733.37 3015.42 1733.6 3015.99 1733.71L3027.32 1735.9C3028.41 1736.11 3029.55 1735.88 3030.48 1735.26C3031.41 1734.64 3032.06 1733.67 3032.27 1732.58C3032.49 1731.48 3032.26 1730.34 3031.64 1729.41C3031.02 1728.48 3030.05 1727.84 3028.96 1727.62L3028.88 1727.77Z" fill="white"/>
<path d="M3174.03 1785.55C3174.03 1785.55 3178.95 2074.45 3170.83 2158.78C3162.71 2243.1 3373.21 2704.63 3373.21 2704.63H3305.05C3305.05 2704.63 3098.53 2366.7 3051.21 2262.7C3003.9 2158.7 2968.92 1910.56 2968.92 1910.56L3174.03 1785.55Z" fill="#263238"/>
<path d="M3243.99 1440.05C3233.45 1416.16 3071.59 1451.53 3056.99 1447.39C3042.39 1443.25 2890.45 1379.62 2890.45 1379.62L2877.25 1413.5C2877.25 1413.5 3013.5 1491.58 3043.33 1503.92C3073.15 1516.26 3192.38 1510.32 3222.91 1497.13C3228.13 1494.87 3232.85 1491.58 3236.76 1487.45C3240.68 1483.33 3243.71 1478.44 3245.68 1473.11C3247.65 1467.77 3248.52 1462.09 3248.23 1456.41C3247.94 1450.72 3246.5 1445.16 3243.99 1440.05Z" fill="#00D8FF"/>
<path d="M3215.33 819.554L3166.3 507.236L2908.01 689.864L2993.9 726.249C2910.98 916.295 2642 1473.08 2179.14 1883.62C1588.15 2407.93 760.98 2665.9 752.703 2668.4L798.458 2817.77C833.594 2806.99 1665.77 2547.77 2283.06 2000.2C2774.96 1563.89 3051.52 988.44 3138.35 786.995L3215.33 819.554Z" fill="#00D8FF"/>
<path opacity="0.4" d="M3168.49 764.899L3166.3 507.236L2908.01 689.864L2993.9 726.249C2910.98 916.295 2642 1473.08 2179.14 1883.62C1588.15 2407.93 760.98 2665.9 752.703 2668.4L767.226 2763.11C802.362 2752.34 1634.53 2516.54 2251.83 1968.96C2743.73 1532.66 3004.68 949.401 3091.5 747.955L3168.49 764.899Z" fill="white"/>
<path d="M3123.36 832.75C3122.14 832.759 3120.93 832.575 3119.77 832.203L2969.78 783.716C2968.23 783.316 2966.78 782.604 2965.52 781.624C2964.26 780.645 2963.22 779.418 2962.45 778.019C2961.68 776.621 2961.2 775.079 2961.05 773.491C2960.9 771.902 2961.08 770.299 2961.57 768.78C2962.06 767.261 2962.85 765.859 2963.9 764.658C2964.96 763.458 2966.24 762.486 2967.68 761.8C2969.13 761.115 2970.69 760.732 2972.29 760.674C2973.88 760.616 2975.47 760.884 2976.96 761.463L3126.95 809.872C3129.62 810.718 3131.9 812.493 3133.37 814.874C3134.85 817.256 3135.42 820.087 3134.98 822.854C3134.55 825.622 3133.14 828.141 3131.01 829.957C3128.87 831.772 3126.16 832.763 3123.36 832.75Z" fill="#263238"/>
<path opacity="0.4" d="M3123.36 832.75C3122.14 832.759 3120.93 832.575 3119.77 832.203L2969.78 783.716C2968.23 783.316 2966.78 782.604 2965.52 781.624C2964.26 780.645 2963.22 779.418 2962.45 778.019C2961.68 776.621 2961.2 775.079 2961.05 773.491C2960.9 771.902 2961.08 770.299 2961.57 768.78C2962.06 767.261 2962.85 765.859 2963.9 764.658C2964.96 763.458 2966.24 762.486 2967.68 761.8C2969.13 761.115 2970.69 760.732 2972.29 760.674C2973.88 760.616 2975.47 760.884 2976.96 761.463L3126.95 809.872C3129.62 810.718 3131.9 812.493 3133.37 814.874C3134.85 817.256 3135.42 820.087 3134.98 822.854C3134.55 825.622 3133.14 828.141 3131.01 829.957C3128.87 831.772 3126.16 832.763 3123.36 832.75Z" fill="white"/>
<path d="M1326.98 2294.4C1323.87 2294.4 1320.89 2293.17 1318.7 2290.97C1316.5 2288.77 1315.27 2285.79 1315.27 2282.69C1315.27 1909.94 1423.56 1861.06 1443.86 1855.05L1788.19 1614.17L1788.97 1613.7L3111.8 829.315C3114.47 827.795 3117.63 827.383 3120.6 828.169C3123.56 828.955 3126.11 830.876 3127.67 833.517C3129.24 836.159 3129.7 839.31 3128.97 842.292C3128.24 845.274 3126.36 847.848 3123.75 849.46L1801.55 1633.61L1455.57 1875.66C1454.1 1876.68 1452.42 1877.38 1450.66 1877.69C1449.8 1877.69 1338.69 1905.02 1338.69 2282.92C1338.63 2285.99 1337.37 2288.91 1335.18 2291.05C1332.99 2293.2 1330.04 2294.4 1326.98 2294.4Z" fill="#263238"/>
<path opacity="0.4" d="M1326.98 2294.4C1323.87 2294.4 1320.89 2293.17 1318.7 2290.97C1316.5 2288.77 1315.27 2285.79 1315.27 2282.69C1315.27 1909.94 1423.56 1861.06 1443.86 1855.05L1788.19 1614.17L1788.97 1613.7L3111.8 829.315C3114.47 827.795 3117.63 827.383 3120.6 828.169C3123.56 828.955 3126.11 830.876 3127.67 833.517C3129.24 836.159 3129.7 839.31 3128.97 842.292C3128.24 845.274 3126.36 847.848 3123.75 849.46L1801.55 1633.61L1455.57 1875.66C1454.1 1876.68 1452.42 1877.38 1450.66 1877.69C1449.8 1877.69 1338.69 1905.02 1338.69 2282.92C1338.63 2285.99 1337.37 2288.91 1335.18 2291.05C1332.99 2293.2 1330.04 2294.4 1326.98 2294.4Z" fill="white"/>
<path d="M1416.92 1907.59C1416.92 1907.59 1356.72 1946.63 1310.97 1958.42C1299.68 1962.24 1287.56 1962.92 1275.91 1960.38C1241.87 1949.6 1262.09 1883.7 1282.39 1842.09C1285.67 1835.29 1288.95 1829.2 1292 1824.05L1351.49 1860.82C1351.49 1860.82 1315.42 1912.28 1319.56 1915.48C1323.7 1918.68 1379.29 1887.68 1382.02 1886.67C1384.75 1885.65 1416.92 1907.59 1416.92 1907.59Z" fill="#00D8FF"/>
<path opacity="0.2" d="M1416.93 1907.59C1416.93 1907.59 1356.73 1946.63 1310.97 1958.42C1298.27 1920.49 1288.71 1881.58 1282.39 1842.09C1285.67 1835.29 1288.95 1829.2 1292 1824.05L1351.5 1860.82C1351.5 1860.82 1315.42 1912.28 1319.56 1915.48C1323.7 1918.68 1379.29 1887.68 1382.02 1886.67C1384.76 1885.65 1416.93 1907.59 1416.93 1907.59Z" fill="black"/>
<path d="M1710.11 1681.01L1745.41 1649.77C1748.23 1640.86 1752.11 1632.31 1756.96 1624.32C1760.79 1621.12 1825.05 1616.12 1825.05 1616.12C1825.05 1616.12 1826.3 1650.09 1821.22 1658.91C1816.15 1667.73 1763.68 1671.56 1763.68 1671.56L1735.57 1698.65L1710.11 1681.01Z" fill="#EEC1BB"/>
<path d="M1898.13 2421.12C1888.06 2566.04 1861.12 2771.7 1861.12 2771.7L1826.45 2779.51C1826.45 2779.51 1794.44 2607.34 1799.52 2447.59C1800.42 2412.77 1803.71 2378.04 1809.36 2343.67C1809.36 2343.67 1689.27 2297.52 1605.88 2256.22C1566.06 2236.54 1534.59 2217.88 1528.58 2205.86C1510 2168.77 1594.48 2081.63 1594.48 2081.63C1597.13 2083.74 1648.12 2116.22 1707.46 2154.72C1786.24 2205.78 1879.7 2267.46 1894.85 2282.84C1903.91 2291.67 1903.13 2348.82 1898.13 2421.12Z" fill="#EEC1BB"/>
<path opacity="0.2" d="M1898.13 2421.12C1866.09 2432.74 1833.09 2441.55 1799.52 2447.44C1800.42 2412.61 1803.71 2377.89 1809.35 2343.51C1809.35 2343.51 1689.27 2297.37 1605.88 2256.06L1707.38 2154.56C1786.16 2205.62 1879.63 2267.31 1894.77 2282.69C1903.91 2291.67 1903.13 2348.82 1898.13 2421.12Z" fill="black"/>
<path d="M1627.82 2057.43C1627.82 2057.43 1960.98 2248.96 2006.27 2292.21C2051.55 2335.47 2312.96 2739.69 2312.96 2739.69L2290.95 2760.69C2290.95 2760.69 2073.89 2574.39 1987.29 2397.31L1628.13 2223.74L1627.82 2057.43Z" fill="#EEC1BB"/>
<path d="M1374.37 1703.81C1374.91 1704.18 1375.49 1704.49 1376.09 1704.74C1384.27 1709.38 1393.3 1712.33 1402.64 1713.41C1429.81 1715.83 1447.3 1709.74 1457.29 1696.15C1471.19 1676.01 1470.88 1643.84 1463.23 1605.97C1460.69 1590.82 1455.77 1576.16 1448.63 1562.56C1448.63 1562.56 1448.63 1562.01 1448.63 1561.93L1447.69 1560.37C1443.34 1552.76 1437.16 1546.35 1429.7 1541.74C1422.23 1537.13 1413.74 1534.46 1404.98 1533.98C1397.35 1533.35 1389.68 1533.56 1382.1 1534.61C1307.93 1544.21 1311.91 1669.29 1374.37 1703.81Z" fill="#EEC1BB"/>
<path opacity="0.2" d="M1376.4 1704.74C1384.6 1709.12 1393.61 1711.78 1402.87 1712.55C1429.96 1714.97 1447.38 1707.95 1457.53 1694.28C1442.34 1700.33 1425.6 1701.29 1409.82 1697.01C1404.03 1695.67 1398.01 1695.67 1392.22 1697.01C1386.43 1698.35 1381.02 1701 1376.4 1704.74Z" fill="black"/>
<path d="M1371.4 1765.8C1364.92 1786.73 1391.7 1797.81 1391.7 1797.81C1438.55 1782.2 1449.09 1759.32 1449.09 1759.32C1413.18 1735.9 1428.95 1681.71 1428.95 1681.71L1421.14 1684.83L1366.48 1690.61C1366.48 1690.61 1378.9 1720.51 1380.3 1727.23C1387.18 1762.44 1371.4 1765.8 1371.4 1765.8Z" fill="#EBB376"/>
<path d="M1449.09 1561.86C1449.09 1561.86 1460.49 1613.47 1414.19 1642.75C1414.19 1642.75 1400.53 1699.98 1369.37 1705.21C1326.9 1712.24 1280.91 1656.88 1287 1593.01C1294.96 1510.4 1415.36 1486.9 1449.09 1561.86Z" fill="#263238"/>
<path d="M1436.84 1624.32C1435.67 1616.51 1427.23 1603.4 1414.82 1607.07C1402.4 1610.74 1399.2 1644.08 1432.46 1646.81C1437.54 1647.75 1439.57 1641.5 1436.84 1624.32Z" fill="#EBB376"/>
<path d="M2298.44 2714.86L2262.53 2742.5C2261.79 2743.09 2261.28 2743.91 2261.06 2744.83C2260.85 2745.75 2260.96 2746.72 2261.36 2747.57L2279.63 2786.61C2280.02 2787.44 2280.57 2788.18 2281.25 2788.79C2281.93 2789.41 2282.73 2789.88 2283.59 2790.18C2284.45 2790.49 2285.37 2790.62 2286.28 2790.57C2287.2 2790.52 2288.09 2790.29 2288.92 2789.89C2289.39 2789.68 2289.83 2789.41 2290.25 2789.11C2304.77 2777.48 2305.24 2775.68 2323.74 2761.47C2335.06 2752.73 2370.59 2727.43 2386.21 2715.33C2401.82 2703.22 2391.98 2686.12 2384.49 2689.64C2350.76 2705.25 2322.02 2713.61 2306.41 2712.44C2303.54 2712.22 2300.7 2713.08 2298.44 2714.86Z" fill="#263238"/>
<path d="M2306.25 2714.15C2306.05 2714.25 2305.83 2714.28 2305.61 2714.25C2305.39 2714.22 2305.19 2714.12 2305.02 2713.96C2304.86 2713.81 2304.75 2713.61 2304.71 2713.4C2304.66 2713.18 2304.68 2712.95 2304.77 2712.75C2305.47 2710.88 2311.87 2694.09 2317.65 2693.07C2318.29 2692.94 2318.96 2692.99 2319.57 2693.22C2320.18 2693.46 2320.71 2693.87 2321.09 2694.4C2321.88 2695.19 2322.47 2696.17 2322.78 2697.25C2323.09 2698.33 2323.13 2699.47 2322.88 2700.57C2321.95 2703.76 2319.94 2706.52 2317.18 2708.38C2313.77 2710.72 2310.1 2712.65 2306.25 2714.15ZM2307.89 2710.95C2313.4 2709.08 2317.99 2705.17 2320.7 2700.02C2320.85 2699.28 2320.82 2698.52 2320.6 2697.79C2320.38 2697.07 2319.98 2696.41 2319.45 2695.88C2318.82 2695.26 2318.28 2695.1 2318.04 2695.34C2317.55 2695.43 2317.1 2695.65 2316.71 2695.96C2312.85 2700.35 2309.85 2705.44 2307.89 2710.95Z" fill="#00D8FF"/>
<path d="M2306.18 2714.54C2305.98 2714.55 2305.79 2714.51 2305.61 2714.43C2305.44 2714.35 2305.28 2714.23 2305.16 2714.08C2305.16 2713.53 2297.35 2702.05 2298.99 2695.18C2299.18 2694.35 2299.53 2693.56 2300.03 2692.86C2300.52 2692.16 2301.15 2691.57 2301.88 2691.12C2302.55 2690.59 2303.37 2690.3 2304.22 2690.3C2305.07 2690.3 2305.9 2690.59 2306.57 2691.12C2310.39 2694.48 2309.22 2708.45 2306.96 2713.53L2306.57 2713.92L2306.18 2714.54ZM2300.94 2695.34C2300.92 2700.73 2302.53 2706.01 2305.55 2710.48C2307.42 2704.65 2307.14 2698.33 2304.77 2692.68C2304.77 2692.68 2303.91 2691.82 2302.82 2692.68H2302.35C2301.58 2693.37 2301.08 2694.31 2300.94 2695.34Z" fill="#00D8FF"/>
<path d="M1867.21 2748.67L1821.84 2749.53C1820.91 2749.58 1820.03 2749.93 1819.32 2750.54C1818.61 2751.15 1818.13 2751.97 1817.94 2752.88L1809.43 2795.12C1809.18 2796.89 1809.61 2798.68 1810.64 2800.14C1811.67 2801.59 1813.22 2802.59 1814.97 2802.93C1815.49 2803.01 1816.02 2803.01 1816.54 2802.93C1835.04 2802.23 1836.52 2801.06 1859.87 2800.59C1874.24 2800.59 1917.57 2800.98 1937.4 2800.59C1957.23 2800.2 1959.42 2780.52 1951.3 2778.88C1914.68 2771.7 1887.12 2761.24 1875.25 2751.01C1872.97 2749.23 1870.09 2748.39 1867.21 2748.67Z" fill="#263238"/>
<path d="M1871.27 2753.66C1871.04 2753.63 1870.83 2753.52 1870.68 2753.35C1870.52 2753.18 1870.43 2752.96 1870.41 2752.73C1870.35 2752.52 1870.37 2752.29 1870.45 2752.1C1870.54 2751.9 1870.69 2751.73 1870.88 2751.63C1872.52 2750.54 1887.59 2740.86 1892.9 2743.43C1893.5 2743.7 1894.01 2744.14 1894.37 2744.7C1894.73 2745.25 1894.93 2745.9 1894.93 2746.56C1895.08 2747.67 1894.96 2748.8 1894.56 2749.85C1894.17 2750.9 1893.51 2751.84 1892.66 2752.57C1890.04 2754.46 1886.84 2755.37 1883.61 2755.15C1879.45 2755.12 1875.31 2754.62 1871.27 2753.66ZM1874.47 2752.02C1880.01 2753.8 1886.02 2753.38 1891.26 2750.85C1891.81 2750.34 1892.23 2749.71 1892.47 2749C1892.72 2748.29 1892.79 2747.53 1892.66 2746.79C1892.66 2745.93 1892.2 2745.54 1891.96 2745.54C1891.47 2745.43 1890.97 2745.43 1890.48 2745.54C1884.78 2746.68 1879.35 2748.87 1874.47 2752.02Z" fill="#00D8FF"/>
<path d="M1870.96 2753.9C1870.78 2753.8 1870.63 2753.66 1870.53 2753.47C1870.43 2753.29 1870.39 2753.09 1870.41 2752.88C1870.41 2752.26 1871.27 2738.67 1876.66 2734.06C1877.3 2733.49 1878.05 2733.05 1878.88 2732.8C1879.7 2732.54 1880.57 2732.47 1881.42 2732.58C1882.27 2732.56 1883.11 2732.84 1883.78 2733.37C1884.44 2733.89 1884.91 2734.64 1885.09 2735.47C1886.11 2740.39 1877.28 2751.09 1872.05 2753.74H1871.51C1871.35 2753.86 1871.15 2753.92 1870.96 2753.9ZM1878.14 2735.39C1874.92 2739.72 1873.07 2744.92 1872.83 2750.3C1877.67 2746.56 1883.53 2738.51 1882.83 2735.47C1882.83 2735.47 1882.83 2734.38 1881.19 2734.38H1880.64C1879.71 2734.39 1878.82 2734.75 1878.14 2735.39Z" fill="#00D8FF"/>
<path d="M1618.53 2006.13L1453.23 2075.54C1384.91 1905.72 1292 1824.05 1292 1824.05C1358.21 1744.64 1480.48 1708.1 1480.48 1708.1C1498.54 1722.8 1514.12 1740.3 1526.63 1759.94C1540.41 1781.28 1552.42 1803.71 1562.54 1827.01C1587.1 1884.71 1605.85 1944.71 1618.53 2006.13Z" fill="#00D8FF"/>
<path d="M1447.53 1596.37C1447.53 1596.37 1499.45 1543.43 1449.72 1508.53C1399.98 1473.63 1350.63 1520.24 1350.63 1520.24C1350.63 1520.24 1232.5 1549.99 1258.42 1628.46C1284.35 1706.93 1300.9 1713.41 1263.81 1754.17C1226.72 1794.93 1188.93 1855.05 1227.66 1892.92C1266.39 1930.78 1399.9 1890.18 1439.96 1832.09C1480.01 1774 1407.09 1650.87 1447.53 1596.37Z" fill="#263238"/>
<path d="M1606.5 1955.22L1426.92 2016.83C1426.92 2016.83 1466.66 2212.41 1495.48 2245.13C1524.29 2277.85 1716.91 2429.32 1744.16 2417.37C1771.41 2405.43 1952.16 2245.13 1952.16 2245.13L1646.33 2035.41L1606.5 1955.22Z" fill="#263238"/>
<path d="M1580.35 1992L1618.53 1979.35L1609.08 1960.45L1572.93 1973.18L1580.35 1992Z" fill="black"/>
<path d="M1466.2 2010.74L1427.08 2024.48L1432.31 2041.19L1470.57 2028.46L1466.2 2010.74Z" fill="black"/>
<path d="M1478.76 2025.73L1572.69 1994.57L1565.67 1975.68L1473.61 2008.08L1478.76 2025.73Z" fill="black"/>
<path opacity="0.2" d="M1562.55 1827.33C1523.04 1822.72 1500.79 1763.3 1500.79 1763.3C1509.33 1761.77 1517.96 1760.75 1526.63 1760.26C1540.41 1781.6 1552.43 1804.03 1562.55 1827.33Z" fill="black"/>
<path d="M1480.48 1708.1C1523.42 1701.7 1619.46 1736.52 1627.82 1736.13C1636.17 1735.74 1729.32 1662.5 1729.32 1662.5L1753.53 1683.82C1753.53 1683.82 1655.93 1784.46 1635.86 1785.32C1615.79 1786.18 1510.93 1778.6 1510.93 1778.6C1510.93 1778.6 1485.24 1769.47 1480.32 1746.28C1477.33 1733.72 1477.38 1720.63 1480.48 1708.1Z" fill="#00D8FF"/>
</svg>
