<svg width="3904" height="2909" viewBox="0 0 3904 2909" fill="none" xmlns="http://www.w3.org/2000/svg">
<path d="M3903.98 2556.32H0V2558.27H3903.98V2556.32Z" fill="#EBEBEB"/>
<path d="M3512.8 2681.95H3254.2V2683.91H3512.8V2681.95Z" fill="#EBEBEB"/>
<path d="M2586.15 2703.19H2518.3V2705.14H2586.15V2703.19Z" fill="#EBEBEB"/>
<path d="M3246.39 2609.5H3096.56V2611.45H3246.39V2609.5Z" fill="#EBEBEB"/>
<path d="M746.831 2622.61H409.605V2624.57H746.831V2622.61Z" fill="#EBEBEB"/>
<path d="M865.825 2622.61H816.4V2624.57H865.825V2622.61Z" fill="#EBEBEB"/>
<path d="M1757.96 2655.56H1026.51V2657.51H1757.96V2655.56Z" fill="#EBEBEB"/>
<path d="M1850.49 2208.09H342.847C331.036 2208.07 319.717 2203.36 311.372 2195C303.028 2186.64 298.342 2175.31 298.342 2163.5V44.193C298.445 32.45 303.176 21.2218 311.509 12.9473C319.843 4.67273 331.104 0.0201163 342.847 0H1850.49C1862.31 0 1873.65 4.69716 1882.01 13.0582C1890.37 21.4192 1895.07 32.7591 1895.07 44.5834V2163.5C1895.07 2175.33 1890.37 2186.67 1882.01 2195.03C1873.65 2203.39 1862.31 2208.09 1850.49 2208.09ZM342.847 1.5616C331.554 1.58228 320.731 6.0829 312.753 14.0756C304.775 22.0683 300.294 32.8999 300.294 44.193V2163.5C300.294 2174.8 304.775 2185.63 312.753 2193.62C320.731 2201.61 331.554 2206.11 342.847 2206.14H1850.49C1861.79 2206.11 1872.62 2201.62 1880.61 2193.63C1888.6 2185.64 1893.1 2174.8 1893.12 2163.5V44.193C1893.1 32.8928 1888.6 22.0613 1880.61 14.0708C1872.62 6.08036 1861.79 1.58223 1850.49 1.5616H342.847Z" fill="#EBEBEB"/>
<path d="M3539.43 2208.09H2031.71C2019.89 2208.07 2008.56 2203.36 2000.21 2195.01C1991.85 2186.65 1987.15 2175.32 1987.13 2163.5V44.193C1987.25 32.4429 1992 21.2148 2000.34 12.9424C2008.69 4.67 2019.96 0.0198969 2031.71 0H3539.43C3551.16 0.0406364 3562.4 4.70233 3570.71 12.9747C3579.03 21.247 3583.75 32.4635 3583.85 44.193V2163.5C3583.85 2175.3 3579.18 2186.62 3570.85 2194.97C3562.52 2203.33 3551.22 2208.05 3539.43 2208.09ZM2031.71 1.5616C2020.41 1.58223 2009.58 6.08036 2001.59 14.0708C1993.6 22.0613 1989.1 32.8928 1989.08 44.193V2163.5C1989.1 2174.8 1993.6 2185.64 2001.59 2193.63C2009.58 2201.62 2020.41 2206.11 2031.71 2206.14H3539.43C3550.73 2206.11 3561.56 2201.62 3569.55 2193.63C3577.54 2185.64 3582.04 2174.8 3582.06 2163.5V44.193C3582.04 32.8928 3577.54 22.0613 3569.55 14.0708C3561.56 6.08036 3550.73 1.58223 3539.43 1.5616H2031.71Z" fill="#EBEBEB"/>
<path d="M1166.74 1120.36H1114.2V2558.27H1166.74V1120.36Z" fill="#F5F5F5"/>
<path d="M1374.51 1302.91H1321.96V2558.27H1374.51V1302.91Z" fill="#F5F5F5"/>
<path d="M1580.33 1485.46H1527.79V2558.28H1580.33V1485.46Z" fill="#F5F5F5"/>
<path d="M1786.23 1363.73H1733.68V2558.27H1786.23V1363.73Z" fill="#F5F5F5"/>
<path d="M1992.12 1302.91H1939.58V2558.27H1992.12V1302.91Z" fill="#F5F5F5"/>
<path d="M2197.94 1181.19H2145.39V2558.27H2197.94V1181.19Z" fill="#F5F5F5"/>
<path d="M2403.84 1242.09H2351.29V2558.28H2403.84V1242.09Z" fill="#F5F5F5"/>
<path d="M2609.73 1181.19H2557.19V2558.27H2609.73V1181.19Z" fill="#F5F5F5"/>
<path d="M2815.55 1059.46H2763V2558.2H2815.55V1059.46Z" fill="#F5F5F5"/>
<path d="M3021.45 937.812H2968.9V2558.27H3021.45V937.812Z" fill="#F5F5F5"/>
<path d="M3227.26 816.086H3174.72V2558.27H3227.26V816.086Z" fill="#F5F5F5"/>
<path d="M1553.78 1399.96C1550.86 1399.85 1548.08 1398.65 1545.98 1396.61L1106.08 967.717C1103.85 965.543 1102.58 962.573 1102.54 959.461C1102.51 956.35 1103.71 953.351 1105.88 951.125C1108.05 948.899 1111.02 947.628 1114.14 947.591C1117.25 947.554 1120.25 948.755 1122.47 950.93L1555.27 1372.95L2164.84 927.896C2167.19 926.213 2170.09 925.458 2172.97 925.775C2175.85 926.092 2178.51 927.459 2180.45 929.614L2380.02 1155.58L3206.1 682.258C3207.44 681.494 3208.92 681.002 3210.45 680.808C3211.98 680.614 3213.53 680.723 3215.01 681.129C3216.5 681.536 3217.89 682.23 3219.11 683.174C3220.33 684.118 3221.35 685.293 3222.11 686.631C3222.87 687.969 3223.37 689.444 3223.56 690.973C3223.76 692.501 3223.65 694.053 3223.24 695.539C3222.83 697.026 3222.14 698.418 3221.2 699.635C3220.25 700.853 3219.08 701.873 3217.74 702.637L2383.38 1180.8C2381.04 1182.12 2378.31 1182.6 2375.65 1182.16C2373 1181.72 2370.57 1180.39 2368.78 1178.38L2169.99 953.506L1560.97 1397.7C1558.89 1399.23 1556.36 1400.02 1553.78 1399.96Z" fill="#F0F0F0"/>
<path d="M1504.2 2549.29L1120.29 1035.25L1139.49 959.595H1119.51V527.191H1067.97V959.595H1047.99L1067.19 1035.25L683.197 2549.29H736.369L1067.97 1241.62V2557.26H1119.51V1241.62L1451.11 2549.29H1504.2Z" fill="#E0E0E0"/>
<path d="M1383.01 1020.21C1420.72 860.435 1321.77 700.341 1161.99 662.631C1002.22 624.92 842.123 723.874 804.412 883.649C766.701 1043.43 865.655 1203.52 1025.43 1241.23C1185.21 1278.94 1345.3 1179.99 1383.01 1020.21Z" fill="#E6E6E6"/>
<path d="M1093.74 1205.78C1233.89 1205.78 1347.5 1092.17 1347.5 952.02C1347.5 811.873 1233.89 698.262 1093.74 698.262C953.592 698.262 839.98 811.873 839.98 952.02C839.98 1092.17 953.592 1205.78 1093.74 1205.78Z" fill="#F5F5F5"/>
<path d="M1093.74 1150.66C1203.44 1150.66 1292.37 1061.73 1292.37 952.025C1292.37 842.322 1203.44 753.391 1093.74 753.391C984.037 753.391 895.105 842.322 895.105 952.025C895.105 1061.73 984.037 1150.66 1093.74 1150.66Z" fill="#E6E6E6"/>
<path d="M1156.08 1102.39C1239.14 1067.98 1278.59 972.754 1244.18 889.688C1209.78 806.622 1114.55 767.177 1031.48 801.584C948.414 835.991 908.968 931.221 943.375 1014.29C977.782 1097.35 1073.01 1136.8 1156.08 1102.39Z" fill="#F5F5F5"/>
<path d="M1203.67 977.883C1218 917.154 1180.39 856.304 1119.66 841.971C1058.94 827.637 998.085 865.249 983.752 925.978C969.418 986.707 1007.03 1047.56 1067.76 1061.89C1128.49 1076.22 1189.34 1038.61 1203.67 977.883Z" fill="#E6E6E6"/>
<path d="M1124.82 1026.94C1166.22 1009.79 1185.87 962.339 1168.73 920.945C1151.58 879.552 1104.13 859.895 1062.73 877.041C1021.34 894.187 1001.68 941.642 1018.83 983.035C1035.98 1024.43 1083.43 1044.09 1124.82 1026.94Z" fill="#F5F5F5"/>
<path d="M1130.51 952.021C1130.51 959.314 1128.35 966.442 1124.3 972.504C1120.24 978.567 1114.48 983.29 1107.75 986.077C1101.01 988.864 1093.59 989.589 1086.44 988.161C1079.29 986.733 1072.72 983.215 1067.57 978.053C1062.42 972.891 1058.92 966.317 1057.51 959.163C1056.09 952.009 1056.83 944.597 1059.63 937.864C1062.44 931.131 1067.17 925.381 1073.24 921.341C1079.31 917.301 1086.45 915.153 1093.74 915.168C1098.57 915.168 1103.36 916.122 1107.83 917.975C1112.3 919.828 1116.35 922.544 1119.77 925.967C1123.19 929.39 1125.89 933.453 1127.74 937.924C1129.58 942.395 1130.52 947.185 1130.51 952.021Z" fill="#E6E6E6"/>
<path d="M712.244 706.852L720.286 760.57L664.381 779.387L720.286 808.745L776.035 789.147L766.275 736.209L712.244 706.852Z" fill="#E6E6E6"/>
<path d="M1093.74 959.829C1092.49 959.814 1091.27 959.52 1090.15 958.97L690.145 753.933C688.365 752.956 687.036 751.323 686.44 749.382C685.844 747.44 686.027 745.343 686.952 743.535C687.876 741.727 689.469 740.35 691.391 739.696C693.314 739.043 695.416 739.164 697.251 740.035L1097.25 944.759C1099.09 945.695 1100.49 947.321 1101.13 949.282C1101.77 951.242 1101.61 953.378 1100.69 955.222C1100.08 956.568 1099.11 957.715 1097.88 958.53C1096.65 959.346 1095.21 959.796 1093.74 959.829Z" fill="#E0E0E0"/>
<path d="M1644.2 618.075C1644.16 607.332 1646.65 596.73 1651.45 587.122C1656.26 577.514 1663.26 569.169 1671.88 562.759C1680.5 556.348 1690.5 552.051 1701.09 550.213C1711.67 548.375 1722.54 549.047 1732.82 552.176C1729.77 531.459 1731.22 510.327 1737.07 490.221C1742.92 470.114 1753.04 451.505 1766.73 435.663C1780.43 419.82 1797.38 407.115 1816.42 398.414C1835.47 389.713 1856.17 385.22 1877.11 385.242C1886.1 385.239 1895.06 386.075 1903.89 387.741C1918.26 364.126 1939.92 345.824 1965.6 335.597C1991.29 325.369 2019.6 323.771 2046.27 331.042C2072.94 338.313 2096.52 354.06 2113.46 375.907C2130.39 397.754 2139.77 424.516 2140.16 452.156H2142.35C2173.49 452.156 2203.36 464.528 2225.38 486.551C2247.41 508.574 2259.78 538.443 2259.78 569.588C2259.78 600.732 2247.41 630.602 2225.38 652.624C2203.36 674.647 2173.49 687.019 2142.35 687.019H1711.04C1693.11 686.51 1676.08 679.017 1663.6 666.138C1651.11 653.259 1644.15 636.013 1644.2 618.075Z" fill="#F0F0F0"/>
<path d="M2869.19 580.287C2869.19 571.487 2872.69 563.046 2878.91 556.823C2885.13 550.6 2893.57 547.104 2902.37 547.104C2905.6 547.133 2908.8 547.606 2911.9 548.509C2911.4 545.148 2911.14 541.756 2911.12 538.359C2911.11 528.029 2913.38 517.826 2917.77 508.475C2922.16 499.124 2928.56 490.855 2936.5 484.257C2944.45 477.659 2953.75 472.894 2963.75 470.302C2973.75 467.71 2984.2 467.353 2994.35 469.258C3001.31 457.904 3011.76 449.117 3024.14 444.219C3036.53 439.32 3050.16 438.577 3063.01 442.1C3075.85 445.623 3087.2 453.222 3095.35 463.752C3103.49 474.283 3108 487.176 3108.19 500.49H3109.21C3124.22 500.49 3138.62 506.454 3149.23 517.07C3159.85 527.686 3165.81 542.085 3165.81 557.098C3165.81 572.111 3159.85 586.509 3149.23 597.125C3138.62 607.741 3124.22 613.705 3109.21 613.705H2901.44C2892.75 613.481 2884.5 609.851 2878.47 603.599C2872.44 597.347 2869.1 588.975 2869.19 580.287Z" fill="#F0F0F0"/>
<path d="M739.569 621.593C739.569 618.664 740.148 615.764 741.271 613.059C742.394 610.354 744.04 607.898 746.115 605.83C748.189 603.763 750.652 602.125 753.36 601.012C756.069 599.898 758.971 599.33 761.9 599.34C764.069 599.335 766.227 599.65 768.303 600.277C767.963 598.002 767.78 595.707 767.756 593.406C767.858 581.013 772.827 569.156 781.59 560.393C790.354 551.629 802.211 546.661 814.604 546.559C817.539 546.57 820.467 546.858 823.349 547.418C827.983 539.74 834.994 533.784 843.319 530.45C851.644 527.117 860.828 526.589 869.48 528.946C878.132 531.303 885.78 536.417 891.263 543.513C896.747 550.608 899.767 559.298 899.867 568.265H900.569C910.366 568.709 919.615 572.913 926.391 580.003C933.167 587.092 936.948 596.522 936.948 606.329C936.948 616.135 933.167 625.565 926.391 632.654C919.615 639.744 910.366 643.948 900.569 644.392H761.275C758.353 644.321 755.473 643.675 752.8 642.491C750.128 641.307 747.714 639.607 745.699 637.49C743.683 635.373 742.104 632.879 741.052 630.151C740.001 627.424 739.497 624.516 739.569 621.593Z" fill="#F0F0F0"/>
<path d="M1951.99 2908.93C2788.09 2908.93 3465.88 2869.36 3465.88 2820.54C3465.88 2771.73 2788.09 2732.16 1951.99 2732.16C1115.9 2732.16 438.105 2771.73 438.105 2820.54C438.105 2869.36 1115.9 2908.93 1951.99 2908.93Z" fill="#F5F5F5"/>
<path d="M1080.46 1331.72L1134.03 1301.11C1134.03 1301.11 1154.64 1269.33 1160.81 1267.85C1166.98 1266.37 1234.91 1267.85 1234.91 1267.85C1234.91 1267.85 1224.68 1311.89 1223.58 1320.55C1222.49 1329.22 1157.69 1320.55 1157.69 1320.55L1105.22 1351.79L1080.46 1331.72Z" fill="#EBB376"/>
<path d="M581.616 2756.2L525.555 2745.04C524.554 2745.03 523.581 2745.37 522.8 2746C522.018 2746.62 521.475 2747.5 521.26 2748.47L506.191 2804.54C505.873 2806.45 506.282 2808.42 507.335 2810.05C508.389 2811.68 510.014 2812.86 511.891 2813.36H513.53C533.363 2813.36 547.807 2811.8 572.637 2811.8C588.253 2811.8 634.163 2813.44 655.323 2813.44C676.483 2813.44 679.293 2792.51 670.939 2790.64C631.899 2782.13 602.854 2770.41 590.439 2759.41C588.035 2757.22 584.864 2756.07 581.616 2756.2Z" fill="#263238"/>
<path d="M1267.7 2754.33H1206.49C1205.48 2754.31 1204.5 2754.64 1203.72 2755.27C1202.93 2755.9 1202.39 2756.78 1202.19 2757.76L1192.2 2803.05C1191.9 2804.97 1192.33 2806.92 1193.4 2808.54C1194.47 2810.15 1196.1 2811.31 1197.98 2811.8H1199.61C1219.45 2811.41 1233.81 2810.23 1258.72 2810.23C1274.34 2810.23 1320.25 2811.8 1341.41 2811.8C1362.57 2811.8 1365.3 2790.95 1356.63 2789C1317.59 2780.56 1288.55 2768.77 1276.13 2757.76C1275.03 2756.65 1273.72 2755.78 1272.27 2755.19C1270.82 2754.6 1269.26 2754.31 1267.7 2754.33Z" fill="#263238"/>
<path d="M689.678 1722.98L948.903 1657.23C1007.7 1785.6 1223.43 2312.63 1275.74 2751.13L1187.98 2773.38C1187.98 2773.38 1032.6 2126.73 902.289 1937.93C902.289 1937.93 895.34 2224.95 881.208 2266.72C869.574 2301.08 602.776 2760.73 602.776 2760.73L516.107 2750.97C516.107 2750.97 733.95 2281.87 746.755 2223.39C755.812 2183.57 716.147 1891.08 716.147 1891.08C709.198 1865 698.736 1757.02 698.736 1757.02C698.736 1757.02 690.928 1728.36 689.678 1722.98Z" fill="#407BFF"/>
<path opacity="0.2" d="M902.366 1938.09C924.363 1971.36 943.559 2006.41 959.754 2042.87C941.796 1941.83 886.125 1844 886.125 1844L902.366 1938.09Z" fill="black"/>
<path opacity="0.3" d="M689.678 1722.98L948.903 1657.23C1007.7 1785.6 1223.43 2312.63 1275.74 2751.13L1187.98 2773.38C1187.98 2773.38 1032.6 2126.73 902.289 1937.93C902.289 1937.93 895.34 2224.95 881.208 2266.72C869.574 2301.08 602.776 2760.73 602.776 2760.73L516.107 2750.97C516.107 2750.97 733.95 2281.87 746.755 2223.39C755.812 2183.57 716.147 1891.08 716.147 1891.08C709.198 1865 698.736 1757.02 698.736 1757.02C698.736 1757.02 690.928 1728.36 689.678 1722.98Z" fill="black"/>
<path d="M1140.35 1336.17C1140.35 1336.17 1022.14 1415.97 990.987 1420.19C978.572 1421.9 952.962 1417.69 926.493 1412.38C886.36 1403.79 844.509 1391.76 844.509 1391.76L839.278 1352.18L833.734 1309.86C843.104 1306.74 965.377 1356.71 983.647 1364.51C1001.92 1372.32 1120.05 1302.05 1120.05 1302.05L1140.35 1336.17Z" fill="#263238"/>
<path d="M774.783 1704.71L782.435 1734.69L698.734 1757.02L690.926 1725.94L774.783 1704.71Z" fill="black"/>
<path d="M906.815 1671.21L914.077 1699.63L791.726 1732.27L784.074 1702.36L906.815 1671.21Z" fill="black"/>
<path d="M962.252 1686.82L923.291 1697.21L916.107 1668.87L951.868 1659.81L962.252 1686.82Z" fill="black"/>
<path d="M840.253 1719.34L888.539 1707.1L879.71 1672.28L831.424 1684.53L840.253 1719.34Z" fill="white"/>
<path d="M951.79 1659.73L690.848 1725.94C678.121 1691.51 665.159 1656.84 652.511 1623.04C643.219 1598.28 634.084 1574 625.183 1550.5C622.944 1544.46 620.68 1538.53 618.39 1532.7L610.582 1511.93C604.804 1496.73 599.234 1482.08 593.873 1467.97L579.506 1430.41L572.713 1412.61L559.83 1379.04L833.811 1309.55C924.15 1467.19 951.79 1659.73 951.79 1659.73Z" fill="#263238"/>
<path d="M659.303 1372.32C687.49 1385.83 739.491 1362.02 739.491 1362.02C739.491 1362.02 756.746 1342.96 746.44 1334.53C725.515 1337.26 726.842 1330.39 719.268 1319.7C714.937 1312.94 711.967 1305.41 710.523 1297.52C709.587 1293.16 708.883 1288.76 708.415 1284.33L626.197 1254.81C644.858 1284.95 673.826 1342.03 659.303 1372.32Z" fill="#EBB376"/>
<path opacity="0.2" d="M651.184 1281.75C666.019 1321.18 702.404 1322.35 719.269 1319.7C714.938 1312.94 711.968 1305.41 710.524 1297.52L651.184 1281.75Z" fill="black"/>
<path d="M758.308 1132.15C758.308 1132.15 779.78 1196.96 748.782 1228.58C717.785 1260.2 696.781 1136.29 696.781 1136.29L758.308 1132.15Z" fill="#263238"/>
<path d="M655.244 1299.16C664.52 1308.84 676.712 1315.21 689.955 1317.3C703.197 1319.39 716.758 1317.08 728.561 1310.72C744.036 1302.72 755.876 1289.12 761.667 1272.69C762.448 1270.51 763.15 1268.17 763.775 1265.82C774.238 1222.18 767.679 1150.11 720.129 1130.75C709.648 1126.43 698.237 1124.86 686.979 1126.19C675.722 1127.53 664.994 1131.72 655.814 1138.37C646.635 1145.02 639.31 1153.91 634.536 1164.19C629.763 1174.48 627.699 1185.81 628.541 1197.11C631.352 1245.76 630.727 1274.33 655.244 1299.16Z" fill="#EBB376"/>
<path d="M702.168 1210.93C702.168 1214.84 704.198 1218.04 706.853 1218.04C709.507 1218.04 711.459 1214.84 711.537 1210.93C711.616 1207.03 709.429 1203.75 706.853 1203.75C704.276 1203.75 702.168 1206.95 702.168 1210.93Z" fill="#263238"/>
<path d="M746.832 1210.93C746.832 1214.92 748.94 1218.12 751.517 1218.12C754.093 1218.12 756.123 1214.84 756.202 1210.93C756.28 1207.03 754.015 1203.83 751.517 1203.83C749.018 1203.83 746.832 1207.19 746.832 1210.93Z" fill="#263238"/>
<path d="M732.621 1212.88C737.289 1224.97 743.623 1236.35 751.438 1246.69C748.727 1248.63 745.622 1249.95 742.343 1250.56C739.064 1251.17 735.691 1251.05 732.465 1250.2L732.621 1212.88Z" fill="#D58745"/>
<path d="M763.15 1192.66C762.776 1192.85 762.361 1192.95 761.94 1192.95C761.519 1192.95 761.104 1192.85 760.73 1192.66C758.421 1190.88 755.726 1189.68 752.865 1189.13C750.003 1188.59 747.054 1188.73 744.255 1189.54C743.685 1189.75 743.053 1189.74 742.497 1189.49C741.94 1189.24 741.505 1188.78 741.288 1188.21C741.07 1187.64 741.088 1187.01 741.337 1186.45C741.586 1185.89 742.046 1185.46 742.615 1185.24C746.117 1184.14 749.834 1183.89 753.45 1184.53C757.066 1185.17 760.474 1186.67 763.384 1188.91C763.64 1189.08 763.86 1189.29 764.03 1189.54C764.201 1189.8 764.319 1190.08 764.377 1190.38C764.436 1190.68 764.433 1190.99 764.37 1191.28C764.307 1191.58 764.184 1191.86 764.009 1192.11C763.747 1192.33 763.458 1192.51 763.15 1192.66Z" fill="#263238"/>
<path d="M693.347 1193.21C692.9 1193.15 692.473 1192.99 692.097 1192.74C691.668 1192.3 691.428 1191.71 691.428 1191.1C691.428 1190.49 691.668 1189.9 692.097 1189.46C694.826 1186.96 698.119 1185.16 701.694 1184.21C705.27 1183.26 709.022 1183.18 712.632 1184C713.202 1184.18 713.681 1184.57 713.972 1185.09C714.262 1185.61 714.341 1186.23 714.194 1186.81C714.012 1187.4 713.612 1187.9 713.075 1188.2C712.538 1188.51 711.905 1188.59 711.305 1188.45C708.457 1187.87 705.514 1187.99 702.717 1188.77C699.921 1189.56 697.352 1191 695.22 1192.98C694.942 1193.14 694.631 1193.25 694.308 1193.29C693.986 1193.33 693.658 1193.3 693.347 1193.21Z" fill="#263238"/>
<path d="M664.144 1136.84L668.829 1145.82C653.213 1151.83 657.117 1170.25 661.021 1178.45C668.829 1196.1 659.85 1224.44 646.655 1236.23C646.655 1236.23 645.796 1228.42 639.315 1230.61C632.834 1232.8 636.582 1273.24 650.324 1291.98C650.324 1291.98 630.102 1275.35 617.14 1233.34C605.194 1194.3 602.383 1161.74 609.801 1146.13L664.144 1136.84Z" fill="#263238"/>
<path d="M607.302 1237.09C609.958 1242.54 613.663 1247.41 618.205 1251.43C622.746 1255.45 628.036 1258.54 633.771 1260.51C649.387 1265.66 657.195 1252.16 654.071 1237.09C650.792 1223.89 639.002 1204.76 622.84 1206.25C619.431 1206.63 616.172 1207.85 613.357 1209.81C610.541 1211.77 608.259 1214.39 606.716 1217.46C605.173 1220.52 604.419 1223.92 604.521 1227.35C604.623 1230.77 605.579 1234.12 607.302 1237.09Z" fill="#EBB376"/>
<path d="M663.676 1318.68C686.631 1334.77 731.371 1340 753.311 1310.87C775.252 1281.75 768.225 1234.98 768.225 1234.98C765.705 1245.43 760.905 1255.18 754.17 1263.56C741.756 1248.57 720.674 1257.08 720.674 1257.08C716.232 1251.29 709.857 1247.3 702.716 1245.83C692.487 1244.82 663.676 1246.54 663.676 1246.54C654.463 1240.68 654.072 1214.6 654.072 1214.6L648.45 1219.29C648.45 1219.29 640.642 1302.52 663.676 1318.68Z" fill="#263238"/>
<path d="M725.048 1153.39C725.048 1153.39 779.704 1126.84 773.223 1100.29C766.742 1073.75 750.814 1104.04 750.814 1104.04C750.814 1104.04 758.154 1083.9 743.787 1080.62C729.42 1077.34 733.949 1090.22 726.141 1097.95C718.333 1105.68 642.596 1094.44 618.157 1109.59C593.718 1124.73 612.379 1177.12 612.379 1177.12C626.813 1162.63 645.161 1152.67 665.174 1148.45C685.187 1144.24 705.995 1145.95 725.048 1153.39Z" fill="#263238"/>
<path opacity="0.2" d="M663.676 1318.68C686.631 1334.77 731.371 1340 753.311 1310.87C775.252 1281.75 768.225 1234.98 768.225 1234.98C765.705 1245.43 760.905 1255.18 754.17 1263.56C741.756 1248.57 720.674 1257.08 720.674 1257.08C716.232 1251.29 709.857 1247.3 702.716 1245.83C692.487 1244.82 663.676 1246.54 663.676 1246.54C654.463 1240.68 654.072 1214.6 654.072 1214.6L648.45 1219.29C648.45 1219.29 640.642 1302.52 663.676 1318.68Z" fill="white"/>
<path d="M723.017 1271.91C718.816 1277.53 715.032 1283.46 711.696 1289.63L708.182 1288.31C692.566 1282.61 686.945 1274.8 685.695 1267.77C685.19 1264.37 685.484 1260.89 686.554 1257.62C687.123 1255.73 687.937 1253.92 688.975 1252.23C697.188 1260.08 706.985 1266.07 717.708 1269.8C720.909 1271.21 723.017 1271.91 723.017 1271.91Z" fill="#263238"/>
<path d="M717.706 1269.88L714.193 1275.03C699.358 1269.65 689.598 1263.87 686.553 1257.7C687.122 1255.81 687.935 1254 688.973 1252.31C697.186 1260.15 706.984 1266.14 717.706 1269.88Z" fill="white"/>
<path d="M708.18 1288.31C692.564 1282.61 686.943 1274.8 685.693 1267.77C691.656 1270.09 697.176 1273.42 702.012 1277.61C705.141 1280.44 707.3 1284.18 708.18 1288.31Z" fill="#DE5753"/>
<path d="M749.799 1362.09L745.192 1402.54L829.518 1582.2L821.164 1606.01L793.601 1593.29L733.48 1410.03L689.287 1380.13L721.456 1362.48L749.799 1362.09Z" fill="#407BFF"/>
<path d="M661.178 1334.46L717.005 1357.49L719.269 1319.7L760.417 1329.85L763.93 1387.39L724.344 1371.23L707.791 1408.09L637.441 1361.08L661.178 1334.46Z" fill="#263238"/>
<path opacity="0.2" d="M661.178 1334.46L717.005 1357.49L719.269 1319.7L760.417 1329.85L763.93 1387.39L724.344 1371.23L707.791 1408.09L637.441 1361.08L661.178 1334.46Z" fill="white"/>
<path opacity="0.2" d="M610.503 1511.93C604.726 1496.73 599.156 1482.08 593.794 1467.97L579.428 1430.41L572.635 1412.61C580.443 1408.79 600.353 1411.05 605.897 1420.42C626.197 1455.87 610.503 1511.93 610.503 1511.93Z" fill="black"/>
<path opacity="0.2" d="M708.338 1551.59C705.003 1566.93 698.251 1581.32 688.585 1593.69C678.92 1606.06 666.589 1616.09 652.511 1623.04C643.219 1598.29 634.084 1574 625.183 1550.5C622.945 1544.46 620.68 1538.53 618.39 1532.7L610.582 1511.93L700.998 1523.41L708.338 1551.59Z" fill="black"/>
<path opacity="0.2" d="M926.492 1412.06C886.359 1403.47 844.509 1391.45 844.509 1391.45L839.277 1351.86C839.277 1351.86 913.063 1359.75 926.492 1412.06Z" fill="black"/>
<path d="M559.753 2334.58C557.305 2334.66 554.893 2333.97 552.857 2332.61C550.82 2331.25 549.261 2329.28 548.399 2326.99C547.538 2324.7 547.416 2322.19 548.052 2319.83C548.688 2317.46 550.05 2315.36 551.945 2313.81C682.26 2206.84 679.761 2039.2 677.341 1877.03C675.467 1754.76 673.749 1639.2 731.294 1560.65C812.028 1450.25 1136.76 1275.12 1190.56 1270.12C1229.05 1266.29 2403.13 939.999 3018.64 767.989C3021.63 767.151 3024.83 767.535 3027.54 769.058C3030.25 770.581 3032.24 773.117 3033.08 776.11C3033.92 779.102 3033.53 782.305 3032.01 785.014C3030.49 787.723 3027.95 789.716 3024.96 790.554C2952.11 810.933 1241 1289.01 1192.74 1293.46C1146.44 1297.76 824.989 1472.19 750.189 1574.55C697.329 1646.77 698.969 1758.51 700.765 1876.72C703.107 2036.62 705.84 2217.93 566.78 2332C564.788 2333.61 562.316 2334.52 559.753 2334.58Z" fill="#263238"/>
<path opacity="0.4" d="M3025.35 790.476L2864.82 835.45C2423.28 958.66 1232.95 1289.87 1193.13 1293.54C1146.83 1297.84 825.379 1472.27 750.579 1574.63C697.719 1646.85 699.359 1758.58 701.155 1876.8C703.497 2036.7 706.23 2218 567.17 2332.08C564.983 2333.89 562.203 2334.84 559.362 2334.73C556.914 2334.81 554.503 2334.13 552.466 2332.77C550.43 2331.41 548.871 2329.44 548.009 2327.15C547.147 2324.86 547.026 2322.35 547.662 2319.99C548.297 2317.62 549.659 2315.51 551.554 2313.96C681.869 2206.99 679.371 2039.36 676.95 1877.19C675.076 1754.91 673.358 1639.36 730.903 1560.81C811.637 1450.4 1136.37 1275.27 1190.17 1270.27C1226.4 1266.68 2266.57 977.945 2902.3 800.549L3018.25 768.146C3021.24 767.307 3024.44 767.691 3027.15 769.214C3029.86 770.737 3031.85 773.274 3032.69 776.266C3033.53 779.258 3033.14 782.461 3031.62 785.17C3030.1 787.879 3027.56 789.872 3024.57 790.711L3025.35 790.476Z" fill="white"/>
<path opacity="0.2" d="M3025.35 790.476L2864.82 835.45C2876.07 822.25 2888.92 810.5 2903.08 800.471L3019.02 768.068C3022.02 767.229 3025.22 767.613 3027.93 769.136C3030.64 770.659 3032.63 773.196 3033.47 776.188C3034.31 779.18 3033.92 782.383 3032.4 785.092C3030.88 787.801 3028.34 789.794 3025.35 790.633V790.476Z" fill="black"/>
<path d="M639.551 1528.79L700.921 1523.41C700.921 1523.41 733.012 1503.11 739.18 1504.43C745.349 1505.76 806.485 1535.67 806.485 1535.67C806.485 1535.67 778.767 1571.35 774.16 1578.77C769.553 1586.18 714.351 1551.2 714.351 1551.2L653.527 1557.68L639.551 1528.79Z" fill="#EBB376"/>
<path d="M559.753 1379.04C531.879 1398.95 459.265 1561.28 466.994 1586.34C474.724 1611.4 700.687 1561.98 700.687 1561.98L690.692 1519.74H569.123L598.012 1474.14C598.012 1474.14 615.814 1456.81 604.883 1416.52C596.997 1387.47 559.753 1379.04 559.753 1379.04Z" fill="#263238"/>
<path d="M2914.01 1395.36L2867.71 1373.42C2867.71 1373.42 2844.28 1328.6 2837.41 1321.41C2830.54 1314.23 2797.36 1342.11 2797.36 1346.95C2797.36 1351.79 2821.41 1397.07 2827.65 1399.81C2836.95 1401.17 2846.39 1401.17 2855.68 1399.81L2899.72 1421.12L2914.01 1395.36Z" fill="#9F5B53"/>
<path d="M3022.07 1117.63L3031.36 1084.44C3031.36 1084.44 3046.04 1041.19 3044.48 1031.19C3041.61 1019.37 3037.9 1007.75 3033.39 996.449C3033.39 996.449 2992.79 1045.87 2992.79 1052.04C2992.79 1058.21 3008.88 1080.62 3008.88 1080.62L3001.07 1117.63H3022.07Z" fill="#9F5B53"/>
<path d="M3057.75 1364.83C3057.75 1364.83 3022.77 1321.34 3012.47 1280.89C3002.16 1240.45 3033.31 1109.12 3033.31 1109.12L3000.44 1100.37C3000.44 1100.37 2961.4 1234.75 2960.07 1283.78C2958.75 1332.81 3031.67 1476.71 3031.67 1476.71L3057.75 1364.83Z" fill="#407BFF"/>
<path opacity="0.2" d="M3036.59 1455.09L3031.6 1476.4C3031.6 1476.4 3006.45 1426.82 2985.92 1375.91C3007.29 1391.26 3023.4 1412.83 3032.06 1437.67C3034.05 1443.35 3035.56 1449.17 3036.59 1455.09Z" fill="black"/>
<path d="M3242.96 1460.09C3242.52 1469.16 3241.42 1478.19 3239.68 1487.1C3236.09 1506.62 3230 1529.65 3223.05 1555.03C3219.3 1568.38 3215.24 1582.67 3211.65 1597.74C3194.24 1665.43 3184.79 1692.37 3171.91 1778.81L2924.78 1720.17C2938.14 1646.18 2958.51 1573.63 2985.61 1503.5C2992.79 1484.84 3001.22 1466.18 3009.73 1447.75C3023.38 1418.86 3039.44 1391.17 3057.75 1364.98C3057.75 1364.98 3097.73 1401.53 3223.28 1423.47C3238.51 1425.81 3243.74 1439.08 3242.96 1460.09Z" fill="#407BFF"/>
<path opacity="0.2" d="M3211.88 1431.9C3211.88 1439.71 3241.47 1476.87 3239.68 1486.55C3236.32 1488.82 3232.34 1491.32 3227.81 1494.36C3144.19 1543.01 3034.49 1518.33 2985.76 1503.26C2992.95 1484.6 3009.19 1450.33 3017.62 1431.9L3076.26 1444.94C3076.26 1444.94 3172.14 1423.08 3211.88 1431.9Z" fill="black"/>
<path d="M3111.39 1379.74C3120.37 1376.31 3194.08 1394.66 3188.61 1396.22C3183.15 1397.78 3155.66 1482.11 3117.17 1475.78C3078.68 1469.46 3079.38 1391.92 3111.39 1379.74Z" fill="#407BFF"/>
<path d="M2777.68 2761.36L2731.3 2771.43L2704.21 2664.78L2750.66 2654.7L2777.68 2761.36Z" fill="#9F5B53"/>
<path d="M2719.75 2752.07H2777.45C2778.39 2752.07 2779.3 2752.4 2780.02 2752.99C2780.75 2753.59 2781.25 2754.42 2781.43 2755.35L2790.8 2797.59C2791 2798.49 2791.03 2799.43 2790.87 2800.34C2790.71 2801.25 2790.36 2802.12 2789.86 2802.9C2789.36 2803.68 2788.71 2804.35 2787.94 2804.87C2787.18 2805.39 2786.32 2805.76 2785.41 2805.94H2783.85C2765.19 2805.94 2751.6 2804.46 2728.18 2804.46C2713.73 2804.46 2670.16 2805.94 2650.1 2805.94C2630.03 2805.94 2627.61 2786.27 2635.73 2784.47C2672.35 2776.66 2699.91 2765.42 2711.63 2754.96C2712.72 2753.96 2714 2753.19 2715.4 2752.7C2716.79 2752.2 2718.27 2751.99 2719.75 2752.07Z" fill="#263238"/>
<path d="M2704.05 2760.42C2700.82 2760.66 2697.6 2759.81 2694.92 2758C2694.04 2757.29 2693.37 2756.36 2692.96 2755.3C2692.54 2754.25 2692.41 2753.11 2692.57 2751.99C2692.54 2751.33 2692.7 2750.67 2693.03 2750.11C2693.36 2749.54 2693.86 2749.08 2694.45 2748.79C2699.76 2746.05 2715.06 2755.5 2716.78 2756.59C2716.98 2756.69 2717.14 2756.85 2717.24 2757.05C2717.33 2757.25 2717.37 2757.47 2717.33 2757.69C2717.3 2757.91 2717.2 2758.13 2717.05 2758.29C2716.89 2758.46 2716.69 2758.58 2716.47 2758.63C2712.41 2759.69 2708.24 2760.29 2704.05 2760.42ZM2696.95 2750.58C2696.49 2750.43 2696 2750.43 2695.54 2750.58C2695.54 2750.58 2694.84 2750.97 2694.76 2751.91C2694.68 2752.65 2694.78 2753.4 2695.05 2754.09C2695.32 2754.79 2695.76 2755.4 2696.32 2755.89C2701.63 2758.32 2707.66 2758.63 2713.19 2756.75C2708.22 2753.66 2702.71 2751.57 2696.95 2750.58Z" fill="#407BFF"/>
<path d="M2716.15 2758.7H2715.61C2710.77 2756.05 2701.24 2745.59 2702.18 2740.59C2702.36 2739.75 2702.82 2739 2703.49 2738.46C2704.16 2737.92 2704.99 2737.62 2705.85 2737.62C2706.7 2737.51 2707.57 2737.58 2708.39 2737.84C2709.21 2738.1 2709.97 2738.53 2710.61 2739.11C2716.08 2743.56 2717.25 2757.22 2717.33 2757.84C2717.34 2758.05 2717.29 2758.25 2717.2 2758.43C2717.1 2758.61 2716.96 2758.76 2716.78 2758.86C2716.67 2758.89 2716.55 2758.9 2716.44 2758.87C2716.33 2758.84 2716.23 2758.78 2716.15 2758.7ZM2706.63 2739.42H2706.08C2704.6 2739.42 2704.52 2740.28 2704.44 2740.59C2703.82 2743.71 2709.91 2751.6 2714.75 2755.27C2714.48 2749.94 2712.6 2744.82 2709.36 2740.59C2709.01 2740.22 2708.59 2739.92 2708.12 2739.72C2707.65 2739.52 2707.14 2739.42 2706.63 2739.42Z" fill="#407BFF"/>
<path d="M3173.93 1785.29C3173.93 1785.29 3133.88 1976.27 3040.18 2027.33C3029.43 2033.38 3017.65 2037.38 3005.44 2039.12C3005.44 2039.12 2910.42 2078.16 2828.28 2115.09C2778.31 2137.66 2733.1 2159.68 2716.93 2172.01C2674.15 2204.57 2778.93 2712.87 2778.93 2712.87L2707.72 2713.65C2707.72 2713.65 2557.89 2263.6 2582.79 2145.47C2607.7 2027.33 2876.61 1846.5 2876.61 1846.5L2917.99 1732.66L3173.93 1785.29Z" fill="#263238"/>
<path opacity="0.2" d="M3040.19 2027.57C3029.43 2033.61 3017.65 2037.61 3005.44 2039.36C3005.44 2039.36 2910.42 2078.4 2828.28 2115.33C2881.14 2018.12 2975.38 1954.95 2975.38 1954.95L3040.19 2027.57Z" fill="black"/>
<path d="M3374.68 2761.36L3328.3 2771.43L3301.21 2664.78L3347.66 2654.7L3374.68 2761.36Z" fill="#9F5B53"/>
<path d="M3316.74 2752.07H3374.44C3375.38 2752.07 3376.29 2752.4 3377.02 2752.99C3377.75 2753.59 3378.24 2754.42 3378.42 2755.35L3387.79 2797.59C3388 2798.49 3388.02 2799.43 3387.86 2800.34C3387.7 2801.25 3387.36 2802.12 3386.86 2802.9C3386.36 2803.68 3385.7 2804.35 3384.94 2804.87C3384.18 2805.39 3383.31 2805.76 3382.41 2805.94H3380.84C3362.18 2805.94 3348.6 2804.46 3325.17 2804.46C3310.73 2804.46 3267.16 2805.94 3247.09 2805.94C3227.03 2805.94 3224.61 2786.27 3232.73 2784.47C3269.35 2776.66 3296.91 2765.42 3308.62 2754.96C3309.72 2753.96 3311 2753.19 3312.39 2752.7C3313.79 2752.2 3315.26 2751.99 3316.74 2752.07Z" fill="#263238"/>
<path d="M3301.05 2760.42C3297.82 2760.66 3294.6 2759.81 3291.91 2758C3291.04 2757.29 3290.36 2756.36 3289.95 2755.3C3289.54 2754.25 3289.41 2753.11 3289.57 2751.99C3289.53 2751.33 3289.69 2750.67 3290.03 2750.11C3290.36 2749.54 3290.85 2749.08 3291.44 2748.79C3296.75 2746.05 3312.06 2755.5 3313.78 2756.59C3313.97 2756.69 3314.13 2756.85 3314.23 2757.05C3314.33 2757.25 3314.36 2757.47 3314.32 2757.69C3314.29 2757.91 3314.2 2758.13 3314.04 2758.29C3313.89 2758.46 3313.69 2758.58 3313.46 2758.63C3309.4 2759.69 3305.24 2760.29 3301.05 2760.42ZM3293.94 2750.58C3293.49 2750.43 3292.99 2750.43 3292.54 2750.58C3292.54 2750.58 3291.83 2750.97 3291.76 2751.91C3291.68 2752.65 3291.78 2753.4 3292.05 2754.09C3292.32 2754.79 3292.76 2755.4 3293.32 2755.89C3298.63 2758.32 3304.66 2758.63 3310.18 2756.75C3305.22 2753.66 3299.7 2751.57 3293.94 2750.58Z" fill="#407BFF"/>
<path d="M3313.15 2758.7H3312.6C3307.76 2756.05 3298.24 2745.59 3299.17 2740.59C3299.35 2739.75 3299.81 2739 3300.48 2738.46C3301.15 2737.92 3301.98 2737.62 3302.84 2737.62C3303.7 2737.51 3304.57 2737.58 3305.39 2737.84C3306.21 2738.1 3306.97 2738.53 3307.61 2739.11C3313.07 2743.56 3314.24 2757.22 3314.32 2757.84C3314.33 2758.05 3314.29 2758.25 3314.19 2758.43C3314.1 2758.61 3313.95 2758.76 3313.77 2758.86C3313.67 2758.89 3313.55 2758.9 3313.44 2758.87C3313.33 2758.84 3313.23 2758.78 3313.15 2758.7ZM3303.62 2739.42H3302.77C3301.28 2739.42 3301.2 2740.28 3301.13 2740.59C3300.5 2743.71 3306.59 2751.6 3311.43 2755.27C3311.13 2749.86 3309.17 2744.68 3305.81 2740.43C3305.21 2739.86 3304.44 2739.51 3303.62 2739.42Z" fill="#407BFF"/>
<path d="M3189.94 1420.18C3178.31 1427.99 3124.67 1425.02 3124.67 1425.02L3099.76 1452.27L3097.34 1407.22C3097.34 1407.22 3080.55 1400.27 3085.16 1395.43C3091 1395.87 3096.87 1395.13 3102.42 1393.27C3107.97 1391.4 3113.09 1388.45 3117.48 1384.58C3128.34 1373.96 3130.45 1356.86 3130.29 1339.92C3130.29 1339.92 3130.29 1339.45 3130.29 1339.29L3176.12 1315.87L3207.82 1299.55C3192.91 1331.72 3171.59 1392.07 3189.94 1420.18Z" fill="#9F5B53"/>
<path opacity="0.2" d="M3191.27 1326.57C3176.12 1364.9 3136.61 1382 3117.17 1384.5C3128.02 1373.88 3130.13 1356.78 3129.97 1339.84C3130.01 1339.61 3130.01 1339.37 3129.97 1339.14L3175.81 1315.71C3175.89 1321.96 3193.45 1320.71 3191.27 1326.57Z" fill="black"/>
<path d="M3220.39 1325.01C3220.39 1325.01 3250.14 1340.63 3260.06 1321.96C3269.97 1303.3 3255.84 1302.21 3270.44 1295.5C3285.04 1288.78 3305.81 1284.1 3301.05 1269.96C3296.29 1255.83 3281.53 1254.35 3297.93 1238.73C3314.32 1223.12 3317.91 1201.1 3293.4 1196.8C3268.88 1192.51 3278.25 1173.38 3277 1165.57C3275.75 1157.76 3262.01 1152.3 3247.1 1155.42C3232.18 1158.54 3225.94 1136.45 3216.72 1129.58C3207.51 1122.71 3194.78 1131.14 3191.42 1140.43C3188.07 1149.72 3179.24 1137.38 3166.13 1135.82C3153.01 1134.26 3156.05 1148.08 3151.99 1160.96C3147.93 1173.85 3139.89 1165.49 3130.52 1176.11C3121.15 1186.73 3120.29 1259.19 3220.39 1325.01Z" fill="#263238"/>
<path d="M3233.35 1280.5C3210.94 1315.64 3198.22 1338.83 3173.08 1350.22C3169.69 1351.79 3166.19 1353.09 3162.61 1354.13C3113.74 1368.5 3073.45 1321.41 3086.33 1274.8C3088.78 1266.39 3091.91 1258.19 3095.7 1250.28C3113.19 1213.66 3146.84 1176.19 3187.05 1181.1C3195.45 1182.06 3203.57 1184.67 3210.96 1188.77C3218.35 1192.88 3224.85 1198.4 3230.1 1205.02C3235.36 1211.64 3239.25 1219.24 3241.56 1227.36C3243.87 1235.49 3244.56 1244 3243.58 1252.39C3242.4 1262.43 3238.9 1272.05 3233.35 1280.5Z" fill="#9F5B53"/>
<path d="M3164.56 1257.08C3162.93 1260.59 3159.41 1262.16 3157.23 1260.98C3155.04 1259.81 3154.8 1255.99 3156.6 1252.71C3158.4 1249.43 3161.83 1247.63 3163.94 1248.8C3166.05 1249.98 3166.44 1253.88 3164.56 1257.08Z" fill="#263238"/>
<path d="M3126.7 1236.23C3126.21 1237.7 3125.17 1238.92 3123.8 1239.63C3122.43 1240.35 3120.84 1240.5 3119.36 1240.06C3117.25 1238.81 3116.94 1235.14 3118.81 1231.78C3120.68 1228.42 3123.96 1226.71 3126.15 1227.95C3128.34 1229.2 3128.49 1233.03 3126.7 1236.23Z" fill="#263238"/>
<path d="M3137.86 1244.59C3128.16 1252.56 3117.42 1259.18 3105.93 1264.26C3107.3 1267.18 3109.3 1269.77 3111.78 1271.83C3114.26 1273.9 3117.17 1275.39 3120.29 1276.21L3137.86 1244.59Z" fill="#892B29"/>
<path d="M3187.21 1248.34C3186.8 1248.4 3186.38 1248.35 3186 1248.2C3185.62 1248.05 3185.28 1247.8 3185.02 1247.48C3183.44 1245.14 3181.33 1243.22 3178.86 1241.86C3176.39 1240.5 3173.63 1239.75 3170.81 1239.67C3170.48 1239.73 3170.15 1239.72 3169.83 1239.64C3169.5 1239.55 3169.2 1239.4 3168.95 1239.19C3168.69 1238.97 3168.49 1238.71 3168.34 1238.41C3168.2 1238.11 3168.13 1237.78 3168.13 1237.44C3168.13 1237.11 3168.2 1236.78 3168.34 1236.48C3168.49 1236.18 3168.69 1235.91 3168.95 1235.7C3169.2 1235.49 3169.5 1235.34 3169.83 1235.25C3170.15 1235.17 3170.48 1235.16 3170.81 1235.22C3174.37 1235.24 3177.87 1236.13 3181.01 1237.8C3184.15 1239.47 3186.84 1241.88 3188.85 1244.82C3189.03 1245.05 3189.17 1245.31 3189.25 1245.6C3189.33 1245.88 3189.35 1246.18 3189.32 1246.47C3189.28 1246.76 3189.19 1247.04 3189.04 1247.29C3188.89 1247.55 3188.69 1247.77 3188.46 1247.95C3188.08 1248.18 3187.65 1248.31 3187.21 1248.34Z" fill="#263238"/>
<path d="M3129.43 1297.13C3134.67 1298.84 3140.25 1299.25 3145.69 1298.34C3151.12 1297.43 3156.26 1295.22 3160.66 1291.9C3160.86 1291.67 3160.97 1291.38 3160.97 1291.08C3160.97 1290.78 3160.86 1290.49 3160.66 1290.26C3160.44 1290.05 3160.15 1289.93 3159.84 1289.93C3159.54 1289.93 3159.24 1290.05 3159.02 1290.26C3154.85 1293.26 3150.04 1295.24 3144.98 1296.05C3139.91 1296.87 3134.72 1296.49 3129.82 1294.95C3129.68 1294.88 3129.53 1294.85 3129.38 1294.86C3129.23 1294.86 3129.09 1294.9 3128.95 1294.96C3128.82 1295.03 3128.7 1295.13 3128.61 1295.25C3128.51 1295.36 3128.45 1295.5 3128.42 1295.65C3128.35 1295.79 3128.32 1295.93 3128.33 1296.08C3128.33 1296.24 3128.37 1296.38 3128.43 1296.52C3128.5 1296.65 3128.6 1296.77 3128.72 1296.86C3128.83 1296.96 3128.97 1297.02 3129.12 1297.05L3129.43 1297.13Z" fill="#263238"/>
<path d="M3123.18 1203.83C3123.06 1203.39 3123.06 1202.94 3123.18 1202.5C3123.44 1201.97 3123.89 1201.55 3124.44 1201.35C3125 1201.15 3125.61 1201.17 3126.15 1201.41C3129.43 1202.87 3132.3 1205.11 3134.53 1207.92C3136.76 1210.74 3138.28 1214.05 3138.96 1217.57C3139.02 1218.16 3138.85 1218.75 3138.49 1219.22C3138.12 1219.69 3137.59 1219.99 3137 1220.07C3136.41 1220.14 3135.82 1219.97 3135.36 1219.6C3134.89 1219.24 3134.58 1218.7 3134.51 1218.12C3133.89 1215.36 3132.64 1212.79 3130.85 1210.6C3129.06 1208.42 3126.78 1206.69 3124.2 1205.55C3123.92 1205.34 3123.69 1205.09 3123.51 1204.79C3123.34 1204.5 3123.23 1204.17 3123.18 1203.83Z" fill="#263238"/>
<path d="M3155.35 1184.39C3166.75 1185.79 3172.37 1200 3172.37 1200C3186.16 1205.04 3199.48 1211.26 3212.19 1218.58C3216.07 1221.75 3218.99 1225.93 3220.62 1230.66C3222.24 1235.39 3222.52 1240.49 3221.41 1245.37C3221.02 1249.11 3211.8 1252.55 3211.8 1252.55C3211.8 1252.55 3194.94 1292.37 3190.33 1303.38L3192.67 1340.15C3223.67 1320.56 3248.49 1292.59 3264.27 1259.5C3290.9 1204.06 3179.79 1155.26 3179.79 1155.26L3155.35 1184.39Z" fill="#263238"/>
<path d="M3226.64 1336.1C3216.25 1341.78 3204.04 1343.13 3192.67 1339.84C3177.6 1335.32 3178.46 1319.86 3189.63 1309.94C3199.62 1301.35 3219.69 1292.84 3231.32 1302.83C3233.87 1305.01 3235.83 1307.79 3237.01 1310.92C3238.2 1314.05 3238.57 1317.43 3238.11 1320.75C3237.64 1324.07 3236.34 1327.21 3234.34 1329.89C3232.33 1332.58 3229.69 1334.71 3226.64 1336.1Z" fill="#9F5B53"/>
<path d="M3188.61 1396.21L3126.54 1414.09L3099.76 1450.4L3107.02 1405.97C3107.02 1405.97 3100.38 1395.74 3111.39 1379.74L3073.6 1387.55L3050.8 1425.65L3095.15 1415.26L3098.2 1459.54L3124.04 1429.08L3145.2 1462.5L3208.13 1422.6L3188.61 1396.21Z" fill="#407BFF"/>
<path opacity="0.2" d="M3188.61 1396.21L3126.54 1414.09L3099.76 1450.4L3107.02 1405.97C3107.02 1405.97 3100.38 1395.74 3111.39 1379.74L3073.6 1387.55L3050.8 1425.65L3095.15 1415.26L3098.2 1459.54L3124.04 1429.08L3145.2 1462.5L3208.13 1422.6L3188.61 1396.21Z" fill="black"/>
<path d="M2928.06 1694.32L2918.38 1732.9L3173.86 1785.29L3177.68 1742.42L2928.06 1694.32Z" fill="black"/>
<path d="M3042.14 1714.54C3040.11 1711.66 2983.26 1699.4 2977.88 1703.46C2977.88 1703.46 2966.87 1741.48 2968.74 1745.46C2970.62 1749.45 3025.9 1757.18 3031.21 1758.27C3036.52 1759.36 3044.17 1717.75 3042.14 1714.54ZM3026.52 1753.58C3022.3 1752.72 2976.86 1746.4 2975.3 1743.12C2973.74 1739.84 2983.11 1708.61 2983.11 1708.61C2987.56 1705.25 3034.25 1715.32 3035.89 1717.67C3037.53 1720.01 3030.74 1754.05 3026.52 1753.19V1753.58Z" fill="white"/>
<path d="M3028.71 1727.51L3017.39 1725.16C3016.35 1724.97 3015.29 1725.16 3014.39 1725.71C3013.5 1726.26 3012.84 1727.12 3012.54 1728.13C3012.38 1728.7 3012.34 1729.29 3012.42 1729.87C3012.5 1730.45 3012.7 1731.01 3013.01 1731.51C3013.32 1732.01 3013.73 1732.44 3014.21 1732.77C3014.7 1733.11 3015.25 1733.33 3015.82 1733.44L3027.15 1735.63C3028.24 1735.84 3029.38 1735.62 3030.31 1735C3031.24 1734.37 3031.89 1733.41 3032.1 1732.31C3032.32 1731.21 3032.09 1730.07 3031.47 1729.14C3030.85 1728.21 3029.88 1727.57 3028.79 1727.35L3028.71 1727.51Z" fill="white"/>
<path d="M3173.86 1785.29C3173.86 1785.29 3178.78 2074.18 3170.66 2158.51C3162.54 2242.83 3373.04 2704.36 3373.04 2704.36H3304.87C3304.87 2704.36 3098.35 2366.43 3051.04 2262.43C3003.72 2158.43 2968.74 1910.29 2968.74 1910.29L3173.86 1785.29Z" fill="#263238"/>
<path d="M3243.82 1439.78C3233.28 1415.89 3071.42 1451.26 3056.82 1447.12C3042.22 1442.99 2890.27 1379.35 2890.27 1379.35L2877.08 1413.24C2877.08 1413.24 3013.33 1491.32 3043.15 1503.65C3072.98 1515.99 3192.21 1510.06 3222.74 1496.86C3227.96 1494.61 3232.67 1491.32 3236.59 1487.19C3240.5 1483.06 3243.54 1478.18 3245.51 1472.84C3247.48 1467.5 3248.35 1461.82 3248.06 1456.14C3247.77 1450.46 3246.32 1444.89 3243.82 1439.78Z" fill="#407BFF"/>
<path d="M3215.16 819.287L3166.13 506.969L2907.84 689.597L2993.73 725.982C2910.81 916.027 2641.82 1472.81 2178.97 1883.35C1587.98 2407.66 760.808 2665.63 752.531 2668.13L798.286 2817.5C833.422 2806.72 1665.59 2547.5 2282.89 1999.93C2774.79 1563.62 3051.35 988.172 3138.18 786.727L3215.16 819.287Z" fill="#407BFF"/>
<path opacity="0.4" d="M3168.31 764.631L3166.13 506.969L2907.84 689.597L2993.73 725.982C2910.81 916.027 2641.82 1472.81 2178.97 1883.35C1587.98 2407.66 760.808 2665.63 752.531 2668.13L767.054 2762.84C802.19 2752.07 1634.36 2516.27 2251.66 1968.69C2743.56 1532.39 3004.5 949.133 3091.33 747.688L3168.31 764.631Z" fill="white"/>
<path d="M3123.18 832.486C3121.97 832.496 3120.75 832.311 3119.59 831.939L2969.6 783.452C2968.06 783.052 2966.61 782.34 2965.35 781.361C2964.09 780.381 2963.04 779.154 2962.27 777.756C2961.51 776.357 2961.03 774.816 2960.88 773.227C2960.73 771.638 2960.9 770.035 2961.39 768.516C2961.88 766.998 2962.68 765.595 2963.73 764.395C2964.78 763.194 2966.07 762.222 2967.51 761.537C2968.95 760.851 2970.52 760.468 2972.11 760.41C2973.71 760.352 2975.3 760.621 2976.79 761.199L3126.78 809.609C3129.45 810.454 3131.73 812.229 3133.2 814.611C3134.67 816.992 3135.24 819.824 3134.81 822.591C3134.38 825.358 3132.96 827.878 3130.83 829.693C3128.7 831.509 3125.99 832.499 3123.18 832.486Z" fill="#263238"/>
<path opacity="0.4" d="M3123.18 832.486C3121.97 832.496 3120.75 832.311 3119.59 831.939L2969.6 783.452C2968.06 783.052 2966.61 782.34 2965.35 781.361C2964.09 780.381 2963.04 779.154 2962.27 777.756C2961.51 776.357 2961.03 774.816 2960.88 773.227C2960.73 771.638 2960.9 770.035 2961.39 768.516C2961.88 766.998 2962.68 765.595 2963.73 764.395C2964.78 763.194 2966.07 762.222 2967.51 761.537C2968.95 760.851 2970.52 760.468 2972.11 760.41C2973.71 760.352 2975.3 760.621 2976.79 761.199L3126.78 809.609C3129.45 810.454 3131.73 812.229 3133.2 814.611C3134.67 816.992 3135.24 819.824 3134.81 822.591C3134.38 825.358 3132.96 827.878 3130.83 829.693C3128.7 831.509 3125.99 832.499 3123.18 832.486Z" fill="white"/>
<path d="M1326.81 2294.13C1323.7 2294.13 1320.72 2292.89 1318.53 2290.7C1316.33 2288.5 1315.1 2285.52 1315.1 2282.42C1315.1 1909.66 1423.39 1860.79 1443.69 1854.77L1788.02 1613.9L1788.8 1613.43L3111.63 829.044C3114.3 827.523 3117.46 827.112 3120.43 827.898C3123.39 828.684 3125.94 830.604 3127.5 833.246C3129.07 835.887 3129.53 839.038 3128.8 842.02C3128.07 845.002 3126.19 847.576 3123.58 849.188L1801.38 1633.34L1455.4 1875.39C1453.93 1876.41 1452.25 1877.1 1450.49 1877.42C1449.63 1877.42 1338.52 1904.74 1338.52 2282.65C1338.46 2285.71 1337.2 2288.63 1335.01 2290.78C1332.82 2292.93 1329.87 2294.13 1326.81 2294.13Z" fill="#263238"/>
<path opacity="0.4" d="M1326.81 2294.13C1323.7 2294.13 1320.72 2292.89 1318.53 2290.7C1316.33 2288.5 1315.1 2285.52 1315.1 2282.42C1315.1 1909.66 1423.39 1860.79 1443.69 1854.77L1788.02 1613.9L1788.8 1613.43L3111.63 829.044C3114.3 827.523 3117.46 827.112 3120.43 827.898C3123.39 828.684 3125.94 830.604 3127.5 833.246C3129.07 835.887 3129.53 839.038 3128.8 842.02C3128.07 845.002 3126.19 847.576 3123.58 849.188L1801.38 1633.34L1455.4 1875.39C1453.93 1876.41 1452.25 1877.1 1450.49 1877.42C1449.63 1877.42 1338.52 1904.74 1338.52 2282.65C1338.46 2285.71 1337.2 2288.63 1335.01 2290.78C1332.82 2292.93 1329.87 2294.13 1326.81 2294.13Z" fill="white"/>
<path d="M1416.76 1907.32C1416.76 1907.32 1356.56 1946.36 1310.8 1958.15C1299.51 1961.97 1287.39 1962.64 1275.74 1960.1C1241.7 1949.33 1261.92 1883.43 1282.22 1841.81C1285.5 1835.02 1288.78 1828.93 1291.83 1823.78L1351.33 1860.55C1351.33 1860.55 1315.25 1912.01 1319.39 1915.21C1323.53 1918.41 1379.12 1887.41 1381.85 1886.4C1384.59 1885.38 1416.76 1907.32 1416.76 1907.32Z" fill="#407BFF"/>
<path opacity="0.2" d="M1416.75 1907.32C1416.75 1907.32 1356.55 1946.36 1310.8 1958.15C1298.1 1920.22 1288.54 1881.31 1282.22 1841.81C1285.5 1835.02 1288.78 1828.93 1291.83 1823.78L1351.32 1860.55C1351.32 1860.55 1315.25 1912.01 1319.39 1915.21C1323.53 1918.41 1379.12 1887.41 1381.85 1886.4C1384.58 1885.38 1416.75 1907.32 1416.75 1907.32Z" fill="black"/>
<path d="M1709.94 1680.74L1745.24 1649.5C1748.06 1640.59 1751.94 1632.04 1756.79 1624.05C1760.62 1620.85 1824.88 1615.85 1824.88 1615.85C1824.88 1615.85 1826.13 1649.82 1821.05 1658.64C1815.98 1667.46 1763.51 1671.29 1763.51 1671.29L1735.4 1698.38L1709.94 1680.74Z" fill="#EEC1BB"/>
<path d="M1897.96 2420.85C1887.89 2565.77 1860.95 2771.43 1860.95 2771.43L1826.28 2779.24C1826.28 2779.24 1794.27 2607.07 1799.35 2447.32C1800.25 2412.5 1803.54 2377.77 1809.18 2343.4C1809.18 2343.4 1689.1 2297.25 1605.71 2255.95C1565.89 2236.27 1534.42 2217.61 1528.41 2205.59C1509.83 2168.5 1594.31 2081.36 1594.31 2081.36C1596.96 2083.47 1647.95 2115.95 1707.29 2154.45C1786.07 2205.51 1879.53 2267.19 1894.68 2282.57C1903.74 2291.4 1902.96 2348.55 1897.96 2420.85Z" fill="#EEC1BB"/>
<path opacity="0.2" d="M1897.96 2420.85C1865.91 2432.47 1832.92 2441.28 1799.34 2447.17C1800.25 2412.34 1803.54 2377.62 1809.18 2343.24C1809.18 2343.24 1689.1 2297.1 1605.71 2255.79L1707.21 2154.29C1785.99 2205.35 1879.45 2267.04 1894.6 2282.42C1903.74 2291.4 1902.96 2348.55 1897.96 2420.85Z" fill="black"/>
<path d="M1627.65 2057.16C1627.65 2057.16 1960.81 2248.69 2006.1 2291.95C2051.39 2335.2 2312.8 2739.42 2312.8 2739.42L2290.78 2760.42C2290.78 2760.42 2073.72 2574.12 1987.13 2397.04L1627.96 2223.47L1627.65 2057.16Z" fill="#EEC1BB"/>
<path d="M1374.2 1703.53C1374.74 1703.91 1375.32 1704.22 1375.92 1704.47C1384.1 1709.11 1393.13 1712.05 1402.47 1713.14C1429.64 1715.56 1447.13 1709.47 1457.12 1695.88C1471.02 1675.74 1470.71 1643.57 1463.06 1605.7C1460.52 1590.55 1455.6 1575.89 1448.46 1562.29C1448.46 1562.29 1448.46 1561.74 1448.46 1561.66L1447.52 1560.1C1443.17 1552.48 1436.99 1546.08 1429.53 1541.47C1422.07 1536.86 1413.57 1534.19 1404.81 1533.71C1397.18 1533.08 1389.51 1533.29 1381.93 1534.34C1307.76 1543.94 1311.74 1669.02 1374.2 1703.53Z" fill="#EEC1BB"/>
<path opacity="0.2" d="M1376.23 1704.47C1384.43 1708.85 1393.44 1711.51 1402.7 1712.28C1429.8 1714.7 1447.21 1707.68 1457.36 1694.01C1442.17 1700.06 1425.43 1701.02 1409.65 1696.74C1403.86 1695.4 1397.84 1695.4 1392.05 1696.74C1386.26 1698.08 1380.85 1700.73 1376.23 1704.47Z" fill="black"/>
<path d="M1371.24 1765.53C1364.75 1786.45 1391.54 1797.54 1391.54 1797.54C1438.38 1781.93 1448.92 1759.05 1448.92 1759.05C1413.01 1735.62 1428.78 1681.44 1428.78 1681.44L1420.97 1684.56L1366.32 1690.34C1366.32 1690.34 1378.73 1720.24 1380.14 1726.96C1387.01 1762.17 1371.24 1765.53 1371.24 1765.53Z" fill="#EBB376"/>
<path d="M1448.92 1561.59C1448.92 1561.59 1460.32 1613.2 1414.02 1642.48C1414.02 1642.48 1400.36 1699.71 1369.2 1704.94C1326.73 1711.97 1280.74 1656.61 1286.83 1592.74C1294.8 1510.13 1415.19 1486.63 1448.92 1561.59Z" fill="#263238"/>
<path d="M1436.67 1624.05C1435.49 1616.24 1427.06 1603.12 1414.65 1606.79C1402.23 1610.46 1399.03 1643.8 1432.29 1646.54C1437.37 1647.47 1439.4 1641.23 1436.67 1624.05Z" fill="#EBB376"/>
<path d="M2298.27 2714.59L2262.36 2742.23C2261.62 2742.82 2261.11 2743.64 2260.89 2744.56C2260.68 2745.48 2260.78 2746.45 2261.18 2747.3L2279.46 2786.34C2279.85 2787.17 2280.4 2787.91 2281.08 2788.52C2281.76 2789.14 2282.56 2789.61 2283.42 2789.91C2284.28 2790.22 2285.2 2790.35 2286.11 2790.3C2287.03 2790.25 2287.92 2790.02 2288.75 2789.62C2289.21 2789.41 2289.66 2789.15 2290.07 2788.84C2304.6 2777.21 2305.07 2775.41 2323.57 2761.2C2334.89 2752.46 2370.42 2727.16 2386.03 2715.06C2401.65 2702.95 2391.81 2685.86 2384.32 2689.37C2350.59 2704.98 2321.85 2713.34 2306.24 2712.17C2303.37 2711.95 2300.53 2712.81 2298.27 2714.59Z" fill="#263238"/>
<path d="M2306.08 2713.88C2305.88 2713.98 2305.66 2714.01 2305.44 2713.98C2305.22 2713.94 2305.02 2713.84 2304.86 2713.69C2304.7 2713.54 2304.59 2713.34 2304.54 2713.12C2304.49 2712.91 2304.51 2712.68 2304.6 2712.48C2305.3 2710.6 2311.71 2693.82 2317.48 2692.8C2318.12 2692.66 2318.79 2692.72 2319.4 2692.95C2320.01 2693.19 2320.54 2693.6 2320.92 2694.13C2321.72 2694.92 2322.3 2695.9 2322.61 2696.98C2322.93 2698.06 2322.96 2699.2 2322.71 2700.3C2321.79 2703.49 2319.77 2706.25 2317.01 2708.11C2313.6 2710.44 2309.94 2712.38 2306.08 2713.88ZM2307.72 2710.68C2313.23 2708.81 2317.82 2704.9 2320.53 2699.75C2320.68 2699.01 2320.65 2698.25 2320.43 2697.52C2320.21 2696.8 2319.82 2696.14 2319.28 2695.61C2318.65 2694.99 2318.11 2694.83 2317.87 2695.07C2317.39 2695.16 2316.93 2695.37 2316.55 2695.69C2312.68 2700.08 2309.69 2705.17 2307.72 2710.68Z" fill="#407BFF"/>
<path d="M2306 2714.27C2305.81 2714.28 2305.62 2714.24 2305.44 2714.16C2305.26 2714.08 2305.11 2713.96 2304.99 2713.81C2304.99 2713.26 2297.18 2701.78 2298.82 2694.91C2299.01 2694.07 2299.36 2693.28 2299.85 2692.59C2300.35 2691.89 2300.98 2691.3 2301.71 2690.85C2302.37 2690.32 2303.2 2690.03 2304.05 2690.03C2304.9 2690.03 2305.73 2690.32 2306.39 2690.85C2310.22 2694.21 2309.05 2708.18 2306.78 2713.26L2306.39 2713.65L2306 2714.27ZM2300.77 2695.07C2300.75 2700.46 2302.36 2705.74 2305.38 2710.21C2307.24 2704.38 2306.97 2698.06 2304.6 2692.41C2304.6 2692.41 2303.74 2691.55 2302.65 2692.41H2302.18C2301.4 2693.1 2300.91 2694.04 2300.77 2695.07Z" fill="#407BFF"/>
<path d="M1867.04 2748.4L1821.68 2749.25C1820.75 2749.3 1819.86 2749.66 1819.15 2750.27C1818.45 2750.88 1817.96 2751.7 1817.77 2752.61L1809.26 2794.85C1809.01 2796.62 1809.44 2798.41 1810.47 2799.86C1811.51 2801.32 1813.06 2802.32 1814.81 2802.66C1815.32 2802.74 1815.85 2802.74 1816.37 2802.66C1834.87 2801.96 1836.36 2800.79 1859.7 2800.32C1874.07 2800.32 1917.4 2800.71 1937.23 2800.32C1957.07 2799.93 1959.25 2780.25 1951.13 2778.61C1914.51 2771.43 1886.95 2760.97 1875.08 2750.74C1872.8 2748.96 1869.92 2748.12 1867.04 2748.4Z" fill="#263238"/>
<path d="M1871.1 2753.39C1870.87 2753.36 1870.66 2753.25 1870.51 2753.08C1870.35 2752.91 1870.26 2752.69 1870.24 2752.46C1870.18 2752.25 1870.2 2752.03 1870.28 2751.83C1870.37 2751.63 1870.52 2751.46 1870.71 2751.36C1872.35 2750.27 1887.42 2740.59 1892.73 2743.16C1893.33 2743.44 1893.84 2743.87 1894.2 2744.43C1894.56 2744.98 1894.76 2745.63 1894.76 2746.29C1894.91 2747.4 1894.79 2748.53 1894.39 2749.58C1894 2750.63 1893.34 2751.57 1892.49 2752.3C1889.87 2754.19 1886.67 2755.1 1883.44 2754.88C1879.28 2754.85 1875.14 2754.36 1871.1 2753.39ZM1874.3 2751.75C1879.84 2753.53 1885.85 2753.11 1891.09 2750.58C1891.64 2750.07 1892.06 2749.44 1892.3 2748.73C1892.55 2748.02 1892.62 2747.26 1892.49 2746.52C1892.49 2745.66 1892.03 2745.27 1891.79 2745.27C1891.3 2745.16 1890.8 2745.16 1890.31 2745.27C1884.61 2746.41 1879.18 2748.61 1874.3 2751.75Z" fill="#407BFF"/>
<path d="M1870.79 2753.63C1870.61 2753.54 1870.46 2753.39 1870.36 2753.21C1870.26 2753.03 1870.22 2752.82 1870.24 2752.61C1870.24 2751.99 1871.1 2738.4 1876.49 2733.8C1877.13 2733.22 1877.88 2732.79 1878.71 2732.53C1879.53 2732.27 1880.4 2732.2 1881.25 2732.31C1882.1 2732.29 1882.94 2732.57 1883.61 2733.1C1884.28 2733.63 1884.74 2734.37 1884.92 2735.2C1885.94 2740.12 1877.11 2750.82 1871.88 2753.47H1871.34C1871.18 2753.59 1870.98 2753.65 1870.79 2753.63ZM1877.97 2735.12C1874.75 2739.45 1872.9 2744.65 1872.66 2750.04C1877.5 2746.29 1883.36 2738.25 1882.66 2735.2C1882.66 2735.2 1882.66 2734.11 1881.02 2734.11H1880.47C1879.54 2734.13 1878.65 2734.49 1877.97 2735.12Z" fill="#407BFF"/>
<path d="M1618.36 2005.86L1453.06 2075.27C1384.74 1905.45 1291.83 1823.78 1291.83 1823.78C1358.04 1744.37 1480.31 1707.83 1480.31 1707.83C1498.37 1722.53 1513.95 1740.03 1526.46 1759.67C1540.24 1781.01 1552.26 1803.44 1562.37 1826.74C1586.93 1884.44 1605.69 1944.44 1618.36 2005.86Z" fill="#407BFF"/>
<path d="M1447.36 1596.1C1447.36 1596.1 1499.29 1543.16 1449.55 1508.26C1399.81 1473.36 1350.47 1519.97 1350.47 1519.97C1350.47 1519.97 1232.33 1549.72 1258.25 1628.19C1284.18 1706.66 1300.73 1713.14 1263.64 1753.9C1226.55 1794.65 1188.76 1854.78 1227.49 1892.64C1266.22 1930.51 1399.74 1889.91 1439.79 1831.82C1479.84 1773.73 1406.92 1650.6 1447.36 1596.1Z" fill="#263238"/>
<path d="M1606.33 1954.95L1426.75 2016.56C1426.75 2016.56 1466.49 2212.15 1495.3 2244.86C1524.12 2277.58 1716.74 2429.05 1743.99 2417.11C1771.24 2405.16 1951.99 2244.86 1951.99 2244.86L1646.15 2035.14L1606.33 1954.95Z" fill="#263238"/>
<path d="M1580.18 1991.73L1618.36 1979.08L1608.91 1960.18L1572.76 1972.91L1580.18 1991.73Z" fill="black"/>
<path d="M1466.02 2010.46L1426.91 2024.21L1432.14 2040.92L1470.4 2028.19L1466.02 2010.46Z" fill="black"/>
<path d="M1478.59 2025.46L1572.52 1994.3L1565.5 1975.41L1473.44 2007.81L1478.59 2025.46Z" fill="black"/>
<path opacity="0.2" d="M1562.37 1827.06C1522.87 1822.45 1500.61 1763.03 1500.61 1763.03C1509.16 1761.5 1517.79 1760.48 1526.46 1759.99C1540.24 1781.33 1552.26 1803.76 1562.37 1827.06Z" fill="black"/>
<path d="M1480.31 1707.83C1523.25 1701.43 1619.29 1736.25 1627.65 1735.86C1636 1735.47 1729.15 1662.23 1729.15 1662.23L1753.36 1683.55C1753.36 1683.55 1655.76 1784.19 1635.69 1785.05C1615.62 1785.91 1510.76 1778.33 1510.76 1778.33C1510.76 1778.33 1485.07 1769.2 1480.15 1746.01C1477.16 1733.45 1477.21 1720.36 1480.31 1707.83Z" fill="#407BFF"/>
</svg>
