<svg width="3904" height="2909" viewBox="0 0 3904 2909" fill="none" xmlns="http://www.w3.org/2000/svg">
<path d="M3903.98 2556.32H0V2558.28H3903.98V2556.32Z" fill="#EBEBEB"/>
<path d="M3512.8 2681.96H2961.79V2683.91H3512.8V2681.96Z" fill="#EBEBEB"/>
<path d="M2779.87 2703.2H2662.51V2705.15H2779.87V2703.2Z" fill="#EBEBEB"/>
<path d="M3199.31 2609.5H3096.56V2611.45H3199.31V2609.5Z" fill="#EBEBEB"/>
<path d="M712.789 2622.62H409.605V2624.57H712.789V2622.62Z" fill="#EBEBEB"/>
<path d="M865.746 2622.62H782.279V2624.57H865.746V2622.62Z" fill="#EBEBEB"/>
<path d="M1906.23 2655.57H1480.23V2657.52H1906.23V2655.57Z" fill="#EBEBEB"/>
<path d="M1850.49 2208.09H342.847C331.036 2208.07 319.717 2203.36 311.372 2195C303.028 2186.65 298.342 2175.32 298.342 2163.51V44.193C298.445 32.4501 303.176 21.2219 311.509 12.9473C319.843 4.67274 331.104 0.0201163 342.847 0H1850.49C1862.31 0 1873.65 4.69717 1882.01 13.0582C1890.37 21.4192 1895.07 32.7592 1895.07 44.5834V2163.51C1895.07 2175.33 1890.37 2186.67 1882.01 2195.03C1873.65 2203.39 1862.31 2208.09 1850.49 2208.09ZM342.847 1.5616C331.554 1.58228 320.731 6.08291 312.753 14.0756C304.775 22.0683 300.294 32.9 300.294 44.193V2163.51C300.294 2174.8 304.775 2185.63 312.753 2193.62C320.731 2201.62 331.554 2206.12 342.847 2206.14H1850.49C1861.79 2206.12 1872.62 2201.62 1880.61 2193.63C1888.6 2185.64 1893.1 2174.81 1893.12 2163.51V44.193C1893.1 32.8928 1888.6 22.0613 1880.61 14.0709C1872.62 6.08037 1861.79 1.58224 1850.49 1.5616H342.847Z" fill="#EBEBEB"/>
<path d="M3539.43 2208.09H2031.71C2019.89 2208.07 2008.56 2203.37 2000.21 2195.01C1991.85 2186.65 1987.15 2175.33 1987.12 2163.51V44.193C1987.25 32.443 1992 21.2148 2000.34 12.9424C2008.69 4.67001 2019.96 0.0198969 2031.71 0H3539.43C3551.16 0.0406365 3562.4 4.70234 3570.71 12.9747C3579.03 21.2471 3583.75 32.4636 3583.85 44.193V2163.51C3583.85 2175.3 3579.18 2186.62 3570.85 2194.98C3562.52 2203.33 3551.22 2208.05 3539.43 2208.09ZM2031.71 1.5616C2020.41 1.58224 2009.58 6.08037 2001.59 14.0709C1993.6 22.0613 1989.1 32.8928 1989.08 44.193V2163.51C1989.1 2174.81 1993.6 2185.64 2001.59 2193.63C2009.58 2201.62 2020.41 2206.12 2031.71 2206.14H3539.43C3550.73 2206.12 3561.56 2201.62 3569.55 2193.63C3577.54 2185.64 3582.04 2174.81 3582.06 2163.51V44.193C3582.04 32.8928 3577.54 22.0613 3569.55 14.0709C3561.56 6.08037 3550.73 1.58224 3539.43 1.5616H2031.71Z" fill="#EBEBEB"/>
<path d="M560.299 1279.02C560.299 1279.02 564.515 1372.72 726.374 1372.72C888.233 1372.72 892.527 1279.02 892.527 1279.02H560.299Z" fill="#F0F0F0"/>
<path d="M1352.18 1441.19H1150.66V2556.32H1352.18V1441.19Z" fill="#E6E6E6"/>
<path d="M1313.92 2556.32H1352.26V2476.06H1273.79L1313.92 2556.32Z" fill="#F0F0F0"/>
<path d="M598.949 1441.19H397.426V2556.32H598.949V1441.19Z" fill="#E6E6E6"/>
<path d="M1352.26 1441.19H565.609V2507.13H1352.26V1441.19Z" fill="#F0F0F0"/>
<path d="M971.779 1490.31V2406.8H1322.59V1490.31H971.779Z" fill="#E6E6E6"/>
<path d="M595.279 1490.31V2406.8H946.091V1490.31H595.279Z" fill="#E6E6E6"/>
<path d="M805.392 1512.71H735.979C707.371 1513.2 679.383 1504.34 656.26 1487.49H885.033C861.944 1504.35 833.978 1513.21 805.392 1512.71Z" fill="#F0F0F0"/>
<path d="M1185.4 1512.71H1115.99C1087.38 1513.2 1059.4 1504.34 1036.27 1487.49H1264.89C1241.84 1504.32 1213.94 1513.18 1185.4 1512.71Z" fill="#F0F0F0"/>
<path d="M603.868 2556.32H565.609V2476.06H644.001L603.868 2556.32Z" fill="#F0F0F0"/>
<path d="M560.299 1347.11C560.299 1347.11 564.515 1440.8 726.374 1440.8C888.233 1440.8 892.527 1347.11 892.527 1347.11H560.299Z" fill="#E6E6E6"/>
<path d="M1063.21 1342.97C1063.21 1342.97 1065.79 1400.12 1164.17 1400.12C1262.55 1400.12 1264.89 1342.97 1264.89 1342.97H1063.21Z" fill="#F5F5F5"/>
<path d="M1063.21 1384.04C1063.21 1384.04 1065.79 1441.12 1164.17 1441.12C1262.55 1441.12 1264.89 1384.04 1264.89 1384.04H1063.21Z" fill="#E6E6E6"/>
<path d="M1170.72 152.254H492.76V1072.58H1170.72V152.254Z" fill="#E6E6E6"/>
<path d="M1200.32 152.254H506.58V1072.58H1200.32V152.254Z" fill="#F0F0F0"/>
<path d="M1158.78 1020.74V204.102L548.041 204.102V1020.74H1158.78Z" fill="#FAFAFA"/>
<path d="M1158.78 1020.74V204.102H1153.47V1020.74H1158.78Z" fill="#E6E6E6"/>
<path d="M891.747 806.328H796.803C783.833 806.279 771.311 801.58 761.511 793.084C751.711 784.588 745.284 772.859 743.396 760.027C736.145 713.109 717.036 668.82 687.882 631.352C665.411 601.874 651.747 566.635 648.468 529.715C645.19 492.794 652.433 455.7 669.358 422.724C686.283 389.747 712.199 362.237 744.107 343.376C776.016 324.515 812.612 315.074 849.663 316.144C885.791 317.153 920.938 328.12 951.229 347.837C981.519 367.553 1005.78 395.253 1021.32 427.881C1036.87 460.508 1043.1 496.796 1039.33 532.741C1035.56 568.686 1021.94 602.892 999.966 631.586C970.868 669.142 951.865 713.52 944.763 760.495C942.891 773.223 936.507 784.853 926.775 793.267C917.043 801.68 904.612 806.315 891.747 806.328ZM843.963 326.295C809.262 326.232 775.234 335.874 745.725 354.132C716.216 372.391 692.4 398.537 676.969 429.619C661.538 460.7 655.107 495.477 658.401 530.022C661.695 564.566 674.584 597.501 695.611 625.105C725.849 663.955 745.657 709.888 753.156 758.543C754.671 768.947 759.872 778.461 767.81 785.354C775.749 792.247 785.899 796.06 796.412 796.1H891.357C901.734 796.042 911.746 792.27 919.581 785.467C927.416 778.663 932.555 769.278 934.067 759.012C941.503 710.267 961.316 664.244 991.611 625.34C1012.39 598.148 1025.27 565.75 1028.84 531.711C1032.4 497.672 1026.5 463.31 1011.79 432.406C997.088 401.501 974.143 375.252 945.483 356.545C916.824 337.837 883.56 327.397 849.35 326.373L843.963 326.295Z" fill="#E6E6E6"/>
<path d="M793.289 903.694H894.792C903.925 903.653 912.671 900.001 919.122 893.536C925.573 887.071 929.205 878.316 929.225 869.183C929.204 860.057 925.57 851.311 919.117 844.858C912.664 838.405 903.918 834.771 894.792 834.75H793.289C784.155 834.771 775.401 838.402 768.936 844.853C762.47 851.304 758.819 860.05 758.777 869.183C758.798 878.33 762.441 887.096 768.908 893.563C775.376 900.031 784.142 903.674 793.289 903.694Z" fill="#E6E6E6"/>
<path d="M844.041 577.788C835.293 577.804 826.738 575.223 819.459 570.373C812.179 565.523 806.503 558.622 803.148 550.543C799.794 542.465 798.912 533.573 800.615 524.993C802.318 516.413 806.528 508.531 812.713 502.346C818.899 496.161 826.78 491.95 835.36 490.248C843.94 488.545 852.832 489.427 860.911 492.781C868.989 496.136 875.89 501.812 880.74 509.092C885.59 516.371 888.171 524.926 888.156 533.673C888.135 545.367 883.48 556.576 875.212 564.845C866.943 573.113 855.734 577.768 844.041 577.788ZM844.041 499.709C837.338 499.709 830.787 501.696 825.214 505.42C819.642 509.143 815.298 514.436 812.734 520.628C810.169 526.819 809.498 533.633 810.805 540.206C812.113 546.78 815.34 552.818 820.079 557.557C824.818 562.296 830.856 565.523 837.43 566.831C844.003 568.138 850.816 567.467 857.008 564.902C863.2 562.338 868.493 557.994 872.216 552.422C875.94 546.849 877.927 540.297 877.927 533.595C877.927 524.608 874.357 515.989 868.002 509.634C861.647 503.279 853.028 499.709 844.041 499.709Z" fill="#E6E6E6"/>
<path d="M792.664 577.788C783.92 577.788 775.372 575.195 768.103 570.335C760.834 565.476 755.17 558.569 751.827 550.489C748.485 542.409 747.614 533.52 749.326 524.945C751.037 516.37 755.254 508.496 761.442 502.319C767.631 496.141 775.512 491.938 784.09 490.242C792.668 488.546 801.556 489.432 809.63 492.789C817.704 496.146 824.6 501.822 829.447 509.1C834.293 516.378 836.872 524.93 836.857 533.673C836.857 539.473 835.713 545.216 833.491 550.574C831.269 555.931 828.013 560.798 823.908 564.895C819.803 568.993 814.931 572.241 809.57 574.453C804.208 576.665 798.463 577.799 792.664 577.788ZM792.664 499.709C785.962 499.709 779.41 501.696 773.837 505.42C768.265 509.143 763.921 514.436 761.357 520.628C758.792 526.82 758.121 533.633 759.428 540.206C760.736 546.78 763.963 552.818 768.702 557.557C773.441 562.296 779.479 565.523 786.053 566.831C792.626 568.138 799.44 567.467 805.632 564.903C811.823 562.338 817.116 557.994 820.839 552.422C824.563 546.849 826.55 540.298 826.55 533.595C826.55 524.608 822.98 515.989 816.625 509.634C810.27 503.279 801.651 499.709 792.664 499.709Z" fill="#E6E6E6"/>
<path d="M895.339 577.788C886.596 577.788 878.048 575.195 870.779 570.335C863.51 565.476 857.846 558.569 854.503 550.489C851.16 542.409 850.29 533.52 852.001 524.945C853.713 516.37 857.93 508.496 864.118 502.319C870.306 496.141 878.188 491.938 886.766 490.242C895.344 488.546 904.232 489.432 912.306 492.789C920.379 496.146 927.276 501.822 932.123 509.1C936.969 516.378 939.548 524.93 939.533 533.673C939.512 545.381 934.847 556.601 926.561 564.872C918.276 573.143 907.047 577.788 895.339 577.788ZM895.339 499.709C888.637 499.709 882.086 501.696 876.513 505.42C870.941 509.143 866.597 514.436 864.032 520.628C861.468 526.82 860.797 533.633 862.104 540.206C863.412 546.78 866.639 552.818 871.378 557.557C876.117 562.296 882.155 565.523 888.729 566.831C895.302 568.138 902.115 567.467 908.307 564.903C914.499 562.338 919.792 557.994 923.515 552.422C927.239 546.849 929.226 540.298 929.226 533.595C929.226 524.608 925.656 515.989 919.301 509.634C912.946 503.279 904.327 499.709 895.339 499.709Z" fill="#E6E6E6"/>
<path d="M1951.99 2908.93C2788.09 2908.93 3465.88 2869.36 3465.88 2820.55C3465.88 2771.73 2788.09 2732.16 1951.99 2732.16C1115.89 2732.16 438.105 2771.73 438.105 2820.55C438.105 2869.36 1115.89 2908.93 1951.99 2908.93Z" fill="#F5F5F5"/>
<path d="M3321.58 2179.44H1484.84L1545.04 1246.78H1640.22L1586.19 2084.26H2750.9L2755.19 2017.66H2135.09L2141.25 1922.48H3081.25L3133.57 1110.92H3066.97L3018.87 1855.87H2078.95L2068.48 2017.66H1657.08L1754.68 504.551H2930.01L2934.31 437.871H1692.38L1644.51 1180.17H1549.33L1576.43 759.871H1509.83L1413.94 2246.12H3383.89L3390.14 2149.3H3323.54L3321.58 2179.44Z" fill="#407BFF"/>
<path d="M1541.06 276.09L1519.74 605.508H1586.42L1603.37 342.77H3061.58L3051.12 504.551H3267.87L3240.85 923.292H3145.67L3166.52 599.73H2270.48L2266.18 666.332H2736.14L2729.98 761.511H1995.09L1932.78 1727.43L1930.6 1760.7L1924.51 1855.87H1829.33L1875.47 1140.51H1808.87L1758.43 1922.48H1986.81L1997.2 1760.7H2580.45L2584.75 1694.09H2271.18L2277.35 1598.91H2440.69L2444.99 1532.31H2173.74L2177.02 1481.01H2110.41L2102.84 1598.91H2210.75L2204.58 1694.09H2001.57L2057.4 828.112H2923.38L2890.12 1343.59H2956.8L2994.35 761.511H2796.66L2802.75 666.332H3095.62L3074.78 989.893H3236.56L3211.02 1385.84H3277.63L3338.76 437.871H3122.09L3128.18 342.77H3440.03L3365 1506.94H3203.22L3170.27 2017.66H2909.56L2905.26 2084.26H3232.57L3265.52 1573.54H3360.7L3333.53 1994.93H3400.13L3511.01 276.09H1541.06Z" fill="#407BFF"/>
<path d="M1885.39 986.146L1906 666.332H2111.66L2115.96 599.73H1843.69L1818.79 986.146H1885.39Z" fill="#407BFF"/>
<path d="M2701.48 1760.7H2929.86L2946.8 1497.96H2880.2L2867.55 1694.09H2772.37L2778.54 1598.92L2780.65 1565.65L2822.11 923.293H2146.41L2120.41 1326.65H2187.01L2208.72 989.895H2751.21L2716.23 1532.31H2599.35L2595.05 1598.92H2711.86L2701.48 1760.7Z" fill="#407BFF"/>
<path d="M2510.96 1370.53L2506.67 1437.13H2627.22L2649.94 1085H2297.81L2275.08 1437.13H2357.54L2361.83 1370.53H2345.98L2360.11 1151.6H2578.97L2564.92 1370.53H2510.96Z" fill="#407BFF"/>
<g opacity="0.6">
<path d="M3321.58 2179.44H1484.84L1545.04 1246.78H1640.22L1586.19 2084.26H2750.9L2755.19 2017.66H2135.09L2141.25 1922.48H3081.25L3133.57 1110.92H3066.97L3018.87 1855.87H2078.95L2068.48 2017.66H1657.08L1754.68 504.551H2930.01L2934.31 437.871H1692.38L1644.51 1180.17H1549.33L1576.43 759.871H1509.83L1413.94 2246.12H3383.89L3390.14 2149.3H3323.54L3321.58 2179.44Z" fill="white"/>
<path d="M1541.06 276.09L1519.74 605.508H1586.42L1603.37 342.77H3061.58L3051.12 504.551H3267.87L3240.85 923.292H3145.67L3166.52 599.73H2270.48L2266.18 666.332H2736.14L2729.98 761.511H1995.09L1932.78 1727.43L1930.6 1760.7L1924.51 1855.87H1829.33L1875.47 1140.51H1808.87L1758.43 1922.48H1986.81L1997.2 1760.7H2580.45L2584.75 1694.09H2271.18L2277.35 1598.91H2440.69L2444.99 1532.31H2173.74L2177.02 1481.01H2110.41L2102.84 1598.91H2210.75L2204.58 1694.09H2001.57L2057.4 828.112H2923.38L2890.12 1343.59H2956.8L2994.35 761.511H2796.66L2802.75 666.332H3095.62L3074.78 989.893H3236.56L3211.02 1385.84H3277.63L3338.76 437.871H3122.09L3128.18 342.77H3440.03L3365 1506.94H3203.22L3170.27 2017.66H2909.56L2905.26 2084.26H3232.57L3265.52 1573.54H3360.7L3333.53 1994.93H3400.13L3511.01 276.09H1541.06Z" fill="white"/>
<path d="M1885.39 986.146L1906 666.332H2111.66L2115.96 599.73H1843.69L1818.79 986.146H1885.39Z" fill="white"/>
<path d="M2701.48 1760.7H2929.86L2946.8 1497.96H2880.2L2867.55 1694.09H2772.37L2778.54 1598.92L2780.65 1565.65L2822.11 923.293H2146.41L2120.41 1326.65H2187.01L2208.72 989.895H2751.21L2716.23 1532.31H2599.35L2595.05 1598.92H2711.86L2701.48 1760.7Z" fill="white"/>
<path d="M2510.96 1370.53L2506.67 1437.13H2627.22L2649.94 1085H2297.81L2275.08 1437.13H2357.54L2361.83 1370.53H2345.98L2360.11 1151.6H2578.97L2564.92 1370.53H2510.96Z" fill="white"/>
</g>
<path d="M3287.85 2139.46H2816.95L2828.43 1962.53H3118.65L3178.07 1041.27H3031.44L3006.45 1428.31H2829.53L2863.96 894.324H2111.97L2079.57 1396.3H2233.93L2228.7 1477.19H2533.29L2522.91 1638.97H2680.94L2669.07 1823.78H2044.59L2034.68 1977.68H1699.71L1759.13 1055.79H1920.91L1943.48 706.308H2186.15L2196.61 544.527H2997.16L3006.61 397.894H1654.97L1636.08 690.223H1452.9V675.154H1621.95L1640.76 382.746H3022.69L3011.29 559.674H2210.74L2200.28 721.455H1957.61L1935.12 1070.86H1773.34L1715.8 1962.53H2020.54L2030.46 1808.64H2654.86L2664.86 1654.12H2506.74L2517.21 1492.34H2212.62L2217.85 1411.37H2063.49L2097.84 879.176H2880.12L2845.61 1413.24H2992.32L3017.23 1026.2H3194.16L3132.79 1977.68H2842.56L2833.12 2124.31H3273.72L3277.55 2064.58H3456.97V2079.65H3291.76L3287.85 2139.46Z" fill="#407BFF"/>
<path d="M2474.11 1306.9H2439.75L2443.03 1255.75H2485.82L2487.46 1230.93H2436.24L2435.77 1238.19H2401.42L2404.07 1196.57H2524.08L2517.99 1290.19H2475.2L2474.11 1306.9Z" fill="#407BFF"/>
<path d="M2471.69 1345.31H2437.25L2438.97 1319.08H2473.33L2471.69 1345.31Z" fill="#407BFF"/>
<path d="M747.846 1985.17C793.054 1661.22 798.91 1444.63 846.382 1284.95L1119.66 1280.82C1119.66 1280.82 989.268 1794.89 929.459 2008.99C869.65 2223.08 762.134 2751.52 762.134 2751.52H670.547C670.547 2751.52 668.127 2235.89 747.846 1985.17Z" fill="#263238"/>
<path d="M987.785 1520.45C967.797 1566.75 928.679 1864 928.913 2012.35L929.85 2008.91C950.853 1933.72 980.602 1821.52 1010.35 1707.37L987.785 1520.45Z" fill="black"/>
<path d="M839.823 2796.19C839.823 2796.19 762.446 2766.59 753.935 2746.76H683.664L679.838 2820.55H736.914L743.941 2813.75L754.404 2820.55C789.305 2820.55 821.474 2819.22 843.805 2811.33C844.534 2808.68 844.55 2805.88 843.85 2803.22C843.151 2800.56 841.762 2798.14 839.823 2796.19Z" fill="#263238"/>
<path d="M1008.55 1994.31C953.897 1672.08 931.176 1283.79 931.176 1283.79L1231.86 1278.95C1231.86 1278.95 1197.27 1802.55 1185.01 2021.87C1172.52 2249.94 1163.77 2751.76 1163.77 2751.76H1063.6C1063.6 2751.76 978.258 2276.18 1008.55 1994.31Z" fill="#263238"/>
<path d="M968.186 457.234C954.834 515.169 944.762 589.579 928.131 632.367C957.176 659.382 1004.26 692.879 1067.03 691.942C1129.81 691.005 1118.33 648.608 1101.47 626.745C1056.49 604.024 1054.62 581.069 1065.71 560.924L968.186 457.234Z" fill="#FF8B7B"/>
<path d="M869.729 646.421C869.729 646.421 907.831 612.847 923.603 604.961C939.376 597.075 1061.02 599.729 1089.29 604.961C1117.55 610.192 1151.75 652.355 1151.75 652.355L869.729 646.421Z" fill="#263238"/>
<path d="M1166.51 449.973C1165.18 455.673 1167.21 460.904 1170.88 461.685C1174.55 462.466 1178.69 458.562 1179.94 452.862C1181.19 447.162 1179.23 442.009 1175.56 441.15C1171.9 440.291 1167.76 444.351 1166.51 449.973Z" fill="#263238"/>
<path d="M1164.4 457.859C1167.25 476.745 1172.71 495.14 1180.64 512.515C1168.46 519.698 1152.38 511.734 1152.38 511.734L1164.4 457.859Z" fill="#FF5652"/>
<path d="M1186.11 417.334C1185.62 417.601 1185.07 417.741 1184.51 417.741C1183.95 417.741 1183.4 417.601 1182.91 417.334C1179.04 415.501 1174.78 414.622 1170.5 414.771C1166.22 414.921 1162.04 416.094 1158.31 418.193C1157.55 418.668 1156.64 418.827 1155.76 418.638C1154.89 418.448 1154.12 417.925 1153.63 417.178C1153.15 416.407 1152.99 415.48 1153.17 414.592C1153.36 413.705 1153.89 412.924 1154.64 412.415C1159.35 409.684 1164.65 408.13 1170.08 407.886C1175.52 407.641 1180.94 408.713 1185.87 411.01C1186.46 411.242 1186.96 411.632 1187.34 412.138C1187.71 412.644 1187.93 413.244 1187.98 413.87C1188.03 414.496 1187.9 415.124 1187.61 415.681C1187.32 416.238 1186.88 416.703 1186.34 417.022L1186.11 417.334Z" fill="#263238"/>
<path d="M978.259 392.272C966.937 462.544 956.709 503.535 983.959 546.869C1024.95 612.066 1118.33 598.792 1150.58 532.815C1179.7 473.475 1193.37 368.067 1131.22 325.67C1117.45 316.276 1101.53 310.528 1084.93 308.963C1068.34 307.398 1051.62 310.067 1036.34 316.72C1021.06 323.374 1007.72 333.795 997.559 347.008C987.401 360.221 980.761 375.794 978.259 392.272Z" fill="#FF8B7B"/>
<path d="M1081.64 483.547C1059.23 509.86 1050.4 540.779 1010.82 542.731C971.231 544.683 944.215 549.993 946.167 519.307C949.446 468.009 922.743 402.188 918.449 369.394C914.154 336.601 916.575 284.366 961.315 298.42C945.699 267.969 967.951 241.891 1002.7 245.17C1065.78 251.104 1128.87 294.829 1163.15 284.834C1196.02 275.152 1166.51 265.549 1166.51 265.549C1166.51 265.549 1231.78 262.035 1220.54 324.264C1207.97 393.521 1144.18 369.316 1144.18 369.316C1144.18 369.316 1187.67 423.113 1081.64 483.547Z" fill="#263238"/>
<path d="M1075.47 449.893C1071.29 464.569 1072.85 480.287 1079.84 493.852C1089.13 510.639 1107.4 502.909 1116.15 484.795C1123.96 468.476 1128.8 440.055 1114.04 429.671C1099.28 419.286 1080.62 431.076 1075.47 449.893Z" fill="#FF8B7B"/>
<path d="M873.789 638.458C970.998 626.511 1109.04 627.605 1200.63 643.533C1223.3 647.578 1243.99 659.035 1259.45 676.104C1274.91 693.174 1284.26 714.893 1286.05 737.853C1297.45 877.537 1266.53 1121.85 1239.83 1367.64C1024.25 1440.02 805.469 1366.71 805.469 1366.71C800.706 1317.05 827.41 1154.56 844.041 1067.82C831.782 978.182 800.784 875.663 783.217 756.67C781.244 742.939 782.034 728.952 785.541 715.531C789.047 702.109 795.2 689.523 803.636 678.512C812.073 667.5 822.625 658.285 834.671 651.407C846.718 644.529 860.018 640.126 873.789 638.458Z" fill="#263238"/>
<path opacity="0.1" d="M873.789 638.458C970.998 626.511 1109.04 627.605 1200.63 643.533C1223.3 647.578 1243.99 659.035 1259.45 676.104C1274.91 693.174 1284.26 714.893 1286.05 737.853C1297.45 877.537 1266.53 1121.85 1239.83 1367.64C1024.25 1440.02 805.469 1366.71 805.469 1366.71C800.706 1317.05 827.41 1154.56 844.041 1067.82C831.782 978.182 800.784 875.663 783.217 756.67C781.244 742.939 782.034 728.952 785.541 715.531C789.047 702.109 795.2 689.523 803.636 678.512C812.073 667.5 822.625 658.285 834.671 651.407C846.718 644.529 860.018 640.126 873.789 638.458Z" fill="white"/>
<path d="M1166.51 834.125C1181.19 918.295 1227.8 1018.55 1270.35 1084.92C1276.21 1026.83 1281.13 971.389 1284.25 920.403L1166.51 834.125Z" fill="black"/>
<path d="M1276.21 717.394L1287.22 746.908L1298.85 777.359C1306.66 797.581 1314.47 817.414 1322.98 836.465C1327.12 845.991 1331.49 855.282 1335.86 864.105C1340.24 872.928 1344.53 881.517 1348.9 889.091C1353.27 896.664 1357.8 903.301 1361.16 908.142C1364.52 912.983 1367.41 915.169 1362.25 913.373L1258.49 968.888C1257.76 973.282 1257.76 977.767 1258.49 982.161C1258.7 983.982 1259.23 985.751 1260.05 987.393C1260.91 989.111 1261.22 988.096 1260.83 986.378C1259 980.478 1256.37 974.857 1253.02 969.669C1244.11 954.645 1234.33 940.15 1223.74 926.257C1212.65 911.187 1200.32 896.04 1188.45 880.58C1176.58 865.12 1163.54 849.348 1151.99 833.732L1150.81 832.171C1145.24 824.63 1142.35 815.443 1142.61 806.07C1142.86 796.698 1146.24 787.68 1152.21 780.451C1158.18 773.223 1166.4 768.2 1175.56 766.182C1184.71 764.164 1194.28 765.268 1202.74 769.317C1222.04 778.671 1240.81 789.098 1258.95 800.548C1277.07 812.026 1294.64 823.972 1312.13 837.949C1320.79 844.741 1329.3 852.003 1337.82 859.655C1346.81 867.615 1355.33 876.088 1363.35 885.031C1372.9 895.529 1381.45 906.901 1388.88 918.995C1394.06 927.458 1398.22 936.499 1401.29 945.933C1403.44 952.467 1404.98 959.184 1405.9 965.999C1407.22 975.401 1407.22 984.94 1405.9 994.342C1404.46 1003.88 1401.15 1013.04 1396.17 1021.29C1391.19 1029.55 1384.62 1036.74 1376.85 1042.46C1369.09 1048.17 1360.27 1052.3 1350.9 1054.6C1341.54 1056.9 1331.81 1057.33 1322.28 1055.87C1316.57 1055.03 1310.99 1053.51 1305.65 1051.34L1302.21 1049.86C1290.78 1045.12 1280 1038.96 1270.12 1031.51C1262.38 1025.8 1255.08 1019.54 1248.26 1012.77C1237.12 1001.6 1226.91 989.531 1217.73 976.696C1201.82 954.792 1187.66 931.66 1175.41 907.517C1163.31 884.64 1153.16 861.685 1143.63 838.651C1139.02 827.017 1134.42 815.227 1130.36 803.75C1128.25 797.894 1126.22 792.038 1124.27 786.026L1118.49 767.365C1112.24 746.825 1114.21 724.661 1123.98 705.543C1133.75 686.426 1150.56 671.848 1170.87 664.883C1191.18 657.918 1213.4 659.109 1232.84 668.206C1252.29 677.302 1267.45 693.593 1275.12 713.646L1276.21 717.394Z" fill="#263238"/>
<path opacity="0.1" d="M1276.21 717.394L1287.22 746.908L1298.85 777.359C1306.66 797.581 1314.47 817.414 1322.98 836.465C1327.12 845.991 1331.49 855.282 1335.86 864.105C1340.24 872.928 1344.53 881.517 1348.9 889.091C1353.27 896.664 1357.8 903.301 1361.16 908.142C1364.52 912.983 1367.41 915.169 1362.25 913.373L1258.49 968.888C1257.76 973.282 1257.76 977.767 1258.49 982.161C1258.7 983.982 1259.23 985.751 1260.05 987.393C1260.91 989.111 1261.22 988.096 1260.83 986.378C1259 980.478 1256.37 974.857 1253.02 969.669C1244.11 954.645 1234.33 940.15 1223.74 926.257C1212.65 911.187 1200.32 896.04 1188.45 880.58C1176.58 865.12 1163.54 849.348 1151.99 833.732L1150.81 832.171C1145.24 824.63 1142.35 815.443 1142.61 806.07C1142.86 796.698 1146.24 787.68 1152.21 780.451C1158.18 773.223 1166.4 768.2 1175.56 766.182C1184.71 764.164 1194.28 765.268 1202.74 769.317C1222.04 778.671 1240.81 789.098 1258.95 800.548C1277.07 812.026 1294.64 823.972 1312.13 837.949C1320.79 844.741 1329.3 852.003 1337.82 859.655C1346.81 867.615 1355.33 876.088 1363.35 885.031C1372.9 895.529 1381.45 906.901 1388.88 918.995C1394.06 927.458 1398.22 936.499 1401.29 945.933C1403.44 952.467 1404.98 959.184 1405.9 965.999C1407.22 975.401 1407.22 984.94 1405.9 994.342C1404.46 1003.88 1401.15 1013.04 1396.17 1021.29C1391.19 1029.55 1384.62 1036.74 1376.85 1042.46C1369.09 1048.17 1360.27 1052.3 1350.9 1054.6C1341.54 1056.9 1331.81 1057.33 1322.28 1055.87C1316.57 1055.03 1310.99 1053.51 1305.65 1051.34L1302.21 1049.86C1290.78 1045.12 1280 1038.96 1270.12 1031.51C1262.38 1025.8 1255.08 1019.54 1248.26 1012.77C1237.12 1001.6 1226.91 989.531 1217.73 976.696C1201.82 954.792 1187.66 931.66 1175.41 907.517C1163.31 884.64 1153.16 861.685 1143.63 838.651C1139.02 827.017 1134.42 815.227 1130.36 803.75C1128.25 797.894 1126.22 792.038 1124.27 786.026L1118.49 767.365C1112.24 746.825 1114.21 724.661 1123.98 705.543C1133.75 686.426 1150.56 671.848 1170.87 664.883C1191.18 657.918 1213.4 659.109 1232.84 668.206C1252.29 677.302 1267.45 693.593 1275.12 713.646L1276.21 717.394Z" fill="white"/>
<path d="M1354.52 814.762L1369.59 855.129C1370.93 857.764 1371.5 860.727 1371.22 863.671C1370.95 866.615 1369.84 869.42 1368.03 871.76L1358.58 881.051C1356.7 882.644 1354.48 883.8 1352.09 884.437C1349.7 885.074 1347.21 885.176 1344.77 884.736C1342.34 884.296 1340.04 883.325 1338.03 881.891C1336.01 880.458 1334.34 878.598 1333.13 876.445L1304.71 834.672C1303.12 832.691 1301.98 830.381 1301.39 827.909C1300.8 825.438 1300.77 822.866 1301.29 820.378C1301.81 817.891 1302.88 815.551 1304.42 813.527C1305.95 811.502 1307.92 809.844 1310.18 808.672L1332.35 799.458C1339.69 796.413 1350.78 803.753 1354.52 814.762Z" fill="#FF8B7B"/>
<path d="M1287.38 2796.19C1287.38 2796.19 1163.39 2766.59 1155.58 2746.76H1085.31L1081.56 2820.55H1124.35L1131.3 2813.75L1141.84 2820.55C1176.74 2820.55 1269.42 2819.22 1291.75 2811.33C1292.43 2808.65 1292.38 2805.83 1291.61 2803.17C1290.85 2800.51 1289.38 2798.1 1287.38 2796.19Z" fill="#263238"/>
</svg>
