<svg width="3904" height="2909" viewBox="0 0 3904 2909" fill="none" xmlns="http://www.w3.org/2000/svg">
<path d="M3903.98 2556.32H0V2558.28H3903.98V2556.32Z" fill="#EBEBEB"/>
<path d="M3512.8 2681.95H2961.79V2683.9H3512.8V2681.95Z" fill="#EBEBEB"/>
<path d="M2779.87 2703.19H2662.52V2705.14H2779.87V2703.19Z" fill="#EBEBEB"/>
<path d="M3199.31 2609.5H3096.56V2611.45H3199.31V2609.5Z" fill="#EBEBEB"/>
<path d="M712.789 2622.61H409.605V2624.57H712.789V2622.61Z" fill="#EBEBEB"/>
<path d="M865.748 2622.61H782.281V2624.57H865.748V2622.61Z" fill="#EBEBEB"/>
<path d="M1906.24 2655.56H1480.23V2657.51H1906.24V2655.56Z" fill="#EBEBEB"/>
<path d="M1850.49 2208.09H342.847C331.036 2208.07 319.717 2203.36 311.372 2195C303.028 2186.64 298.342 2175.32 298.342 2163.5V44.193C298.445 32.45 303.176 21.2218 311.509 12.9473C319.843 4.67273 331.104 0.0201163 342.847 0H1850.49C1862.31 0 1873.65 4.69717 1882.01 13.0582C1890.37 21.4192 1895.07 32.7591 1895.07 44.5834V2163.5C1895.07 2175.33 1890.37 2186.67 1882.01 2195.03C1873.65 2203.39 1862.31 2208.09 1850.49 2208.09ZM342.847 1.5616C331.554 1.58228 320.731 6.0829 312.753 14.0756C304.775 22.0683 300.294 32.9 300.294 44.193V2163.5C300.294 2174.8 304.775 2185.63 312.753 2193.62C320.731 2201.61 331.554 2206.12 342.847 2206.14H1850.49C1861.79 2206.12 1872.62 2201.62 1880.61 2193.63C1888.6 2185.64 1893.1 2174.81 1893.12 2163.5V44.193C1893.1 32.8928 1888.6 22.0613 1880.61 14.0708C1872.62 6.08037 1861.79 1.58224 1850.49 1.5616H342.847Z" fill="#EBEBEB"/>
<path d="M3539.43 2208.09H2031.71C2019.89 2208.07 2008.56 2203.36 2000.21 2195.01C1991.85 2186.65 1987.15 2175.32 1987.12 2163.5V44.193C1987.25 32.4429 1992 21.2148 2000.34 12.9424C2008.69 4.67 2019.96 0.0198969 2031.71 0H3539.43C3551.16 0.0406364 3562.4 4.70233 3570.71 12.9747C3579.03 21.247 3583.75 32.4635 3583.85 44.193V2163.5C3583.85 2175.3 3579.18 2186.62 3570.85 2194.97C3562.52 2203.33 3551.22 2208.05 3539.43 2208.09ZM2031.71 1.5616C2020.41 1.58224 2009.58 6.08037 2001.59 14.0708C1993.6 22.0613 1989.1 32.8928 1989.08 44.193V2163.5C1989.1 2174.81 1993.6 2185.64 2001.59 2193.63C2009.58 2201.62 2020.41 2206.12 2031.71 2206.14H3539.43C3550.73 2206.12 3561.56 2201.62 3569.55 2193.63C3577.54 2185.64 3582.04 2174.81 3582.06 2163.5V44.193C3582.04 32.8928 3577.54 22.0613 3569.55 14.0708C3561.56 6.08037 3550.73 1.58224 3539.43 1.5616H2031.71Z" fill="#EBEBEB"/>
<path d="M560.301 1279.02C560.301 1279.02 564.517 1372.71 726.376 1372.71C888.235 1372.71 892.529 1279.02 892.529 1279.02H560.301Z" fill="#F0F0F0"/>
<path d="M1352.18 1441.19H1150.66V2556.32H1352.18V1441.19Z" fill="#E6E6E6"/>
<path d="M1313.92 2556.32H1352.26V2476.06H1273.79L1313.92 2556.32Z" fill="#F0F0F0"/>
<path d="M598.947 1441.19H397.424V2556.32H598.947V1441.19Z" fill="#E6E6E6"/>
<path d="M1352.26 1441.19H565.609V2507.13H1352.26V1441.19Z" fill="#F0F0F0"/>
<path d="M971.777 1490.3V2406.8H1322.59V1490.3H971.777Z" fill="#E6E6E6"/>
<path d="M595.277 1490.3V2406.8H946.089V1490.3H595.277Z" fill="#E6E6E6"/>
<path d="M805.392 1512.71H735.979C707.371 1513.2 679.383 1504.34 656.26 1487.49H885.033C861.944 1504.35 833.978 1513.21 805.392 1512.71Z" fill="#F0F0F0"/>
<path d="M1185.4 1512.71H1115.99C1087.38 1513.2 1059.4 1504.34 1036.27 1487.49H1264.89C1241.84 1504.32 1213.94 1513.18 1185.4 1512.71Z" fill="#F0F0F0"/>
<path d="M603.868 2556.32H565.609V2476.06H644.001L603.868 2556.32Z" fill="#F0F0F0"/>
<path d="M560.301 1347.11C560.301 1347.11 564.517 1440.8 726.376 1440.8C888.235 1440.8 892.529 1347.11 892.529 1347.11H560.301Z" fill="#E6E6E6"/>
<path d="M1063.21 1342.97C1063.21 1342.97 1065.79 1400.12 1164.17 1400.12C1262.55 1400.12 1264.89 1342.97 1264.89 1342.97H1063.21Z" fill="#F5F5F5"/>
<path d="M1063.21 1384.04C1063.21 1384.04 1065.79 1441.11 1164.17 1441.11C1262.55 1441.11 1264.89 1384.04 1264.89 1384.04H1063.21Z" fill="#E6E6E6"/>
<path d="M1170.72 152.254H492.76V1072.58H1170.72V152.254Z" fill="#E6E6E6"/>
<path d="M1200.32 152.254H506.58V1072.58H1200.32V152.254Z" fill="#F0F0F0"/>
<path d="M1158.78 1020.73V204.1L548.043 204.1V1020.73H1158.78Z" fill="#FAFAFA"/>
<path d="M1158.78 1020.73V204.1H1153.47V1020.73H1158.78Z" fill="#E6E6E6"/>
<path d="M891.747 806.326H796.803C783.833 806.277 771.311 801.578 761.511 793.082C751.711 784.586 745.284 772.856 743.396 760.024C736.145 713.107 717.036 668.817 687.882 631.349C665.411 601.871 651.747 566.633 648.468 529.713C645.19 492.792 652.433 455.698 669.358 422.722C686.283 389.745 712.199 362.235 744.107 343.374C776.016 324.513 812.612 315.072 849.663 316.143C885.791 317.151 920.938 328.118 951.229 347.835C981.519 367.551 1005.78 395.251 1021.32 427.878C1036.87 460.506 1043.1 496.794 1039.33 532.739C1035.56 568.684 1021.94 602.89 999.966 631.584C970.868 669.14 951.865 713.517 944.764 760.493C942.891 773.22 936.507 784.851 926.775 793.264C917.043 801.677 904.612 806.313 891.747 806.326ZM843.963 326.293C809.262 326.23 775.234 335.872 745.725 354.13C716.216 372.388 692.4 398.535 676.969 429.617C661.538 460.698 655.107 495.475 658.401 530.019C661.695 564.564 674.584 597.499 695.611 625.103C725.849 663.953 745.657 709.885 753.156 758.541C754.671 768.945 759.872 778.459 767.81 785.351C775.749 792.244 785.899 796.057 796.412 796.097H891.357C901.734 796.04 911.746 792.268 919.581 785.464C927.416 778.661 932.555 769.276 934.067 759.01C941.503 710.265 961.316 664.242 991.611 625.337C1012.39 598.145 1025.27 565.748 1028.84 531.709C1032.4 497.67 1026.5 463.308 1011.79 432.404C997.088 401.499 974.143 375.25 945.483 356.543C916.824 337.835 883.56 327.395 849.35 326.371L843.963 326.293Z" fill="#E6E6E6"/>
<path d="M793.289 903.692H894.792C903.925 903.651 912.671 899.999 919.122 893.534C925.573 887.069 929.205 878.314 929.225 869.181C929.205 860.055 925.57 851.309 919.117 844.856C912.664 838.403 903.918 834.769 894.792 834.748H793.289C784.155 834.769 775.401 838.4 768.936 844.851C762.47 851.302 758.819 860.048 758.777 869.181C758.798 878.328 762.441 887.094 768.908 893.561C775.376 900.029 784.142 903.672 793.289 903.692Z" fill="#E6E6E6"/>
<path d="M844.043 577.788C835.295 577.804 826.74 575.223 819.461 570.373C812.181 565.523 806.505 558.622 803.15 550.543C799.796 542.465 798.914 533.573 800.617 524.993C802.32 516.413 806.53 508.531 812.715 502.346C818.901 496.161 826.782 491.95 835.362 490.248C843.942 488.545 852.834 489.427 860.913 492.781C868.991 496.136 875.892 501.812 880.742 509.092C885.592 516.371 888.173 524.926 888.158 533.673C888.137 545.367 883.482 556.576 875.214 564.845C866.945 573.113 855.736 577.768 844.043 577.788ZM844.043 499.709C837.34 499.709 830.789 501.696 825.216 505.42C819.644 509.143 815.3 514.436 812.735 520.627C810.171 526.819 809.5 533.633 810.807 540.206C812.115 546.78 815.342 552.818 820.081 557.557C824.82 562.296 830.858 565.523 837.432 566.831C844.005 568.138 850.818 567.467 857.01 564.902C863.202 562.338 868.495 557.994 872.218 552.422C875.942 546.849 877.929 540.297 877.929 533.595C877.929 524.608 874.359 515.989 868.004 509.634C861.649 503.279 853.03 499.709 844.043 499.709Z" fill="#E6E6E6"/>
<path d="M792.664 577.788C783.92 577.788 775.372 575.195 768.103 570.335C760.834 565.476 755.17 558.569 751.827 550.489C748.485 542.409 747.614 533.52 749.326 524.945C751.037 516.37 755.254 508.496 761.442 502.319C767.631 496.141 775.512 491.938 784.09 490.242C792.668 488.546 801.556 489.432 809.63 492.789C817.704 496.146 824.6 501.822 829.447 509.1C834.293 516.378 836.872 524.93 836.857 533.673C836.857 539.473 835.713 545.216 833.491 550.574C831.269 555.931 828.013 560.798 823.908 564.895C819.803 568.993 814.931 572.24 809.57 574.453C804.208 576.665 798.464 577.799 792.664 577.788ZM792.664 499.709C785.962 499.709 779.41 501.696 773.837 505.42C768.265 509.143 763.921 514.436 761.357 520.628C758.792 526.82 758.121 533.633 759.428 540.206C760.736 546.78 763.963 552.818 768.702 557.557C773.441 562.296 779.479 565.523 786.053 566.831C792.626 568.138 799.44 567.467 805.632 564.902C811.823 562.338 817.116 557.994 820.839 552.422C824.563 546.849 826.55 540.297 826.55 533.595C826.55 524.608 822.98 515.989 816.625 509.634C810.27 503.279 801.651 499.709 792.664 499.709Z" fill="#E6E6E6"/>
<path d="M895.338 577.788C886.594 577.788 878.046 575.195 870.777 570.335C863.508 565.476 857.844 558.569 854.501 550.489C851.159 542.409 850.288 533.52 851.999 524.945C853.711 516.37 857.928 508.496 864.116 502.319C870.304 496.141 878.186 491.938 886.764 490.242C895.342 488.546 904.23 489.432 912.304 492.789C920.377 496.146 927.274 501.822 932.121 509.1C936.967 516.378 939.546 524.93 939.531 533.673C939.51 545.381 934.845 556.601 926.559 564.872C918.274 573.143 907.045 577.788 895.338 577.788ZM895.338 499.709C888.635 499.709 882.084 501.696 876.511 505.42C870.939 509.143 866.595 514.436 864.03 520.628C861.466 526.82 860.795 533.633 862.102 540.206C863.41 546.78 866.637 552.818 871.376 557.557C876.115 562.296 882.153 565.523 888.727 566.831C895.3 568.138 902.113 567.467 908.305 564.902C914.497 562.338 919.79 557.994 923.513 552.422C927.237 546.849 929.224 540.297 929.224 533.595C929.224 524.608 925.654 515.989 919.299 509.634C912.944 503.279 904.325 499.709 895.338 499.709Z" fill="#E6E6E6"/>
<path d="M1951.99 2908.93C2788.09 2908.93 3465.88 2869.36 3465.88 2820.55C3465.88 2771.73 2788.09 2732.16 1951.99 2732.16C1115.9 2732.16 438.105 2771.73 438.105 2820.55C438.105 2869.36 1115.9 2908.93 1951.99 2908.93Z" fill="#F5F5F5"/>
<path d="M3321.58 2179.43H1484.84L1545.04 1246.77H1640.22L1586.19 2084.26H2750.9L2755.19 2017.65H2135.09L2141.25 1922.47H3081.26L3133.57 1110.92H3066.97L3018.87 1855.87H2078.95L2068.48 2017.65H1657.08L1754.68 504.551H2930.02L2934.31 437.871H1692.38L1644.51 1180.17H1549.33L1576.43 759.871H1509.83L1413.94 2246.11H3383.89L3390.14 2149.3H3323.54L3321.58 2179.43Z" fill="#00D8FF"/>
<path d="M1541.06 276.09L1519.74 605.507H1586.42L1603.36 342.77H3061.58L3051.12 504.55H3267.86L3240.85 923.291H3145.67L3166.52 599.729H2270.48L2266.18 666.331H2736.14L2729.97 761.51H1995.09L1932.78 1727.43L1930.6 1760.69L1924.5 1855.87H1829.33L1875.47 1140.51H1808.87L1758.43 1922.47H1986.81L1997.2 1760.69H2580.45L2584.75 1694.09H2271.18L2277.35 1598.91H2440.69L2444.98 1532.31H2173.73L2177.01 1481.01H2110.41L2102.84 1598.91H2210.74L2204.58 1694.09H2001.57L2057.4 828.112H2923.38L2890.12 1343.59H2956.8L2994.35 761.51H2796.65L2802.74 666.331H3095.62L3074.77 989.893H3236.55L3211.02 1385.83H3277.62L3338.76 437.871H3122.09L3128.18 342.77H3440.03L3365 1506.94H3203.21L3170.26 2017.65H2909.56L2905.26 2084.26H3232.57L3265.52 1573.54H3360.7L3333.53 1994.93H3400.13L3511 276.09H1541.06Z" fill="#00D8FF"/>
<path d="M1885.39 986.144L1906 666.33H2111.66L2115.96 599.729H1843.69L1818.79 986.144H1885.39Z" fill="#00D8FF"/>
<path d="M2701.47 1760.69H2929.86L2946.8 1497.96H2880.2L2867.55 1694.09H2772.37L2778.54 1598.91L2780.65 1565.65L2822.11 923.291H2146.41L2120.41 1326.65H2187.01L2208.71 989.893H2751.21L2716.23 1532.31H2599.35L2595.05 1598.91H2711.86L2701.47 1760.69Z" fill="#00D8FF"/>
<path d="M2510.96 1370.53L2506.67 1437.13H2627.22L2649.95 1084.99H2297.81L2275.09 1437.13H2357.54L2361.83 1370.53H2345.98L2360.11 1151.6H2578.97L2564.92 1370.53H2510.96Z" fill="#00D8FF"/>
<g opacity="0.6">
<path d="M3321.58 2179.43H1484.84L1545.04 1246.77H1640.22L1586.19 2084.26H2750.9L2755.19 2017.65H2135.09L2141.25 1922.47H3081.26L3133.57 1110.92H3066.97L3018.87 1855.87H2078.95L2068.48 2017.65H1657.08L1754.68 504.551H2930.02L2934.31 437.871H1692.38L1644.51 1180.17H1549.33L1576.43 759.871H1509.83L1413.94 2246.11H3383.89L3390.14 2149.3H3323.54L3321.58 2179.43Z" fill="white"/>
<path d="M1541.06 276.09L1519.74 605.507H1586.42L1603.36 342.77H3061.58L3051.12 504.55H3267.86L3240.85 923.291H3145.67L3166.52 599.729H2270.48L2266.18 666.331H2736.14L2729.97 761.51H1995.09L1932.78 1727.43L1930.6 1760.69L1924.5 1855.87H1829.33L1875.47 1140.51H1808.87L1758.43 1922.47H1986.81L1997.2 1760.69H2580.45L2584.75 1694.09H2271.18L2277.35 1598.91H2440.69L2444.98 1532.31H2173.73L2177.01 1481.01H2110.41L2102.84 1598.91H2210.74L2204.58 1694.09H2001.57L2057.4 828.112H2923.38L2890.12 1343.59H2956.8L2994.35 761.51H2796.65L2802.74 666.331H3095.62L3074.77 989.893H3236.55L3211.02 1385.83H3277.62L3338.76 437.871H3122.09L3128.18 342.77H3440.03L3365 1506.94H3203.21L3170.26 2017.65H2909.56L2905.26 2084.26H3232.57L3265.52 1573.54H3360.7L3333.53 1994.93H3400.13L3511 276.09H1541.06Z" fill="white"/>
<path d="M1885.39 986.144L1906 666.33H2111.66L2115.96 599.729H1843.69L1818.79 986.144H1885.39Z" fill="white"/>
<path d="M2701.47 1760.69H2929.86L2946.8 1497.96H2880.2L2867.55 1694.09H2772.37L2778.54 1598.91L2780.65 1565.65L2822.11 923.291H2146.41L2120.41 1326.65H2187.01L2208.71 989.893H2751.21L2716.23 1532.31H2599.35L2595.05 1598.91H2711.86L2701.47 1760.69Z" fill="white"/>
<path d="M2510.96 1370.53L2506.67 1437.13H2627.22L2649.95 1084.99H2297.81L2275.09 1437.13H2357.54L2361.83 1370.53H2345.98L2360.11 1151.6H2578.97L2564.92 1370.53H2510.96Z" fill="white"/>
</g>
<path d="M3287.85 2139.46H2816.95L2828.43 1962.53H3118.65L3178.07 1041.27H3031.44L3006.45 1428.31H2829.53L2863.96 894.321H2111.97L2079.57 1396.29H2233.93L2228.7 1477.18H2533.29L2522.91 1638.97H2680.94L2669.07 1823.78H2044.59L2034.68 1977.67H1699.71L1759.13 1055.79H1920.91L1943.48 706.306H2186.15L2196.61 544.525H2997.16L3006.61 397.892H1654.97L1636.08 690.221H1452.9V675.152H1621.95L1640.76 382.744H3022.69L3011.3 559.672H2210.74L2200.28 721.453H1957.61L1935.12 1070.86H1773.34L1715.8 1962.53H2020.54L2030.46 1808.63H2654.86L2664.86 1654.11H2506.74L2517.21 1492.33H2212.62L2217.85 1411.36H2063.49L2097.84 879.174H2880.12L2845.61 1413.24H2992.32L3017.23 1026.2H3194.16L3132.79 1977.67H2842.56L2833.12 2124.31H3273.72L3277.55 2064.58H3456.97V2079.65H3291.76L3287.85 2139.46Z" fill="#00D8FF"/>
<path d="M2474.11 1306.89H2439.75L2443.03 1255.75H2485.82L2487.46 1230.92H2436.24L2435.77 1238.18H2401.41L2404.07 1196.57H2524.08L2517.99 1290.19H2475.2L2474.11 1306.89Z" fill="#00D8FF"/>
<path d="M2471.69 1345.31H2437.25L2438.97 1319.08H2473.33L2471.69 1345.31Z" fill="#00D8FF"/>
<path d="M747.848 1985.17C793.056 1661.22 798.912 1444.63 846.384 1284.95L1119.66 1280.82C1119.66 1280.82 989.27 1794.89 929.461 2008.99C869.652 2223.08 762.136 2751.52 762.136 2751.52H670.549C670.549 2751.52 668.128 2235.88 747.848 1985.17Z" fill="#263238"/>
<path d="M987.785 1520.44C967.797 1566.74 928.679 1863.99 928.913 2012.34L929.85 2008.91C950.853 1933.72 980.602 1821.52 1010.35 1707.36L987.785 1520.44Z" fill="black"/>
<path d="M839.825 2796.18C839.825 2796.18 762.448 2766.59 753.937 2746.76H683.666L679.84 2820.54H736.916L743.943 2813.75L754.406 2820.54C789.307 2820.54 821.476 2819.22 843.807 2811.33C844.536 2808.68 844.552 2805.88 843.852 2803.22C843.153 2800.56 841.764 2798.13 839.825 2796.18Z" fill="#263238"/>
<path d="M1008.55 1994.31C953.899 1672.07 931.178 1283.78 931.178 1283.78L1231.86 1278.94C1231.86 1278.94 1197.27 1802.54 1185.01 2021.87C1172.52 2249.94 1163.78 2751.76 1163.78 2751.76H1063.6C1063.6 2751.76 978.26 2276.17 1008.55 1994.31Z" fill="#263238"/>
<path d="M968.19 457.234C954.838 515.169 944.766 589.579 928.135 632.367C957.18 659.382 1004.26 692.878 1067.04 691.941C1129.81 691.004 1118.34 648.607 1101.47 626.745C1056.5 604.024 1054.62 581.068 1065.71 560.924L968.19 457.234Z" fill="#FF8B7B"/>
<path d="M869.729 646.421C869.729 646.421 907.831 612.847 923.603 604.961C939.376 597.075 1061.02 599.729 1089.29 604.961C1117.55 610.192 1151.75 652.355 1151.75 652.355L869.729 646.421Z" fill="#263238"/>
<path d="M1166.51 449.973C1165.18 455.673 1167.21 460.904 1170.88 461.685C1174.55 462.466 1178.69 458.562 1179.94 452.862C1181.19 447.162 1179.24 442.009 1175.57 441.15C1171.9 440.291 1167.76 444.351 1166.51 449.973Z" fill="#263238"/>
<path d="M1164.4 457.857C1167.25 476.743 1172.71 495.138 1180.64 512.513C1168.46 519.696 1152.38 511.732 1152.38 511.732L1164.4 457.857Z" fill="#FF5652"/>
<path d="M1186.11 417.334C1185.62 417.601 1185.07 417.741 1184.51 417.741C1183.95 417.741 1183.4 417.601 1182.91 417.334C1179.04 415.501 1174.78 414.622 1170.5 414.771C1166.22 414.921 1162.04 416.094 1158.31 418.193C1157.55 418.668 1156.64 418.827 1155.76 418.638C1154.89 418.448 1154.12 417.925 1153.63 417.178C1153.15 416.407 1152.99 415.48 1153.17 414.592C1153.36 413.705 1153.89 412.924 1154.64 412.415C1159.35 409.684 1164.65 408.13 1170.08 407.886C1175.52 407.641 1180.94 408.713 1185.87 411.01C1186.46 411.242 1186.96 411.632 1187.34 412.138C1187.71 412.644 1187.93 413.244 1187.98 413.87C1188.03 414.496 1187.9 415.124 1187.61 415.681C1187.32 416.238 1186.88 416.703 1186.34 417.022L1186.11 417.334Z" fill="#263238"/>
<path d="M978.259 392.272C966.937 462.543 956.709 503.535 983.959 546.869C1024.95 612.066 1118.33 598.792 1150.58 532.815C1179.7 473.474 1193.37 368.067 1131.22 325.67C1117.45 316.276 1101.53 310.528 1084.93 308.963C1068.34 307.398 1051.62 310.067 1036.34 316.72C1021.06 323.374 1007.72 333.795 997.559 347.008C987.401 360.221 980.761 375.794 978.259 392.272Z" fill="#FF8B7B"/>
<path d="M1081.64 483.547C1059.23 509.859 1050.41 540.779 1010.82 542.731C971.233 544.683 944.217 549.992 946.169 519.307C949.448 468.009 922.745 402.188 918.451 369.394C914.156 336.601 916.577 284.366 961.316 298.42C945.701 267.969 967.953 241.891 1002.7 245.17C1065.79 251.104 1128.88 294.828 1163.15 284.834C1196.02 275.152 1166.51 265.549 1166.51 265.549C1166.51 265.549 1231.78 262.035 1220.54 324.264C1207.97 393.521 1144.18 369.316 1144.18 369.316C1144.18 369.316 1187.67 423.113 1081.64 483.547Z" fill="#263238"/>
<path d="M1075.47 449.895C1071.29 464.571 1072.85 480.289 1079.84 493.854C1089.13 510.641 1107.4 502.911 1116.15 484.797C1123.96 468.478 1128.8 440.057 1114.04 429.673C1099.28 419.288 1080.62 431.078 1075.47 449.895Z" fill="#FF8B7B"/>
<path d="M873.789 638.456C970.998 626.51 1109.04 627.603 1200.63 643.531C1223.3 647.576 1243.99 659.033 1259.45 676.102C1274.91 693.172 1284.26 714.891 1286.05 737.851C1297.45 877.535 1266.53 1121.85 1239.83 1367.64C1024.25 1440.02 805.469 1366.7 805.469 1366.7C800.706 1317.04 827.41 1154.56 844.041 1067.81C831.782 978.18 800.784 875.661 783.217 756.668C781.244 742.937 782.034 728.95 785.541 715.529C789.047 702.107 795.2 689.521 803.636 678.51C812.073 667.498 822.625 658.283 834.672 651.405C846.718 644.527 860.018 640.124 873.789 638.456Z" fill="#263238"/>
<path opacity="0.1" d="M873.789 638.456C970.998 626.51 1109.04 627.603 1200.63 643.531C1223.3 647.576 1243.99 659.033 1259.45 676.102C1274.91 693.172 1284.26 714.891 1286.05 737.851C1297.45 877.535 1266.53 1121.85 1239.83 1367.64C1024.25 1440.02 805.469 1366.7 805.469 1366.7C800.706 1317.04 827.41 1154.56 844.041 1067.81C831.782 978.18 800.784 875.661 783.217 756.668C781.244 742.937 782.034 728.95 785.541 715.529C789.047 702.107 795.2 689.521 803.636 678.51C812.073 667.498 822.625 658.283 834.672 651.405C846.718 644.527 860.018 640.124 873.789 638.456Z" fill="white"/>
<path d="M1166.51 834.123C1181.19 918.293 1227.8 1018.55 1270.36 1084.91C1276.21 1026.82 1281.13 971.387 1284.25 920.401L1166.51 834.123Z" fill="black"/>
<path d="M1276.21 717.394L1287.22 746.908L1298.85 777.359C1306.66 797.581 1314.47 817.413 1322.98 836.465C1327.12 845.991 1331.49 855.282 1335.86 864.105C1340.24 872.928 1344.53 881.517 1348.9 889.09C1353.27 896.664 1357.8 903.301 1361.16 908.142C1364.52 912.983 1367.41 915.169 1362.25 913.373L1258.49 968.888C1257.76 973.282 1257.76 977.767 1258.49 982.161C1258.7 983.981 1259.23 985.751 1260.05 987.393C1260.91 989.11 1261.22 988.095 1260.83 986.378C1259 980.478 1256.37 974.856 1253.02 969.668C1244.11 954.644 1234.33 940.149 1223.74 926.256C1212.65 911.187 1200.32 896.039 1188.45 880.58C1176.58 865.12 1163.54 849.348 1151.99 833.732L1150.81 832.17C1145.24 824.63 1142.35 815.443 1142.61 806.07C1142.86 796.698 1146.24 787.68 1152.21 780.451C1158.18 773.223 1166.4 768.2 1175.56 766.182C1184.71 764.164 1194.28 765.268 1202.74 769.316C1222.04 778.671 1240.81 789.098 1258.95 800.548C1277.07 812.026 1294.64 823.972 1312.13 837.948C1320.79 844.741 1329.3 852.003 1337.82 859.654C1346.81 867.615 1355.33 876.088 1363.35 885.03C1372.9 895.529 1381.45 906.9 1388.88 918.995C1394.06 927.458 1398.22 936.499 1401.29 945.932C1403.44 952.466 1404.98 959.183 1405.9 965.999C1407.22 975.4 1407.22 984.94 1405.9 994.342C1404.46 1003.88 1401.16 1013.04 1396.17 1021.29C1391.19 1029.55 1384.62 1036.74 1376.85 1042.46C1369.09 1048.17 1360.27 1052.3 1350.9 1054.6C1341.54 1056.9 1331.81 1057.33 1322.28 1055.87C1316.57 1055.03 1310.99 1053.5 1305.65 1051.34L1302.21 1049.86C1290.78 1045.12 1280 1038.96 1270.12 1031.51C1262.38 1025.8 1255.08 1019.54 1248.26 1012.77C1237.12 1001.6 1226.91 989.531 1217.73 976.696C1201.82 954.791 1187.66 931.659 1175.41 907.517C1163.31 884.64 1153.16 861.685 1143.63 838.651C1139.02 827.017 1134.42 815.227 1130.36 803.75C1128.25 797.894 1126.22 792.038 1124.27 786.025L1118.49 767.364C1112.24 746.825 1114.21 724.661 1123.98 705.543C1133.75 686.426 1150.56 671.848 1170.87 664.883C1191.18 657.918 1213.4 659.109 1232.84 668.206C1252.29 677.302 1267.45 693.593 1275.12 713.646L1276.21 717.394Z" fill="#263238"/>
<path opacity="0.1" d="M1276.21 717.394L1287.22 746.908L1298.85 777.359C1306.66 797.581 1314.47 817.413 1322.98 836.465C1327.12 845.991 1331.49 855.282 1335.86 864.105C1340.24 872.928 1344.53 881.517 1348.9 889.09C1353.27 896.664 1357.8 903.301 1361.16 908.142C1364.52 912.983 1367.41 915.169 1362.25 913.373L1258.49 968.888C1257.76 973.282 1257.76 977.767 1258.49 982.161C1258.7 983.981 1259.23 985.751 1260.05 987.393C1260.91 989.11 1261.22 988.095 1260.83 986.378C1259 980.478 1256.37 974.856 1253.02 969.668C1244.11 954.644 1234.33 940.149 1223.74 926.256C1212.65 911.187 1200.32 896.039 1188.45 880.58C1176.58 865.12 1163.54 849.348 1151.99 833.732L1150.81 832.17C1145.24 824.63 1142.35 815.443 1142.61 806.07C1142.86 796.698 1146.24 787.68 1152.21 780.451C1158.18 773.223 1166.4 768.2 1175.56 766.182C1184.71 764.164 1194.28 765.268 1202.74 769.316C1222.04 778.671 1240.81 789.098 1258.95 800.548C1277.07 812.026 1294.64 823.972 1312.13 837.948C1320.79 844.741 1329.3 852.003 1337.82 859.654C1346.81 867.615 1355.33 876.088 1363.35 885.03C1372.9 895.529 1381.45 906.9 1388.88 918.995C1394.06 927.458 1398.22 936.499 1401.29 945.932C1403.44 952.466 1404.98 959.183 1405.9 965.999C1407.22 975.4 1407.22 984.94 1405.9 994.342C1404.46 1003.88 1401.16 1013.04 1396.17 1021.29C1391.19 1029.55 1384.62 1036.74 1376.85 1042.46C1369.09 1048.17 1360.27 1052.3 1350.9 1054.6C1341.54 1056.9 1331.81 1057.33 1322.28 1055.87C1316.57 1055.03 1310.99 1053.5 1305.65 1051.34L1302.21 1049.86C1290.78 1045.12 1280 1038.96 1270.12 1031.51C1262.38 1025.8 1255.08 1019.54 1248.26 1012.77C1237.12 1001.6 1226.91 989.531 1217.73 976.696C1201.82 954.791 1187.66 931.659 1175.41 907.517C1163.31 884.64 1153.16 861.685 1143.63 838.651C1139.02 827.017 1134.42 815.227 1130.36 803.75C1128.25 797.894 1126.22 792.038 1124.27 786.025L1118.49 767.364C1112.24 746.825 1114.21 724.661 1123.98 705.543C1133.75 686.426 1150.56 671.848 1170.87 664.883C1191.18 657.918 1213.4 659.109 1232.84 668.206C1252.29 677.302 1267.45 693.593 1275.12 713.646L1276.21 717.394Z" fill="white"/>
<path d="M1354.53 814.76L1369.6 855.127C1370.94 857.762 1371.5 860.724 1371.23 863.669C1370.95 866.613 1369.84 869.418 1368.03 871.758L1358.59 881.049C1356.7 882.642 1354.48 883.798 1352.09 884.435C1349.71 885.072 1347.21 885.174 1344.78 884.734C1342.34 884.294 1340.04 883.323 1338.03 881.889C1336.01 880.456 1334.34 878.596 1333.13 876.443L1304.71 834.67C1303.12 832.689 1301.99 830.379 1301.4 827.908C1300.8 825.436 1300.77 822.864 1301.29 820.376C1301.81 817.889 1302.88 815.549 1304.42 813.525C1305.96 811.5 1307.92 809.842 1310.18 808.67L1332.35 799.456C1339.69 796.411 1350.78 803.751 1354.53 814.76Z" fill="#FF8B7B"/>
<path d="M1287.38 2796.18C1287.38 2796.18 1163.39 2766.59 1155.58 2746.76H1085.31L1081.56 2820.54H1124.35L1131.3 2813.75L1141.84 2820.54C1176.74 2820.54 1269.42 2819.22 1291.75 2811.33C1292.43 2808.64 1292.38 2805.83 1291.62 2803.16C1290.85 2800.5 1289.39 2798.09 1287.38 2796.18Z" fill="#263238"/>
</svg>
