<svg width="3904" height="2909" viewBox="0 0 3904 2909" fill="none" xmlns="http://www.w3.org/2000/svg">
<path d="M3903.98 2556.32H0V2558.27H3903.98V2556.32Z" fill="#EBEBEB"/>
<path d="M3401.7 2681.95H3254.2V2683.91H3401.7V2681.95Z" fill="#EBEBEB"/>
<path d="M2518.23 2668.37H2288.12V2670.32H2518.23V2668.37Z" fill="#EBEBEB"/>
<path d="M3246.39 2609.49H2878.56V2611.44H3246.39V2609.49Z" fill="#EBEBEB"/>
<path d="M495.259 2622.61H409.605V2624.56H495.259V2622.61Z" fill="#EBEBEB"/>
<path d="M865.825 2622.61H564.75V2624.56H865.825V2622.61Z" fill="#EBEBEB"/>
<path d="M1757.97 2655.56H1335.16V2657.51H1757.97V2655.56Z" fill="#EBEBEB"/>
<path d="M1850.49 2208.09H342.927C331.103 2208.09 319.763 2203.39 311.402 2195.03C303.041 2186.67 298.344 2175.33 298.344 2163.5V44.193C298.447 32.4365 303.189 21.1966 311.539 12.9198C319.889 4.64309 331.17 -0.000450721 342.927 3.28133e-08H1850.49C1862.31 3.28134e-08 1873.65 4.69716 1882.01 13.0582C1890.37 21.4192 1895.07 32.7591 1895.07 44.5834V2163.5C1895.07 2175.33 1890.37 2186.67 1882.01 2195.03C1873.65 2203.39 1862.31 2208.09 1850.49 2208.09ZM342.927 1.56159C331.627 1.58223 320.796 6.08036 312.805 14.0708C304.815 22.0613 300.316 32.8928 300.296 44.193V2163.5C300.316 2174.8 304.815 2185.64 312.805 2193.63C320.796 2201.62 331.627 2206.11 342.927 2206.13H1850.49C1861.79 2206.11 1872.62 2201.62 1880.61 2193.63C1888.6 2185.64 1893.1 2174.8 1893.12 2163.5V44.193C1893.1 32.8928 1888.6 22.0613 1880.61 14.0708C1872.62 6.08036 1861.79 1.58223 1850.49 1.56159H342.927Z" fill="#EBEBEB"/>
<path d="M3539.43 2208.09H2031.71C2019.89 2208.07 2008.56 2203.36 2000.21 2195.01C1991.85 2186.65 1987.15 2175.32 1987.12 2163.5V44.193C1987.25 32.4429 1992 21.2148 2000.34 12.9424C2008.69 4.67 2019.96 0.0198969 2031.71 0H3539.43C3551.16 0.0406364 3562.4 4.70233 3570.71 12.9747C3579.03 21.247 3583.75 32.4635 3583.85 44.193V2163.5C3583.85 2175.3 3579.18 2186.62 3570.85 2194.97C3562.52 2203.33 3551.22 2208.05 3539.43 2208.09ZM2031.71 1.56159C2020.41 1.58223 2009.58 6.08036 2001.59 14.0708C1993.6 22.0613 1989.1 32.8928 1989.08 44.193V2163.5C1989.1 2174.8 1993.6 2185.64 2001.59 2193.63C2009.58 2201.62 2020.41 2206.11 2031.71 2206.13H3539.43C3550.73 2206.11 3561.56 2201.62 3569.55 2193.63C3577.54 2185.64 3582.04 2174.8 3582.06 2163.5V44.193C3582.04 32.8928 3577.54 22.0613 3569.55 14.0708C3561.56 6.08036 3550.73 1.58223 3539.43 1.56159H2031.71Z" fill="#EBEBEB"/>
<path d="M3401.7 2681.95H3254.2V2683.91H3401.7V2681.95Z" fill="#EBEBEB"/>
<path d="M2518.23 2668.37H2288.12V2670.32H2518.23V2668.37Z" fill="#EBEBEB"/>
<path d="M3246.39 2609.49H2878.56V2611.44H3246.39V2609.49Z" fill="#EBEBEB"/>
<path d="M495.259 2622.61H409.605V2624.56H495.259V2622.61Z" fill="#EBEBEB"/>
<path d="M865.825 2622.61H564.75V2624.56H865.825V2622.61Z" fill="#EBEBEB"/>
<path d="M1757.97 2655.56H1335.16V2657.51H1757.97V2655.56Z" fill="#EBEBEB"/>
<path d="M1537.7 239.078H1074.06V1293.46H1537.7V239.078Z" fill="#E6E6E6"/>
<path d="M1566.04 239.078H1102.41V1293.46H1566.04V239.078Z" fill="#F5F5F5"/>
<path d="M1515.21 1245.99V286.551H1153.23V1245.99H1515.21Z" fill="white"/>
<path d="M1515.13 1245.99V286.551H1493.74V1245.99H1515.13Z" fill="#E6E6E6"/>
<path d="M1544.96 961.078H1123.41V1024.79H1544.96V961.078Z" fill="#F5F5F5"/>
<path d="M1544.96 370.254H1123.41V433.967H1544.96V370.254Z" fill="#F5F5F5"/>
<path d="M2162.81 239.078H1699.17V1293.46H2162.81V239.078Z" fill="#E6E6E6"/>
<path d="M2191.07 239.078H1727.43V1293.46H2191.07V239.078Z" fill="#F5F5F5"/>
<path d="M2140.24 1245.99V286.551H1778.26V1245.99H2140.24Z" fill="white"/>
<path d="M2140.24 1245.99V286.551H2118.84V1245.99H2140.24Z" fill="#E6E6E6"/>
<path d="M2170.07 961.078H1748.52V1024.79H2170.07V961.078Z" fill="#F5F5F5"/>
<path d="M2170.07 370.254H1748.52V433.967H2170.07V370.254Z" fill="#F5F5F5"/>
<path d="M912.594 239.078H448.957V1293.46H912.594V239.078Z" fill="#E6E6E6"/>
<path d="M940.934 239.078H477.297V1293.46H940.934V239.078Z" fill="#F5F5F5"/>
<path d="M890.105 1245.99L890.105 286.551H528.128V1245.99H890.105Z" fill="white"/>
<path d="M890.027 1245.91L890.027 286.473H868.634L868.634 1245.91H890.027Z" fill="#E6E6E6"/>
<path d="M919.856 961.078H498.305V1024.79H919.856V961.078Z" fill="#F5F5F5"/>
<path d="M919.856 370.254H498.305V433.967H919.856V370.254Z" fill="#F5F5F5"/>
<path d="M2570.53 1503.11H2494.72V2556.32H2570.53V1503.11Z" fill="#E6E6E6"/>
<path d="M2590.84 1503.11H2546.18V2556.32H2590.84V1503.11Z" fill="#F0F0F0"/>
<path d="M1528.1 1582.05L2604.66 1582.05V1503.03L1528.1 1503.03V1582.05Z" fill="#F0F0F0"/>
<path d="M508.378 1503.11H432.562V2556.32H508.378V1503.11Z" fill="#E6E6E6"/>
<path d="M522.587 1503.11H477.926V2556.32H522.587V1503.11Z" fill="#F0F0F0"/>
<path d="M419.052 1582.05L1495.61 1582.05V1503.03L419.052 1503.03V1582.05Z" fill="#E6E6E6"/>
<path d="M1521.62 1503.11H1445.8V2556.32H1521.62V1503.11Z" fill="#E6E6E6"/>
<path d="M1541.92 1503.11H1497.25V2556.32H1541.92V1503.11Z" fill="#F0F0F0"/>
<path d="M1328.68 1152.77H1890.85L1934.97 1484.68H1372.87L1328.68 1152.77Z" fill="#E6E6E6"/>
<path d="M1372.87 1484.68L1375.14 1503.03H1937.31L1935.04 1484.68H1372.87Z" fill="#E6E6E6"/>
<path d="M1346.01 1152.77H1908.11L1952.3 1484.68H1390.13L1346.01 1152.77Z" fill="#F0F0F0"/>
<path d="M1403.72 1469.54L1363.66 1167.91H1894.52L1934.66 1469.54H1403.72Z" fill="white"/>
<path d="M1536.61 1484.68L1538.87 1503.03H2157.96L2155.62 1484.68H1536.61Z" fill="#F0F0F0"/>
<path d="M2552.42 1218.04H2274.14C2226.77 1217.61 2180.89 1234.56 2145.18 1265.69C2109.47 1296.81 2086.4 1339.94 2080.35 1386.93L2039.67 1694.32L1888.51 1693.78H1888.04C1854.33 1692.98 1821.61 1705.14 1796.61 1727.76C1771.6 1750.38 1756.23 1781.73 1753.66 1815.35L1744.76 1920.75C1730.11 1922.83 1716.53 1929.66 1706.14 1940.19C1695.74 1950.73 1689.09 1964.39 1687.22 1979.08H2433.74C2481.07 1979.51 2526.91 1962.57 2562.59 1931.48C2598.27 1900.38 2621.32 1857.29 2627.38 1810.35L2685.93 1369.2C2688.16 1350.3 2686.38 1331.14 2680.7 1312.97C2675.02 1294.8 2665.57 1278.04 2652.97 1263.77C2640.37 1249.5 2624.9 1238.06 2607.57 1230.18C2590.25 1222.3 2571.45 1218.16 2552.42 1218.04ZM1896.55 1919.66H1784.9L1793.33 1822.69C1795.16 1797.84 1806.48 1774.64 1824.94 1757.9C1843.39 1741.16 1867.58 1732.15 1892.49 1732.74H1892.88L2034.67 1733.21L2024.76 1807.93C2020.74 1839.05 2005.45 1867.62 1981.78 1888.21C1958.1 1908.8 1927.69 1920 1896.32 1919.66H1896.55Z" fill="#E0E0E0"/>
<path d="M1859.62 1978.77H1820.89L1730.16 2556.32H1768.89L1859.62 1978.77Z" fill="#F0F0F0"/>
<path d="M2005 1978.77H1966.28L1875.47 2556.32H1914.2L2005 1978.77Z" fill="#F0F0F0"/>
<path d="M2346.06 1978.77H2384.79L2475.59 2556.32H2436.87L2346.06 1978.77Z" fill="#F0F0F0"/>
<path d="M2200.75 1978.77H2239.48L2330.21 2556.32H2291.48L2200.75 1978.77Z" fill="#F0F0F0"/>
<path d="M3432.46 257.586H2677.51V1834.87H3432.46V257.586Z" fill="#E6E6E6"/>
<path d="M3484.93 257.586H2691.48V1834.87H3484.93V257.586Z" fill="#F0F0F0"/>
<path d="M3418.4 1768.42V324.105L2757.85 324.105V1768.42H3418.4Z" fill="#FAFAFA"/>
<path d="M2992.09 1768.42L3073.91 324.031H3184.32L3102.49 1768.42H2992.09Z" fill="white"/>
<path d="M3123.34 1768.42L3205.17 324.031H3315.57L3233.74 1768.42H3123.34Z" fill="white"/>
<path d="M1951.99 2908.93C2788.09 2908.93 3465.88 2869.36 3465.88 2820.54C3465.88 2771.73 2788.09 2732.16 1951.99 2732.16C1115.9 2732.16 438.105 2771.73 438.105 2820.54C438.105 2869.36 1115.9 2908.93 1951.99 2908.93Z" fill="#F5F5F5"/>
<path d="M1880.23 520.009L1759.13 2288.43H3235.77L3369.52 334.727H2078.24L1880.23 520.009Z" fill="#00D8FF"/>
<path opacity="0.8" d="M1880.23 520.009L1759.13 2288.43H3235.77L3369.52 334.727H2078.24L1880.23 520.009Z" fill="white"/>
<path d="M3114.93 931.769C3214.41 835.639 3222.27 682.397 3132.5 589.494C3042.72 496.591 2889.3 499.207 2789.82 595.338C2690.34 691.469 2682.48 844.711 2772.26 937.614C2862.04 1030.52 3015.46 1027.9 3114.93 931.769Z" fill="#00D8FF"/>
<path d="M3106.37 922.9C3200.6 831.833 3208.05 686.668 3123.01 598.665C3037.97 510.661 2892.63 513.144 2798.4 604.211C2704.16 695.277 2696.71 840.442 2781.75 928.446C2866.79 1016.45 3012.13 1013.97 3106.37 922.9Z" fill="white"/>
<mask id="mask0_497_6592" style="mask-type:luminance" maskUnits="userSpaceOnUse" x="2722" y="534" width="461" height="459">
<path d="M3106.37 922.896C3200.6 831.829 3208.05 686.665 3123.01 598.661C3037.97 510.658 2892.63 513.141 2798.4 604.207C2704.16 695.274 2696.71 840.439 2781.75 928.442C2866.79 1016.45 3012.13 1013.96 3106.37 922.896Z" fill="white"/>
</mask>
<g mask="url(#mask0_497_6592)">
<path d="M2892.15 843.252L2847.02 840.285C2847.02 840.285 2826.01 948.347 2812.58 957.404C2794.24 970.131 2757.93 1000.89 2733.8 1012.06C2731.31 1019.37 2730.8 1027.21 2732.32 1034.78C2769.8 1034.78 2839.13 997.459 2851.08 981.219C2878.48 944.755 2892.15 843.252 2892.15 843.252Z" fill="#FFC3BD"/>
<path d="M2913.7 775.48C2927.36 800.934 2884.81 892.599 2884.81 892.599L2826.88 874.485C2828.54 846.301 2835.06 818.618 2846.16 792.657C2860.53 762.753 2898.71 747.528 2913.7 775.48Z" fill="#263238"/>
<path opacity="0.2" d="M2869.43 822.328C2877.24 840.755 2867.01 885.26 2858.96 913.447C2839.37 879.873 2836.63 848.641 2869.43 822.328Z" fill="black"/>
<path d="M2869.19 780.011C2860.29 812.57 2842.8 898.067 2857.09 1032.29H3009.58C3013.09 1006.75 3008.64 882.06 3044.48 761.74C3026.31 758.145 3007.92 755.797 2989.44 754.713C2965.87 753.346 2942.26 753.346 2918.7 754.713C2908.64 755.647 2898.68 757.476 2888.95 760.178C2884.22 761.485 2879.91 764 2876.44 767.477C2872.98 770.955 2870.48 775.274 2869.19 780.011Z" fill="#263238"/>
<path opacity="0.2" d="M3005.6 791.411C3000.99 811.243 3002.79 858.637 3016.61 913.449C3020.7 866.243 3028.88 819.481 3041.04 773.686C3030.19 772.359 3009.97 772.984 3005.6 791.411Z" fill="black"/>
<path d="M2986.31 688.5C2979.76 711.299 2974.92 739.486 2989.44 754.711C2989.44 754.711 2978.12 778.135 2935.88 778.135C2897.23 778.135 2918.7 754.711 2918.7 754.711C2944.62 748.621 2946.26 717.233 2943.45 699.587L2986.31 688.5Z" fill="#FFC3BD"/>
<path d="M2935.8 777.745C2939.74 784.36 2941.84 791.908 2941.89 799.607C2941.89 799.607 2996.54 780.946 2996.54 753.54C2996.54 753.54 2989.44 749.09 2984.99 745.732C2985.14 745.498 2981.47 766.814 2935.8 777.745Z" fill="white"/>
<path d="M2934.31 777.746C2929.39 783.691 2925.73 790.57 2923.53 797.968C2917.1 793.043 2912.39 786.196 2910.1 778.42C2907.82 770.643 2908.06 762.34 2910.81 754.712C2915.35 752.895 2920.02 751.433 2924.78 750.34C2924.78 750.34 2918.15 771.89 2934.31 777.746Z" fill="white"/>
<path opacity="0.2" d="M2943.6 699.587C2945.85 712.128 2944.58 725.047 2939.93 736.909C2943.96 736.334 2947.88 735.177 2951.57 733.474C2966.56 726.681 2974.6 716.062 2983.42 700.368C2984.28 696.308 2985.38 692.56 2986.47 688.5L2943.6 699.587Z" fill="black"/>
<path d="M2906.52 678.506C2907.67 681.963 2909.54 685.139 2912.01 687.829C2914.47 690.518 2917.46 692.662 2920.81 694.122C2929.94 698.026 2936.42 689.671 2935.87 680.067C2935.33 670.464 2929.55 658.908 2919.48 659.064C2917.21 659.173 2914.99 659.814 2913.02 660.934C2911.04 662.054 2909.35 663.623 2908.09 665.514C2906.83 667.405 2906.03 669.566 2905.76 671.823C2905.48 674.079 2905.74 676.368 2906.52 678.506Z" fill="#FFC3BD"/>
<path opacity="0.2" d="M2906.52 678.506C2907.67 681.963 2909.54 685.139 2912.01 687.829C2914.47 690.518 2917.46 692.662 2920.81 694.122C2929.94 698.026 2936.42 689.671 2935.87 680.067C2935.33 670.464 2929.55 658.908 2919.48 659.064C2917.21 659.173 2914.99 659.814 2913.02 660.934C2911.04 662.054 2909.35 663.623 2908.09 665.514C2906.83 667.405 2906.03 669.566 2905.76 671.823C2905.48 674.079 2905.74 676.368 2906.52 678.506Z" fill="black"/>
<path d="M2947.35 614.714C2944.39 596.678 2917.76 628.378 2923.46 645.087C2929.16 661.796 2950.63 635.015 2947.35 614.714Z" fill="#263238"/>
<path d="M3004.35 660.469C2994.59 690.686 2990.37 708.722 2971.24 721.683C2965.46 726.11 2958.52 728.78 2951.26 729.378C2944 729.975 2936.72 728.473 2930.28 725.051C2923.85 721.629 2918.54 716.431 2914.97 710.076C2911.41 703.72 2909.75 696.475 2910.19 689.202C2910.97 660.625 2926.82 616.042 2959.14 609.015C2991.47 601.987 3013.88 630.252 3004.35 660.469Z" fill="#FFC3BD"/>
<path d="M2995.45 642.59C2962.5 637.905 2915.18 631.815 2932.36 604.877C2948.68 579.189 3013.8 583.874 2994.04 595.274C3019.57 596.757 3052.06 609.016 3027.54 617.448C3047.29 631.502 3039.49 669.137 3001.77 682.254C2990.92 666.482 2982.64 659.533 2995.45 642.59Z" fill="#263238"/>
<path d="M3009.03 696.465C3003.46 702.172 2995.98 705.62 2988.03 706.147C2977.72 706.693 2975.77 696.855 2981.31 688.345C2986.86 679.834 2997.63 671.167 3006.69 674.681C3015.75 678.194 3015.98 689.282 3009.03 696.465Z" fill="#FFC3BD"/>
<path d="M2956.96 661.095C2956.33 663.593 2954.54 665.311 2952.9 665.077C2951.26 664.843 2950.55 662.578 2951.26 660.08C2951.96 657.581 2953.68 655.785 2955.24 656.098C2956.8 656.41 2957.66 658.596 2956.96 661.095Z" fill="#263238"/>
<path d="M2929.55 656.253C2928.92 658.751 2927.13 660.547 2925.57 660.235C2924 659.922 2923.22 657.736 2923.85 655.238C2924.47 652.739 2926.27 651.021 2927.91 651.256C2929.55 651.49 2930.25 653.754 2929.55 656.253Z" fill="#263238"/>
<path d="M2937.98 659.062C2933.07 666.154 2927.3 672.606 2920.8 678.27C2922.19 679.773 2923.9 680.936 2925.81 681.667C2927.72 682.399 2929.77 682.679 2931.81 682.486L2937.98 659.062Z" fill="#ED847E"/>
<path d="M2937.13 690.607C2937.03 690.589 2936.94 690.552 2936.87 690.498C2936.79 690.445 2936.72 690.376 2936.67 690.295C2936.62 690.215 2936.58 690.125 2936.57 690.031C2936.55 689.937 2936.56 689.841 2936.58 689.749C2936.65 689.557 2936.77 689.393 2936.94 689.28C2937.11 689.167 2937.31 689.112 2937.52 689.124C2940.64 689.673 2943.84 689.516 2946.9 688.665C2949.95 687.814 2952.77 686.29 2955.16 684.205C2955.23 684.137 2955.31 684.082 2955.39 684.045C2955.48 684.008 2955.58 683.988 2955.67 683.988C2955.76 683.988 2955.86 684.008 2955.95 684.045C2956.03 684.082 2956.11 684.137 2956.18 684.205C2956.32 684.351 2956.4 684.547 2956.4 684.751C2956.4 684.956 2956.32 685.152 2956.18 685.298C2953.62 687.577 2950.57 689.24 2947.27 690.16C2943.96 691.08 2940.5 691.233 2937.13 690.607Z" fill="#263238"/>
<path d="M2967.57 653.443C2967.36 653.411 2967.16 653.322 2966.99 653.184C2966.83 653.046 2966.71 652.866 2966.64 652.662C2965.99 651.008 2964.94 649.546 2963.57 648.412C2962.2 647.278 2960.57 646.511 2958.83 646.181C2958.64 646.176 2958.46 646.128 2958.29 646.041C2958.12 645.955 2957.98 645.832 2957.87 645.682C2957.75 645.532 2957.68 645.359 2957.64 645.175C2957.6 644.991 2957.61 644.801 2957.66 644.62C2957.73 644.227 2957.95 643.876 2958.26 643.631C2958.58 643.387 2958.98 643.266 2959.37 643.293C2961.58 643.616 2963.67 644.505 2965.44 645.873C2967.2 647.241 2968.58 649.042 2969.45 651.101C2969.58 651.474 2969.56 651.884 2969.4 652.246C2969.24 652.608 2968.95 652.897 2968.59 653.053C2968.46 653.186 2968.3 653.289 2968.12 653.356C2967.95 653.424 2967.76 653.453 2967.57 653.443Z" fill="#263238"/>
<path d="M2920.18 644.149C2920 644.215 2919.81 644.215 2919.63 644.149C2919.5 644.018 2919.39 643.86 2919.31 643.686C2919.24 643.511 2919.2 643.324 2919.2 643.134C2919.2 642.944 2919.24 642.757 2919.31 642.582C2919.39 642.408 2919.5 642.25 2919.63 642.119C2921.19 640.279 2923.15 638.812 2925.35 637.826C2927.55 636.839 2929.95 636.359 2932.36 636.419C2932.55 636.447 2932.72 636.513 2932.88 636.611C2933.04 636.709 2933.18 636.839 2933.29 636.992C2933.4 637.145 2933.48 637.318 2933.52 637.501C2933.56 637.684 2933.56 637.874 2933.53 638.059C2933.45 638.466 2933.23 638.829 2932.89 639.075C2932.56 639.322 2932.15 639.433 2931.73 639.386C2929.83 639.363 2927.95 639.764 2926.22 640.561C2924.49 641.358 2922.96 642.53 2921.74 643.993C2921.53 644.171 2921.26 644.281 2920.98 644.309C2920.71 644.337 2920.43 644.281 2920.18 644.149Z" fill="#263238"/>
<path d="M3057.91 803.512L3016.61 825.452C3016.61 825.452 3056.5 923.832 3049.71 938.589C3040.42 958.734 3025.04 1003 3009.89 1024.95C3011.68 1032.26 3015.49 1038.92 3020.9 1044.15C3054.01 1024.16 3094.69 956.626 3096.48 937.106C3100.54 892.522 3057.91 803.512 3057.91 803.512Z" fill="#FFC3BD"/>
<path d="M3044.48 761.738C3073.37 766.813 3094.61 869.722 3094.61 869.722L3023.4 890.1C3013.28 866.434 3004.91 842.061 2998.34 817.174C2988.89 779.071 3013.88 756.194 3044.48 761.738Z" fill="#263238"/>
</g>
<path d="M3036.35 2080.01C3135.82 1983.88 3143.69 1830.64 3053.91 1737.74C2964.13 1644.83 2810.71 1647.45 2711.23 1743.58C2611.76 1839.71 2603.89 1992.95 2693.67 2085.86C2783.45 2178.76 2936.87 2176.14 3036.35 2080.01Z" fill="#00D8FF"/>
<path d="M3027.78 2071.07C3122.01 1980 3129.46 1834.84 3044.42 1746.83C2959.38 1658.83 2814.04 1661.31 2719.81 1752.38C2625.57 1843.45 2618.12 1988.61 2703.16 2076.61C2788.2 2164.62 2933.54 2162.13 3027.78 2071.07Z" fill="white"/>
<mask id="mask1_497_6592" style="mask-type:luminance" maskUnits="userSpaceOnUse" x="2643" y="1682" width="461" height="460">
<path d="M3027.78 2071.07C3122.01 1980 3129.46 1834.84 3044.42 1746.83C2959.38 1658.83 2814.04 1661.31 2719.81 1752.38C2625.57 1843.45 2618.12 1988.61 2703.16 2076.61C2788.2 2164.62 2933.54 2162.13 3027.78 2071.07Z" fill="white"/>
</mask>
<g mask="url(#mask1_497_6592)">
<path d="M2794 1993.68L2751.6 1979.86C2751.6 1979.86 2705.46 2081.36 2690.39 2087.45C2669.77 2095.26 2627.92 2117.2 2602.08 2122.43C2597.88 2129.08 2595.46 2136.68 2595.05 2144.53C2630.81 2153.74 2706 2133.44 2721.38 2120.25C2756.21 2090.26 2794 1993.68 2794 1993.68Z" fill="#FFB573"/>
<path d="M2830.93 1931.77C2837.8 1960.19 2775.02 2040.69 2775.02 2040.69L2724.19 2008.52C2732.57 1981.19 2745.47 1955.45 2762.37 1932.39C2783.3 1906.39 2823.35 1900.62 2830.93 1931.77Z" fill="#00D8FF"/>
<path opacity="0.3" d="M2830.93 1931.77C2837.8 1960.19 2775.02 2040.69 2775.02 2040.69L2724.19 2008.52C2732.57 1981.19 2745.47 1955.45 2762.37 1932.39C2783.3 1906.39 2823.35 1900.62 2830.93 1931.77Z" fill="black"/>
<path opacity="0.2" d="M2791.27 1967.13C2796.03 1986.81 2791.73 2018.27 2779.16 2045.21C2768 2028.27 2754.96 1987.9 2791.27 1967.13Z" fill="black"/>
<path d="M2790.56 1928.57C2781.66 1961.12 2764.25 2046.62 2778.46 2180.84H2931.03C2934.54 2155.31 2930.01 2030.62 2965.85 1910.29C2947.68 1906.7 2929.29 1904.35 2910.8 1903.27C2887.24 1901.9 2863.62 1901.9 2840.06 1903.27C2830.01 1904.21 2820.05 1906.04 2810.32 1908.73C2805.59 1910.05 2801.29 1912.57 2797.83 1916.05C2794.37 1919.52 2791.86 1923.84 2790.56 1928.57Z" fill="#00D8FF"/>
<path opacity="0.3" d="M2790.56 1928.57C2781.66 1961.12 2764.25 2046.62 2778.46 2180.84H2931.03C2934.54 2155.31 2930.01 2030.62 2965.85 1910.29C2947.68 1906.7 2929.29 1904.35 2910.8 1903.27C2887.24 1901.9 2863.62 1901.9 2840.06 1903.27C2830.01 1904.21 2820.05 1906.04 2810.32 1908.73C2805.59 1910.05 2801.29 1912.57 2797.83 1916.05C2794.37 1919.52 2791.86 1923.84 2790.56 1928.57Z" fill="black"/>
<path opacity="0.2" d="M2927.52 1965.18C2922.91 1985.02 2918.85 2032.1 2937.98 2061.61C2942.1 2014.4 2950.31 1967.64 2962.49 1921.85C2951.41 1920.76 2931.89 1946.6 2927.52 1965.18Z" fill="black"/>
<g opacity="0.95">
<path d="M2855.29 1964.17L2846.94 1967.84L2840.53 1962.06C2832.4 1955.32 2826.49 1946.28 2823.58 1936.12C2820.67 1925.97 2820.89 1915.17 2824.22 1905.14C2829.38 1904.12 2834.59 1903.36 2839.83 1902.88C2863.39 1901.51 2887.01 1901.51 2910.57 1902.88C2916.04 1902.88 2921.5 1903.58 2926.81 1904.13L2921.5 1910.92C2903.59 1933.3 2880.99 1951.47 2855.29 1964.17Z" fill="white"/>
</g>
<path d="M2907.76 1836.66C2901.13 1859.46 2896.28 1887.65 2910.81 1902.88C2894.39 1923.2 2873.77 1939.74 2850.37 1951.36C2843.22 1945.79 2838.26 1937.87 2836.38 1929C2834.49 1920.13 2835.8 1910.88 2840.07 1902.88C2866.07 1896.79 2867.63 1865.4 2864.82 1847.75L2907.76 1836.66Z" fill="#FFB573"/>
<path opacity="0.2" d="M2864.81 1847.75C2867.06 1860.29 2865.79 1873.21 2861.14 1885.07C2865.19 1884.49 2869.13 1883.33 2872.86 1881.64C2887.77 1874.84 2895.81 1864.23 2904.63 1848.53C2905.57 1844.47 2906.59 1840.72 2907.76 1836.66L2864.81 1847.75Z" fill="black"/>
<path d="M2827.88 1827.06C2829.04 1830.53 2830.92 1833.71 2833.39 1836.41C2835.87 1839.1 2838.89 1841.23 2842.25 1842.68C2851.38 1846.58 2857.87 1838.23 2857.24 1828.62C2856.62 1819.02 2850.92 1807.46 2840.92 1807.62C2838.64 1807.72 2836.42 1808.35 2834.44 1809.46C2832.45 1810.58 2830.75 1812.15 2829.48 1814.04C2828.21 1815.93 2827.41 1818.1 2827.13 1820.36C2826.85 1822.62 2827.11 1824.92 2827.88 1827.06Z" fill="#FFB573"/>
<path opacity="0.2" d="M2827.88 1827.06C2829.04 1830.53 2830.92 1833.71 2833.39 1836.41C2835.87 1839.1 2838.89 1841.23 2842.25 1842.68C2851.38 1846.58 2857.87 1838.23 2857.24 1828.62C2856.62 1819.02 2850.92 1807.46 2840.92 1807.62C2838.64 1807.72 2836.42 1808.35 2834.44 1809.46C2832.45 1810.58 2830.75 1812.15 2829.48 1814.04C2828.21 1815.93 2827.41 1818.1 2827.13 1820.36C2826.85 1822.62 2827.11 1824.92 2827.88 1827.06Z" fill="black"/>
<path d="M2864.03 1773.26C2861.07 1752.89 2838.42 1776.23 2835.85 1791.14C2833.27 1806.06 2845.76 1821.13 2854.27 1806.76C2862.78 1792.39 2865.52 1784.27 2864.03 1773.26Z" fill="#263238"/>
<path d="M2925.72 1808.63C2915.96 1838.85 2911.74 1856.81 2892.61 1869.85C2886.82 1874.27 2879.89 1876.94 2872.63 1877.54C2865.36 1878.14 2858.08 1876.64 2851.65 1873.22C2845.22 1869.79 2839.9 1864.6 2836.34 1858.24C2832.78 1851.88 2831.12 1844.64 2831.55 1837.37C2832.33 1808.79 2848.18 1764.21 2880.51 1757.18C2912.83 1750.15 2935.79 1778.42 2925.72 1808.63Z" fill="#FFB573"/>
<path d="M2910.96 1840.25C2899.25 1832.45 2897.14 1829.48 2903.15 1822.45C2913.3 1811.05 2898.23 1809.41 2906.2 1795.28C2917.29 1775.6 2881.92 1789.42 2881.29 1775.14C2880.74 1763.5 2850.06 1784.43 2846.86 1771C2842.25 1750.85 2871.76 1754.6 2876.92 1744.76C2882.07 1734.92 2912.37 1733.44 2917.21 1747.81C2922.05 1762.17 2937.27 1750.7 2947.19 1768.19C2957.11 1785.68 2936.57 1787 2946.49 1804.03C2954.29 1817.69 2939.23 1827.45 2928.53 1838.3C2922.13 1845.33 2918.22 1845.17 2910.96 1840.25Z" fill="#263238"/>
<path d="M2932.35 1840.49C2927.3 1846.69 2920.12 1850.78 2912.21 1851.97C2901.9 1853.38 2899.09 1844.16 2903.93 1834.87C2908.77 1825.58 2918.77 1816.44 2928.14 1819.26C2937.5 1822.07 2938.68 1832.76 2932.35 1840.49Z" fill="#FFB573"/>
<path d="M2878.33 1809.26C2877.7 1811.76 2875.91 1813.48 2874.34 1813.24C2872.78 1813.01 2872 1810.74 2872.63 1808.24C2873.25 1805.75 2875.05 1803.95 2876.69 1804.26C2878.33 1804.57 2879.03 1806.76 2878.33 1809.26Z" fill="#263238"/>
<path d="M2851 1804.42C2850.29 1806.92 2848.5 1808.71 2846.94 1808.4C2845.38 1808.09 2844.59 1805.9 2845.22 1803.4C2845.84 1800.9 2847.72 1799.19 2849.28 1799.42C2850.84 1799.65 2851.62 1801.92 2851 1804.42Z" fill="#263238"/>
<path d="M2859.35 1807.23C2854.48 1814.33 2848.73 1820.78 2842.25 1826.44C2843.63 1827.94 2845.35 1829.1 2847.26 1829.84C2849.17 1830.57 2851.22 1830.85 2853.26 1830.65L2859.35 1807.23Z" fill="#ED893E"/>
<path d="M2858.49 1838.77C2858.4 1838.76 2858.31 1838.72 2858.23 1838.67C2858.16 1838.61 2858.09 1838.54 2858.05 1838.46C2858 1838.37 2857.98 1838.28 2857.97 1838.19C2857.97 1838.09 2857.99 1838 2858.02 1837.91C2858.06 1837.72 2858.17 1837.55 2858.33 1837.43C2858.49 1837.32 2858.69 1837.27 2858.88 1837.29C2862 1837.84 2865.21 1837.68 2868.26 1836.83C2871.31 1835.98 2874.14 1834.46 2876.53 1832.37C2876.59 1832.3 2876.67 1832.25 2876.76 1832.21C2876.85 1832.18 2876.94 1832.16 2877.03 1832.16C2877.13 1832.16 2877.22 1832.18 2877.31 1832.21C2877.4 1832.25 2877.48 1832.3 2877.54 1832.37C2877.61 1832.44 2877.66 1832.52 2877.7 1832.6C2877.73 1832.69 2877.75 1832.78 2877.75 1832.88C2877.75 1832.97 2877.73 1833.07 2877.7 1833.15C2877.66 1833.24 2877.61 1833.32 2877.54 1833.39C2874.99 1835.68 2871.94 1837.35 2868.64 1838.29C2865.34 1839.22 2861.87 1839.39 2858.49 1838.77Z" fill="#263238"/>
<path d="M2888.94 1801.61C2888.73 1801.58 2888.53 1801.49 2888.36 1801.35C2888.2 1801.21 2888.07 1801.03 2888.01 1800.83C2887.36 1799.17 2886.31 1797.71 2884.94 1796.58C2883.57 1795.44 2881.94 1794.67 2880.2 1794.35C2880.01 1794.33 2879.84 1794.27 2879.68 1794.18C2879.52 1794.09 2879.38 1793.97 2879.27 1793.82C2879.16 1793.67 2879.08 1793.51 2879.04 1793.33C2879 1793.15 2878.99 1792.96 2879.03 1792.78C2879.1 1792.39 2879.32 1792.04 2879.63 1791.8C2879.95 1791.55 2880.34 1791.43 2880.74 1791.46C2882.95 1791.78 2885.04 1792.67 2886.81 1794.04C2888.57 1795.41 2889.95 1797.21 2890.82 1799.26C2890.95 1799.64 2890.93 1800.05 2890.77 1800.41C2890.61 1800.77 2890.32 1801.06 2889.96 1801.22C2889.83 1801.35 2889.67 1801.45 2889.49 1801.52C2889.32 1801.59 2889.13 1801.62 2888.94 1801.61Z" fill="#263238"/>
<path d="M2841.23 1792.31C2841.06 1792.36 2840.87 1792.36 2840.69 1792.31C2840.55 1792.18 2840.44 1792.03 2840.37 1791.85C2840.29 1791.68 2840.25 1791.49 2840.25 1791.3C2840.25 1791.11 2840.29 1790.92 2840.37 1790.75C2840.44 1790.57 2840.55 1790.42 2840.69 1790.28C2842.21 1788.42 2844.15 1786.94 2846.34 1785.95C2848.54 1784.96 2850.93 1784.5 2853.34 1784.58C2853.52 1784.61 2853.7 1784.68 2853.86 1784.78C2854.02 1784.88 2854.16 1785 2854.27 1785.16C2854.38 1785.31 2854.45 1785.48 2854.5 1785.67C2854.54 1785.85 2854.54 1786.04 2854.51 1786.22C2854.43 1786.62 2854.22 1786.97 2853.9 1787.21C2853.58 1787.46 2853.19 1787.58 2852.79 1787.55C2850.88 1787.52 2849 1787.91 2847.27 1788.71C2845.53 1789.51 2844.01 1790.69 2842.8 1792.16C2842.57 1792.32 2842.31 1792.42 2842.04 1792.45C2841.76 1792.47 2841.48 1792.43 2841.23 1792.31Z" fill="#263238"/>
<path d="M2982.64 1955.19L2939.22 1971.74C2939.22 1971.74 2965.69 2075.35 2957.1 2089.25C2945.39 2108.22 2924.54 2150.54 2906.82 2170.53C2907.6 2178.05 2910.5 2185.2 2915.17 2191.14C2950.23 2175.53 2999.03 2113.06 3003.33 2093.78C3012.93 2049.66 2982.64 1955.19 2982.64 1955.19Z" fill="#FFB573"/>
<path d="M2974.83 1911.62C3002.54 1920.44 3010.12 2026.08 3010.12 2026.08L2937.5 2037.33C2930.61 2012.35 2925.55 1986.91 2922.36 1961.2C2917.83 1921.85 2945 1902.17 2974.83 1911.62Z" fill="#00D8FF"/>
<path opacity="0.3" d="M2974.83 1911.62C3002.54 1920.44 3010.12 2026.08 3010.12 2026.08L2937.5 2037.33C2930.61 2012.35 2925.55 1986.91 2922.36 1961.2C2917.83 1921.85 2945 1902.17 2974.83 1911.62Z" fill="black"/>
</g>
<path d="M2353.64 1505.93C2453.12 1409.8 2460.98 1256.56 2371.2 1163.66C2281.42 1070.75 2128 1073.37 2028.53 1169.5C1929.05 1265.63 1921.19 1418.88 2010.96 1511.78C2100.74 1604.68 2254.16 1602.06 2353.64 1505.93Z" fill="#00D8FF"/>
<path d="M2345.06 1497.06C2439.3 1406 2446.75 1260.83 2361.71 1172.83C2276.67 1084.83 2131.33 1087.31 2037.1 1178.38C1942.86 1269.44 1935.41 1414.61 2020.45 1502.61C2105.49 1590.61 2250.83 1588.13 2345.06 1497.06Z" fill="white"/>
<mask id="mask2_497_6592" style="mask-type:luminance" maskUnits="userSpaceOnUse" x="1961" y="1108" width="460" height="460">
<path d="M2345.06 1497.06C2439.3 1405.99 2446.75 1260.83 2361.71 1172.83C2276.67 1084.82 2131.33 1087.3 2037.1 1178.37C1942.86 1269.44 1935.41 1414.6 2020.45 1502.61C2105.49 1590.61 2250.83 1588.13 2345.06 1497.06Z" fill="white"/>
</mask>
<g mask="url(#mask2_497_6592)">
<path d="M2287.03 1391.77C2288.2 1410.35 2289.14 1429.09 2289.84 1447.75L2292.1 1503.5L2292.5 1510.29L2293.04 1516.22C2293.67 1520.28 2294.13 1524.5 2294.99 1528.87C2296.63 1537.46 2298.74 1546.21 2301.24 1554.95C2305.92 1572.52 2311.62 1590.24 2316.86 1607.73L2300.69 1615.54C2290.92 1599 2282.28 1581.81 2274.85 1564.09C2271.26 1555.11 2267.9 1545.97 2265.01 1536.37C2263.47 1531.5 2262.19 1526.54 2261.19 1521.53L2259.86 1513.73L2259.08 1506.54C2254.94 1468.75 2252.21 1431.51 2250.72 1393.95L2287.03 1391.77Z" fill="#FF8B7B"/>
<path d="M2278.44 1350.77C2292.65 1354.44 2298.74 1414.25 2298.74 1414.25L2240.88 1452.28C2240.88 1452.28 2222.85 1381.46 2235.11 1365.53C2247.36 1349.6 2257.59 1345.46 2278.44 1350.77Z" fill="#00D8FF"/>
<path opacity="0.2" d="M2276.17 1364.21L2283.2 1424.41L2259.7 1439.71L2276.17 1364.21Z" fill="black"/>
<path d="M2119.86 1196.8C2095.42 1200.32 2044.28 1317.12 2127.67 1371.62C2211.05 1426.12 2272.58 1364.2 2272.58 1364.2C2272.58 1364.2 2221.83 1303.93 2229.17 1264.58C2236.51 1225.22 2268.21 1175.64 2203.25 1159.09C2157.49 1147.77 2095.97 1158.7 2119.86 1196.8Z" fill="#263238"/>
<path d="M2278.44 1350.78C2278.44 1350.78 2294.75 1356.71 2247.2 1563.46H2103.93C2110.33 1505.22 2112.83 1469.3 2093.15 1349.76C2113.4 1345.69 2133.91 1343.08 2154.52 1341.95C2176.15 1340.43 2197.86 1340.43 2219.49 1341.95C2247.2 1344.37 2278.44 1350.78 2278.44 1350.78Z" fill="#00D8FF"/>
<path opacity="0.2" d="M2101.75 1397.16C2114.47 1400.36 2125.17 1414.49 2122.28 1440.57C2120.57 1452.58 2115.66 1463.9 2108.07 1473.36C2107.21 1453.3 2104.95 1430.03 2100.89 1400.28L2101.75 1397.16Z" fill="black"/>
<path d="M2208.79 1387.63C2208.79 1387.63 2184.04 1406.99 2182.64 1427.53C2164.13 1413.24 2140.47 1374.35 2139.46 1349.45C2139.46 1347.38 2140.28 1345.39 2141.74 1343.93C2143.21 1342.46 2145.19 1341.64 2147.26 1341.64C2149.02 1341.51 2150.77 1341.27 2152.5 1340.94C2153.22 1340.78 2153.97 1340.79 2154.68 1340.96C2155.4 1341.14 2156.07 1341.48 2156.63 1341.95L2208.79 1387.63Z" fill="#FAFAFA"/>
<path d="M2208.79 1387.63C2215.37 1391.73 2220.87 1397.35 2224.82 1404.03C2228.78 1410.7 2231.07 1418.22 2231.51 1425.97C2252.28 1411.52 2245.17 1368.34 2235.57 1347.18C2234.83 1345.54 2233.66 1344.11 2232.2 1343.06C2230.73 1342 2229.01 1341.35 2227.22 1341.17C2224.4 1341.17 2222.22 1340.47 2220.74 1340.16C2220.2 1340.06 2219.65 1340.18 2219.19 1340.49C2218.74 1340.79 2218.43 1341.26 2218.31 1341.8L2208.79 1387.63Z" fill="#FAFAFA"/>
<path d="M2165.92 1268.64C2168.58 1289.56 2170.06 1327.9 2154.52 1341.8C2169.09 1360.81 2187.61 1376.45 2208.79 1387.63C2239.4 1364.21 2219.49 1341.8 2219.49 1341.8C2196.53 1336.25 2198.33 1319 2203.48 1302.76L2165.92 1268.64Z" fill="#FF8B7B"/>
<path opacity="0.2" d="M2181.23 1282.53L2203.48 1302.68C2202.22 1306.44 2201.28 1310.31 2200.67 1314.23C2191.85 1312.9 2178.42 1305.33 2177.25 1295.65C2177.53 1291.02 2178.9 1286.53 2181.23 1282.53Z" fill="black"/>
<path d="M2133.21 1235.06C2140.55 1268.71 2142.97 1283.08 2163.11 1296.74C2169.86 1301.53 2177.76 1304.44 2186 1305.18C2194.23 1305.92 2202.52 1304.47 2210.02 1300.98C2217.51 1297.48 2223.95 1292.06 2228.67 1285.27C2233.39 1278.48 2236.23 1270.55 2236.9 1262.31C2239.63 1230.06 2227.14 1180.48 2191.22 1174.39C2183.08 1173.12 2174.74 1173.84 2166.94 1176.48C2159.13 1179.13 2152.07 1183.62 2146.37 1189.58C2140.68 1195.54 2136.5 1202.78 2134.21 1210.7C2131.92 1218.62 2131.58 1226.98 2133.21 1235.06Z" fill="#FF8B7B"/>
<path d="M2142.81 1265.36C2164.44 1244.74 2165.22 1219.21 2159.75 1211.25C2178.34 1209.69 2226.43 1197.97 2218.7 1180.02C2210.97 1162.06 2136.1 1152.38 2125.79 1198.29C2100.96 1219.06 2116.81 1260.67 2142.81 1265.36Z" fill="#263238"/>
<path d="M2189.74 1232.02C2190.21 1234.83 2192 1236.7 2193.88 1236.31C2195.75 1235.92 2196.84 1233.34 2196.38 1230.61C2195.91 1227.88 2194.11 1225.85 2192.32 1226.32C2190.52 1226.79 2189.35 1229.28 2189.74 1232.02Z" fill="#263238"/>
<path d="M2221.59 1225.07C2221.98 1227.88 2223.86 1229.75 2225.65 1229.36C2227.45 1228.97 2228.7 1226.39 2228.23 1223.58C2227.76 1220.77 2225.96 1218.9 2224.17 1219.29C2223.12 1219.78 2222.28 1220.64 2221.81 1221.7C2221.33 1222.76 2221.26 1223.96 2221.59 1225.07Z" fill="#263238"/>
<path d="M2223.32 1219.68L2229.8 1216.25C2229.8 1216.25 2227.14 1222.18 2223.32 1219.68Z" fill="#263238"/>
<path d="M2212.54 1232.25C2216.01 1238.04 2220.3 1243.3 2225.27 1247.87C2224.01 1249.19 2222.5 1250.23 2220.82 1250.93C2219.13 1251.63 2217.33 1251.97 2215.51 1251.93L2212.54 1232.25Z" fill="#FF5652"/>
<path d="M2201.84 1265.98C2203.26 1265.9 2204.67 1265.72 2206.06 1265.43C2206.28 1265.38 2206.47 1265.25 2206.6 1265.06C2206.73 1264.87 2206.79 1264.64 2206.76 1264.42C2206.75 1264.31 2206.72 1264.2 2206.67 1264.11C2206.61 1264.01 2206.54 1263.93 2206.45 1263.87C2206.36 1263.81 2206.25 1263.77 2206.14 1263.76C2206.04 1263.75 2205.93 1263.76 2205.82 1263.79C2202.44 1264.67 2198.89 1264.71 2195.49 1263.91C2192.09 1263.11 2188.94 1261.49 2186.3 1259.19C2186.14 1259.04 2185.93 1258.96 2185.72 1258.96C2185.5 1258.96 2185.29 1259.04 2185.13 1259.19C2185.05 1259.26 2184.98 1259.35 2184.94 1259.45C2184.89 1259.55 2184.87 1259.66 2184.87 1259.77C2184.87 1259.88 2184.89 1259.99 2184.94 1260.09C2184.98 1260.2 2185.05 1260.29 2185.13 1260.36C2187.37 1262.42 2190.01 1263.98 2192.89 1264.95C2195.77 1265.92 2198.82 1266.27 2201.84 1265.98Z" fill="#263238"/>
<path d="M2128.68 1268.63C2130.4 1271.4 2132.67 1273.79 2135.36 1275.63C2138.05 1277.47 2141.09 1278.73 2144.3 1279.33C2153.04 1280.97 2157.18 1272.85 2154.6 1264.96C2152.03 1257.08 2144.92 1248.49 2136.25 1250.44C2134.36 1250.86 2132.6 1251.72 2131.12 1252.96C2129.63 1254.2 2128.47 1255.78 2127.73 1257.56C2126.99 1259.35 2126.68 1261.29 2126.85 1263.22C2127.01 1265.14 2127.64 1267 2128.68 1268.63Z" fill="#FF8B7B"/>
<path d="M2174.82 1225.85C2175.18 1225.81 2175.51 1225.66 2175.78 1225.42C2176.04 1225.18 2176.23 1224.87 2176.31 1224.52C2178.35 1219.24 2182.39 1214.98 2187.55 1212.65C2187.76 1212.57 2187.95 1212.44 2188.12 1212.28C2188.28 1212.12 2188.41 1211.93 2188.49 1211.72C2188.58 1211.51 2188.63 1211.28 2188.62 1211.05C2188.62 1210.82 2188.58 1210.6 2188.49 1210.39C2188.4 1210.2 2188.28 1210.02 2188.13 1209.88C2187.98 1209.74 2187.8 1209.62 2187.6 1209.55C2187.4 1209.48 2187.19 1209.44 2186.98 1209.45C2186.77 1209.46 2186.57 1209.52 2186.38 1209.61C2183.31 1210.98 2180.55 1212.95 2178.26 1215.4C2175.96 1217.85 2174.19 1220.74 2173.03 1223.9C2172.97 1224.11 2172.96 1224.33 2172.99 1224.54C2173.02 1224.76 2173.1 1224.97 2173.22 1225.15C2173.34 1225.33 2173.49 1225.49 2173.67 1225.61C2173.86 1225.73 2174.06 1225.81 2174.28 1225.85C2174.36 1225.89 2174.46 1225.91 2174.55 1225.91C2174.65 1225.91 2174.74 1225.89 2174.82 1225.85Z" fill="#263238"/>
<path d="M2229.33 1202.89C2229.62 1202.89 2229.91 1202.82 2230.16 1202.69C2230.42 1202.55 2230.64 1202.35 2230.81 1202.11C2231.11 1201.79 2231.27 1201.38 2231.27 1200.94C2231.27 1200.51 2231.11 1200.09 2230.81 1199.77C2228.65 1198.28 2226.16 1197.32 2223.55 1196.98C2220.94 1196.64 2218.29 1196.93 2215.82 1197.82C2215.41 1197.99 2215.08 1198.31 2214.89 1198.72C2214.7 1199.12 2214.67 1199.58 2214.8 1200C2214.88 1200.21 2215 1200.4 2215.15 1200.56C2215.31 1200.73 2215.49 1200.85 2215.7 1200.94C2215.9 1201.03 2216.12 1201.07 2216.34 1201.07C2216.56 1201.07 2216.79 1201.03 2216.99 1200.94C2218.94 1200.23 2221.03 1200 2223.09 1200.29C2225.15 1200.57 2227.1 1201.36 2228.78 1202.58L2229.33 1202.89Z" fill="#263238"/>
<path d="M2191.54 1226.63L2198.02 1223.19C2198.02 1223.19 2195.28 1229.2 2191.54 1226.63Z" fill="#263238"/>
<path d="M2102.37 1555.11L2097.84 1567.92C2097.21 1568.93 2098.39 1569.95 2100.02 1569.95H2247.28C2248.61 1569.95 2249.7 1569.32 2249.86 1568.46L2251.97 1555.66C2251.97 1554.8 2251.11 1554.02 2249.63 1554.02H2104.79C2104.32 1553.98 2103.86 1554.06 2103.44 1554.25C2103.01 1554.44 2102.64 1554.74 2102.37 1555.11Z" fill="#00D8FF"/>
<path opacity="0.2" d="M2102.37 1555.11L2097.84 1567.92C2097.21 1568.93 2098.39 1569.95 2100.02 1569.95H2247.28C2248.61 1569.95 2249.7 1569.32 2249.86 1568.46L2251.97 1555.66C2251.97 1554.8 2251.11 1554.02 2249.63 1554.02H2104.79C2104.32 1553.98 2103.86 1554.06 2103.44 1554.25C2103.01 1554.44 2102.64 1554.74 2102.37 1555.11Z" fill="white"/>
<path d="M2121.19 1571.27H2117.28C2116.5 1571.27 2115.96 1570.88 2116.03 1570.41L2119 1553.78C2119 1553.31 2119.78 1552.92 2120.56 1552.92H2124.47C2125.25 1552.92 2125.79 1553.31 2125.72 1553.78L2122.75 1570.41C2122.67 1570.88 2121.97 1571.27 2121.19 1571.27Z" fill="#00D8FF"/>
<path opacity="0.4" d="M2121.19 1571.27H2117.28C2116.5 1571.27 2115.96 1570.88 2116.03 1570.41L2119 1553.78C2119 1553.31 2119.78 1552.92 2120.56 1552.92H2124.47C2125.25 1552.92 2125.79 1553.31 2125.72 1553.78L2122.75 1570.41C2122.67 1570.88 2121.97 1571.27 2121.19 1571.27Z" fill="black"/>
<path d="M2236.27 1571.27H2232.37C2231.59 1571.27 2231.04 1570.88 2231.12 1570.41L2234.09 1553.78C2234.09 1553.31 2234.87 1552.92 2235.65 1552.92H2239.55C2240.33 1552.92 2240.88 1553.31 2240.8 1553.78L2237.84 1570.41C2237.76 1570.88 2237.05 1571.27 2236.27 1571.27Z" fill="#00D8FF"/>
<path opacity="0.4" d="M2236.27 1571.27H2232.37C2231.59 1571.27 2231.04 1570.88 2231.12 1570.41L2234.09 1553.78C2234.09 1553.31 2234.87 1552.92 2235.65 1552.92H2239.55C2240.33 1552.92 2240.88 1553.31 2240.8 1553.78L2237.84 1570.41C2237.76 1570.88 2237.05 1571.27 2236.27 1571.27Z" fill="black"/>
<path d="M2178.96 1571.27H2175.06C2174.28 1571.27 2173.73 1570.88 2173.81 1570.41L2176.78 1553.78C2176.78 1553.31 2177.56 1552.92 2178.34 1552.92H2182.24C2183.02 1552.92 2183.57 1553.31 2183.49 1553.78L2180.52 1570.41C2180.44 1570.88 2179.74 1571.27 2178.96 1571.27Z" fill="#00D8FF"/>
<path opacity="0.4" d="M2178.96 1571.27H2175.06C2174.28 1571.27 2173.73 1570.88 2173.81 1570.41L2176.78 1553.78C2176.78 1553.31 2177.56 1552.92 2178.34 1552.92H2182.24C2183.02 1552.92 2183.57 1553.31 2183.49 1553.78L2180.52 1570.41C2180.44 1570.88 2179.74 1571.27 2178.96 1571.27Z" fill="black"/>
<path d="M2109.08 1397.63C2105.02 1421.05 2100.42 1445.18 2095.73 1468.91C2093.47 1480.78 2090.89 1492.34 2088.39 1504.44L2084.72 1522.16L2083.08 1529.97C2082.89 1530.53 2082.89 1531.13 2083.08 1531.69C2084.36 1534.98 2086.39 1537.92 2089.02 1540.28C2092.64 1543.82 2096.62 1546.98 2100.88 1549.72C2110.45 1555.82 2120.45 1561.22 2130.79 1565.89C2141.33 1570.81 2152.26 1575.33 2163.35 1579.47C2174.44 1583.61 2185.76 1587.28 2196.92 1591.34L2192.86 1608.75C2168.36 1604.74 2144.25 1598.63 2120.79 1590.48C2108.63 1586.31 2096.84 1581.08 2085.58 1574.87C2079.47 1571.46 2073.69 1567.49 2068.33 1563C2061.48 1557.6 2056.11 1550.57 2052.71 1542.54C2050.81 1537.57 2050.06 1532.23 2050.52 1526.92C2050.91 1523.57 2051.07 1522.86 2051.3 1521.23L2052.01 1516.7L2054.74 1498.82C2056.69 1486.87 2058.41 1474.92 2060.52 1462.98C2064.5 1439.16 2068.33 1415.35 2073.24 1391.61L2109.08 1397.63Z" fill="#FF8B7B"/>
<path d="M2093.16 1349.84C2078.55 1354.21 2057.94 1403.56 2057.94 1403.56L2104.79 1455.17C2104.79 1455.17 2134.15 1402.07 2129.46 1383.57C2124.78 1365.06 2109.86 1344.84 2093.16 1349.84Z" fill="#00D8FF"/>
</g>
<path opacity="0.3" d="M2009.14 740.586H2568.82C2574.03 740.504 2579.02 738.483 2582.81 734.916C2586.61 731.349 2588.94 726.494 2589.35 721.3C2589.56 718.831 2589.25 716.346 2588.43 714.005C2587.62 711.664 2586.33 709.519 2584.64 707.709C2582.94 705.899 2580.89 704.464 2578.61 703.497C2576.33 702.529 2573.87 702.051 2571.39 702.092H2011.8C2006.59 702.17 2001.6 704.178 1997.79 707.727C1993.98 711.276 1991.63 716.113 1991.18 721.3C1990.98 723.773 1991.29 726.261 1992.1 728.606C1992.91 730.951 1994.2 733.1 1995.89 734.916C1997.59 736.732 1999.64 738.175 2001.92 739.151C2004.2 740.127 2006.66 740.616 2009.14 740.586Z" fill="#00D8FF"/>
<path opacity="0.3" d="M2163.74 825.222H2562.8C2568.02 825.125 2573.01 823.1 2576.81 819.539C2580.62 815.977 2582.97 811.131 2583.42 805.937C2583.62 803.468 2583.31 800.982 2582.5 798.641C2581.69 796.301 2580.39 794.156 2578.7 792.346C2577.01 790.536 2574.96 789.101 2572.68 788.134C2570.39 787.166 2567.94 786.688 2565.46 786.729H2166.39C2161.19 786.807 2156.2 788.815 2152.39 792.364C2148.58 795.913 2146.23 800.75 2145.78 805.937C2145.57 808.409 2145.89 810.898 2146.7 813.243C2147.51 815.588 2148.8 817.737 2150.49 819.553C2152.18 821.369 2154.24 822.811 2156.52 823.788C2158.8 824.764 2161.26 825.253 2163.74 825.222Z" fill="#00D8FF"/>
<path d="M2256.97 655.869H2574.44C2579.64 655.807 2584.63 653.802 2588.43 650.248C2592.23 646.694 2594.56 641.848 2594.97 636.661C2595.18 634.195 2594.87 631.713 2594.06 629.374C2593.26 627.034 2591.97 624.889 2590.29 623.074C2588.6 621.259 2586.56 619.815 2584.29 618.834C2582.02 617.853 2579.57 617.356 2577.09 617.376H2259.62C2254.41 617.457 2249.42 619.478 2245.62 623.045C2241.82 626.612 2239.49 631.467 2239.09 636.661C2238.88 639.123 2239.19 641.602 2240 643.938C2240.8 646.273 2242.09 648.414 2243.77 650.223C2245.46 652.031 2247.5 653.468 2249.77 654.44C2252.05 655.413 2254.5 655.899 2256.97 655.869Z" fill="white"/>
<path opacity="0.3" d="M2257.67 1977.21H2484.1C2486.58 1977.16 2489.04 1977.64 2491.32 1978.61C2493.6 1979.58 2495.65 1981.01 2497.35 1982.82C2499.04 1984.63 2500.33 1986.78 2501.14 1989.12C2501.96 1991.46 2502.27 1993.94 2502.06 1996.41C2501.65 2001.62 2499.31 2006.49 2495.5 2010.06C2491.68 2013.62 2486.67 2015.64 2481.45 2015.7H2255.02C2252.54 2015.73 2250.08 2015.24 2247.79 2014.26C2245.51 2013.29 2243.46 2011.85 2241.77 2010.03C2240.08 2008.21 2238.79 2006.06 2237.97 2003.72C2237.16 2001.37 2236.85 1998.89 2237.06 1996.41C2237.49 1991.22 2239.84 1986.37 2243.65 1982.82C2247.46 1979.27 2252.46 1977.27 2257.67 1977.21Z" fill="#00D8FF"/>
<path opacity="0.3" d="M1951.05 1977.21H2177.48C2179.96 1977.16 2182.42 1977.64 2184.7 1978.61C2186.98 1979.58 2189.03 1981.01 2190.72 1982.82C2192.42 1984.63 2193.71 1986.78 2194.52 1989.12C2195.33 1991.46 2195.65 1993.94 2195.44 1996.41C2195 2001.61 2192.64 2006.45 2188.84 2010.02C2185.03 2013.58 2180.04 2015.6 2174.83 2015.7H1948.4C1945.91 2015.73 1943.45 2015.24 1941.17 2014.26C1938.89 2013.29 1936.84 2011.85 1935.15 2010.03C1933.46 2008.21 1932.17 2006.06 1931.35 2003.72C1930.54 2001.37 1930.23 1998.89 1930.44 1996.41C1930.85 1991.21 1933.19 1986.36 1937.01 1982.8C1940.82 1979.24 1945.83 1977.25 1951.05 1977.21Z" fill="#00D8FF"/>
<path opacity="0.3" d="M2090.66 1892.57H2489.72C2492.2 1892.53 2494.66 1893.01 2496.94 1893.97C2499.22 1894.94 2501.27 1896.38 2502.97 1898.19C2504.66 1900 2505.95 1902.14 2506.77 1904.48C2507.58 1906.82 2507.89 1909.31 2507.68 1911.78C2507.27 1916.97 2504.94 1921.83 2501.15 1925.39C2497.35 1928.96 2492.36 1930.98 2487.15 1931.06H2088C2085.53 1931.09 2083.07 1930.6 2080.79 1929.63C2078.51 1928.65 2076.47 1927.21 2074.78 1925.39C2073.1 1923.57 2071.81 1921.42 2071.01 1919.08C2070.21 1916.73 2069.91 1914.24 2070.12 1911.78C2070.53 1906.59 2072.87 1901.74 2076.67 1898.19C2080.47 1894.64 2085.46 1892.63 2090.66 1892.57Z" fill="#00D8FF"/>
<path d="M2037.87 1807.85H2495.42C2497.9 1807.82 2500.36 1808.31 2502.63 1809.29C2504.91 1810.26 2506.96 1811.71 2508.64 1813.53C2510.33 1815.34 2511.61 1817.49 2512.42 1819.84C2513.22 1822.18 2513.52 1824.67 2513.3 1827.14C2512.89 1832.33 2510.56 1837.17 2506.76 1840.73C2502.96 1844.28 2497.97 1846.28 2492.77 1846.35H2035.45C2032.98 1846.39 2030.52 1845.91 2028.24 1844.94C2025.96 1843.97 2023.9 1842.54 2022.21 1840.73C2020.52 1838.92 2019.22 1836.77 2018.41 1834.43C2017.6 1832.09 2017.29 1829.61 2017.5 1827.14C2017.9 1821.97 2020.21 1817.14 2023.97 1813.57C2027.74 1810.01 2032.69 1807.97 2037.87 1807.85Z" fill="white"/>
<path opacity="0.3" d="M2988.88 1403.09H2571.94C2566.73 1403.17 2561.74 1405.19 2557.94 1408.76C2554.14 1412.32 2551.81 1417.18 2551.4 1422.37C2551.2 1424.84 2551.51 1427.31 2552.31 1429.65C2553.12 1431.98 2554.41 1434.13 2556.09 1435.93C2557.77 1437.74 2559.82 1439.18 2562.09 1440.15C2564.36 1441.12 2566.81 1441.61 2569.28 1441.58H2986.23C2991.43 1441.52 2996.42 1439.51 3000.22 1435.96C3004.02 1432.41 3006.35 1427.56 3006.76 1422.37C3006.98 1419.9 3006.68 1417.42 3005.88 1415.07C3005.07 1412.73 3003.79 1410.58 3002.11 1408.76C3000.42 1406.94 2998.37 1405.5 2996.1 1404.52C2993.82 1403.54 2991.36 1403.06 2988.88 1403.09Z" fill="#00D8FF"/>
<path opacity="0.3" d="M2774.48 1318.45H2577.72C2572.51 1318.53 2567.52 1320.55 2563.72 1324.12C2559.92 1327.69 2557.59 1332.54 2557.18 1337.74C2556.98 1340.21 2557.29 1342.69 2558.1 1345.03C2558.91 1347.37 2560.21 1349.52 2561.9 1351.33C2563.59 1353.14 2565.64 1354.57 2567.92 1355.54C2570.21 1356.51 2572.66 1356.99 2575.14 1356.94H2771.82C2777.03 1356.87 2782.02 1354.86 2785.83 1351.31C2789.64 1347.76 2791.99 1342.92 2792.44 1337.74C2792.64 1335.26 2792.33 1332.77 2791.52 1330.43C2790.71 1328.09 2789.42 1325.94 2787.73 1324.12C2786.03 1322.3 2783.98 1320.86 2781.7 1319.88C2779.42 1318.91 2776.96 1318.42 2774.48 1318.45Z" fill="#00D8FF"/>
<path d="M2889.65 1233.65H2583.57C2578.37 1233.73 2573.38 1235.74 2569.57 1239.29C2565.76 1242.84 2563.41 1247.68 2562.96 1252.86C2562.75 1255.34 2563.07 1257.82 2563.88 1260.17C2564.69 1262.51 2565.98 1264.66 2567.67 1266.48C2569.36 1268.29 2571.42 1269.74 2573.7 1270.71C2575.98 1271.69 2578.44 1272.18 2580.92 1272.15H2887.07C2892.28 1272.08 2897.29 1270.07 2901.09 1266.5C2904.89 1262.93 2907.21 1258.06 2907.6 1252.86C2907.81 1250.39 2907.5 1247.91 2906.69 1245.57C2905.88 1243.23 2904.58 1241.08 2902.89 1239.27C2901.2 1237.46 2899.14 1236.03 2896.86 1235.06C2894.58 1234.09 2892.12 1233.61 2889.65 1233.65Z" fill="white"/>
<path opacity="0.3" d="M3137.24 1318.45H2857.71C2852.5 1318.55 2847.51 1320.57 2843.7 1324.13C2839.9 1327.7 2837.54 1332.54 2837.1 1337.74C2836.89 1340.21 2837.21 1342.69 2838.02 1345.03C2838.83 1347.37 2840.12 1349.52 2841.82 1351.33C2843.51 1353.14 2845.56 1354.57 2847.84 1355.54C2850.12 1356.51 2852.58 1356.99 2855.06 1356.94H3134.58C3139.79 1356.87 3144.78 1354.86 3148.59 1351.31C3152.4 1347.76 3154.75 1342.92 3155.2 1337.74C3155.4 1335.26 3155.09 1332.77 3154.28 1330.43C3153.47 1328.09 3152.18 1325.94 3150.49 1324.12C3148.8 1322.3 3146.74 1320.86 3144.46 1319.88C3142.18 1318.91 3139.72 1318.42 3137.24 1318.45Z" fill="#00D8FF"/>
<path opacity="0.3" d="M1880.23 520.009H2089.33L2078.24 334.727L1880.23 520.009Z" fill="#00D8FF"/>
<path d="M1880.23 520.009L2104.08 493.228L2078.24 334.727L1880.23 520.009Z" fill="#00D8FF"/>
<path d="M1036.74 1068.91C1030.1 1084.52 1022.76 1101.86 1016.28 1118.57C1009.8 1135.28 1003.16 1152.37 997.151 1169.32C984.924 1202.46 974.882 1236.37 967.09 1270.82C965.997 1275.04 965.45 1279.18 964.67 1283.31L963.577 1289.56L962.718 1294.48C961.945 1301.43 961.788 1308.43 962.249 1315.4C963.595 1332.47 965.915 1349.44 969.198 1366.23C975.913 1401.29 984.814 1437.6 993.637 1473.2L953.973 1489.99C934.267 1456.29 917.647 1420.88 904.314 1384.19C897.184 1364.9 891.673 1345.06 887.839 1324.85C885.553 1313.23 884.532 1301.4 884.794 1289.56V1284.49C884.794 1282.85 884.794 1281.83 884.794 1280.43L885.575 1272.62C886.122 1267.54 886.434 1262.31 887.293 1257C893.08 1217.63 902.196 1178.81 914.542 1140.98C920.633 1122.31 926.879 1103.89 934.14 1085.85C941.402 1067.81 948.429 1050.09 957.564 1031.59L1036.74 1068.91Z" fill="#7F3E3B"/>
<path d="M992.308 1463.52L1022.76 1493.19L956.314 1524.43C956.314 1524.43 940.229 1496.32 951.317 1470.86L992.308 1463.52Z" fill="#7F3E3B"/>
<path d="M1047.28 1537.46L991.218 1560.42L956.316 1524.11L1022.76 1493.19L1047.28 1537.46Z" fill="#7F3E3B"/>
<path d="M2496.96 1366.65C2584.68 1154.86 2484.11 912.057 2272.32 824.332C2060.53 736.607 1817.73 837.179 1730 1048.97C1642.28 1260.75 1742.85 1503.56 1954.64 1591.28C2166.43 1679.01 2409.23 1578.44 2496.96 1366.65Z" fill="#00D8FF"/>
<path d="M2113.46 1601.02C2330.62 1601.02 2506.67 1424.98 2506.67 1207.81C2506.67 990.651 2330.62 814.605 2113.46 814.605C1896.3 814.605 1720.25 990.651 1720.25 1207.81C1720.25 1424.98 1896.3 1601.02 2113.46 1601.02Z" fill="white"/>
<mask id="mask3_497_6592" style="mask-type:luminance" maskUnits="userSpaceOnUse" x="1720" y="814" width="787" height="788">
<path d="M2113.46 1601.02C2330.62 1601.02 2506.67 1424.98 2506.67 1207.81C2506.67 990.651 2330.62 814.605 2113.46 814.605C1896.3 814.605 1720.25 990.651 1720.25 1207.81C1720.25 1424.98 1896.3 1601.02 2113.46 1601.02Z" fill="white"/>
</mask>
<g mask="url(#mask3_497_6592)">
<path d="M2284.14 1298.3C2288.52 1330.47 2291.95 1362.8 2295.78 1395.05L2306.4 1491.32L2307.8 1502.87L2309.44 1513.26L2311.71 1524.03L2314.44 1535.04C2318.5 1549.8 2323.11 1564.79 2328.26 1579.78C2338.25 1609.84 2349.97 1639.98 2361.44 1669.96L2334.58 1684.49C2316.16 1656.74 2299.52 1627.84 2284.77 1597.97C2277.51 1582.83 2270.56 1567.44 2264.62 1551.13L2260.25 1538.79L2256.35 1525.91C2255.18 1521.46 2254.16 1516.85 2253.07 1512.32L2250.65 1499.83C2244.64 1467.19 2239.72 1435.02 2235.03 1402.7C2230.35 1370.37 2226.21 1338.05 2222.77 1305.57L2284.14 1298.3Z" fill="#FF8B7B"/>
<path d="M2264.7 1230.3C2289.61 1236.62 2307.02 1339.14 2307.02 1339.14L2211.84 1403.87C2211.84 1403.87 2172.8 1282.38 2191.78 1255.05C2211.76 1226.55 2228.39 1221.09 2264.7 1230.3Z" fill="#00D8FF"/>
<path opacity="0.2" d="M2262.51 1253.18L2281.64 1356.47L2243.07 1382.63L2262.51 1253.18Z" fill="black"/>
<path d="M1974.71 966.234C1933.33 972.246 1859.23 1172.52 2008.76 1265.98C2158.28 1359.44 2256.5 1253.25 2256.5 1253.25C2256.5 1253.25 2162.42 1149.8 2170.61 1082.34C2178.81 1014.88 2227.14 929.849 2113.77 901.506C2033.43 881.44 1929.35 900.803 1974.71 966.234Z" fill="#263238"/>
<path d="M2264.7 1230.3C2264.7 1230.3 2293.51 1240.45 2235.89 1594.93H1990.49C1994.62 1495.07 1994.7 1433.54 1947 1228.58C1981.33 1221.45 2016.14 1216.86 2051.15 1214.84C2088.25 1212.14 2125.48 1212.14 2162.57 1214.84C2210.44 1219.21 2264.7 1230.3 2264.7 1230.3Z" fill="#00D8FF"/>
<path opacity="0.2" d="M1967.6 1309.7C1989.86 1315.25 2010.39 1339.45 2007.89 1384.11C2006.54 1404.41 1999.44 1423.91 1987.44 1440.33C1983.53 1405.98 1976.9 1366.15 1966.51 1315.4L1967.6 1309.7Z" fill="black"/>
<path d="M2149.69 1293.39C2149.69 1293.39 2109.48 1326.49 2109.48 1361.71C2076.06 1337.27 2031.01 1270.59 2026.25 1227.96C2026.1 1226.24 2026.3 1224.51 2026.84 1222.86C2027.37 1221.22 2028.24 1219.71 2029.37 1218.41C2030.51 1217.11 2031.9 1216.06 2033.46 1215.31C2035.01 1214.56 2036.7 1214.14 2038.43 1214.06C2041.42 1213.89 2044.4 1213.5 2047.33 1212.89C2048.58 1212.62 2049.88 1212.64 2051.13 1212.95C2052.37 1213.27 2053.53 1213.86 2054.51 1214.68L2149.69 1293.39Z" fill="#FAFAFA"/>
<path d="M2149.69 1293.39C2161.41 1300.36 2171.4 1309.89 2178.93 1321.25C2186.46 1332.62 2191.33 1345.54 2193.18 1359.05C2226.99 1334.3 2209.73 1260.28 2190.91 1224.05C2189.44 1221.23 2187.29 1218.82 2184.66 1217.02C2182.04 1215.22 2179.01 1214.1 2175.84 1213.75C2170.85 1213.12 2167.1 1212.5 2164.6 1211.95C2164.15 1211.86 2163.68 1211.87 2163.23 1211.97C2162.78 1212.06 2162.35 1212.26 2161.98 1212.53C2161.61 1212.8 2161.29 1213.14 2161.06 1213.54C2160.82 1213.94 2160.67 1214.38 2160.62 1214.84L2149.69 1293.39Z" fill="#FAFAFA"/>
<path d="M2062.24 1089.36C2069.26 1125.2 2076.29 1190.87 2051.15 1214.84C2078.38 1247.38 2111.89 1274.09 2149.68 1293.38C2199.42 1253.72 2162.57 1214.84 2162.57 1214.84C2122.59 1205.31 2123.53 1175.8 2130.63 1147.77L2062.24 1089.36Z" fill="#FF8B7B"/>
<path opacity="0.2" d="M2090.11 1113.18L2130.56 1147.77C2128.85 1154.24 2127.7 1160.85 2127.12 1167.52C2111.89 1165.34 2088.08 1152.3 2084.57 1135.67C2084.53 1127.83 2086.44 1120.1 2090.11 1113.18Z" fill="black"/>
<path d="M2002.12 1031.82C2018.67 1089.44 2024.45 1114.12 2060.68 1137.62C2115.33 1172.83 2182.25 1139.88 2183.18 1078.43C2184.04 1023.15 2156.79 937.892 2094.49 927.663C2080.74 925.277 2066.62 926.443 2053.45 931.052C2040.29 935.66 2028.52 943.557 2019.27 953.992C2010.01 964.428 2003.58 977.057 2000.58 990.678C1997.58 1004.3 1998.11 1018.46 2002.12 1031.82Z" fill="#FF8B7B"/>
<path d="M2022.27 1083.74C2057.01 1048.3 2055.29 1004.57 2044.99 990.908C2076.69 988.253 2157.81 968.186 2142.43 937.501C2127.05 906.816 1997.59 890.107 1985.26 968.733C1945.04 1004.26 1977.06 1075.7 2022.27 1083.74Z" fill="#263238"/>
<path d="M2098.7 1026.59C2099.8 1031.35 2103.15 1034.4 2106.51 1033.93C2109.87 1033.46 2111.27 1028.85 2110.26 1024.09C2109.24 1019.33 2105.81 1016.28 2102.45 1016.75C2099.09 1017.22 2097.69 1021.83 2098.7 1026.59Z" fill="#263238"/>
<path d="M2152.5 1015.03C2153.59 1019.79 2156.95 1022.84 2160.31 1022.37C2163.67 1021.9 2165.07 1017.3 2163.98 1012.53C2162.89 1007.77 2159.53 1004.73 2156.17 1005.12C2152.81 1005.51 2151.49 1009.88 2152.5 1015.03Z" fill="#263238"/>
<path d="M2155 1005.35L2165.69 999.496C2165.69 999.496 2161.71 1009.72 2155 1005.35Z" fill="#263238"/>
<path d="M2137.82 1026.9C2144.38 1036.78 2152.26 1045.71 2161.24 1053.45C2159.21 1055.72 2156.7 1057.52 2153.89 1058.72C2151.09 1059.92 2148.05 1060.49 2145 1060.4L2137.82 1026.9Z" fill="#FF5652"/>
<path d="M2123.77 1084.84C2126.18 1084.67 2128.58 1084.33 2130.95 1083.82C2131.32 1083.73 2131.64 1083.5 2131.84 1083.18C2132.04 1082.86 2132.12 1082.48 2132.04 1082.1C2131.95 1081.74 2131.72 1081.42 2131.4 1081.22C2131.08 1081.01 2130.7 1080.94 2130.33 1081.01C2124.44 1082.44 2118.29 1082.48 2112.38 1081.13C2106.47 1079.77 2100.96 1077.06 2096.28 1073.2C2096.01 1072.94 2095.65 1072.8 2095.27 1072.8C2094.89 1072.8 2094.53 1072.94 2094.25 1073.2C2094.12 1073.33 2094.01 1073.49 2093.93 1073.67C2093.86 1073.84 2093.82 1074.03 2093.82 1074.22C2093.82 1074.41 2093.86 1074.59 2093.93 1074.77C2094.01 1074.94 2094.12 1075.1 2094.25 1075.23C2098.29 1078.72 2102.97 1081.36 2108.04 1083.01C2113.11 1084.66 2118.46 1085.28 2123.77 1084.84Z" fill="#263238"/>
<path d="M1998.29 1089.29C2001.51 1094.04 2005.64 1098.1 2010.44 1101.25C2015.24 1104.4 2020.61 1106.57 2026.24 1107.64C2041.39 1110.45 2047.56 1096.63 2041.86 1083.04C2037.02 1070.86 2023.36 1054.78 2008.75 1058.06C2005.6 1058.9 2002.71 1060.51 2000.33 1062.75C1997.96 1064.98 1996.17 1067.77 1995.14 1070.86C1994.1 1073.96 1993.85 1077.26 1994.4 1080.47C1994.95 1083.69 1996.29 1086.72 1998.29 1089.29Z" fill="#FF8B7B"/>
<path d="M2072.39 1016.12C2072.98 1016.05 2073.54 1015.79 2073.97 1015.39C2074.41 1014.98 2074.7 1014.45 2074.81 1013.86C2076.22 1009.4 2078.54 1005.28 2081.61 1001.76C2084.69 998.241 2088.46 995.396 2092.69 993.404C2093.04 993.253 2093.36 993.032 2093.62 992.755C2093.88 992.478 2094.09 992.15 2094.22 991.793C2094.35 991.435 2094.41 991.054 2094.39 990.673C2094.37 990.292 2094.27 989.92 2094.1 989.578C2093.94 989.235 2093.71 988.927 2093.43 988.673C2093.15 988.419 2092.83 988.225 2092.47 988.101C2092.11 987.977 2091.73 987.926 2091.36 987.952C2090.98 987.978 2090.61 988.079 2090.27 988.251C2085.2 990.602 2080.7 994.015 2077.06 998.258C2073.42 1002.5 2070.74 1007.48 2069.19 1012.85C2069.12 1013.21 2069.13 1013.58 2069.21 1013.95C2069.28 1014.31 2069.43 1014.65 2069.64 1014.96C2069.85 1015.26 2070.12 1015.52 2070.43 1015.72C2070.74 1015.92 2071.09 1016.06 2071.46 1016.12C2071.76 1016.2 2072.09 1016.2 2072.39 1016.12Z" fill="#263238"/>
<path d="M2162.81 976.54C2163.45 976.613 2164.1 976.463 2164.64 976.114C2165.19 975.765 2165.59 975.238 2165.8 974.624C2166 974.009 2165.98 973.343 2165.75 972.739C2165.52 972.135 2165.08 971.63 2164.52 971.308C2160.79 968.703 2156.49 967.037 2151.97 966.453C2147.46 965.868 2142.87 966.382 2138.6 967.951C2137.91 968.259 2137.37 968.823 2137.1 969.523C2136.82 970.223 2136.83 971.004 2137.12 971.698C2137.26 972.045 2137.47 972.36 2137.74 972.623C2138.01 972.887 2138.33 973.094 2138.68 973.232C2139.03 973.37 2139.4 973.437 2139.78 973.429C2140.15 973.42 2140.52 973.336 2140.87 973.182C2144.27 971.993 2147.91 971.635 2151.48 972.138C2155.05 972.64 2158.45 973.989 2161.4 976.071C2161.81 976.375 2162.3 976.54 2162.81 976.54Z" fill="#263238"/>
<path d="M2101.12 1017.3L2111.82 1011.44C2111.82 1011.44 2108.15 1021.67 2101.12 1017.3Z" fill="#263238"/>
<path d="M1986.82 1580.57L1980.49 1602.51C1979.71 1604.22 1981.66 1605.94 1984.55 1605.94H2237.06C2239.25 1605.94 2241.12 1604.85 2241.28 1603.52L2243.47 1581.5C2243.47 1580.02 2241.67 1578.69 2239.25 1578.69H1991.03C1990.23 1578.59 1989.41 1578.71 1988.66 1579.04C1987.92 1579.37 1987.28 1579.9 1986.82 1580.57Z" fill="#00D8FF"/>
<path opacity="0.2" d="M1986.82 1580.57L1980.49 1602.51C1979.71 1604.22 1981.66 1605.94 1984.55 1605.94H2237.06C2239.25 1605.94 2241.12 1604.85 2241.28 1603.52L2243.47 1581.5C2243.47 1580.02 2241.67 1578.69 2239.25 1578.69H1991.03C1990.23 1578.59 1989.41 1578.71 1988.66 1579.04C1987.92 1579.37 1987.28 1579.9 1986.82 1580.57Z" fill="white"/>
<path d="M2021.01 1608.44H2014.46C2013.13 1608.44 2012.11 1607.74 2012.19 1606.88L2015.31 1578.38C2015.31 1577.52 2016.56 1576.82 2017.89 1576.82H2024.53C2025.86 1576.82 2026.87 1577.52 2026.79 1578.38L2023.67 1606.88C2023.51 1607.66 2022.26 1608.44 2021.01 1608.44Z" fill="#00D8FF"/>
<path opacity="0.4" d="M2021.01 1608.44H2014.46C2013.13 1608.44 2012.11 1607.74 2012.19 1606.88L2015.31 1578.38C2015.31 1577.52 2016.56 1576.82 2017.89 1576.82H2024.53C2025.86 1576.82 2026.87 1577.52 2026.79 1578.38L2023.67 1606.88C2023.51 1607.66 2022.26 1608.44 2021.01 1608.44Z" fill="black"/>
<path d="M2218.4 1608.44H2211.68C2210.36 1608.44 2209.34 1607.74 2209.5 1606.88L2212.62 1578.38C2212.62 1577.52 2213.87 1576.82 2215.2 1576.82H2221.83C2223.16 1576.82 2224.18 1577.52 2224.1 1578.38L2220.97 1606.88C2220.77 1607.38 2220.41 1607.81 2219.95 1608.09C2219.48 1608.37 2218.94 1608.49 2218.4 1608.44Z" fill="#00D8FF"/>
<path opacity="0.4" d="M2218.4 1608.44H2211.68C2210.36 1608.44 2209.34 1607.74 2209.5 1606.88L2212.62 1578.38C2212.62 1577.52 2213.87 1576.82 2215.2 1576.82H2221.83C2223.16 1576.82 2224.18 1577.52 2224.1 1578.38L2220.97 1606.88C2220.77 1607.38 2220.41 1607.81 2219.95 1608.09C2219.48 1608.37 2218.94 1608.49 2218.4 1608.44Z" fill="black"/>
<path d="M2120.1 1608.44H2113.46C2112.14 1608.44 2111.12 1607.74 2111.2 1606.88L2114.32 1578.38C2114.32 1577.52 2115.57 1576.82 2116.9 1576.82H2123.77C2125.1 1576.82 2126.11 1577.52 2126.03 1578.38L2122.91 1606.88C2122.6 1607.66 2121.43 1608.44 2120.1 1608.44Z" fill="#00D8FF"/>
<path opacity="0.4" d="M2120.1 1608.44H2113.46C2112.14 1608.44 2111.12 1607.74 2111.2 1606.88L2114.32 1578.38C2114.32 1577.52 2115.57 1576.82 2116.9 1576.82H2123.77C2125.1 1576.82 2126.11 1577.52 2126.03 1578.38L2122.91 1606.88C2122.6 1607.66 2121.43 1608.44 2120.1 1608.44Z" fill="black"/>
<path d="M1979.79 1308.3C1977.76 1329.07 1975.18 1349.84 1972.92 1370.76L1965.11 1433.23C1962.61 1453.92 1959.33 1474.61 1956.52 1495.69L1952.07 1526.92L1950.67 1536.76C1950.75 1538.29 1951.18 1539.79 1951.91 1541.13C1955.31 1547.11 1959.79 1552.4 1965.11 1556.75C1972.06 1562.49 1979.42 1567.71 1987.13 1572.37C2003.97 1582.62 2021.47 1591.75 2039.52 1599.69C2057.95 1608.05 2076.92 1615.31 2096.21 1622.57C2115.49 1629.83 2135.25 1636.47 2154.37 1642.79L2147.5 1672.62C2105.22 1665.8 2063.56 1655.51 2022.97 1641.86C2001.96 1634.98 1981.54 1626.42 1961.91 1616.25C1951.4 1610.78 1941.37 1604.43 1931.93 1597.27C1920.6 1589.02 1911.04 1578.59 1903.82 1566.59C1899.56 1558.73 1896.91 1550.1 1896.01 1541.21C1896.01 1538.79 1895.62 1536.37 1896.01 1533.95C1896.4 1531.53 1896.01 1528.48 1896.4 1527.7L1897.1 1519.9L1899.76 1488.66C1901.71 1467.89 1903.19 1447.05 1905.46 1426.2L1911.78 1363.74C1914.28 1342.97 1916.39 1322.2 1919.12 1301.27L1979.79 1308.3Z" fill="#FF8B7B"/>
<path d="M1947 1228.58C1922.4 1236.39 1892.89 1320.71 1892.89 1320.71L1978.77 1409.26C1978.77 1409.26 2022.89 1318.21 2012.5 1286.44C2001.96 1253.33 1975.42 1219.99 1947 1228.58Z" fill="#00D8FF"/>
</g>
<path opacity="0.2" d="M1737.43 1309.08C1717.4 1234.72 1719.86 1156.09 1744.52 1083.13C1769.17 1010.18 1814.91 946.168 1875.94 899.204C1936.98 852.239 2010.56 824.426 2087.4 819.283C2164.24 814.141 2240.88 831.898 2307.63 870.311C2374.38 908.723 2428.23 966.066 2462.39 1035.09C2496.55 1104.11 2509.47 1181.71 2499.53 1258.07C2489.59 1334.44 2457.22 1406.14 2406.53 1464.12C2355.83 1522.09 2289.09 1563.73 2214.73 1583.77C2165.35 1597.07 2113.84 1600.52 2063.13 1593.92C2012.42 1587.32 1963.51 1570.79 1919.18 1545.28C1874.86 1519.78 1836 1485.79 1804.81 1445.26C1773.63 1404.73 1750.73 1358.46 1737.43 1309.08Z" fill="#00D8FF"/>
<path opacity="0.2" d="M2395.64 939.451L2074.97 1595.32C2102.47 1598.13 2130.2 1597.89 2157.65 1594.62L2446 1005.12C2431.62 981.479 2414.74 959.464 2395.64 939.451ZM2489.33 1106.38L2487.23 1098.58L2256.97 1569.55C2345.77 1534.29 2418.51 1467.62 2461.36 1382.22C2504.2 1296.82 2514.16 1198.65 2489.33 1106.38ZM2012.03 831.78C1944.07 850.101 1882.33 886.501 1833.4 937.11C1784.47 987.718 1750.18 1050.64 1734.16 1119.19C1718.14 1187.74 1721 1259.34 1742.43 1326.4C1763.86 1393.45 1803.07 1453.44 1855.87 1499.98L2186.23 825.143C2128.41 814.096 2068.84 816.366 2012.03 831.78Z" fill="white"/>
<path d="M1675.27 1165.49L1667.46 1164.71C1668.71 1151.36 1670.67 1137.93 1673.16 1124.81L1680.97 1126.3C1678.71 1139.18 1676.6 1152.37 1675.27 1165.49ZM1690.42 1086.24L1682.61 1084.06C1692.9 1049.27 1707.31 1015.85 1725.56 984.504L1732.35 988.408C1714.51 1019.23 1700.44 1052.07 1690.42 1086.24Z" fill="#00D8FF"/>
<path d="M2519.31 1098.34C2497.68 1018.07 2452.74 946.016 2390.16 891.286C2327.58 836.555 2250.18 801.609 2167.74 790.865C2085.3 780.121 2001.53 794.062 1927.01 830.925C1852.5 867.788 1790.58 925.918 1749.1 997.965C1707.62 1070.01 1688.43 1152.74 1693.96 1235.69C1699.5 1318.64 1729.5 1398.09 1780.18 1463.99C1830.86 1529.89 1899.95 1579.29 1978.7 1605.93C2057.45 1632.57 2142.33 1635.26 2222.61 1613.67C2275.94 1599.32 2325.91 1574.61 2369.69 1540.95C2413.46 1507.29 2450.17 1465.33 2477.72 1417.47C2505.28 1369.62 2523.13 1316.8 2530.27 1262.05C2537.4 1207.29 2533.68 1151.66 2519.31 1098.34ZM1737.43 1309.16C1717.39 1234.8 1719.86 1156.17 1744.52 1083.21C1769.17 1010.25 1814.91 946.246 1875.94 899.281C1936.97 852.316 2010.56 824.504 2087.4 819.361C2164.24 814.218 2240.88 831.975 2307.63 870.388C2374.37 908.801 2428.23 966.143 2462.39 1035.16C2496.55 1104.19 2509.47 1181.79 2499.53 1258.15C2489.58 1334.52 2457.22 1406.22 2406.52 1464.19C2355.83 1522.17 2289.08 1563.8 2214.73 1583.84C2165.34 1597.15 2113.83 1600.59 2063.11 1593.99C2012.4 1587.38 1963.48 1570.85 1919.16 1545.33C1874.84 1519.82 1835.98 1485.82 1804.79 1445.28C1773.61 1404.75 1750.72 1358.47 1737.43 1309.08V1309.16Z" fill="#00D8FF"/>
<path d="M1743.67 1373.49C1743.67 1391.37 1739.06 1393.72 1734.14 1394.26L1720.01 1398.01L1691.67 1405.82L1634.98 1420.81L1521.38 1449.93C1445.54 1468.99 1369.59 1487.54 1293.54 1505.6L1065.39 1560.26L951.475 1587.9C913.528 1597.35 875.425 1606.09 837.869 1617.02C834.06 1618.14 830.068 1618.5 826.121 1618.07C822.174 1617.65 818.349 1616.45 814.865 1614.55C811.382 1612.64 808.307 1610.07 805.817 1606.98C803.326 1603.89 801.469 1600.34 800.352 1596.53C799.234 1592.72 798.878 1588.73 799.303 1584.78C799.728 1580.83 800.926 1577.01 802.83 1573.52C804.733 1570.04 807.304 1566.97 810.395 1564.48C813.487 1561.99 817.038 1560.13 820.848 1559.01H822.097C860.122 1549.64 897.444 1538.01 934.922 1527.15L1047.36 1493.81L1271.99 1426.2C1346.9 1403.56 1421.88 1381.41 1496.94 1359.75L1609.76 1327.35L1666.29 1311.73L1694.56 1303.93L1708.69 1300.02C1713.22 1298.07 1718.22 1297.84 1727.43 1313.22C1738.26 1331.44 1743.88 1352.29 1743.67 1373.49Z" fill="#00D8FF"/>
<path d="M1252.4 790.944C1252.4 795.551 1254.82 799.299 1257.86 799.299C1260.91 799.299 1263.33 795.551 1263.33 790.944C1263.33 786.338 1260.91 782.512 1257.86 782.512C1254.82 782.512 1252.4 786.26 1252.4 790.944Z" fill="#263238"/>
<path d="M1254.42 799.301C1259.91 813.445 1267.32 826.765 1276.44 838.887C1273.28 841.147 1269.67 842.688 1265.85 843.403C1262.03 844.118 1258.11 843.989 1254.34 843.025L1254.42 799.301Z" fill="#630F0F"/>
<path d="M1236 765.182C1235.43 765.166 1234.88 764.974 1234.43 764.632C1233.98 764.291 1233.64 763.817 1233.47 763.277C1233.3 762.736 1233.3 762.156 1233.47 761.615C1233.65 761.075 1233.98 760.603 1234.44 760.262C1237.89 757.677 1241.9 755.946 1246.15 755.213C1250.4 754.48 1254.76 754.766 1258.88 756.046C1259.55 756.308 1260.09 756.824 1260.38 757.482C1260.67 758.14 1260.69 758.887 1260.44 759.56C1260.18 760.23 1259.66 760.771 1259 761.063C1258.35 761.355 1257.6 761.376 1256.93 761.121C1253.65 760.146 1250.19 759.957 1246.82 760.567C1243.46 761.177 1240.29 762.571 1237.56 764.635C1237.12 764.995 1236.57 765.188 1236 765.182Z" fill="#263238"/>
<path d="M1103.42 820.852C1107.56 866.06 1108.1 948.277 1076.17 975.215C1076.17 975.215 1083.43 1021.36 1161.04 1028.54C1246.38 1036.35 1206.01 987.239 1206.01 987.239C1160.49 971.076 1165.1 934.379 1176.42 900.649L1103.42 820.852Z" fill="#7F3E3B"/>
<path d="M978.572 2672.74C971.857 2675.55 956.476 2668.76 951.557 2665.87C951.332 2665.75 951.15 2665.57 951.038 2665.35C950.925 2665.12 950.888 2664.86 950.932 2664.62C950.952 2664.35 951.052 2664.1 951.219 2663.89C951.386 2663.68 951.613 2663.52 951.869 2663.45C952.65 2663.45 970.92 2657.36 978.338 2661.65C979.153 2662.09 979.863 2662.7 980.416 2663.44C980.969 2664.18 981.352 2665.04 981.539 2665.94C981.929 2667.03 981.966 2668.21 981.643 2669.32C981.321 2670.43 980.656 2671.41 979.743 2672.11C979.379 2672.37 978.986 2672.58 978.572 2672.74ZM955.851 2664.93C963.659 2668.83 974.824 2672.11 978.104 2669.77C978.104 2669.77 979.431 2668.83 978.885 2666.33C978.77 2665.81 978.544 2665.31 978.22 2664.88C977.897 2664.45 977.484 2664.09 977.011 2663.84C969.987 2662.18 962.631 2662.61 955.851 2665.09V2664.93Z" fill="#00D8FF"/>
<path d="M956.549 2664.78C955.263 2665.32 953.93 2665.73 952.567 2666.03C952.333 2666.11 952.078 2666.12 951.839 2666.05C951.601 2665.98 951.391 2665.83 951.239 2665.64C951.123 2665.42 951.062 2665.18 951.062 2664.93C951.063 2664.69 951.123 2664.45 951.239 2664.23C951.239 2663.61 957.564 2648.15 965.528 2644.87C966.473 2644.44 967.498 2644.22 968.534 2644.22C969.57 2644.22 970.595 2644.44 971.54 2644.87C972.523 2645.14 973.377 2645.75 973.949 2646.6C974.521 2647.44 974.774 2648.46 974.663 2649.47C973.883 2654.7 963.81 2661.73 956.549 2664.78ZM954.675 2662.59C961.702 2659.94 971.306 2653.06 971.774 2649.24C971.774 2648.85 971.774 2648.07 970.213 2647.29C969.603 2647 968.936 2646.84 968.261 2646.84C967.585 2646.84 966.918 2647 966.309 2647.29C961.234 2649.47 956.705 2658.14 954.675 2662.51V2662.59Z" fill="#00D8FF"/>
<path d="M1333.28 2764.87C1327.39 2764.85 1321.52 2764.33 1315.72 2763.31C1315.45 2763.26 1315.2 2763.12 1315.01 2762.93C1314.81 2762.74 1314.68 2762.49 1314.62 2762.22C1314.56 2761.94 1314.6 2761.65 1314.73 2761.39C1314.85 2761.14 1315.07 2760.93 1315.33 2760.81C1316.18 2760.27 1336.17 2748.87 1345.78 2751.44C1347.57 2751.9 1349.12 2753.05 1350.07 2754.65C1350.68 2755.51 1351.01 2756.55 1351.01 2757.61C1351.01 2758.68 1350.68 2759.71 1350.07 2760.58C1347.81 2764.02 1340.7 2764.87 1333.28 2764.87ZM1320.09 2761.28C1330.79 2762.77 1345.31 2762.69 1347.96 2759.02C1347.96 2758.55 1348.67 2757.69 1347.96 2755.97C1347.68 2755.49 1347.29 2755.08 1346.84 2754.75C1346.38 2754.43 1345.86 2754.21 1345.31 2754.1C1339.14 2752.46 1327.35 2757.69 1320.09 2761.28Z" fill="#00D8FF"/>
<path d="M1315.96 2763.31C1315.7 2763.38 1315.43 2763.38 1315.17 2763.31C1314.98 2763.17 1314.82 2762.98 1314.73 2762.76C1314.63 2762.54 1314.6 2762.3 1314.63 2762.06C1314.63 2761.44 1316.27 2745.98 1323.53 2739.97C1324.61 2739.07 1325.85 2738.4 1327.19 2738C1328.54 2737.59 1329.94 2737.47 1331.34 2737.62C1335.01 2738.01 1336.1 2739.89 1336.33 2741.45C1337.43 2747.93 1323.69 2760.34 1316.81 2763.47L1315.96 2763.31ZM1330.01 2739.89C1328.27 2739.94 1326.59 2740.57 1325.25 2741.68C1320.91 2746.64 1318.19 2752.79 1317.44 2759.33C1324.54 2755.11 1333.84 2745.35 1333.05 2741.45C1333.05 2741.45 1333.05 2740.2 1330.4 2739.97L1330.01 2739.89Z" fill="#00D8FF"/>
<path d="M1252.94 2761.98H1310.25L1315.95 2629.17H1258.64L1252.94 2761.98Z" fill="#7F3E3B"/>
<path d="M887.531 2652.36L943.905 2662.98L1007.38 2539.69L951.01 2529.15L887.531 2652.36Z" fill="#7F3E3B"/>
<path d="M950.073 2657.13L888.39 2638.54C887.304 2638.22 886.141 2638.28 885.091 2638.7C884.041 2639.13 883.167 2639.9 882.612 2640.88L857.002 2686.48C856.391 2687.6 856.04 2688.84 855.976 2690.11C855.911 2691.38 856.136 2692.65 856.631 2693.82C857.127 2694.99 857.881 2696.04 858.838 2696.88C859.795 2697.71 860.929 2698.33 862.155 2698.66C883.783 2704.75 894.636 2706.47 921.73 2714.83C938.439 2719.82 982.32 2738.25 1005.43 2745.04C1028.54 2751.84 1038.3 2730.05 1029.48 2725.13C989.971 2703.19 967.875 2679.46 957.959 2663.22C956.185 2660.27 953.371 2658.1 950.073 2657.13Z" fill="#263238"/>
<path d="M1309.86 2755.35H1247.4C1246.27 2755.34 1245.17 2755.73 1244.29 2756.44C1243.4 2757.15 1242.79 2758.14 1242.56 2759.25L1231.24 2810.24C1230.95 2811.46 1230.95 2812.74 1231.23 2813.96C1231.51 2815.19 1232.07 2816.33 1232.86 2817.31C1233.65 2818.29 1234.65 2819.08 1235.79 2819.61C1236.93 2820.14 1238.18 2820.41 1239.44 2820.39C1262.08 2820.39 1294.72 2818.75 1323.14 2818.75C1356.32 2818.75 1384.98 2820.54 1423.94 2820.54C1447.36 2820.54 1454 2796.73 1444.16 2794.54C1399.27 2784.78 1362.65 2783.69 1323.84 2759.8C1319.69 2757.04 1314.85 2755.49 1309.86 2755.35Z" fill="#263238"/>
<path d="M968.186 989.812C918.371 1013.24 897.914 1173.77 897.914 1173.77L1012.3 1218.66C1030.05 1175.2 1044.41 1130.43 1055.24 1084.76C1071.64 1012.3 1019.33 965.452 968.186 989.812Z" fill="#00D8FF"/>
<path opacity="0.3" d="M968.186 989.812C918.371 1013.24 897.914 1173.77 897.914 1173.77L1012.3 1218.66C1030.05 1175.2 1044.41 1130.43 1055.24 1084.76C1071.64 1012.3 1019.33 965.452 968.186 989.812Z" fill="black"/>
<path opacity="0.2" d="M1042.59 1036.9C1046.49 1035 1050.57 1033.51 1054.77 1032.45C1059.34 1049.56 1059.5 1067.56 1055.24 1084.76C1044.4 1130.44 1030.05 1175.2 1012.3 1218.66L974.586 1203.91C981.535 1161.98 1002.85 1055.95 1042.59 1036.9Z" fill="black"/>
<path d="M1300.18 988.565C1300.18 988.565 1361.24 1057.51 1303.54 1484.37H996.763C994.655 1437.52 1024.25 1207.5 978.805 985.598C1012.74 979.071 1047.06 974.742 1081.56 972.637C1124.99 970.137 1168.52 970.137 1211.95 972.637C1241.73 975.637 1271.23 980.963 1300.18 988.565Z" fill="#00D8FF"/>
<path opacity="0.3" d="M1300.18 988.565C1300.18 988.565 1361.24 1057.51 1303.54 1484.37H996.763C994.655 1437.52 1024.25 1207.5 978.805 985.598C1012.74 979.071 1047.06 974.742 1081.56 972.637C1124.99 970.137 1168.52 970.137 1211.95 972.637C1241.73 975.637 1271.23 980.963 1300.18 988.565Z" fill="black"/>
<path opacity="0.2" d="M1238.42 1080.07C1252.32 1038.38 1285.73 1025.03 1319.78 1049.78C1326.65 1090.22 1331.49 1155.42 1325.94 1258.8L1266.06 1258.25C1266.06 1258.25 1218.04 1142.15 1238.42 1080.07Z" fill="black"/>
<path d="M1335.63 1051.57C1338.59 1069.45 1341.87 1088.97 1345.54 1107.56C1349.21 1126.14 1353.35 1145.04 1357.72 1163.46C1365.81 1199.71 1376.8 1235.25 1390.59 1269.73C1394.11 1277.54 1397.7 1285.81 1401.68 1293.15L1406.76 1302.37C1408.03 1304.44 1409.53 1306.38 1411.21 1308.14C1422.83 1319.17 1435.98 1328.48 1450.25 1335.78C1483.96 1353.31 1518.72 1368.75 1554.33 1382.01L1545.82 1424.17C1503.82 1421.26 1462.39 1412.81 1422.61 1399.03C1411.92 1395.31 1401.49 1390.9 1391.37 1385.83C1380.3 1380.18 1369.83 1373.4 1360.14 1365.61C1354.44 1360.92 1349.21 1355.69 1344.53 1349.99L1340.78 1345.07L1338.36 1341.41C1336.72 1338.98 1335.08 1336.56 1333.6 1334.14C1327.51 1324.38 1322.12 1314.62 1317.12 1304.79C1298.84 1266.55 1284.35 1226.62 1273.86 1185.56C1268.63 1165.49 1263.79 1145.5 1259.89 1125.28C1255.98 1105.06 1252.08 1085.3 1249.74 1063.75L1335.63 1051.57Z" fill="#7F3E3B"/>
<path d="M1223.5 1030.65C1207.34 1083.04 1272.93 1239.2 1272.93 1239.2L1411.05 1204.46C1402.6 1155.1 1388.36 1106.9 1368.65 1060.87C1323.84 963.425 1242.95 967.485 1223.5 1030.65Z" fill="#00D8FF"/>
<path opacity="0.3" d="M1223.5 1030.65C1207.34 1083.04 1272.93 1239.2 1272.93 1239.2L1411.05 1204.46C1402.6 1155.1 1388.36 1106.9 1368.65 1060.87C1323.84 963.425 1242.95 967.485 1223.5 1030.65Z" fill="black"/>
<path d="M1555.19 1382.01L1614.45 1408.63L1556.99 1456.03C1556.99 1456.03 1531.69 1447.75 1527.55 1406.21L1518.73 1371.7L1544.73 1378.34C1548.32 1379.24 1551.82 1380.47 1555.19 1382.01Z" fill="#7F3E3B"/>
<path d="M1645.91 1437.37L1588.21 1471.8L1556.98 1455.71L1614.37 1408.32L1645.91 1437.37Z" fill="#7F3E3B"/>
<path d="M1238.03 967.564C1213.28 946.638 1153.16 931.569 1085.85 927.821C1047.36 925.713 1007.77 932.038 991.296 939.377C974.821 946.716 994.341 999.732 1015.89 1000.9C1004.49 1018.86 1021.04 1053.53 1045.8 1060.32C1041.89 1090.3 1117.47 1093.12 1162.92 1068.91C1199.61 1049.63 1267.7 992.627 1238.03 967.564Z" fill="#263238"/>
<path opacity="0.2" d="M1315.95 2629.17L1313.06 2697.65H1255.68L1258.56 2629.17H1315.95Z" fill="black"/>
<path opacity="0.2" d="M950.93 2529.15L1007.38 2539.77L974.666 2603.25L918.215 2592.63L950.93 2529.15Z" fill="black"/>
<path d="M1098.11 780.797C1101.54 837.639 1100.61 871.057 1129.34 900.259C1172.44 944.14 1242.63 918.217 1256.22 861.219C1268.48 810.155 1260.75 725.83 1205.16 703.108C1192.9 698.038 1179.54 696.194 1166.37 697.753C1153.2 699.312 1140.64 704.222 1129.9 712.014C1119.17 719.806 1110.61 730.22 1105.04 742.261C1099.48 754.303 1097.09 767.571 1098.11 780.797Z" fill="#7F3E3B"/>
<path d="M1204.46 812.496C1225.93 790.79 1261.22 743.474 1248.88 707.948C1230.69 655.4 1176.43 673.202 1185.09 683.665C1153.86 663.052 1090.77 662.037 1103.97 689.677C1047.2 697.485 1042.6 720.518 1058.37 729.185C1017.92 767.756 1019.88 807.655 1050.56 804.688C1027.14 828.112 1070.24 874.491 1118.41 896.588C1134.81 853.644 1222.57 845.836 1204.46 812.496Z" fill="#263238"/>
<path d="M1179.55 833.03C1179.19 833.134 1178.81 833.134 1178.46 833.03C1178.24 832.882 1178.06 832.694 1177.93 832.476C1177.79 832.258 1177.69 832.015 1177.65 831.761C1177.61 831.507 1177.62 831.247 1177.67 830.996C1177.73 830.745 1177.84 830.507 1177.99 830.297C1190.32 812.183 1202.35 797.66 1212.97 784.855C1233.27 760.338 1247.95 742.614 1249.2 718.566C1249.49 708.713 1246.69 699.014 1241.21 690.826C1235.72 682.637 1227.81 676.366 1218.59 672.889C1204.07 666.33 1188.45 665.94 1182.28 672.03C1179 675.232 1178.69 679.838 1181.34 686.241C1181.46 686.469 1181.52 686.719 1181.53 686.974C1181.54 687.229 1181.5 687.483 1181.4 687.72C1181.31 687.956 1181.16 688.169 1180.98 688.345C1180.79 688.521 1180.57 688.655 1180.33 688.739C1180.09 688.843 1179.84 688.898 1179.58 688.903C1179.32 688.908 1179.07 688.862 1178.83 688.768C1178.59 688.674 1178.37 688.533 1178.19 688.354C1178 688.175 1177.85 687.961 1177.75 687.724C1176.03 684.855 1175.27 681.507 1175.6 678.175C1175.92 674.844 1177.31 671.704 1179.55 669.22C1186.89 662.036 1203.99 662.036 1220.23 669.22C1230.17 672.991 1238.68 679.775 1244.57 688.623C1250.47 697.471 1253.45 707.94 1253.1 718.566C1251.77 743.941 1236.78 762.056 1216.01 787.119C1205.39 799.924 1193.45 814.369 1181.19 832.406C1180.98 832.63 1180.73 832.804 1180.44 832.912C1180.16 833.021 1179.85 833.061 1179.55 833.03Z" fill="#263238"/>
<path d="M1182.36 806.092C1183.4 820.19 1189.05 833.553 1198.44 844.117C1210.94 857.859 1224.05 849.27 1226.24 832.561C1228.19 817.414 1224.13 792.038 1208.83 784.464C1193.53 776.891 1181.34 789.071 1182.36 806.092Z" fill="#7F3E3B"/>
<path d="M1194.62 1484.37C1194.62 1484.37 1213.98 1871.02 1176.27 2034.83C1116.54 2294.21 1002.31 2595.05 1002.31 2595.05L895.961 2574.98C895.961 2574.98 985.518 2273.75 1005.27 2057.79C1022.68 1863.84 996.918 1641.08 996.918 1484.37H1194.62Z" fill="#263238"/>
<path opacity="0.2" d="M1165.96 1598.91C1173.77 1583.84 1189 1628.74 1199.62 1686.36C1199.62 1765.84 1198.21 1856.26 1191.26 1932.86C1138.17 1834.87 1149.49 1630.14 1165.96 1598.91Z" fill="black"/>
<path d="M1028.38 2562.41C1028.85 2562.41 1011.75 2599.27 1011.75 2599.27L888.699 2575.29L902.129 2538.21L1028.38 2562.41Z" fill="#2C6BDB"/>
<path d="M1303.93 1484.37C1303.93 1484.37 1389.82 1850.49 1396.06 2025.46C1402.86 2221.68 1334.38 2684.37 1334.38 2684.37H1237.25C1237.25 2684.37 1225.3 2218.08 1220.93 2039.36C1216.25 1844.55 1101.94 1484.37 1101.94 1484.37H1303.93Z" fill="#263238"/>
<path d="M1353.12 2645.64C1353.59 2645.64 1347.65 2686.01 1347.65 2686.01H1229.44L1226.24 2650.02L1353.12 2645.64Z" fill="#2C6BDB"/>
</svg>
